<?xml version="1.0" encoding="utf-8"?>
<!-- Generator: Adobe Illustrator 25.0.1, SVG Export Plug-In . SVG Version: 6.00 Build 0)  -->
<svg version="1.1" id="レイヤー_1" xmlns="http://www.w3.org/2000/svg" xmlns:xlink="http://www.w3.org/1999/xlink" x="0px"
	 y="0px" viewBox="0 0 61 59" style="enable-background:new 0 0 61 59;" xml:space="preserve">
<style type="text/css">
	.st0{fill:#E8E8E8;}
	.st1{fill:#BAC2C7;}
</style>
<g>
	<path class="st0" d="M-27.4,23.3c-0.2-0.3-0.4-0.5-0.7-0.7c0-0.4,0-0.9-0.1-1.5c0.1-0.7,0.3-4.8-2.2-6.6c-1.5-1.1-3.2-1.7-4.9-1.7
		c-1.4,0-2.7,0.4-3.7,1.1c-0.9,0.6-1.4,1.3-1.7,1.8c-0.8,0-2.4,0.3-3.1,2.4c-0.7,1.9-0.1,3.1,0.3,3.7c0,0.3,0,0.6,0,0.8
		c-0.2,0.1-0.5,0.3-0.7,0.7c-0.4,0.7-0.5,1.6-0.2,2.7c0.6,2.1,1.8,2.6,2.5,2.7c0.4,0.8,1.4,2.6,2.3,3.4c0.4,0.3,0.9,0.6,1.4,0.9
		c0.7,0.3,1.5,0.4,2.3,0.4c0.8,0,1.6-0.1,2.3-0.4c0.6-0.2,1.1-0.5,1.4-0.9c0.9-0.9,1.9-2.6,2.3-3.4c0.7-0.1,2-0.6,2.5-2.7
		C-26.9,24.9-27,24-27.4,23.3L-27.4,23.3z M-28.8,25.6c-0.3,1.3-0.9,1.5-1.3,1.5c0,0,0,0-0.1,0c-0.4-0.1-0.7,0.1-0.9,0.5
		c-0.3,0.7-1.3,2.7-2.1,3.4c-0.2,0.2-0.5,0.4-0.9,0.6c-1.1,0.4-2.4,0.4-3.5,0c-0.4-0.2-0.7-0.3-0.9-0.6c-0.8-0.8-1.8-2.7-2.2-3.4
		c-0.1-0.3-0.4-0.5-0.7-0.5c-0.1,0-0.1,0-0.2,0c0,0,0,0-0.1,0c-0.3,0-0.9-0.2-1.3-1.5c-0.2-0.6-0.2-1.1,0-1.4
		c0.1-0.2,0.2-0.2,0.3-0.2c0.4,0,0.7-0.4,0.7-0.9c0,0,0-0.4,0-1c0.6-0.2,1.5-0.7,2.2-1.5c0.4-0.4,0.7-0.9,0.9-1.4
		c0.5,0.4,1.3,1,2.3,1.4c1.7,0.8,5.2,1.1,6.7,1.3c0.1,0.7,0,1.2,0,1.2c0,0.4,0.2,0.8,0.7,0.9c0,0,0.2,0.1,0.3,0.2
		C-28.6,24.5-28.6,25-28.8,25.6L-28.8,25.6z M-23.6,36.5l-7.1-2.8c-0.2-0.1-0.4-0.1-0.6,0c-0.2,0.1-0.4,0.3-0.4,0.5l-1.8,4.9l-0.4-1
		l0.6-1.4c0.1-0.2,0.1-0.5-0.1-0.8c-0.2-0.2-0.4-0.4-0.7-0.4h-3.5c-0.3,0-0.5,0.1-0.7,0.4c-0.2,0.2-0.2,0.5-0.1,0.8l0.6,1.4l-0.4,1
		l-1.8-4.9c-0.1-0.2-0.2-0.4-0.4-0.5c-0.2-0.1-0.4-0.1-0.6,0l-7.1,2.8c-2.2,0.9-3.6,3-3.6,5.3v5.7c0,0.4,0.4,0.8,0.8,0.8h30
		c0.4,0,0.8-0.4,0.8-0.8v-5.7C-20,39.4-21.4,37.3-23.6,36.5L-23.6,36.5z M-23.8,44.1c0,0.4-0.4,0.8-0.8,0.8h-5.5
		c-0.4,0-0.8-0.4-0.8-0.8v-2.5c0-0.4,0.4-0.8,0.8-0.8h5.5c0.4,0,0.8,0.4,0.8,0.8V44.1z"/>
</g>
<g>
	<path class="st1" d="M71.5,29.7h24.2c0.5,0,0.9-0.4,0.9-0.9V16c0-0.5-0.4-0.9-0.9-0.9H71.5c-0.5,0-0.9,0.4-0.9,0.9v12.8
		C70.6,29.3,71,29.7,71.5,29.7L71.5,29.7z M72.4,16.9h22.3v11H72.4V16.9z"/>
	<path class="st1" d="M83.6,17.2c-2.8,0-5.2,2.3-5.2,5.2c0,2.8,2.3,5.2,5.2,5.2c2.8,0,5.2-2.3,5.2-5.2
		C88.8,19.5,86.5,17.2,83.6,17.2L83.6,17.2z M83.6,25.7c-1.9,0-3.4-1.5-3.4-3.4c0-1.9,1.5-3.4,3.4-3.4c1.9,0,3.4,1.5,3.4,3.4
		C87,24.2,85.5,25.7,83.6,25.7L83.6,25.7z"/>
	<path class="st1" d="M84.8,22l-2-1.2c-0.1-0.1-0.3-0.1-0.4,0c-0.1,0.1-0.2,0.2-0.2,0.4v2.4c0,0.1,0.1,0.3,0.2,0.4
		c0.1,0,0.1,0.1,0.2,0.1c0.1,0,0.1,0,0.2-0.1l2-1.2c0.1-0.1,0.2-0.2,0.2-0.3C85,22.2,84.9,22.1,84.8,22L84.8,22z"/>
	<path class="st1" d="M86.5,36.7c0.5-0.6,0.8-1.5,0.8-2.4c0-2.1-1.7-3.7-3.7-3.7c-2.1,0-3.7,1.7-3.7,3.7c0,0.9,0.3,1.7,0.8,2.4
		c-0.9,0.8-1.5,2-1.5,3.3c0,0.5,0.4,0.9,0.9,0.9h7c0.5,0,0.9-0.4,0.9-0.9C88,38.7,87.5,37.5,86.5,36.7L86.5,36.7z M83.6,32.4
		c1.1,0,1.9,0.9,1.9,1.9c0,1.1-0.9,1.9-1.9,1.9c-1.1,0-1.9-0.9-1.9-1.9C81.7,33.2,82.5,32.4,83.6,32.4L83.6,32.4z M81.2,39.1
		c0.2-0.5,0.6-1,1.1-1.3c0.4,0.2,0.9,0.3,1.4,0.3c0.5,0,1-0.1,1.4-0.3c0.5,0.3,0.9,0.8,1.1,1.3H81.2z"/>
	<path class="st1" d="M95.7,36.7c0.5-0.6,0.8-1.5,0.8-2.4c0-2.1-1.7-3.7-3.7-3.7c-2.1,0-3.7,1.7-3.7,3.7c0,0.9,0.3,1.7,0.8,2.4
		c-0.9,0.8-1.5,2-1.5,3.3c0,0.5,0.4,0.9,0.9,0.9h7c0.5,0,0.9-0.4,0.9-0.9C97.2,38.7,96.7,37.5,95.7,36.7L95.7,36.7z M92.8,32.4
		c1.1,0,1.9,0.9,1.9,1.9c0,1.1-0.9,1.9-1.9,1.9c-1.1,0-1.9-0.9-1.9-1.9C90.9,33.2,91.7,32.4,92.8,32.4L92.8,32.4z M90.4,39.1
		c0.2-0.5,0.6-1,1.1-1.3c0.4,0.2,0.9,0.3,1.4,0.3c0.5,0,1-0.1,1.4-0.3c0.5,0.3,0.9,0.8,1.1,1.3H90.4z"/>
	<path class="st1" d="M77.3,36.7c0.5-0.6,0.8-1.5,0.8-2.4c0-2.1-1.7-3.7-3.7-3.7c-2.1,0-3.7,1.7-3.7,3.7c0,0.9,0.3,1.7,0.8,2.4
		c-0.9,0.8-1.5,2-1.5,3.3c0,0.5,0.4,0.9,0.9,0.9h7c0.5,0,0.9-0.4,0.9-0.9C78.8,38.7,78.2,37.5,77.3,36.7L77.3,36.7z M74.3,32.4
		c1.1,0,1.9,0.9,1.9,1.9c0,1.1-0.9,1.9-1.9,1.9c-1.1,0-1.9-0.9-1.9-1.9C72.4,33.2,73.3,32.4,74.3,32.4L74.3,32.4z M71.9,39.1
		c0.2-0.5,0.6-1,1.1-1.3c0.4,0.2,0.9,0.3,1.4,0.3c0.5,0,1-0.1,1.4-0.3c0.5,0.3,0.9,0.8,1.1,1.3H71.9z"/>
</g>
<g>
	<g>
		<path class="st0" d="M13.6,4.3c1.1-0.8,2.5-1.2,3.8-1c0.9,0.1,1.6,0.5,2.3,1c0,0-1.2,0.5-1.8,0.7c-0.2,0.1-0.3,0.1-0.3,0.3
			c0,0.2,0.1,0.3,0.2,0.4l4.8,1.8c0.2,0.1,0.5,0.1,0.7-0.1c0.2-0.2,0.3-0.4,0.3-0.7l-0.3-5.1c0-0.2-0.1-0.3-0.3-0.3
			c-0.2,0-0.3,0.1-0.4,0.2c-0.5,0.6-1.5,1.8-1.5,1.8c-1-0.9-2.2-1.5-3.6-1.7c-1.8-0.3-3.7,0.2-5.2,1.3c-0.4,0.3-0.5,0.9-0.2,1.3
			C12.7,4.5,13.2,4.6,13.6,4.3L13.6,4.3z"/>
	</g>
	<path class="st0" d="M17.2,15.2c0,3.7,3,8.1,6.9,8.1c3.9,0,6.9-4.3,6.9-8.1c0-3.8-3.1-6.9-6.9-6.9C20.3,8.3,17.2,11.4,17.2,15.2
		L17.2,15.2z M24.2,10.8c2.5,0,4.4,2,4.4,4.4c0,2.5-2,5.6-4.4,5.6c-2.4,0-4.4-3.1-4.4-5.6C19.7,12.8,21.7,10.8,24.2,10.8L24.2,10.8z
		"/>
	<path class="st0" d="M30.9,20c0,0.1,0,0.2,0,0.3c0,2.1-3.1,6.8-5.1,9.6l-0.8-4l0.8-0.8c0.1-0.2,0.1-0.4,0-0.5l-0.4-0.4
		c-0.1-0.1-0.3-0.2-0.4-0.2h-1.7c-0.2,0-0.3,0.1-0.4,0.2l-0.4,0.4c-0.1,0.2-0.1,0.4,0,0.5l0.8,0.8l-0.8,4c-2-2.9-5.1-7.6-5.1-9.6
		c0-0.1,0-0.2,0-0.3c-2.4,1.4-4,3.9-4,6.9v5.3c0,1.7,1.4,3.2,3.2,3.2h15.2c1.7,0,3.2-1.4,3.2-3.2v-5.3C34.9,24,33.3,21.4,30.9,20
		L30.9,20z"/>
	<path class="st0" d="M11.9,21.7c-2.9,0-5.3-2-5.3-4.4c0-0.3,0.1-0.7,0.2-1.1c-2.5,1-4.2,3.5-4.2,6.3v6.1c0,1.3,1,2.3,2.3,2.3h7.4
		v-4c0-2.2,0.8-4.2,2.2-5.8C13.7,21.4,12.8,21.7,11.9,21.7L11.9,21.7z"/>
	<path class="st0" d="M6.9,16c1.1,1.9,2.9,3.4,5,3.4c1.8,0,3.3-1,4.4-2.5c-0.1-0.6-0.2-1.2-0.2-1.7c0-1.7,0.6-3.4,1.5-4.7
		c-0.8-2.4-3.1-4.2-5.7-4.2c-3.3,0-6,2.7-6,6c0,0.9,0.2,1.9,0.6,2.8C6.6,15.4,6.7,15.7,6.9,16L6.9,16z M11.9,8.6
		c2.1,0,3.8,1.7,3.8,3.8c0,2.2-1.8,4.8-3.8,4.8c-2,0-3.8-2.6-3.8-4.8C8.1,10.3,9.8,8.6,11.9,8.6L11.9,8.6z"/>
</g>
<g>
	<path class="st0" d="M27.3,43.9h28.9c0.6,0,1.1-0.5,1.1-1.1V27.5c0-0.6-0.5-1.1-1.1-1.1H29.5l1.4,3c-0.6,0-1.4,1.3-1.4,1.9
		l-3.3-0.8v12.3C26.2,43.4,26.7,43.9,27.3,43.9L27.3,43.9z M28.4,28.6h26.7v13.1H28.4V28.6z"/>
	<path class="st0" d="M41.7,29c-3.4,0-6.2,2.8-6.2,6.2c0,3.4,2.8,6.2,6.2,6.2c3.4,0,6.2-2.8,6.2-6.2C47.9,31.8,45.2,29,41.7,29
		L41.7,29z M41.7,39.2c-2.2,0-4-1.8-4-4c0-2.2,1.8-4,4-4c2.2,0,4,1.8,4,4C45.8,37.4,44,39.2,41.7,39.2L41.7,39.2z"/>
	<path class="st0" d="M43.2,34.8l-2.4-1.5c-0.1-0.1-0.3-0.1-0.5,0c-0.2,0.1-0.2,0.2-0.2,0.4v2.9c0,0.2,0.1,0.3,0.2,0.4
		c0.1,0,0.2,0.1,0.2,0.1c0.1,0,0.2,0,0.3-0.1l2.4-1.5c0.1-0.1,0.2-0.2,0.2-0.4C43.4,35,43.3,34.9,43.2,34.8L43.2,34.8z"/>
	<path class="st0" d="M45.2,52.2c0.6-0.8,1-1.7,1-2.8c0-2.5-2-4.5-4.5-4.5c-2.5,0-4.5,2-4.5,4.5c0,1.1,0.4,2,1,2.8
		c-1.1,1-1.8,2.4-1.8,4c0,0.6,0.5,1.1,1.1,1.1H46c0.6,0,1.1-0.5,1.1-1.1C47,54.7,46.4,53.2,45.2,52.2L45.2,52.2z M41.7,47.1
		c1.3,0,2.3,1,2.3,2.3c0,1.3-1,2.3-2.3,2.3c-1.3,0-2.3-1-2.3-2.3C39.4,48.2,40.5,47.1,41.7,47.1L41.7,47.1z M38.8,55.1
		c0.2-0.6,0.7-1.2,1.3-1.6c0.5,0.2,1.1,0.3,1.7,0.3c0.6,0,1.2-0.1,1.7-0.3c0.6,0.4,1,0.9,1.3,1.6H38.8z"/>
	<path class="st0" d="M56.2,52.2c0.6-0.8,1-1.7,1-2.8c0-2.5-2-4.5-4.5-4.5c-2.5,0-4.5,2-4.5,4.5c0,1.1,0.4,2,1,2.8
		c-1.1,1-1.8,2.4-1.8,4c0,0.6,0.5,1.1,1.1,1.1H57c0.6,0,1.1-0.5,1.1-1.1C58,54.7,57.4,53.2,56.2,52.2L56.2,52.2z M52.7,47.1
		c1.3,0,2.3,1,2.3,2.3c0,1.3-1,2.3-2.3,2.3c-1.3,0-2.3-1-2.3-2.3C50.4,48.2,51.5,47.1,52.7,47.1L52.7,47.1z M49.8,55.1
		c0.2-0.6,0.7-1.2,1.3-1.6c0.5,0.2,1.1,0.3,1.7,0.3c0.6,0,1.2-0.1,1.7-0.3c0.6,0.4,1,0.9,1.3,1.6H49.8z"/>
	<path class="st0" d="M34.2,52.2c0.6-0.8,1-1.7,1-2.8c0-2.5-2-4.5-4.5-4.5c-2.5,0-4.5,2-4.5,4.5c0,1.1,0.4,2,1,2.8
		c-1.1,1-1.8,2.4-1.8,4c0,0.6,0.5,1.1,1.1,1.1h8.4c0.6,0,1.1-0.5,1.1-1.1C36,54.7,35.3,53.2,34.2,52.2L34.2,52.2z M30.7,47.1
		c1.3,0,2.3,1,2.3,2.3c0,1.3-1,2.3-2.3,2.3c-1.3,0-2.3-1-2.3-2.3C28.4,48.2,29.4,47.1,30.7,47.1L30.7,47.1z M27.7,55.1
		c0.2-0.6,0.7-1.2,1.3-1.6c0.5,0.2,1.1,0.3,1.7,0.3c0.6,0,1.2-0.1,1.7-0.3c0.6,0.4,1,0.9,1.3,1.6H27.7z"/>
</g>
</svg>
