<?xml version="1.0" encoding="utf-8"?>
<!-- Generator: Adobe Illustrator 25.0.1, SVG Export Plug-In . SVG Version: 6.00 Build 0)  -->
<svg version="1.1" id="レイヤー_1" xmlns="http://www.w3.org/2000/svg" xmlns:xlink="http://www.w3.org/1999/xlink" x="0px"
	 y="0px" viewBox="0 0 61 59" style="enable-background:new 0 0 61 59;" xml:space="preserve">
<style type="text/css">
	.st0{fill:#E8E8E8;}
	.st1{fill:#BAC2C7;}
</style>
<g>
	<path class="st0" d="M51.6,31.8c-0.2-0.3-0.4-0.5-0.7-0.7c0-0.4,0-0.9-0.1-1.5c0.1-0.7,0.3-4.8-2.2-6.6c-1.5-1.1-3.2-1.7-4.9-1.7
		c-1.4,0-2.7,0.4-3.7,1.1c-0.9,0.6-1.4,1.3-1.7,1.8c-0.8,0-2.4,0.3-3.1,2.4c-0.7,1.9-0.1,3.1,0.3,3.7c0,0.3,0,0.6,0,0.8
		c-0.2,0.1-0.5,0.3-0.7,0.7c-0.4,0.7-0.5,1.6-0.2,2.7c0.6,2.1,1.8,2.6,2.5,2.7c0.4,0.8,1.4,2.6,2.3,3.4c0.4,0.3,0.9,0.6,1.4,0.9
		c0.7,0.3,1.5,0.4,2.3,0.4s1.6-0.1,2.3-0.4c0.6-0.2,1.1-0.5,1.4-0.9c0.9-0.9,1.9-2.6,2.3-3.4c0.7-0.1,2-0.6,2.5-2.7
		C52.1,33.4,52,32.5,51.6,31.8L51.6,31.8z M50.2,34.1c-0.3,1.3-0.9,1.5-1.3,1.5c0,0,0,0-0.1,0c-0.4-0.1-0.7,0.1-0.9,0.5
		c-0.3,0.7-1.3,2.7-2.1,3.4c-0.2,0.2-0.5,0.4-0.9,0.6c-1.1,0.4-2.4,0.4-3.5,0c-0.4-0.2-0.7-0.3-0.9-0.6c-0.8-0.8-1.8-2.7-2.2-3.4
		c-0.1-0.3-0.4-0.5-0.7-0.5c-0.1,0-0.1,0-0.2,0c0,0,0,0-0.1,0c-0.3,0-0.9-0.2-1.3-1.5c-0.2-0.6-0.2-1.1,0-1.4
		c0.1-0.2,0.2-0.2,0.3-0.2c0.4,0,0.7-0.4,0.7-0.9c0,0,0-0.4,0-1c0.6-0.2,1.5-0.7,2.2-1.5c0.4-0.4,0.7-0.9,0.9-1.4
		c0.5,0.4,1.3,1,2.3,1.4c1.7,0.8,5.2,1.1,6.7,1.3c0.1,0.7,0,1.2,0,1.2c0,0.4,0.2,0.8,0.7,0.9c0,0,0.2,0.1,0.3,0.2
		C50.4,33,50.4,33.5,50.2,34.1L50.2,34.1z M55.4,45l-7.1-2.8c-0.2-0.1-0.4-0.1-0.6,0c-0.2,0.1-0.4,0.3-0.4,0.5l-1.8,4.9l-0.4-1
		l0.6-1.4c0.1-0.2,0.1-0.5-0.1-0.8c-0.2-0.2-0.4-0.4-0.7-0.4h-3.5c-0.3,0-0.5,0.1-0.7,0.4c-0.2,0.2-0.2,0.5-0.1,0.8l0.6,1.4l-0.4,1
		l-1.8-4.9c-0.1-0.2-0.2-0.4-0.4-0.5c-0.2-0.1-0.4-0.1-0.6,0L31,45c-2.2,0.9-3.6,3-3.6,5.3V56c0,0.4,0.4,0.8,0.8,0.8h30
		c0.4,0,0.8-0.4,0.8-0.8v-5.7C59,47.9,57.6,45.9,55.4,45L55.4,45z M55.2,52.6c0,0.4-0.4,0.8-0.8,0.8h-5.5c-0.4,0-0.8-0.4-0.8-0.8
		v-2.5c0-0.4,0.4-0.8,0.8-0.8h5.5c0.4,0,0.8,0.4,0.8,0.8V52.6z"/>
</g>
<g>
	<path class="st1" d="M71.5,29.7h24.2c0.5,0,0.9-0.4,0.9-0.9V16c0-0.5-0.4-0.9-0.9-0.9H71.5c-0.5,0-0.9,0.4-0.9,0.9v12.8
		C70.6,29.3,71,29.7,71.5,29.7L71.5,29.7z M72.4,16.9h22.3v11H72.4V16.9z"/>
	<path class="st1" d="M83.6,17.2c-2.8,0-5.2,2.3-5.2,5.2c0,2.8,2.3,5.2,5.2,5.2c2.8,0,5.2-2.3,5.2-5.2
		C88.8,19.5,86.5,17.2,83.6,17.2L83.6,17.2z M83.6,25.7c-1.9,0-3.4-1.5-3.4-3.4c0-1.9,1.5-3.4,3.4-3.4c1.9,0,3.4,1.5,3.4,3.4
		C87,24.2,85.5,25.7,83.6,25.7L83.6,25.7z"/>
	<path class="st1" d="M84.8,22l-2-1.2c-0.1-0.1-0.3-0.1-0.4,0c-0.1,0.1-0.2,0.2-0.2,0.4v2.4c0,0.1,0.1,0.3,0.2,0.4
		c0.1,0,0.1,0.1,0.2,0.1c0.1,0,0.1,0,0.2-0.1l2-1.2c0.1-0.1,0.2-0.2,0.2-0.3C85,22.2,84.9,22.1,84.8,22L84.8,22z"/>
	<path class="st1" d="M86.5,36.7c0.5-0.6,0.8-1.5,0.8-2.4c0-2.1-1.7-3.7-3.7-3.7c-2.1,0-3.7,1.7-3.7,3.7c0,0.9,0.3,1.7,0.8,2.4
		c-0.9,0.8-1.5,2-1.5,3.3c0,0.5,0.4,0.9,0.9,0.9h7c0.5,0,0.9-0.4,0.9-0.9C88,38.7,87.5,37.5,86.5,36.7L86.5,36.7z M83.6,32.4
		c1.1,0,1.9,0.9,1.9,1.9c0,1.1-0.9,1.9-1.9,1.9c-1.1,0-1.9-0.9-1.9-1.9C81.7,33.2,82.5,32.4,83.6,32.4L83.6,32.4z M81.2,39.1
		c0.2-0.5,0.6-1,1.1-1.3c0.4,0.2,0.9,0.3,1.4,0.3c0.5,0,1-0.1,1.4-0.3c0.5,0.3,0.9,0.8,1.1,1.3H81.2z"/>
	<path class="st1" d="M95.7,36.7c0.5-0.6,0.8-1.5,0.8-2.4c0-2.1-1.7-3.7-3.7-3.7c-2.1,0-3.7,1.7-3.7,3.7c0,0.9,0.3,1.7,0.8,2.4
		c-0.9,0.8-1.5,2-1.5,3.3c0,0.5,0.4,0.9,0.9,0.9h7c0.5,0,0.9-0.4,0.9-0.9C97.2,38.7,96.7,37.5,95.7,36.7L95.7,36.7z M92.8,32.4
		c1.1,0,1.9,0.9,1.9,1.9c0,1.1-0.9,1.9-1.9,1.9c-1.1,0-1.9-0.9-1.9-1.9C90.9,33.2,91.7,32.4,92.8,32.4L92.8,32.4z M90.4,39.1
		c0.2-0.5,0.6-1,1.1-1.3c0.4,0.2,0.9,0.3,1.4,0.3c0.5,0,1-0.1,1.4-0.3c0.5,0.3,0.9,0.8,1.1,1.3H90.4z"/>
	<path class="st1" d="M77.3,36.7c0.5-0.6,0.8-1.5,0.8-2.4c0-2.1-1.7-3.7-3.7-3.7c-2.1,0-3.7,1.7-3.7,3.7c0,0.9,0.3,1.7,0.8,2.4
		c-0.9,0.8-1.5,2-1.5,3.3c0,0.5,0.4,0.9,0.9,0.9h7c0.5,0,0.9-0.4,0.9-0.9C78.8,38.7,78.2,37.5,77.3,36.7L77.3,36.7z M74.3,32.4
		c1.1,0,1.9,0.9,1.9,1.9c0,1.1-0.9,1.9-1.9,1.9c-1.1,0-1.9-0.9-1.9-1.9C72.4,33.2,73.3,32.4,74.3,32.4L74.3,32.4z M71.9,39.1
		c0.2-0.5,0.6-1,1.1-1.3c0.4,0.2,0.9,0.3,1.4,0.3c0.5,0,1-0.1,1.4-0.3c0.5,0.3,0.9,0.8,1.1,1.3H71.9z"/>
</g>
<g>
	<g>
		<path class="st0" d="M-50.1-60.5c1.1-0.8,2.5-1.2,3.8-1c0.9,0.1,1.6,0.5,2.3,1c0,0-1.2,0.5-1.8,0.7c-0.2,0.1-0.3,0.1-0.3,0.3
			c0,0.2,0.1,0.3,0.2,0.4l4.8,1.8c0.2,0.1,0.5,0.1,0.7-0.1c0.2-0.2,0.3-0.4,0.3-0.7l-0.3-5.1c0-0.2-0.1-0.3-0.3-0.3
			c-0.2,0-0.3,0.1-0.4,0.2c-0.5,0.6-1.5,1.8-1.5,1.8c-1-0.9-2.2-1.5-3.6-1.7c-1.8-0.3-3.7,0.2-5.2,1.3c-0.4,0.3-0.5,0.9-0.2,1.3
			C-51.1-60.2-50.5-60.2-50.1-60.5L-50.1-60.5z"/>
	</g>
	<path class="st0" d="M-46.5-49.6c0,3.7,3,8.1,6.9,8.1c3.9,0,6.9-4.3,6.9-8.1c0-3.8-3.1-6.9-6.9-6.9C-43.4-56.5-46.5-53.4-46.5-49.6
		L-46.5-49.6z M-39.6-54c2.5,0,4.4,2,4.4,4.4c0,2.5-2,5.6-4.4,5.6c-2.4,0-4.4-3.1-4.4-5.6C-44.1-52-42.1-54-39.6-54L-39.6-54z"/>
	<path class="st0" d="M-32.9-44.7c0,0.1,0,0.2,0,0.3c0,2.1-3.1,6.8-5.1,9.6l-0.8-4l0.8-0.8c0.1-0.2,0.1-0.4,0-0.5l-0.4-0.4
		c-0.1-0.1-0.3-0.2-0.4-0.2h-1.7c-0.2,0-0.3,0.1-0.4,0.2l-0.4,0.4c-0.1,0.2-0.1,0.4,0,0.5l0.8,0.8l-0.8,4c-2-2.9-5.1-7.6-5.1-9.6
		c0-0.1,0-0.2,0-0.3c-2.4,1.4-4,3.9-4,6.9v5.3c0,1.7,1.4,3.2,3.2,3.2H-32c1.7,0,3.2-1.4,3.2-3.2v-5.3
		C-28.9-40.8-30.5-43.4-32.9-44.7L-32.9-44.7z"/>
	<path class="st0" d="M-51.9-43.1c-2.9,0-5.3-2-5.3-4.4c0-0.3,0.1-0.7,0.2-1.1c-2.5,1-4.2,3.5-4.2,6.3v6.1c0,1.3,1,2.3,2.3,2.3h7.4
		v-4c0-2.2,0.8-4.2,2.2-5.8C-50.1-43.3-51-43.1-51.9-43.1L-51.9-43.1z"/>
	<path class="st0" d="M-56.9-48.7c1.1,1.9,2.9,3.4,5,3.4c1.8,0,3.3-1,4.4-2.5c-0.1-0.6-0.2-1.2-0.2-1.7c0-1.7,0.6-3.4,1.5-4.7
		c-0.8-2.4-3.1-4.2-5.7-4.2c-3.3,0-6,2.7-6,6c0,0.9,0.2,1.9,0.6,2.8C-57.2-49.3-57.1-49-56.9-48.7L-56.9-48.7z M-51.9-56.2
		c2.1,0,3.8,1.7,3.8,3.8c0,2.2-1.8,4.8-3.8,4.8c-2,0-3.8-2.6-3.8-4.8C-55.7-54.5-54-56.2-51.9-56.2L-51.9-56.2z"/>
</g>
<g>
	<path class="st0" d="M-36.5-20.9h28.9c0.6,0,1.1-0.5,1.1-1.1v-15.3c0-0.6-0.5-1.1-1.1-1.1h-26.6l1.4,3c-0.6,0-1.4,1.3-1.4,1.9
		l-3.3-0.8v12.3C-37.6-21.3-37.1-20.9-36.5-20.9L-36.5-20.9z M-35.4-36.1h26.7V-23h-26.7V-36.1z"/>
	<path class="st0" d="M-22-35.8c-3.4,0-6.2,2.8-6.2,6.2c0,3.4,2.8,6.2,6.2,6.2c3.4,0,6.2-2.8,6.2-6.2C-15.9-33-18.6-35.8-22-35.8
		L-22-35.8z M-22-25.6c-2.2,0-4-1.8-4-4c0-2.2,1.8-4,4-4c2.2,0,4,1.8,4,4C-18-27.4-19.8-25.6-22-25.6L-22-25.6z"/>
	<path class="st0" d="M-20.6-30l-2.4-1.5c-0.1-0.1-0.3-0.1-0.5,0c-0.2,0.1-0.2,0.2-0.2,0.4v2.9c0,0.2,0.1,0.3,0.2,0.4
		c0.1,0,0.2,0.1,0.2,0.1c0.1,0,0.2,0,0.3-0.1l2.4-1.5c0.1-0.1,0.2-0.2,0.2-0.4S-20.5-29.9-20.6-30L-20.6-30z"/>
	<path class="st0" d="M-18.6-12.5c0.6-0.8,1-1.7,1-2.8c0-2.5-2-4.5-4.5-4.5c-2.5,0-4.5,2-4.5,4.5c0,1.1,0.4,2,1,2.8
		c-1.1,1-1.8,2.4-1.8,4c0,0.6,0.5,1.1,1.1,1.1h8.4c0.6,0,1.1-0.5,1.1-1.1C-16.7-10.1-17.4-11.5-18.6-12.5L-18.6-12.5z M-22-17.6
		c1.3,0,2.3,1,2.3,2.3c0,1.3-1,2.3-2.3,2.3c-1.3,0-2.3-1-2.3-2.3C-24.4-16.6-23.3-17.6-22-17.6L-22-17.6z M-25-9.6
		c0.2-0.6,0.7-1.2,1.3-1.6c0.5,0.2,1.1,0.3,1.7,0.3c0.6,0,1.2-0.1,1.7-0.3c0.6,0.4,1,0.9,1.3,1.6H-25z"/>
	<path class="st0" d="M-7.5-12.5c0.6-0.8,1-1.7,1-2.8c0-2.5-2-4.5-4.5-4.5c-2.5,0-4.5,2-4.5,4.5c0,1.1,0.4,2,1,2.8
		c-1.1,1-1.8,2.4-1.8,4c0,0.6,0.5,1.1,1.1,1.1h8.4c0.6,0,1.1-0.5,1.1-1.1C-5.7-10.1-6.4-11.5-7.5-12.5L-7.5-12.5z M-11-17.6
		c1.3,0,2.3,1,2.3,2.3c0,1.3-1,2.3-2.3,2.3c-1.3,0-2.3-1-2.3-2.3C-13.3-16.6-12.3-17.6-11-17.6L-11-17.6z M-14-9.6
		c0.2-0.6,0.7-1.2,1.3-1.6c0.5,0.2,1.1,0.3,1.7,0.3c0.6,0,1.2-0.1,1.7-0.3c0.6,0.4,1,0.9,1.3,1.6H-14z"/>
	<path class="st0" d="M-29.6-12.5c0.6-0.8,1-1.7,1-2.8c0-2.5-2-4.5-4.5-4.5c-2.5,0-4.5,2-4.5,4.5c0,1.1,0.4,2,1,2.8
		c-1.1,1-1.8,2.4-1.8,4c0,0.6,0.5,1.1,1.1,1.1h8.4c0.6,0,1.1-0.5,1.1-1.1C-27.8-10.1-28.5-11.5-29.6-12.5L-29.6-12.5z M-33.1-17.6
		c1.3,0,2.3,1,2.3,2.3c0,1.3-1,2.3-2.3,2.3c-1.3,0-2.3-1-2.3-2.3C-35.4-16.6-34.4-17.6-33.1-17.6L-33.1-17.6z M-36.1-9.6
		c0.2-0.6,0.7-1.2,1.3-1.6c0.5,0.2,1.1,0.3,1.7,0.3c0.6,0,1.2-0.1,1.7-0.3c0.6,0.4,1,0.9,1.3,1.6H-36.1z"/>
</g>
<g>
	<path class="st0" d="M30.2,14.2H11.2c-0.6,0-1.1,0.5-1.1,1.1V19c0,0.6,0.5,1.1,1.1,1.1h19.1c0.6,0,1.1-0.5,1.1-1.1v-3.8
		C31.3,14.7,30.8,14.2,30.2,14.2L30.2,14.2z M12.1,16.8c-0.4,0-0.7-0.3-0.7-0.7c0-0.4,0.3-0.7,0.7-0.7c0.4,0,0.7,0.3,0.7,0.7
		C12.7,16.5,12.4,16.8,12.1,16.8L12.1,16.8z M28.4,18.8h-4.8v-1.6h4.8V18.8z"/>
	<path class="st0" d="M30.2,20.8H11.2c-0.6,0-1.1,0.5-1.1,1.1v3.8c0,0.6,0.5,1.1,1.1,1.1h19.1c0.6,0,1.1-0.5,1.1-1.1v-3.8
		C31.3,21.2,30.8,20.8,30.2,20.8L30.2,20.8z M12.1,23.4c-0.4,0-0.7-0.3-0.7-0.7c0-0.4,0.3-0.7,0.7-0.7c0.4,0,0.7,0.3,0.7,0.7
		C12.7,23.1,12.4,23.4,12.1,23.4L12.1,23.4z M28.4,25.3h-4.8v-1.6h4.8V25.3z"/>
	<path class="st0" d="M30.2,27.3H11.2c-0.6,0-1.1,0.5-1.1,1.1v3.8c0,0.6,0.5,1.1,1.1,1.1h19.1c0.6,0,1.1-0.5,1.1-1.1v-3.8
		C31.3,27.8,30.8,27.3,30.2,27.3L30.2,27.3z M12.1,29.9c-0.4,0-0.7-0.3-0.7-0.7s0.3-0.7,0.7-0.7c0.4,0,0.7,0.3,0.7,0.7
		S12.4,29.9,12.1,29.9L12.1,29.9z M28.4,31.9h-4.8v-1.6h4.8V31.9z"/>
	<g>
		<path class="st0" d="M24,36.9h-2v-3h-2.5v3h-2v0.8h-7.1v2.5h7.1V41H24v-0.8h7.1v-2.5H24V36.9z"/>
		<path class="st0" d="M32,8.1c-0.3,0-0.5-0.2-0.7-0.4c-1.5-2.1-4-3.3-6.6-3.3c-0.2,0-0.3,0-0.5,0c-0.2,0-0.4-0.1-0.6-0.2
			C22,3,20.1,2.4,18,2.4c-3.6,0-6.8,2.1-8.3,5.3C9.6,7.9,9.3,8.1,9,8.2c-4,0.6-7,4-7,8.1c0,3.9,2.8,7.2,6.5,8v-2.4
			c0-0.3,0.1-0.6,0.2-0.9c-2-0.7-3.4-2.5-3.4-4.7c0-2.7,2.2-5,5-5c0.1,0,0.3,0,0.4,0c0.8,0.1,1.5-0.5,1.7-1.2c0.7-2.7,3-4.5,5.8-4.5
			c1.6,0,3,0.6,4.2,1.7c0.4,0.4,0.9,0.5,1.5,0.4c0.3-0.1,0.7-0.1,1-0.1c1.9,0,3.6,1.1,4.5,2.8c0.3,0.6,0.9,1,1.6,0.9
			c0.2,0,0.3,0,0.5,0c2.7,0,5,2.2,5,5c0,2.2-1.4,4.1-3.4,4.7c0.1,0.3,0.2,0.6,0.2,0.9v2.4c3.7-0.8,6.5-4.1,6.5-8
			C39.5,12,36.1,8.5,32,8.1L32,8.1z"/>
	</g>
</g>
</svg>
