<?xml version="1.0" encoding="utf-8"?>
<!-- Generator: Adobe Illustrator 25.0.0, SVG Export Plug-In . SVG Version: 6.00 Build 0)  -->
<svg version="1.1" id="logo" xmlns="http://www.w3.org/2000/svg" xmlns:xlink="http://www.w3.org/1999/xlink" x="0px" y="0px"
	 viewBox="0 0 55 19.1" style="enable-background:new 0 0 55 19.1;" xml:space="preserve">
<style type="text/css">
	.st0{fill:url(#SVGID_1_);}
	.st1{fill:url(#SVGID_2_);}
	.st2{fill:url(#SVGID_3_);}
	.st3{fill:url(#SVGID_4_);}
	.st4{fill:url(#SVGID_5_);}
	.st5{fill:url(#SVGID_6_);}
</style>
<g>
	<linearGradient id="SVGID_1_" gradientUnits="userSpaceOnUse" x1="5.3449" y1="14.722" x2="5.3449" y2="4.875">
		<stop  offset="0" style="stop-color:#3F76FF"/>
		<stop  offset="4.818202e-02" style="stop-color:#3D72F6"/>
		<stop  offset="0.1284" style="stop-color:#3666DC"/>
		<stop  offset="0.2307" style="stop-color:#2C53B2"/>
		<stop  offset="0.3511" style="stop-color:#1E3879"/>
		<stop  offset="0.4852" style="stop-color:#0C1630"/>
		<stop  offset="0.5674" style="stop-color:#000000"/>
		<stop  offset="1" style="stop-color:#000062"/>
	</linearGradient>
	<path class="st0" d="M2.5,4.9h1.9l-1.3,9.8H1.2L2.5,4.9z M2.7,9h3.6c0.2,0,0.4,0,0.5-0.1C7,8.7,7.2,8.6,7.3,8.4
		C7.4,8.3,7.4,8,7.5,7.8c0-0.2,0-0.4,0-0.6S7.3,6.9,7.1,6.8C7,6.7,6.8,6.7,6.6,6.7H3l0.2-1.8H7c0.6,0,1.1,0.1,1.5,0.4
		c0.4,0.2,0.7,0.6,0.9,1c0.2,0.4,0.2,1,0.2,1.5S9.2,8.9,8.9,9.4c-0.3,0.4-0.7,0.8-1.1,1c-0.5,0.2-1,0.4-1.5,0.4H2.5L2.7,9z
		 M4.7,10.5l2.1-0.3L9,14.7H6.6L4.7,10.5z"/>
	<linearGradient id="SVGID_2_" gradientUnits="userSpaceOnUse" x1="14.7856" y1="14.722" x2="14.7856" y2="4.882">
		<stop  offset="0" style="stop-color:#3F76FF"/>
		<stop  offset="4.818202e-02" style="stop-color:#3D72F6"/>
		<stop  offset="0.1284" style="stop-color:#3666DC"/>
		<stop  offset="0.2307" style="stop-color:#2C53B2"/>
		<stop  offset="0.3511" style="stop-color:#1E3879"/>
		<stop  offset="0.4852" style="stop-color:#0C1630"/>
		<stop  offset="0.5674" style="stop-color:#000000"/>
		<stop  offset="1" style="stop-color:#000062"/>
	</linearGradient>
	<path class="st1" d="M12,4.9h1.9l-1.3,9.8h-1.9L12,4.9z M11.6,12.9h6.2l-0.2,1.8h-6.2L11.6,12.9z M12.1,8.9h5.4l-0.2,1.8h-5.4
		L12.1,8.9z M12.7,4.9h6.2l-0.2,1.8h-6.2L12.7,4.9z"/>
	<linearGradient id="SVGID_3_" gradientUnits="userSpaceOnUse" x1="23.5725" y1="14.8232" x2="23.5725" y2="4.7808">
		<stop  offset="0" style="stop-color:#3F76FF"/>
		<stop  offset="4.818202e-02" style="stop-color:#3D72F6"/>
		<stop  offset="0.1284" style="stop-color:#3666DC"/>
		<stop  offset="0.2307" style="stop-color:#2C53B2"/>
		<stop  offset="0.3511" style="stop-color:#1E3879"/>
		<stop  offset="0.4852" style="stop-color:#0C1630"/>
		<stop  offset="0.5674" style="stop-color:#000000"/>
		<stop  offset="1" style="stop-color:#000062"/>
	</linearGradient>
	<path class="st2" d="M27.5,9.2l-0.3,1.9c-0.1,0.7-0.3,1.4-0.7,1.9c-0.4,0.6-0.9,1-1.5,1.3c-0.6,0.3-1.3,0.5-2,0.5
		c-0.8,0-1.4-0.1-1.9-0.4c-0.5-0.3-0.9-0.7-1.2-1.2c-0.2-0.5-0.3-1.1-0.2-1.8L20,8.5c0.1-0.7,0.3-1.4,0.7-1.9c0.4-0.6,0.9-1,1.5-1.3
		c0.6-0.3,1.3-0.5,2-0.5c0.6,0,1.2,0.1,1.7,0.4c0.5,0.2,0.9,0.6,1.2,1c0.3,0.4,0.5,1,0.5,1.5h-2.1c0-0.2-0.1-0.4-0.3-0.5
		C25,7,24.9,6.9,24.7,6.8c-0.2-0.1-0.4-0.1-0.7-0.1c-0.3,0-0.7,0.1-0.9,0.2c-0.3,0.1-0.5,0.3-0.7,0.6c-0.2,0.3-0.3,0.6-0.3,0.9
		l-0.4,2.9c0,0.3,0,0.6,0.1,0.8c0.1,0.2,0.3,0.4,0.6,0.5c0.3,0.1,0.6,0.2,0.9,0.2c0.4,0,0.7-0.1,0.9-0.2c0.3-0.1,0.5-0.3,0.7-0.6
		c0.2-0.3,0.3-0.6,0.3-0.9l0-0.2h-1.6l0.2-1.8H27.5z"/>
	<linearGradient id="SVGID_4_" gradientUnits="userSpaceOnUse" x1="32.2376" y1="14.722" x2="32.2376" y2="4.882">
		<stop  offset="0" style="stop-color:#3F76FF"/>
		<stop  offset="4.818202e-02" style="stop-color:#3D72F6"/>
		<stop  offset="0.1284" style="stop-color:#3666DC"/>
		<stop  offset="0.2307" style="stop-color:#2C53B2"/>
		<stop  offset="0.3511" style="stop-color:#1E3879"/>
		<stop  offset="0.4852" style="stop-color:#0C1630"/>
		<stop  offset="0.5674" style="stop-color:#000000"/>
		<stop  offset="1" style="stop-color:#000062"/>
	</linearGradient>
	<path class="st3" d="M30,4.9h1.9l-1.3,9.8h-1.9L30,4.9z M29.8,12.9h6.1l-0.2,1.8h-6.1L29.8,12.9z"/>
	<linearGradient id="SVGID_5_" gradientUnits="userSpaceOnUse" x1="40.7667" y1="14.8232" x2="40.7667" y2="4.4252">
		<stop  offset="0" style="stop-color:#3F76FF"/>
		<stop  offset="4.818202e-02" style="stop-color:#3D72F6"/>
		<stop  offset="0.1284" style="stop-color:#3666DC"/>
		<stop  offset="0.2307" style="stop-color:#2C53B2"/>
		<stop  offset="0.3511" style="stop-color:#1E3879"/>
		<stop  offset="0.4852" style="stop-color:#0C1630"/>
		<stop  offset="0.5674" style="stop-color:#000000"/>
		<stop  offset="1" style="stop-color:#000062"/>
	</linearGradient>
	<path class="st4" d="M38.1,14.4c-0.6-0.3-1-0.7-1.2-1.3c-0.2-0.6-0.3-1.2-0.2-2L37,8.2c0.1-0.7,0.3-1.4,0.7-2
		c0.4-0.6,0.9-1,1.5-1.3c0.6-0.3,1.3-0.5,2.1-0.5c0.8,0,1.4,0.2,2,0.5c0.6,0.3,1,0.7,1.2,1.3c0.2,0.6,0.3,1.2,0.2,2l-0.4,2.9
		c-0.1,0.7-0.3,1.4-0.7,2c-0.4,0.6-0.9,1-1.5,1.3c-0.6,0.3-1.3,0.5-2.1,0.5C39.3,14.8,38.6,14.7,38.1,14.4z M41.3,12.7
		c0.3-0.1,0.5-0.4,0.7-0.6c0.2-0.3,0.3-0.6,0.3-0.9l0.4-3c0-0.4,0-0.7-0.1-0.9c-0.1-0.3-0.3-0.5-0.6-0.6c-0.3-0.1-0.6-0.2-0.9-0.2
		c-0.4,0-0.7,0.1-1,0.2c-0.3,0.1-0.5,0.4-0.7,0.6c-0.2,0.3-0.3,0.6-0.3,0.9l-0.4,3c0,0.4,0,0.7,0.1,0.9c0.1,0.3,0.3,0.5,0.6,0.6
		c0.3,0.1,0.6,0.2,0.9,0.2S41,12.8,41.3,12.7z"/>
	<linearGradient id="SVGID_6_" gradientUnits="userSpaceOnUse" x1="49.6741" y1="14.8232" x2="49.6741" y2="4.7808">
		<stop  offset="0" style="stop-color:#3F76FF"/>
		<stop  offset="4.818202e-02" style="stop-color:#3D72F6"/>
		<stop  offset="0.1284" style="stop-color:#3666DC"/>
		<stop  offset="0.2307" style="stop-color:#2C53B2"/>
		<stop  offset="0.3511" style="stop-color:#1E3879"/>
		<stop  offset="0.4852" style="stop-color:#0C1630"/>
		<stop  offset="0.5674" style="stop-color:#000000"/>
		<stop  offset="1" style="stop-color:#000062"/>
	</linearGradient>
	<path class="st5" d="M47.6,14.7c-0.5-0.1-0.9-0.2-1.3-0.4c-0.4-0.2-0.7-0.4-1-0.7l1.1-1.5c0.4,0.3,0.8,0.6,1.3,0.7
		c0.5,0.2,1,0.3,1.6,0.3c0.6,0,1.1-0.1,1.5-0.3c0.4-0.2,0.6-0.5,0.6-0.9l0,0c0-0.3,0-0.5-0.2-0.6c-0.1-0.2-0.3-0.3-0.6-0.3
		c-0.2-0.1-0.6-0.1-0.9-0.2c0,0,0,0,0,0c0,0,0,0,0,0l-0.2,0c-0.7-0.1-1.2-0.2-1.7-0.4c-0.4-0.2-0.8-0.4-1.1-0.8
		c-0.3-0.4-0.4-0.9-0.3-1.7l0,0c0.1-0.6,0.3-1.2,0.7-1.6c0.4-0.5,0.8-0.8,1.4-1c0.6-0.2,1.3-0.4,2.1-0.4c0.4,0,0.7,0,1.1,0.1
		C52.3,5,52.7,5.1,53,5.3c0.3,0.2,0.7,0.3,1,0.6l-1,1.6c-0.4-0.3-0.8-0.5-1.2-0.6c-0.4-0.1-0.8-0.2-1.2-0.2c-0.6,0-1.1,0.1-1.4,0.3
		c-0.4,0.2-0.5,0.5-0.6,0.8l0,0c0,0.3,0,0.5,0.2,0.7c0.1,0.2,0.3,0.3,0.6,0.4c0.2,0.1,0.6,0.2,1,0.2c0,0,0,0,0.1,0c0,0,0,0,0.1,0
		c0,0,0.1,0,0.1,0c0,0,0.1,0,0.1,0c0.6,0.1,1.2,0.3,1.6,0.4c0.4,0.2,0.7,0.5,1,0.8c0.2,0.4,0.3,0.9,0.2,1.6l0,0
		c-0.1,0.6-0.3,1.2-0.7,1.6c-0.4,0.4-0.9,0.8-1.5,1c-0.6,0.2-1.3,0.4-2.2,0.4C48.6,14.8,48.1,14.8,47.6,14.7z"/>
</g>
</svg>
