<?xml version="1.0" encoding="utf-8"?>
<!-- Generator: Adobe Illustrator 25.0.0, SVG Export Plug-In . SVG Version: 6.00 Build 0)  -->
<svg version="1.1" id="レイヤー_1" xmlns="http://www.w3.org/2000/svg" xmlns:xlink="http://www.w3.org/1999/xlink" x="0px"
	 y="0px" viewBox="0 0 187 21" style="enable-background:new 0 0 187 21;" xml:space="preserve">
<style type="text/css">
	.st0{fill:#FFFFFF;}
</style>
<g>
	<path class="st0" d="M2.6,3.4h5.5c3.6,0,5.5,1.4,5.5,4.2c0,1-0.3,1.9-0.9,2.6c-0.5,0.6-1.2,1.1-2.2,1.3l3.6,7.3h-2.9l-3.1-6.9
		l-0.7,0H5.2v6.9H2.6V3.4z M5.2,5.4V10h2.7c2,0,3-0.8,3-2.3c0-1.5-1-2.2-2.9-2.2H5.2z"/>
	<path class="st0" d="M26.6,3.4v2.1h-7.5v4.1h5.7v2.1h-5.7v5h7.6v2.1H16.5V3.4H26.6z"/>
	<path class="st0" d="M41,7.7l-2.6,0.6c-0.4-2-1.5-3.1-3.2-3.1c-1.3,0-2.3,0.6-3,1.7c-0.6,1-0.9,2.4-0.9,4.2c0,2,0.4,3.6,1.2,4.6
		c0.7,0.9,1.6,1.3,2.7,1.3c2,0,3.2-1.4,3.4-4.2H35v-2.1h6.1v8.1h-1.8L39,16.7c-0.4,0.8-1,1.5-1.8,1.9c-0.7,0.4-1.4,0.5-2.3,0.5
		c-2.1,0-3.7-0.8-4.9-2.3c-1-1.4-1.6-3.3-1.6-5.6c0-2.7,0.7-4.7,2.1-6.2c1.2-1.2,2.7-1.8,4.6-1.8c1.7,0,3,0.5,4.1,1.4
		C40.1,5.3,40.7,6.4,41,7.7z"/>
	<path class="st0" d="M47.2,3.4v13.2h7.2v2.2h-9.9V3.4H47.2z"/>
	<path class="st0" d="M62.4,3.2c2.2,0,3.8,0.8,5,2.3c1.1,1.4,1.6,3.3,1.6,5.6c0,2.7-0.7,4.7-2.1,6.2c-1.2,1.2-2.7,1.8-4.5,1.8
		c-2.2,0-3.8-0.8-5-2.4c-1.1-1.4-1.6-3.3-1.6-5.6c0-2.7,0.7-4.7,2.1-6.2C59.1,3.8,60.6,3.2,62.4,3.2z M62.4,5.2
		c-1.2,0-2.2,0.6-2.9,1.7c-0.6,1-0.9,2.4-0.9,4.2c0,2,0.4,3.6,1.2,4.6c0.7,0.9,1.5,1.3,2.6,1.3c1.2,0,2.2-0.6,2.8-1.7
		c0.6-1,0.9-2.4,0.9-4.2c0-2.1-0.4-3.6-1.2-4.6C64.4,5.7,63.5,5.2,62.4,5.2z"/>
	<path class="st0" d="M81.9,7l-2.6,0.7C78.9,6,78,5.2,76.6,5.2c-0.9,0-1.5,0.2-2,0.6C74.2,6.2,74,6.6,74,7.2c0,0.7,0.2,1.3,0.7,1.6
		c0.4,0.3,1.1,0.6,2.2,0.9l0.8,0.2c1.8,0.5,3,1.1,3.7,1.9c0.5,0.6,0.8,1.5,0.8,2.6c0,1.5-0.5,2.6-1.6,3.4c-1,0.7-2.3,1.1-4,1.1
		c-1.6,0-2.9-0.4-3.9-1.1c-0.9-0.7-1.5-1.6-1.9-2.9l2.6-0.8c0.2,0.9,0.6,1.7,1.2,2.2c0.5,0.4,1.2,0.6,1.9,0.6c2,0,2.9-0.7,2.9-2.2
		c0-0.7-0.2-1.3-0.6-1.6c-0.4-0.4-1.2-0.7-2.4-1L75.7,12c-1.7-0.5-2.9-1.2-3.5-1.9c-0.5-0.7-0.8-1.6-0.8-2.7c0-1.3,0.5-2.3,1.5-3.1
		c0.9-0.7,2.1-1.1,3.6-1.1C79.3,3.2,81.1,4.5,81.9,7z"/>
</g>
<g>
	<path class="st0" d="M96.9,9.5c1.2,0,1.9,0.3,2.3,0.7c0.7,0.6,0.9,1.3,0.9,2c0,0.9-0.3,1.6-1,2.1c-0.2,0.2-0.6,0.3-1,0.4l2.8,3.8
		h-2.2l-2.4-3.6H96v3.6h-1.7v-9H96.9z M96,13.6h0.5c0.3,0,1.7,0,1.7-1.4c0-1.3-1.4-1.3-1.7-1.3H96L96,13.6L96,13.6z"/>
	<path class="st0" d="M107.8,11h-3.2v2h3.1v1.5h-3.1V17h3.2v1.5h-5v-9h5L107.8,11L107.8,11z"/>
	<path class="st0" d="M116.8,18.2c-0.5,0.3-1.3,0.5-2.2,0.5c-1.6,0-2.5-0.5-3.3-1.3c-1-1-1.4-2.1-1.4-3.4c0-1.6,0.7-2.8,1.4-3.5
		c0.9-0.8,2-1.2,3.3-1.2c0.6,0,1.4,0.1,2.2,0.6v2c-0.8-0.9-1.8-1-2.2-1c-1.8,0-3,1.5-3,3.1c0,2,1.5,3.1,3,3.1c0.8,0,1.6-0.4,2.1-1
		L116.8,18.2L116.8,18.2z"/>
	<path class="st0" d="M121.8,9.5c1.2,0,1.9,0.3,2.3,0.7c0.7,0.6,0.9,1.3,0.9,2c0,0.9-0.3,1.6-1,2.1c-0.2,0.2-0.6,0.3-1,0.4l2.8,3.8
		h-2.2l-2.4-3.6H121v3.6h-1.7v-9H121.8z M121,13.6h0.5c0.3,0,1.7,0,1.7-1.4c0-1.3-1.4-1.3-1.7-1.3H121V13.6z"/>
	<path class="st0" d="M129.5,9.5v5.6c0,0.7,0.2,1.1,0.4,1.3c0.3,0.3,0.7,0.6,1.4,0.6c0.7,0,1.2-0.3,1.4-0.6c0.2-0.2,0.4-0.6,0.4-1.3
		V9.5h1.7V15c0,0.8-0.1,1.7-0.7,2.4c-0.6,0.8-1.8,1.3-2.9,1.3c-1.2,0-2.3-0.4-2.9-1.3c-0.5-0.7-0.7-1.5-0.7-2.4V9.5H129.5z"/>
	<path class="st0" d="M139.5,9.5v9h-1.7v-9H139.5z"/>
	<path class="st0" d="M145.2,11v7.5h-1.7V11h-2V9.5h5.8V11H145.2z"/>
	<path class="st0" d="M150.1,9.5h1.3l2.4,5.7l2.5-5.7h1.3l1.5,9h-1.8l-0.8-5.5l-2.4,5.5h-0.6l-2.3-5.5l-0.9,5.5h-1.8L150.1,9.5z"/>
	<path class="st0" d="M166.3,11h-3.2v2h3.1v1.5h-3.1V17h3.2v1.5h-5v-9h5V11z"/>
	<path class="st0" d="M168.8,18.5v-9h1.2l5.5,6v-6h1.7v9H176l-5.5-6v6H168.8z"/>
	<path class="st0" d="M182.9,11v7.5h-1.7V11h-2V9.5h5.8V11H182.9z"/>
</g>
<rect x="89.9" y="2" transform="matrix(0.7071 0.7071 -0.7071 0.7071 34.4007 -60.5216)" class="st0" width="0.6" height="18.6"/>
</svg>
