<?xml version="1.0" encoding="utf-8"?>
<!-- Generator: Adobe Illustrator 25.0.1, SVG Export Plug-In . SVG Version: 6.00 Build 0)  -->
<svg version="1.1" id="logo" xmlns="http://www.w3.org/2000/svg" xmlns:xlink="http://www.w3.org/1999/xlink" x="0px" y="0px"
	 viewBox="0 0 55 19.1" style="enable-background:new 0 0 55 19.1;" xml:space="preserve">
<style type="text/css">
	.st0{fill:url(#SVGID_1_);}
	.st1{fill:url(#SVGID_2_);}
	.st2{fill:url(#SVGID_3_);}
	.st3{fill:url(#SVGID_4_);}
	.st4{fill:url(#SVGID_5_);}
	.st5{fill:url(#SVGID_6_);}
</style>
<g>
	
		<linearGradient id="SVGID_1_" gradientUnits="userSpaceOnUse" x1="4.35" y1="6.7" x2="4.35" y2="16.9738" gradientTransform="matrix(1 0 0 -1 0 22)">
		<stop  offset="0" style="stop-color:#1A1B7D"/>
		<stop  offset="8.870302e-02" style="stop-color:#1C1F80"/>
		<stop  offset="0.1817" style="stop-color:#232C88"/>
		<stop  offset="0.2766" style="stop-color:#2E4195"/>
		<stop  offset="0.3729" style="stop-color:#3E5EA7"/>
		<stop  offset="0.4694" style="stop-color:#5184BF"/>
		<stop  offset="0.4888" style="stop-color:#568CC4"/>
		<stop  offset="0.6091" style="stop-color:#3A5C9B"/>
		<stop  offset="0.7283" style="stop-color:#223479"/>
		<stop  offset="0.8368" style="stop-color:#111860"/>
		<stop  offset="0.9309" style="stop-color:#070651"/>
		<stop  offset="1" style="stop-color:#03004C"/>
	</linearGradient>
	<path class="st0" d="M1.3,5h2L2,15.3H0L1.3,5z M1.6,9.3h3.7c0.2,0,0.4,0,0.6-0.1S6.2,9,6.3,8.8s0.2-0.4,0.2-0.6c0-0.2,0-0.5,0-0.6
		C6.4,7.2,6.3,7.1,6.2,7C6.1,6.9,5.9,6.9,5.7,6.9H1.9L2.2,5h3.9c0.6,0,1.1,0.1,1.5,0.4C8,5.6,8.3,6,8.5,6.5s0.2,1,0.2,1.6
		C8.6,8.7,8.4,9.2,8.1,9.7s-0.7,0.8-1.2,1.1s-1,0.4-1.6,0.4h-4L1.6,9.3z M3.7,10.8l2.2-0.3l2.3,4.8H5.7L3.7,10.8z"/>
	
		<linearGradient id="SVGID_2_" gradientUnits="userSpaceOnUse" x1="14.2" y1="6.7486" x2="14.2" y2="16.9942" gradientTransform="matrix(1 0 0 -1 0 22)">
		<stop  offset="0" style="stop-color:#D5D8E4"/>
		<stop  offset="0.5" style="stop-color:#B3B8CC"/>
		<stop  offset="1" style="stop-color:#969DB7"/>
	</linearGradient>
	<path class="st1" d="M11.2,5h2l-1.3,10.2h-2L11.2,5z M10.9,13.4h6.5l-0.2,1.9h-6.5L10.9,13.4z M11.4,9.2h5.7l-0.2,1.9h-5.7
		L11.4,9.2z M12,5h6.5l-0.2,1.9h-6.5L12,5z"/>
	
		<linearGradient id="SVGID_3_" gradientUnits="userSpaceOnUse" x1="23.3701" y1="6.6431" x2="23.3701" y2="17.0996" gradientTransform="matrix(1 0 0 -1 0 22)">
		<stop  offset="0" style="stop-color:#D5D8E4"/>
		<stop  offset="0.5" style="stop-color:#B3B8CC"/>
		<stop  offset="1" style="stop-color:#969DB7"/>
	</linearGradient>
	<path class="st2" d="M27.4,9.5l-0.3,2c-0.1,0.8-0.3,1.4-0.7,2c-0.4,0.6-0.9,1-1.6,1.3c-0.6,0.3-1.3,0.5-2.1,0.5
		c-0.8,0-1.5-0.1-2-0.4c-0.6-0.3-1-0.7-1.2-1.3c-0.3-0.5-0.3-1.2-0.2-1.9l0.4-3c0.1-0.8,0.4-1.4,0.7-2c0.4-0.6,0.9-1,1.6-1.3
		c0.6-0.3,1.3-0.5,2.1-0.5c0.6,0,1.2,0.1,1.7,0.4s0.9,0.6,1.2,1.1c0.3,0.5,0.5,1,0.5,1.6h-2.2c0-0.2-0.1-0.4-0.3-0.6
		c-0.2-0.2-0.3-0.3-0.6-0.4c-0.2-0.1-0.5-0.1-0.7-0.1c-0.4,0-0.7,0.1-1,0.2c-0.3,0.2-0.5,0.4-0.7,0.6c-0.2,0.3-0.3,0.6-0.4,1l-0.4,3
		c0,0.3,0,0.6,0.1,0.8s0.3,0.4,0.6,0.6c0.3,0.1,0.6,0.2,1,0.2s0.7-0.1,1-0.2c0.3-0.1,0.5-0.4,0.7-0.6c0.2-0.3,0.3-0.6,0.3-1v-0.2
		h-1.6l0.2-1.9L27.4,9.5L27.4,9.5z"/>
	
		<linearGradient id="SVGID_4_" gradientUnits="userSpaceOnUse" x1="32.4" y1="6.7486" x2="32.4" y2="16.9942" gradientTransform="matrix(1 0 0 -1 0 22)">
		<stop  offset="0" style="stop-color:#D5D8E4"/>
		<stop  offset="0.5" style="stop-color:#B3B8CC"/>
		<stop  offset="1" style="stop-color:#969DB7"/>
	</linearGradient>
	<path class="st3" d="M30,5h2l-1.3,10.2h-2L30,5z M29.8,13.4h6.3l-0.2,1.9h-6.3L29.8,13.4z"/>
	
		<linearGradient id="SVGID_5_" gradientUnits="userSpaceOnUse" x1="41.15" y1="6.6431" x2="41.15" y2="17.4699" gradientTransform="matrix(1 0 0 -1 0 22)">
		<stop  offset="0" style="stop-color:#D5D8E4"/>
		<stop  offset="0.5" style="stop-color:#B3B8CC"/>
		<stop  offset="1" style="stop-color:#969DB7"/>
	</linearGradient>
	<path class="st4" d="M38.4,14.9c-0.6-0.3-1-0.8-1.3-1.4s-0.3-1.3-0.2-2.1l0.4-3c0.1-0.8,0.4-1.5,0.8-2.1c0.4-0.6,1-1,1.6-1.4
		c0.7-0.3,1.4-0.5,2.2-0.5s1.5,0.2,2.1,0.5s1,0.8,1.2,1.4c0.3,0.6,0.3,1.3,0.2,2.1l-0.4,3c-0.1,0.8-0.4,1.5-0.8,2.1
		c-0.4,0.6-1,1-1.6,1.4c-0.7,0.3-1.4,0.5-2.2,0.5C39.7,15.4,39,15.2,38.4,14.9z M41.8,13.1c0.3-0.2,0.6-0.4,0.7-0.7
		c0.2-0.3,0.3-0.6,0.4-1l0.4-3.1c0-0.4,0-0.7-0.1-1s-0.3-0.5-0.6-0.7s-0.6-0.2-1-0.2s-0.7,0.1-1,0.2C40.3,6.8,40,7,39.9,7.3
		c-0.2,0.3-0.3,0.6-0.4,1l-0.4,3.1c0,0.4,0,0.7,0.1,1s0.3,0.5,0.6,0.7s0.6,0.2,1,0.2C41.2,13.4,41.5,13.3,41.8,13.1z"/>
	
		<linearGradient id="SVGID_6_" gradientUnits="userSpaceOnUse" x1="50.5" y1="6.6431" x2="50.5" y2="17.0996" gradientTransform="matrix(1 0 0 -1 0 22)">
		<stop  offset="0" style="stop-color:#D5D8E4"/>
		<stop  offset="0.5" style="stop-color:#B3B8CC"/>
		<stop  offset="1" style="stop-color:#969DB7"/>
	</linearGradient>
	<path class="st5" d="M48.4,15.2c-0.5-0.1-0.9-0.2-1.3-0.4c-0.4-0.2-0.8-0.4-1.1-0.7l1.2-1.6c0.4,0.3,0.8,0.6,1.3,0.8
		s1.1,0.3,1.6,0.3c0.7,0,1.2-0.1,1.6-0.3s0.6-0.5,0.7-0.9l0,0c0-0.3,0-0.5-0.2-0.6c-0.1-0.2-0.3-0.3-0.6-0.4c-0.3-0.1-0.6-0.1-1-0.2
		l0,0l0,0h-0.2c-0.7-0.1-1.3-0.2-1.7-0.4c-0.5-0.2-0.8-0.4-1.1-0.9c-0.3-0.4-0.4-1-0.3-1.7l0,0C47.4,7.5,47.6,7,48,6.5
		s0.9-0.8,1.5-1.1C50.1,5.2,50.9,5,51.7,5c0.4,0,0.8,0,1.2,0.1s0.8,0.2,1.1,0.4c0.4,0.2,0.7,0.4,1,0.6l-1.1,1.6
		c-0.4-0.3-0.8-0.5-1.2-0.6c-0.4-0.2-0.9-0.2-1.3-0.2c-0.6,0-1.1,0.1-1.5,0.3S49.3,7.7,49.3,8l0,0c0,0.3,0,0.5,0.2,0.7
		s0.4,0.3,0.6,0.4c0.3,0.1,0.6,0.2,1.1,0.3c0,0,0,0,0.1,0c0,0,0,0,0.1,0h0.1h0.1c0.7,0.1,1.2,0.3,1.6,0.5c0.4,0.2,0.8,0.5,1,0.9
		c0.3,0.4,0.3,1,0.2,1.6l0,0c-0.1,0.7-0.3,1.2-0.7,1.7s-0.9,0.8-1.5,1.1c-0.6,0.2-1.4,0.4-2.3,0.4C49.4,15.4,48.9,15.3,48.4,15.2z"
		/>
</g>
</svg>
