<?xml version="1.0" standalone="no"?>
<!DOCTYPE svg PUBLIC "-//W3C//DTD SVG 20010904//EN"
 "http://www.w3.org/TR/2001/REC-SVG-20010904/DTD/svg10.dtd">
<svg version="1.0" xmlns="http://www.w3.org/2000/svg"
 width="500.000000pt" height="500.000000pt" viewBox="0 0 500.000000 500.000000"
 preserveAspectRatio="xMidYMid meet">
<metadata>
Created by potrace 1.11, written by Peter Selinger 2001-2013
</metadata>
<g transform="translate(0.000000,500.000000) scale(0.100000,-0.100000)"
fill="#000000" stroke="none">
<path d="M2095 4829 c-4 -6 -5 -12 -2 -15 2 -3 7 2 10 11 7 17 1 20 -8 4z"/>
<path d="M2030 4806 c0 -2 7 -7 16 -10 8 -3 12 -2 9 4 -6 10 -25 14 -25 6z"/>
<path d="M1980 4792 c0 -6 -9 -9 -20 -7 -11 2 -23 -1 -26 -7 -4 -7 -2 -8 4 -4
7 4 12 1 12 -8 0 -9 4 -16 10 -16 5 0 6 7 3 17 -4 10 -2 14 5 9 12 -7 28 12
18 21 -3 4 -6 1 -6 -5z"/>
<path d="M2014 4775 c-4 -8 -11 -12 -17 -8 -6 4 -7 1 -2 -7 6 -10 11 -10 20 3
7 9 16 13 20 9 5 -4 5 -1 1 6 -9 16 -15 15 -22 -3z"/>
<path d="M1894 4753 c2 -11 12 -18 25 -17 16 0 20 -4 16 -15 -5 -13 -4 -14 6
-3 11 10 10 16 -5 30 -11 9 -16 11 -12 5 5 -8 1 -13 -9 -13 -9 0 -14 4 -10 9
3 5 1 12 -4 15 -5 4 -8 -2 -7 -11z"/>
<path d="M1827 4743 c-4 -3 -7 -15 -7 -25 0 -11 -5 -16 -11 -13 -6 4 -8 13 -6
19 3 7 -1 13 -8 13 -11 0 -12 -5 -2 -21 6 -12 11 -24 12 -28 0 -3 4 -10 8 -15
5 -4 8 -3 6 2 -1 6 0 17 4 25 3 8 7 22 10 30 3 10 8 6 16 -13 7 -18 15 -25 23
-21 8 5 9 2 5 -10 -4 -9 -3 -15 2 -12 5 3 9 17 9 31 0 14 -4 28 -9 31 -5 3 -6
-1 -3 -9 3 -8 1 -18 -4 -21 -6 -3 -13 5 -16 19 -6 25 -17 31 -29 18z"/>
<path d="M1729 4689 c-6 -13 -6 -19 1 -19 5 0 10 6 10 13 0 7 8 13 18 14 13 1
18 -5 18 -20 -1 -12 5 -22 12 -22 7 0 17 -7 22 -15 5 -8 12 -11 16 -7 9 9 -28
37 -39 30 -5 -3 -7 5 -5 18 2 19 -2 24 -20 25 -13 1 -27 -7 -33 -17z"/>
<path d="M1695 4679 c3 -13 0 -19 -8 -16 -7 3 -11 10 -9 16 1 7 -2 10 -8 6 -8
-5 -7 -11 1 -21 9 -11 9 -14 -1 -14 -8 0 -11 -3 -8 -6 11 -11 44 14 45 35 1
12 -2 21 -7 21 -5 0 -7 -9 -5 -21z"/>
<path d="M1832 4673 c2 -9 11 -17 21 -19 9 -1 15 2 11 7 -3 5 -10 6 -16 3 -7
-5 -9 -1 -5 9 3 10 2 17 -4 17 -6 0 -9 -7 -7 -17z"/>
<path d="M1636 4665 c5 -11 2 -14 -12 -9 -11 3 -15 2 -8 -3 6 -4 13 -16 17
-25 7 -21 23 -23 33 -6 5 8 2 9 -10 5 -15 -6 -17 -3 -12 17 3 14 2 28 -4 31
-6 3 -7 -1 -4 -10z"/>
<path d="M1747 4663 c-4 -3 -7 -15 -7 -25 0 -11 -5 -16 -11 -13 -6 4 -8 14 -5
22 3 8 1 11 -4 8 -6 -4 -10 -12 -9 -18 1 -7 1 -21 0 -32 -1 -17 -3 -18 -12 -5
-9 13 -10 13 -6 -2 6 -18 -19 -33 -28 -18 -4 6 -16 10 -28 9 -20 -1 -20 -2 3
-8 17 -5 21 -9 12 -15 -6 -4 -18 -4 -24 0 -10 5 -10 4 -1 -6 7 -7 17 -9 25 -4
7 5 19 9 26 10 20 3 42 25 42 40 0 8 5 13 11 12 7 -2 15 9 20 25 8 28 7 32 -4
20z"/>
<path d="M1588 4643 c19 -7 14 -23 -5 -16 -15 5 -16 3 -5 -8 9 -9 15 -10 23
-2 13 13 4 33 -14 32 -9 0 -9 -2 1 -6z"/>
<path d="M1770 4611 c0 -6 4 -13 10 -16 6 -3 7 1 4 9 -7 18 -14 21 -14 7z"/>
<path d="M1485 4599 c-4 -6 -4 -13 -1 -16 3 -4 6 -1 6 6 0 7 5 9 10 6 6 -3 10
-1 10 4 0 14 -17 14 -25 0z"/>
<path d="M1530 4600 c0 -5 5 -10 10 -10 6 0 10 5 10 10 0 6 -4 10 -10 10 -5 0
-10 -4 -10 -10z"/>
<path d="M1589 4590 c-13 -10 -18 -19 -11 -20 6 0 12 4 12 8 0 5 10 14 23 20
12 6 17 11 11 11 -7 1 -22 -8 -35 -19z"/>
<path d="M1750 4601 c0 -6 4 -13 10 -16 6 -3 7 1 4 9 -7 18 -14 21 -14 7z"/>
<path d="M1713 4569 c-11 -11 -28 -22 -38 -23 -11 -2 -21 -9 -23 -17 -2 -8 0
-10 5 -4 4 6 15 11 23 13 8 2 25 12 36 23 17 16 23 17 27 7 4 -9 6 -9 6 -1 2
21 -15 22 -36 2z"/>
<path d="M1436 4565 c7 -18 6 -19 -11 -5 -17 14 -17 14 -4 -7 12 -19 15 -20
22 -7 6 10 5 20 -3 27 -8 9 -9 7 -4 -8z"/>
<path d="M1494 4563 c-10 -10 -22 -18 -28 -18 -6 0 -12 -9 -13 -20 -3 -18 -2
-18 5 -2 4 10 11 17 15 15 3 -2 15 5 26 14 11 9 22 14 25 11 3 -4 6 -1 6 5 0
17 -16 15 -36 -5z"/>
<path d="M1545 4561 c-3 -12 -11 -19 -16 -16 -15 10 -22 -22 -10 -42 9 -15 10
-13 5 11 -5 20 -3 27 4 22 11 -7 38 31 29 41 -3 2 -8 -5 -12 -16z"/>
<path d="M1592 4564 c-7 -8 -8 -14 -3 -14 10 0 25 19 20 25 -2 1 -10 -3 -17
-11z"/>
<path d="M1370 4540 c0 -5 5 -10 11 -10 5 0 7 5 4 10 -3 6 -8 10 -11 10 -2 0
-4 -4 -4 -10z"/>
<path d="M1552 4530 c-7 -11 -8 -20 -3 -20 9 0 24 30 18 36 -1 2 -8 -6 -15
-16z"/>
<path d="M1596 4535 c-11 -8 -15 -15 -10 -15 6 0 16 6 23 13 11 10 13 9 8 -6
-4 -10 -3 -16 2 -12 5 3 12 -1 14 -7 3 -7 6 -8 6 -2 1 5 -5 18 -11 27 -12 14
-15 14 -32 2z"/>
<path d="M1340 4516 c0 -8 4 -18 10 -21 6 -4 7 1 3 11 -5 13 -3 15 7 9 9 -5
11 -4 6 3 -10 17 -26 15 -26 -2z"/>
<path d="M1386 4511 c-10 -11 -16 -28 -13 -38 4 -14 5 -13 6 5 1 14 5 20 12
17 6 -4 8 -14 4 -24 -5 -12 -4 -13 6 -4 9 9 9 16 1 26 -7 8 -9 17 -5 20 11 11
23 8 21 -5 -2 -6 6 -14 17 -16 11 -2 27 -10 36 -18 14 -13 18 -12 29 1 10 12
10 19 2 27 -7 7 -12 8 -12 3 0 -6 -5 -3 -11 5 -9 13 -10 13 -6 0 2 -8 10 -14
16 -12 13 2 15 -14 2 -22 -5 -3 -14 1 -21 9 -7 8 -21 15 -31 15 -11 0 -18 5
-16 11 4 20 -19 20 -37 0z"/>
<path d="M1288 4496 c-16 -12 -16 -14 10 -26 15 -8 30 -13 35 -12 4 1 7 -5 7
-13 0 -18 16 -20 26 -3 4 6 3 8 -3 5 -6 -4 -14 0 -17 9 -3 8 -10 13 -15 9 -5
-3 -12 -1 -15 4 -4 5 -1 11 6 14 7 2 2 2 -11 0 -21 -4 -23 -2 -12 11 16 19 12
20 -11 2z"/>
<path d="M1580 4496 c10 -13 7 -15 -17 -13 -17 1 -28 -3 -28 -10 0 -7 5 -13
10 -14 6 0 15 -10 21 -21 10 -18 12 -18 17 -4 4 10 3 15 -2 12 -5 -3 -12 1
-15 10 -3 8 -10 12 -16 9 -5 -3 -10 -1 -10 6 0 6 8 9 18 6 41 -11 47 -11 45 1
-3 13 9 16 20 5 4 -3 1 -13 -6 -21 -11 -13 -9 -14 10 -2 21 14 21 14 2 28 -10
7 -24 10 -29 7 -6 -3 -10 -1 -10 4 0 6 -5 11 -11 11 -8 0 -8 -4 1 -14z"/>
<path d="M1650 4500 c0 -5 5 -10 11 -10 5 0 7 5 4 10 -3 6 -8 10 -11 10 -2 0
-4 -4 -4 -10z"/>
<path d="M1255 4470 c6 -10 4 -12 -11 -6 -15 6 -17 5 -6 -5 9 -9 15 -10 23 -2
8 8 7 13 -2 18 -8 6 -10 4 -4 -5z"/>
<path d="M1419 4468 c0 -2 -2 -11 -4 -21 -2 -10 -11 -27 -19 -36 -15 -16 -15
-20 -2 -30 16 -13 40 -6 31 9 -3 5 4 11 15 13 17 4 17 4 -2 3 -13 -1 -22 -7
-20 -14 1 -6 -2 -12 -6 -12 -20 0 -20 14 -2 38 11 13 17 29 13 35 -4 6 4 8 21
3 18 -4 25 -3 21 4 -5 8 -43 15 -46 8z"/>
<path d="M1510 4464 c0 -13 18 -39 24 -34 2 3 -2 14 -10 24 -8 11 -14 16 -14
10z"/>
<path d="M1277 4453 c-4 -3 -7 -11 -7 -17 0 -6 5 -5 12 2 6 6 9 14 7 17 -3 3
-9 2 -12 -2z"/>
<path d="M1210 4440 c0 -5 5 -10 10 -10 6 0 10 5 10 10 0 6 -4 10 -10 10 -5 0
-10 -4 -10 -10z"/>
<path d="M1311 4433 c7 -12 15 -20 18 -17 3 2 -3 12 -13 22 -17 16 -18 16 -5
-5z"/>
<path d="M1376 4434 c-10 -25 1 -29 14 -5 6 12 7 21 1 21 -5 0 -12 -7 -15 -16z"/>
<path d="M1476 4434 c-9 -24 -2 -26 12 -4 7 11 8 20 3 20 -5 0 -12 -7 -15 -16z"/>
<path d="M1435 4430 c-3 -6 1 -7 9 -4 18 7 21 14 7 14 -6 0 -13 -4 -16 -10z"/>
<path d="M1167 4416 c-15 -12 -16 -14 -2 -20 19 -7 45 3 45 17 0 7 -4 7 -12
-1 -17 -17 -33 -15 -18 3 15 18 11 19 -13 1z"/>
<path d="M1233 4410 c-3 -11 -9 -20 -14 -20 -5 0 -9 -5 -9 -11 0 -8 5 -8 15 1
18 15 20 -1 3 -18 -8 -8 -8 -12 -1 -12 15 0 23 24 16 49 -4 17 -2 20 12 14 13
-4 16 -3 11 5 -11 18 -27 14 -33 -8z"/>
<path d="M1285 4419 c-5 -8 -4 -10 0 -6 5 4 15 -3 22 -15 7 -13 12 -18 13 -12
0 5 -6 18 -13 29 -12 15 -15 16 -22 4z"/>
<path d="M1491 4412 c-17 -31 -13 -40 5 -14 9 13 14 26 11 29 -3 2 -10 -4 -16
-15z"/>
<path d="M1550 4421 c0 -6 4 -13 10 -16 6 -3 7 1 4 9 -7 18 -14 21 -14 7z"/>
<path d="M1526 4405 c4 -8 11 -15 16 -15 6 0 5 6 -2 15 -7 8 -14 15 -16 15 -2
0 -1 -7 2 -15z"/>
<path d="M1352 4396 c7 -8 15 -12 17 -11 5 6 -10 25 -20 25 -5 0 -4 -6 3 -14z"/>
<path d="M1267 4393 c9 -3 9 -10 -3 -28 -11 -16 -12 -25 -4 -30 6 -4 14 -4 17
-1 4 3 1 6 -6 6 -10 0 -9 6 3 25 20 31 20 35 -1 34 -11 0 -13 -3 -6 -6z"/>
<path d="M1510 4391 c0 -10 19 -25 25 -20 1 2 -3 10 -11 17 -8 7 -14 8 -14 3z"/>
<path d="M1139 4388 c-1 -2 -3 -13 -4 -26 -2 -22 30 -51 43 -38 3 3 0 6 -8 6
-9 0 -10 3 -1 14 9 11 8 18 -4 30 -16 15 -23 19 -26 14z m25 -39 c-9 -16 -20
-10 -21 12 -2 17 1 18 12 9 8 -7 12 -16 9 -21z"/>
<path d="M1340 4375 c12 -14 9 -15 -18 -10 -17 3 -34 1 -37 -5 -4 -6 1 -7 12
-3 16 6 16 5 4 -10 -7 -9 -9 -17 -3 -17 5 0 13 7 16 16 3 8 10 12 16 9 5 -3
14 -4 20 0 11 7 2 35 -12 35 -6 0 -5 -7 2 -15z"/>
<path d="M1442 4375 c-7 -8 -9 -15 -4 -15 5 0 15 7 22 15 16 19 -1 19 -18 0z"/>
<path d="M1370 4366 c0 -2 7 -7 16 -10 8 -3 12 -2 9 4 -6 10 -25 14 -25 6z"/>
<path d="M1463 4357 c-3 -5 -16 -7 -29 -4 -13 2 -21 0 -18 -4 7 -12 41 -11 49
1 4 6 10 8 14 6 4 -3 13 -1 21 4 11 7 9 9 -8 7 -13 -1 -26 -5 -29 -10z"/>
<path d="M1190 4340 c0 -6 5 -8 10 -5 6 3 10 -3 10 -14 0 -27 15 -34 30 -15
11 12 11 17 0 27 -10 9 -11 9 -6 0 4 -7 4 -19 0 -25 -6 -9 -10 -5 -14 11 -6
25 -30 42 -30 21z"/>
<path d="M1355 4339 c-4 -6 -4 -13 -1 -16 3 -4 6 -1 6 5 0 7 5 12 10 12 7 0 7
-7 0 -22 -11 -22 -10 -22 4 -4 15 19 13 36 -4 36 -5 0 -12 -5 -15 -11z"/>
<path d="M1495 4340 c-3 -6 1 -7 9 -4 18 7 21 14 7 14 -6 0 -13 -4 -16 -10z"/>
<path d="M1083 4321 c-3 -13 -10 -18 -21 -14 -10 4 -13 2 -8 -5 10 -17 26 -15
33 6 4 9 11 20 17 24 7 5 6 8 -2 8 -8 0 -16 -9 -19 -19z"/>
<path d="M1320 4334 c0 -6 7 -19 15 -30 8 -10 14 -14 14 -9 0 6 -6 19 -14 29
-8 11 -15 15 -15 10z"/>
<path d="M1401 4334 c-1 -5 5 -18 12 -27 9 -13 16 -14 27 -6 12 9 12 10 -4 5
-14 -5 -17 -2 -12 9 3 9 2 14 -3 10 -5 -3 -12 1 -14 7 -3 7 -6 8 -6 2z"/>
<path d="M1470 4331 c0 -7 -4 -9 -10 -6 -6 4 -7 -1 -3 -11 6 -15 7 -15 15 1 6
9 7 19 4 22 -3 4 -6 1 -6 -6z"/>
<path d="M1115 4320 c-3 -6 -1 -18 5 -27 9 -16 10 -15 5 4 -5 18 -3 22 9 17 9
-3 16 -4 16 -1 0 10 -30 16 -35 7z"/>
<path d="M1261 4303 c-20 -17 -21 -19 -6 -41 13 -18 20 -20 35 -12 19 10 17
40 -2 40 -6 0 -6 -6 2 -14 9 -12 8 -15 -9 -13 -26 2 -24 27 4 44 11 7 15 12 9
13 -7 0 -21 -8 -33 -17z"/>
<path d="M1161 4301 c-9 -6 -11 -17 -6 -32 7 -21 6 -22 -9 -10 -10 9 -16 10
-16 2 0 -6 5 -11 10 -11 6 0 10 -6 10 -14 0 -21 20 -30 33 -16 9 10 8 12 -5 7
-14 -5 -16 0 -15 28 3 34 17 62 17 32 0 -21 36 -42 45 -26 4 6 4 13 1 16 -3 4
-6 1 -6 -5 0 -6 -7 -9 -15 -6 -8 4 -15 12 -15 19 0 19 -13 25 -29 16z"/>
<path d="M1310 4304 c0 -13 18 -39 24 -34 2 3 -2 14 -10 24 -8 11 -14 16 -14
10z"/>
<path d="M1394 4297 c5 -15 2 -17 -17 -12 -20 5 -20 5 -4 -6 23 -14 40 0 26
21 -9 12 -10 12 -5 -3z"/>
<path d="M1037 4283 c-12 -11 -8 -23 8 -23 8 0 14 -3 13 -7 -1 -5 3 -18 10
-30 10 -18 10 -28 0 -45 -7 -13 -11 -26 -10 -30 1 -5 -5 -8 -13 -8 -18 0 -20
-16 -3 -26 6 -4 8 -3 5 3 -4 6 0 14 8 17 8 3 14 9 13 13 -1 4 3 18 10 31 10
17 10 27 0 45 -7 12 -11 26 -10 30 1 4 -5 10 -13 13 -8 3 -12 10 -9 15 6 11 0
12 -9 2z"/>
<path d="M1080 4280 c-8 -5 -10 -10 -5 -10 6 0 17 5 25 10 8 5 11 10 5 10 -5
0 -17 -5 -25 -10z"/>
<path d="M1427 4276 c-10 -8 -15 -16 -10 -18 4 -3 16 3 26 14 20 21 10 24 -16
4z"/>
<path d="M1350 4260 c0 -6 5 -8 10 -5 6 3 10 -3 10 -14 0 -25 12 -33 30 -19
12 8 12 9 -2 4 -12 -3 -18 2 -20 16 -3 22 -28 38 -28 18z"/>
<path d="M1001 4257 c2 -1 15 -11 29 -22 l25 -20 -19 23 c-11 12 -24 22 -29
22 -6 0 -8 -1 -6 -3z"/>
<path d="M1081 4254 c-2 -23 39 -63 57 -57 15 6 15 5 3 -10 -7 -9 -9 -17 -3
-17 14 0 23 28 12 35 -6 4 -14 4 -19 0 -5 -3 -12 -1 -16 5 -3 5 -1 10 4 10 6
0 11 5 11 11 0 8 -6 7 -17 -2 -15 -12 -16 -12 -10 4 4 10 3 16 -2 12 -5 -3
-12 1 -14 7 -3 8 -6 9 -6 2z"/>
<path d="M1301 4239 c-13 -10 -19 -19 -13 -19 5 0 15 7 22 15 13 15 30 12 30
-6 0 -6 -5 -7 -10 -4 -6 3 -13 -1 -16 -9 -3 -9 -10 -13 -15 -10 -5 3 -6 -2 -3
-11 5 -13 2 -14 -20 -5 -15 5 -25 6 -22 1 3 -5 15 -11 26 -14 16 -4 24 1 32
18 6 14 14 22 19 20 15 -10 21 17 8 30 -12 12 -18 11 -38 -6z"/>
<path d="M1192 4236 c7 -8 15 -12 17 -11 5 6 -10 25 -20 25 -5 0 -4 -6 3 -14z"/>
<path d="M1225 4240 c-3 -5 0 -7 8 -4 8 3 18 1 22 -5 3 -7 -2 -11 -14 -11 -11
0 -23 -4 -26 -10 -3 -5 1 -8 9 -5 9 3 23 7 32 10 13 4 14 8 4 20 -14 17 -26
19 -35 5z"/>
<path d="M995 4227 c11 -7 20 -19 20 -27 0 -8 -9 -20 -20 -27 -24 -14 -12 -17
14 -4 31 17 12 71 -24 70 -5 0 -1 -5 10 -12z"/>
<path d="M980 4200 c0 -5 5 -10 10 -10 6 0 10 5 10 10 0 6 -4 10 -10 10 -5 0
-10 -4 -10 -10z"/>
<path d="M1040 4200 c0 -5 5 -10 10 -10 6 0 10 5 10 10 0 6 -4 10 -10 10 -5 0
-10 -4 -10 -10z"/>
<path d="M1180 4200 c-9 -6 -10 -10 -3 -10 6 0 15 5 18 10 8 12 4 12 -15 0z"/>
<path d="M1350 4206 c0 -2 7 -7 16 -10 8 -3 12 -2 9 4 -6 10 -25 14 -25 6z"/>
<path d="M956 4187 c3 -10 9 -15 12 -12 3 3 0 11 -7 18 -10 9 -11 8 -5 -6z"/>
<path d="M1331 4194 c-1 -6 5 -17 12 -23 10 -8 14 -7 14 4 0 8 -4 12 -8 9 -4
-2 -10 2 -12 8 -4 8 -6 9 -6 2z"/>
<path d="M1090 4169 c-7 -11 -9 -23 -6 -27 3 -3 6 0 6 7 0 7 4 9 10 6 6 -4 7
1 3 11 -5 13 -3 15 7 9 9 -5 11 -4 6 3 -10 16 -14 15 -26 -9z"/>
<path d="M1195 4179 c-4 -6 -4 -13 -1 -16 3 -4 6 -1 6 5 0 7 5 12 10 12 7 0 7
-7 0 -22 -11 -22 -10 -22 4 -4 15 19 13 36 -4 36 -5 0 -12 -5 -15 -11z"/>
<path d="M941 4163 c-1 -16 -6 -21 -20 -18 -12 2 -18 -2 -17 -13 0 -9 -4 -17
-11 -17 -6 0 -15 -4 -20 -8 -4 -5 -3 -7 2 -6 6 2 21 -3 33 -10 13 -7 26 -10
30 -7 3 3 0 6 -8 6 -10 0 -10 3 1 18 11 14 11 15 -1 5 -21 -19 -32 -15 -18 6
7 11 16 17 20 15 11 -7 21 22 15 38 -3 7 -6 3 -6 -9z"/>
<path d="M1026 4165 c-11 -8 -15 -15 -9 -15 6 0 16 7 23 15 16 19 11 19 -14 0z"/>
<path d="M1160 4174 c0 -6 7 -19 15 -30 8 -10 14 -14 14 -9 0 6 -6 19 -14 29
-8 11 -15 15 -15 10z"/>
<path d="M1241 4177 c-1 -5 4 -17 10 -28 8 -16 14 -18 24 -9 9 8 15 8 20 0 3
-5 14 -10 23 -9 14 0 14 2 -2 8 -14 5 -16 10 -8 15 7 4 18 4 25 0 9 -5 9 -4 0
6 -10 11 -15 11 -28 0 -8 -7 -15 -9 -15 -5 0 4 -8 1 -17 -6 -15 -12 -16 -12
-10 4 4 10 3 16 -2 12 -5 -3 -12 1 -14 7 -3 7 -6 9 -6 5z"/>
<path d="M966 4134 c-11 -8 -16 -14 -10 -14 13 0 39 18 34 24 -3 2 -14 -2 -24
-10z"/>
<path d="M1150 4144 c0 -13 18 -39 24 -34 2 3 -2 14 -10 24 -8 11 -14 16 -14
10z"/>
<path d="M1230 4146 c0 -5 7 -17 16 -27 15 -17 15 -18 -5 -16 -12 1 -21 7 -21
14 0 7 -5 13 -10 13 -7 0 -7 -6 0 -19 16 -30 26 -32 51 -12 13 10 31 16 39 14
13 -4 13 -3 0 6 -9 6 -18 7 -26 0 -9 -7 -17 -3 -28 13 -9 12 -16 18 -16 14z"/>
<path d="M992 4124 c-7 -8 -8 -14 -3 -14 10 0 25 19 20 25 -2 1 -10 -3 -17
-11z"/>
<path d="M1108 4133 c6 -2 9 -10 6 -15 -4 -6 -2 -8 4 -4 6 3 13 2 16 -3 3 -5
-1 -11 -9 -15 -8 -3 -17 -1 -20 4 -4 6 -16 10 -28 9 -20 -1 -20 -2 3 -8 17 -5
21 -9 12 -15 -6 -4 -18 -4 -24 0 -10 5 -10 4 -1 -6 7 -7 17 -9 25 -4 7 5 19 9
27 11 26 3 33 20 16 37 -9 9 -22 16 -28 15 -8 0 -8 -2 1 -6z"/>
<path d="M950 4100 c0 -5 5 -10 10 -10 6 0 10 5 10 10 0 6 -4 10 -10 10 -5 0
-10 -4 -10 -10z"/>
<path d="M1024 4095 c11 -8 22 -12 25 -9 6 6 -19 24 -34 24 -5 -1 -1 -7 9 -15z"/>
<path d="M1190 4105 c0 -5 5 -17 10 -25 5 -8 10 -10 10 -5 0 6 -5 17 -10 25
-5 8 -10 11 -10 5z"/>
<path d="M1141 4079 c-12 -10 -27 -17 -32 -14 -4 3 -13 -4 -19 -15 -7 -13 -7
-20 0 -20 5 0 10 7 10 16 0 8 4 13 9 10 5 -3 20 3 33 14 24 18 38 18 38 -2 0
-5 -4 -7 -9 -3 -12 7 -45 -60 -38 -77 3 -7 6 -3 6 10 1 14 5 20 12 17 6 -4 8
-14 4 -24 -5 -13 -4 -14 6 -3 9 8 10 15 2 23 -12 12 -5 52 7 44 15 -10 23 17
9 30 -12 12 -18 11 -38 -6z"/>
<path d="M1268 4084 c-8 -8 -23 -17 -33 -18 -25 -4 -28 -18 -10 -41 16 -19 16
-19 6 2 -14 29 -14 28 10 30 18 2 19 0 7 -15 -12 -15 -11 -16 4 -3 10 7 15 17
13 22 -3 4 3 12 12 18 10 5 15 12 12 15 -3 3 -12 -1 -21 -10z"/>
<path d="M887 4079 c7 -7 15 -10 18 -7 3 3 -2 9 -12 12 -14 6 -15 5 -6 -5z"/>
<path d="M975 4080 c-9 -14 4 -32 17 -24 7 5 9 2 6 -8 -4 -8 -2 -21 3 -29 5
-9 7 -4 5 16 -1 17 -8 29 -14 28 -7 -2 -12 2 -12 7 0 15 22 12 48 -6 12 -8 22
-12 22 -7 0 4 5 1 11 -7 7 -10 9 -11 7 -2 -2 8 -8 14 -13 14 -6 0 -19 7 -30
14 -23 16 -41 18 -50 4z"/>
<path d="M857 4059 c-14 -8 -16 -14 -6 -25 8 -9 8 -14 1 -14 -6 0 -16 8 -21
18 -6 9 -11 12 -11 5 0 -6 5 -15 11 -19 8 -4 7 -9 -2 -15 -10 -6 -10 -9 -2 -9
21 0 69 48 58 59 -7 6 -16 6 -28 0z m18 -18 c-3 -6 -11 -8 -17 -5 -6 4 -5 9 3
15 16 10 23 4 14 -10z"/>
<path d="M930 4065 c0 -19 19 -40 27 -30 5 6 6 9 4 8 -2 -2 -10 5 -17 15 -7 9
-13 13 -14 7z"/>
<path d="M2230 4067 c-3 -3 -36 -7 -73 -11 -77 -7 -221 -38 -312 -65 -364
-113 -699 -345 -930 -646 -15 -20 -15 -20 -30 -1 -8 11 -15 15 -15 10 0 -6 5
-15 11 -21 8 -8 -1 -29 -32 -77 -23 -36 -47 -66 -52 -66 -6 0 -7 -3 -4 -7 4
-3 -1 -12 -11 -20 -9 -8 -11 -12 -4 -8 6 3 12 4 12 1 0 -3 -13 -12 -30 -21
-29 -15 -40 -35 -19 -35 5 0 8 4 5 9 -3 5 1 11 9 14 12 5 12 2 3 -18 -13 -29
-16 -30 -46 -9 -12 8 -22 10 -22 5 0 -6 5 -11 11 -11 5 0 7 -4 4 -10 -3 -5 0
-7 8 -4 28 10 28 -16 0 -43 -15 -14 -22 -23 -15 -19 6 4 12 2 12 -3 0 -6 -5
-11 -10 -11 -6 0 -9 -3 -9 -7 4 -22 -3 -33 -18 -33 -13 0 -15 -2 -5 -8 8 -5
10 -16 6 -27 -7 -18 -8 -18 -15 1 -5 13 -7 8 -7 -19 1 -21 -4 -43 -10 -49 -7
-7 -12 -21 -12 -33 0 -12 -5 -26 -12 -33 -7 -7 -9 -12 -5 -12 4 0 3 -9 -3 -20
-6 -11 -16 -20 -22 -20 -7 0 -6 5 2 15 7 9 10 18 6 22 -3 3 -6 1 -6 -6 0 -7
-4 -10 -8 -7 -5 3 -9 -2 -9 -11 0 -9 9 -18 20 -21 19 -5 18 -6 -4 -24 -13 -11
-18 -17 -11 -13 15 8 17 -31 1 -40 -6 -4 -8 -14 -5 -22 5 -11 2 -13 -9 -9 -9
3 -14 2 -10 -3 3 -5 -1 -11 -7 -14 -10 -3 -10 -8 1 -18 8 -8 11 -9 7 -2 -3 6
-1 15 5 18 20 13 21 -3 0 -24 -12 -12 -16 -21 -11 -21 7 0 8 -13 4 -37 -4 -21
-7 -46 -6 -56 0 -9 -2 -16 -6 -13 -4 2 -7 -34 -7 -80 0 -79 -1 -83 -20 -78
-18 4 -18 4 -3 -6 10 -6 18 -21 18 -33 0 -18 -2 -19 -10 -7 -8 13 -10 12 -10
-2 0 -10 -4 -18 -10 -18 -5 0 -10 -5 -10 -12 0 -9 3 -9 12 0 18 18 28 14 28
-10 0 -19 -2 -20 -10 -8 -8 13 -10 13 -10 -2 0 -9 5 -18 12 -20 16 -6 17 -46
2 -52 -8 -3 -16 -1 -19 4 -4 6 -1 10 6 10 7 0 10 3 6 6 -3 3 -10 3 -16 0 -15
-9 -1 -38 15 -32 15 6 15 3 19 -54 1 -26 -4 -38 -19 -48 -19 -11 -19 -12 9 -6
23 4 26 3 15 -5 -8 -6 -10 -11 -5 -11 6 0 12 -10 13 -23 1 -15 -4 -24 -13 -24
-11 0 -14 7 -10 21 5 19 5 19 -5 3 -12 -19 -4 -41 11 -32 5 4 9 -2 9 -12 0
-14 2 -15 9 -4 7 10 9 7 8 -12 -2 -21 -6 -26 -22 -22 -11 2 -8 -1 6 -7 l26
-11 -20 -20 c-18 -18 -19 -21 -4 -32 9 -7 14 -15 10 -18 -3 -4 -1 -7 5 -7 17
0 15 20 -2 26 -15 6 -11 34 4 34 7 0 12 -16 26 -88 3 -14 -1 -25 -11 -28 -8
-4 -15 -11 -15 -17 0 -7 4 -7 12 1 16 16 28 15 28 -3 0 -8 -5 -14 -12 -13 -6
2 -13 -6 -15 -17 -2 -17 -2 -17 5 -3 10 25 24 10 45 -46 11 -31 14 -53 8 -60
-6 -7 -4 -18 5 -30 8 -11 14 -15 14 -10 0 6 -5 15 -12 22 -9 9 -9 12 -1 12 14
0 27 -36 18 -50 -3 -5 -1 -10 5 -10 6 0 8 -4 5 -10 -3 -5 -1 -10 5 -10 6 0 8
-4 5 -10 -3 -5 -1 -10 4 -10 6 0 11 -9 11 -20 0 -11 4 -20 9 -20 8 0 24 -37
22 -52 -1 -5 3 -8 9 -8 5 0 10 -5 10 -11 0 -5 27 -54 61 -107 212 -338 501
-591 842 -739 96 -41 271 -103 292 -103 8 0 15 -4 15 -9 0 -5 9 -7 20 -4 11 3
20 1 20 -5 0 -5 7 -13 16 -16 15 -6 15 -4 3 10 -13 16 -12 16 9 5 12 -6 22 -9
22 -5 0 3 7 1 15 -6 8 -7 12 -17 8 -23 -3 -6 -1 -7 6 -3 6 4 9 11 6 16 -3 4 7
6 22 4 46 -7 124 -14 191 -17 42 -2 67 -8 73 -18 7 -11 9 -10 9 6 0 15 2 17
13 6 10 -10 5 -18 -21 -42 -19 -17 -37 -27 -40 -24 -4 4 1 13 12 20 27 20 14
47 -16 36 -13 -5 -22 -14 -21 -20 2 -6 -4 -11 -12 -11 -8 0 -15 -5 -15 -10 0
-7 7 -7 20 0 11 6 18 15 15 19 -2 5 4 11 15 14 24 6 26 -6 5 -23 -9 -7 -14
-18 -12 -24 6 -19 31 -12 59 17 15 16 32 26 38 22 16 -10 42 -65 31 -65 -6 0
-16 11 -23 24 l-13 25 -25 -20 c-18 -14 -20 -17 -6 -12 14 5 17 3 11 -7 -5 -9
-4 -11 4 -6 6 4 9 12 6 17 -4 5 -2 9 2 9 5 0 14 -9 21 -21 7 -11 19 -18 27
-15 8 3 17 1 20 -4 4 -6 10 -10 15 -10 5 0 -2 11 -15 25 -14 13 -25 30 -25 37
1 7 9 3 20 -11 11 -13 20 -19 20 -13 0 6 -7 17 -15 26 -8 8 -11 17 -7 20 5 3
24 -11 42 -32 19 -20 31 -29 27 -20 -3 10 -2 20 3 23 6 4 10 14 9 23 0 11 -4
8 -10 -8 l-10 -25 -28 31 c-27 30 -29 30 -40 12 -7 -11 -15 -17 -18 -14 -3 3
0 14 8 23 13 16 12 17 -3 5 -18 -15 -38 -9 -38 11 0 7 4 6 10 -3 5 -8 10 -10
10 -5 0 6 30 11 68 12 90 3 185 13 250 27 12 3 22 1 22 -3 0 -14 -37 -51 -44
-44 -3 3 -6 1 -6 -5 0 -17 7 -15 39 9 18 13 27 27 24 39 -4 14 1 17 22 15 15
-2 35 -11 46 -21 10 -9 19 -14 19 -11 0 3 -10 15 -22 27 l-22 20 21 0 c13 0
24 -8 28 -20 9 -27 16 -25 45 14 14 19 26 33 28 31 2 -2 19 3 37 11 19 7 42
11 51 7 11 -4 15 -2 11 4 -4 6 17 20 51 34 349 138 675 413 880 741 140 224
239 507 268 763 11 91 11 352 1 435 -66 543 -370 1037 -818 1332 -234 153
-499 254 -769 293 -88 12 -410 21 -420 12z m670 -3662 c-16 -19 -30 -19 -30 1
0 8 4 13 9 9 5 -3 13 0 16 6 4 5 9 8 12 5 3 -3 0 -12 -7 -21z"/>
<path d="M910 4050 c0 -9 6 -24 14 -35 7 -11 14 -24 15 -30 2 -15 24 -12 27 3
1 7 0 8 -3 2 -5 -11 -24 -14 -21 -2 0 4 -6 23 -15 42 -9 19 -16 28 -17 20z"/>
<path d="M1020 4040 c0 -5 5 -10 11 -10 5 0 7 5 4 10 -3 6 -8 10 -11 10 -2 0
-4 -4 -4 -10z"/>
<path d="M1120 4035 c-7 -9 -11 -17 -9 -20 3 -2 10 5 17 15 14 24 10 26 -8 5z"/>
<path d="M1181 4036 c-10 -12 -8 -17 9 -26 12 -6 24 -9 28 -6 3 3 0 6 -7 6 -7
0 -9 4 -6 10 4 6 -1 7 -12 3 -16 -6 -16 -5 -4 10 7 9 11 17 8 17 -2 0 -10 -6
-16 -14z"/>
<path d="M871 4010 c-13 -11 -20 -20 -15 -20 4 0 16 8 27 18 19 16 20 16 14
-1 -4 -10 -3 -16 2 -12 5 3 12 -1 14 -7 3 -7 6 -8 6 -2 1 5 -5 18 -11 27 -12
15 -15 14 -37 -3z"/>
<path d="M960 4019 c-13 -9 -13 -10 0 -6 8 2 20 -5 27 -17 7 -12 12 -16 13
-10 0 5 -6 18 -12 27 -10 12 -17 14 -28 6z"/>
<path d="M1036 4015 c-11 -8 -15 -15 -10 -15 6 0 19 7 30 15 10 8 15 14 9 14
-5 0 -19 -6 -29 -14z"/>
<path d="M1060 3998 l-25 -20 26 15 c25 15 39 13 39 -5 0 -4 -6 -7 -12 -5 -7
1 -13 -4 -13 -12 0 -8 6 -15 13 -17 7 -1 8 0 2 3 -5 2 -10 9 -10 14 0 6 4 8 9
4 16 -9 24 16 10 30 -12 12 -18 11 -39 -7z"/>
<path d="M795 3989 c-4 -6 -5 -12 -2 -15 2 -3 7 2 10 11 7 17 1 20 -8 4z"/>
<path d="M814 3979 c-3 -6 -2 -15 4 -21 12 -12 32 -2 31 15 0 9 -2 9 -6 0 -2
-7 -9 -13 -14 -13 -4 0 -6 7 -3 15 7 17 -2 20 -12 4z"/>
<path d="M1022 3970 c7 -10 14 -18 15 -16 6 6 -9 36 -18 36 -5 0 -4 -9 3 -20z"/>
<path d="M1176 3981 c-3 -4 1 -17 10 -27 14 -18 15 -18 5 3 -8 16 -8 23 2 26
9 4 9 6 0 6 -6 1 -14 -3 -17 -8z"/>
<path d="M870 3971 c0 -6 5 -13 12 -17 6 -4 8 -3 4 4 -3 5 0 13 6 15 8 3 6 6
-4 6 -10 1 -18 -3 -18 -8z"/>
<path d="M765 3960 c-3 -5 -1 -10 4 -10 6 0 11 5 11 10 0 6 -2 10 -4 10 -3 0
-8 -4 -11 -10z"/>
<path d="M970 3960 c0 -5 5 -10 10 -10 6 0 10 5 10 10 0 6 -4 10 -10 10 -5 0
-10 -4 -10 -10z"/>
<path d="M1053 3958 c3 -9 1 -19 -6 -22 -9 -3 -9 -5 0 -5 18 -1 23 13 11 29
-8 12 -9 12 -5 -2z"/>
<path d="M1110 3959 c0 -6 4 -8 9 -5 5 3 11 -1 15 -9 6 -17 39 -9 33 9 -5 14
-57 18 -57 5z m50 -3 c0 -3 -4 -8 -10 -11 -5 -3 -10 -1 -10 4 0 6 5 11 10 11
6 0 10 -2 10 -4z"/>
<path d="M790 3940 c0 -5 5 -10 10 -10 6 0 10 5 10 10 0 6 -4 10 -10 10 -5 0
-10 -4 -10 -10z"/>
<path d="M860 3936 c10 -13 7 -15 -17 -13 -17 1 -28 -3 -28 -10 0 -7 4 -13 9
-12 5 0 13 -5 18 -13 8 -10 9 -10 5 2 -2 8 -10 14 -16 13 -6 -2 -11 2 -11 7 0
15 22 12 48 -6 12 -8 22 -12 22 -7 0 4 5 1 11 -7 9 -13 10 -13 6 0 -2 8 -9 15
-14 15 -6 0 -15 3 -19 8 -4 4 -2 7 4 7 7 0 12 5 12 11 0 5 -4 7 -10 4 -5 -3
-10 -1 -10 4 0 6 -5 11 -11 11 -8 0 -8 -4 1 -14z"/>
<path d="M920 3941 c17 -5 21 -9 12 -15 -6 -4 -18 -4 -24 0 -10 6 -10 4 0 -7
9 -9 15 -10 23 -2 6 6 18 9 25 6 8 -3 14 0 14 7 0 6 -4 9 -9 5 -5 -3 -12 -1
-16 5 -3 5 -16 10 -28 9 -20 -1 -20 -2 3 -8z"/>
<path d="M992 3938 c-7 -10 -5 -19 9 -37 10 -13 19 -19 19 -13 0 5 -7 15 -15
22 -15 13 -12 30 6 30 6 0 7 -5 4 -10 -3 -6 1 -13 9 -16 9 -3 13 -10 10 -15
-3 -5 3 -6 12 -2 11 4 15 3 10 -5 -3 -6 -1 -14 4 -17 16 -10 50 25 49 49 -1
18 -2 18 -8 -4 -5 -17 -9 -21 -15 -12 -4 6 -4 18 0 25 5 9 4 9 -6 0 -10 -9
-10 -15 -2 -26 12 -14 7 -27 -10 -27 -5 0 -7 4 -3 10 3 5 -6 15 -19 22 -14 7
-25 17 -25 23 1 15 -17 17 -29 3z"/>
<path d="M740 3920 c-18 -12 -2 -12 25 0 13 6 15 9 5 9 -8 0 -22 -4 -30 -9z"/>
<path d="M1155 3920 c-16 -7 -17 -9 -3 -9 9 -1 20 4 23 9 7 11 7 11 -20 0z"/>
<path d="M770 3905 c0 -3 9 -14 20 -25 12 -12 20 -15 20 -7 0 7 -9 18 -20 25
-11 7 -20 10 -20 7z"/>
<path d="M928 3885 c-6 -13 -15 -22 -20 -19 -5 3 -12 -4 -15 -16 -4 -16 -8
-18 -14 -8 -5 7 -9 9 -9 3 0 -5 4 -17 9 -24 8 -12 11 -9 16 12 4 15 11 24 17
21 5 -3 7 -13 4 -21 -3 -8 -1 -11 4 -8 6 4 10 12 9 18 -3 25 1 38 11 32 6 -4
7 1 3 11 -5 13 -3 15 7 9 9 -5 11 -4 6 3 -10 17 -15 15 -28 -13z"/>
<path d="M971 3905 c0 -5 6 -19 14 -29 8 -11 15 -15 15 -10 0 6 -7 19 -15 30
-8 10 -14 15 -14 9z"/>
<path d="M1117 3897 c-3 -8 -2 -20 3 -26 5 -9 8 -4 8 13 0 29 -3 32 -11 13z"/>
<path d="M747 3885 c-4 -8 -1 -17 5 -21 7 -4 6 -9 -3 -15 -8 -5 -9 -9 -3 -9 5
0 18 6 29 13 14 11 15 16 5 22 -9 6 -11 4 -5 -5 5 -8 3 -11 -6 -8 -8 3 -13 12
-11 22 4 20 -4 21 -11 1z"/>
<path d="M1145 3889 c-4 -6 -5 -12 -2 -15 2 -3 7 2 10 11 7 17 1 20 -8 4z"/>
<path d="M860 3875 c0 -10 -3 -15 -6 -12 -4 3 -16 1 -28 -5 -11 -7 -27 -13
-34 -14 -8 -1 -17 -5 -20 -8 -9 -10 31 -1 54 12 12 6 24 9 27 5 4 -3 9 2 13
11 4 9 4 20 0 23 -3 4 -6 -2 -6 -12z"/>
<path d="M952 3864 c-7 -8 -8 -14 -3 -14 10 0 25 19 20 25 -2 1 -10 -3 -17
-11z"/>
<path d="M1037 3863 c6 -16 5 -16 -10 -4 -9 7 -17 9 -17 3 0 -5 7 -13 16 -16
8 -3 13 -10 9 -16 -3 -5 -1 -19 6 -31 10 -19 9 -21 -5 -16 -16 6 -44 -29 -32
-41 3 -3 6 0 6 7 0 7 4 9 10 6 5 -3 7 0 5 7 -4 9 2 14 15 14 13 0 19 -5 16
-13 -3 -7 -1 -13 4 -13 14 0 12 22 -5 44 -19 26 -19 42 0 26 9 -7 15 -8 15 -2
0 5 -7 12 -15 16 -8 3 -12 12 -9 20 3 8 1 17 -5 21 -7 4 -8 -1 -4 -12z"/>
<path d="M710 3860 c0 -5 5 -10 10 -10 6 0 10 5 10 10 0 6 -4 10 -10 10 -5 0
-10 -4 -10 -10z"/>
<path d="M1076 3855 c-11 -8 -15 -15 -10 -15 6 0 19 7 30 15 10 8 15 14 9 14
-5 0 -19 -6 -29 -14z"/>
<path d="M953 3834 c-26 -19 -20 -44 11 -43 20 0 19 1 -4 10 l-24 10 29 19
c17 11 26 20 20 19 -5 0 -20 -7 -32 -15z"/>
<path d="M1100 3840 c-9 -6 -10 -10 -3 -10 6 0 15 5 18 10 8 12 4 12 -15 0z"/>
<path d="M830 3829 c-13 -7 -13 -9 0 -10 8 -1 18 -1 23 0 4 0 7 -6 7 -14 0 -8
5 -15 10 -15 7 0 7 6 0 19 -14 27 -23 31 -40 20z"/>
<path d="M984 3825 c-10 -8 -14 -14 -9 -14 6 0 19 6 29 14 11 8 15 15 10 15
-6 0 -19 -7 -30 -15z"/>
<path d="M682 3818 c-7 -7 -12 -16 -12 -22 0 -5 7 -1 16 10 14 17 15 18 10 1
-3 -11 -4 -23 0 -28 8 -14 44 9 44 28 0 30 14 2 17 -32 1 -28 -1 -33 -15 -28
-13 5 -14 3 -5 -7 13 -14 33 -5 33 16 0 8 5 14 10 14 6 0 10 5 10 11 0 8 -5 7
-16 -2 -13 -11 -14 -9 -9 13 5 18 2 27 -10 32 -12 4 -18 0 -22 -13 -3 -11 -12
-22 -20 -25 -10 -4 -13 -1 -8 13 7 23 -7 35 -23 19z"/>
<path d="M790 3810 c0 -5 5 -10 10 -10 6 0 10 5 10 10 0 6 -4 10 -10 10 -5 0
-10 -4 -10 -10z"/>
<path d="M1076 3805 c-3 -8 -1 -15 4 -15 6 0 10 7 10 15 0 8 -2 15 -4 15 -2 0
-6 -7 -10 -15z"/>
<path d="M831 3793 c7 -12 15 -20 18 -17 3 2 -3 12 -13 22 -17 16 -18 16 -5
-5z"/>
<path d="M912 3790 c7 -10 14 -18 15 -16 6 6 -9 36 -18 36 -5 0 -4 -9 3 -20z"/>
<path d="M996 3794 c-9 -24 -2 -26 12 -4 7 11 8 20 3 20 -5 0 -12 -7 -15 -16z"/>
<path d="M805 3780 c-6 -9 -4 -11 5 -5 10 6 12 4 7 -9 -4 -9 -3 -15 2 -11 5 3
12 -1 14 -7 3 -7 6 -8 6 -2 1 5 -5 18 -12 29 -11 14 -16 15 -22 5z"/>
<path d="M891 3785 c0 -5 6 -19 14 -29 8 -11 15 -15 15 -10 0 6 -7 19 -15 30
-8 10 -14 15 -14 9z"/>
<path d="M660 3764 c0 -9 -5 -12 -12 -8 -9 5 -9 2 1 -9 7 -9 22 -17 32 -17 11
0 19 -4 19 -10 0 -5 -9 -10 -19 -10 -27 0 -34 -15 -15 -30 12 -11 17 -11 27 0
9 10 9 11 0 6 -7 -4 -19 -4 -25 0 -9 6 -5 10 12 14 31 7 33 34 4 38 -16 2 -20
8 -17 23 3 10 3 19 -1 19 -3 0 -6 -7 -6 -16z"/>
<path d="M950 3769 c-13 -9 -13 -10 2 -6 22 8 29 -15 9 -30 -9 -6 -14 -13 -11
-16 3 -2 13 3 22 13 15 13 16 19 5 33 -9 13 -16 14 -27 6z"/>
<path d="M715 3759 c-11 -16 -1 -19 13 -3 7 8 8 14 3 14 -5 0 -13 -5 -16 -11z"/>
<path d="M857 3755 c-8 -18 11 -31 25 -17 11 11 3 32 -12 32 -4 0 -10 -7 -13
-15z m23 -5 c0 -5 -5 -10 -11 -10 -5 0 -7 5 -4 10 3 6 8 10 11 10 2 0 4 -4 4
-10z"/>
<path d="M790 3752 c0 -4 5 -13 12 -20 9 -9 9 -15 0 -24 -7 -7 -12 -16 -12
-20 0 -4 9 1 20 12 l20 20 -20 20 c-11 11 -20 16 -20 12z"/>
<path d="M926 3735 c-7 -19 3 -45 16 -45 6 0 5 6 -2 15 -10 12 -10 18 0 30 7
9 8 15 2 15 -5 0 -12 -7 -16 -15z"/>
<path d="M633 3725 c0 -8 4 -15 9 -15 4 0 8 4 8 9 0 6 -4 12 -8 15 -5 3 -9 -1
-9 -9z"/>
<path d="M1015 3730 c-4 -6 -10 -8 -14 -6 -4 3 -13 0 -21 -5 -12 -7 -11 -8 5
-6 11 2 27 7 35 10 8 3 22 8 30 10 10 4 7 6 -7 6 -12 1 -25 -4 -28 -9z"/>
<path d="M770 3720 c0 -5 5 -10 10 -10 6 0 10 5 10 10 0 6 -4 10 -10 10 -5 0
-10 -4 -10 -10z"/>
<path d="M890 3720 c0 -5 5 -10 10 -10 6 0 10 5 10 10 0 6 -4 10 -10 10 -5 0
-10 -4 -10 -10z"/>
<path d="M613 3693 c0 -9 9 -18 20 -21 15 -4 16 -7 5 -14 -10 -8 -9 -9 4 -5
12 4 16 0 15 -14 -1 -11 -9 -19 -20 -19 -10 0 -16 4 -13 9 3 4 -1 17 -10 27
-14 18 -14 17 -3 -6 7 -14 10 -27 8 -30 -2 -3 5 -6 17 -8 32 -5 47 20 28 46
-8 12 -22 22 -30 22 -8 0 -13 4 -9 9 3 5 2 12 -3 15 -5 3 -9 -2 -9 -11z"/>
<path d="M734 3698 c-5 -7 -2 -9 9 -5 13 5 15 -1 14 -28 -3 -34 -17 -62 -17
-32 0 21 -36 42 -45 26 -4 -6 -4 -13 -1 -16 3 -4 6 -1 6 5 0 18 28 3 33 -19 4
-13 10 -17 22 -13 12 5 15 14 10 32 -5 22 -4 24 9 13 11 -9 16 -10 16 -2 0 6
-4 11 -9 11 -5 0 -11 9 -14 20 -6 22 -22 26 -33 8z"/>
<path d="M856 3702 c-2 -4 -1 -14 4 -22 7 -11 12 -12 21 -3 6 6 8 16 5 22 -8
13 -23 14 -30 3z m24 -12 c0 -5 -2 -10 -4 -10 -3 0 -8 5 -11 10 -3 6 -1 10 4
10 6 0 11 -4 11 -10z"/>
<path d="M1015 3701 c-3 -6 3 -9 14 -8 11 0 17 5 15 9 -7 11 -22 10 -29 -1z"/>
<path d="M710 3691 c0 -10 19 -25 25 -20 1 2 -3 10 -11 17 -8 7 -14 8 -14 3z"/>
<path d="M830 3689 c0 -5 -4 -7 -10 -4 -6 4 -7 -1 -3 -11 5 -13 3 -15 -7 -9
-9 6 -11 4 -5 -5 6 -10 11 -9 22 5 13 19 17 35 8 35 -3 0 -5 -5 -5 -11z"/>
<path d="M901 3679 c-7 -12 -10 -23 -8 -26 3 -3 11 5 17 17 15 28 8 35 -9 9z"/>
<path d="M968 3690 c17 -20 15 -35 -3 -20 -9 7 -17 11 -20 9 -2 -3 5 -10 15
-17 16 -10 21 -9 31 9 6 11 8 23 5 27 -3 3 -6 0 -6 -8 0 -10 -3 -10 -17 1 -15
11 -16 11 -5 -1z"/>
<path d="M831 3647 c-13 -21 -12 -21 5 -5 10 10 16 20 13 22 -3 3 -11 -5 -18
-17z"/>
<path d="M912 3650 c-7 -11 -8 -20 -3 -20 9 0 24 30 18 36 -1 2 -8 -6 -15 -16z"/>
<path d="M991 3647 c-13 -21 -12 -21 5 -5 10 10 16 20 13 22 -3 3 -11 -5 -18
-17z"/>
<path d="M587 3635 c-4 -8 -2 -17 3 -20 6 -4 10 -11 10 -17 0 -6 -7 -5 -17 3
-16 13 -17 12 -4 -4 10 -12 17 -15 25 -7 7 7 7 13 -1 21 -6 6 -9 18 -6 25 3 8
3 14 0 14 -3 0 -7 -7 -10 -15z"/>
<path d="M860 3635 c0 -8 -3 -14 -7 -14 -5 1 -15 1 -23 0 -13 -1 -13 -3 0 -10
17 -11 26 -7 40 20 7 13 7 19 0 19 -5 0 -10 -7 -10 -15z"/>
<path d="M937 3635 c-8 -18 11 -31 25 -17 11 11 3 32 -12 32 -4 0 -10 -7 -13
-15z m23 -5 c0 -5 -5 -10 -11 -10 -5 0 -7 5 -4 10 3 6 8 10 11 10 2 0 4 -4 4
-10z"/>
<path d="M790 3630 c0 -5 5 -10 10 -10 6 0 10 5 10 10 0 6 -4 10 -10 10 -5 0
-10 -4 -10 -10z"/>
<path d="M680 3614 c-11 -12 -11 -17 0 -27 10 -9 11 -9 6 1 -4 6 -4 18 0 24 6
9 10 5 14 -11 6 -25 30 -42 30 -21 0 6 -4 8 -10 5 -5 -3 -10 3 -10 14 0 27
-15 34 -30 15z"/>
<path d="M877 3616 c-4 -10 -5 -21 -2 -24 3 -3 5 1 6 9 0 8 4 4 10 -9 5 -13
13 -21 18 -17 5 3 12 -3 16 -14 3 -10 15 -27 28 -37 16 -14 18 -15 9 -2 -11
14 -10 18 5 27 10 6 13 11 8 11 -6 0 -17 -6 -24 -12 -11 -11 -13 -10 -8 5 4
11 3 16 -3 12 -10 -6 -14 7 -11 32 1 6 -4 15 -10 19 -8 4 -9 3 -5 -4 4 -7 4
-17 0 -23 -4 -7 -11 -1 -19 17 -10 25 -12 26 -18 10z"/>
<path d="M984 3615 c-18 -14 -18 -14 4 -8 12 3 22 9 22 14 0 12 -3 11 -26 -6z"/>
<path d="M772 3604 c3 -3 12 -7 20 -8 7 -1 23 -8 36 -14 12 -7 22 -9 23 -5 0
4 5 -1 10 -12 l9 -20 -3 20 c-1 11 -4 18 -7 16 -3 -2 -16 2 -30 9 -26 15 -68
25 -58 14z"/>
<path d="M748 3593 c9 -4 10 -8 2 -18 -8 -9 -6 -17 5 -29 20 -20 36 -12 32 15
-4 21 -24 39 -42 38 -5 0 -4 -3 3 -6z m29 -34 c2 -17 -1 -18 -12 -9 -8 7 -12
16 -9 21 9 16 20 10 21 -12z"/>
<path d="M615 3581 c-3 -5 2 -17 12 -26 16 -16 17 -16 30 0 7 10 10 22 7 26
-7 12 -41 11 -49 0z m39 -16 c-5 -12 -10 -13 -20 -4 -19 15 -18 19 6 19 13 0
18 -5 14 -15z"/>
<path d="M955 3580 c28 -12 37 -12 30 0 -3 6 -16 10 -28 9 -21 0 -21 -1 -2 -9z"/>
<path d="M801 3564 c0 -11 3 -14 6 -6 3 7 2 16 -1 19 -3 4 -6 -2 -5 -13z"/>
<path d="M588 3558 c17 -17 15 -33 -3 -18 -10 9 -15 9 -15 1 0 -6 5 -11 10
-11 6 0 10 -6 10 -14 0 -21 20 -30 33 -16 9 10 8 12 -7 6 -15 -5 -17 -2 -13
15 7 25 -1 49 -16 49 -7 0 -7 -4 1 -12z"/>
<path d="M677 3556 c-3 -8 -3 -24 0 -35 4 -17 2 -20 -13 -15 -15 6 -16 4 -7
-6 13 -14 33 -5 33 16 0 8 5 14 10 14 6 0 10 5 10 11 0 8 -5 8 -15 -1 -18 -15
-20 1 -3 18 8 8 8 12 1 12 -6 0 -13 -6 -16 -14z"/>
<path d="M840 3552 c0 -7 -6 -11 -12 -9 -7 1 -13 -5 -13 -13 0 -10 9 -14 28
-13 24 2 27 0 17 -13 -9 -10 -9 -14 -1 -14 6 0 11 5 11 11 0 5 5 7 10 4 6 -3
10 -1 10 4 0 6 -5 11 -12 11 -6 0 -8 3 -4 8 4 4 13 7 19 7 5 0 12 7 14 15 4
13 3 13 -6 0 -6 -8 -11 -11 -11 -7 0 5 -10 1 -22 -7 -26 -18 -48 -21 -48 -5 0
5 4 8 9 4 11 -6 26 13 17 22 -3 4 -6 1 -6 -5z"/>
<path d="M628 3523 c6 -2 18 -2 25 0 6 3 1 5 -13 5 -14 0 -19 -2 -12 -5z"/>
<path d="M720 3520 c-8 -5 -12 -11 -10 -14 3 -2 14 2 24 10 22 15 10 19 -14 4z"/>
<path d="M905 3520 c-3 -5 0 -7 8 -4 8 3 18 1 22 -5 3 -7 -3 -11 -17 -12 -13
0 -17 -3 -10 -6 7 -3 20 -2 28 1 13 5 14 9 4 21 -14 17 -26 19 -35 5z"/>
<path d="M550 3510 c-13 -8 -12 -10 3 -10 9 0 17 5 17 10 0 12 -1 12 -20 0z"/>
<path d="M747 3508 c-13 -10 -14 -17 -6 -28 9 -13 10 -12 5 3 -6 20 5 22 22 5
14 -14 16 -32 3 -24 -5 4 -24 -6 -42 -21 -25 -21 -31 -23 -26 -10 4 11 3 16
-3 12 -6 -3 -10 -1 -10 6 0 7 -3 10 -6 7 -8 -9 16 -49 26 -43 4 3 10 2 13 -2
2 -5 2 -2 1 4 -4 14 35 45 47 37 16 -10 20 18 4 36 -13 14 -13 19 -3 23 7 3 8
6 2 6 -5 1 -18 -5 -27 -11z"/>
<path d="M790 3500 c0 -5 5 -10 10 -10 6 0 10 5 10 10 0 6 -4 10 -10 10 -5 0
-10 -4 -10 -10z"/>
<path d="M523 3478 c-2 -16 0 -19 6 -9 7 10 12 8 25 -10 9 -13 16 -19 16 -13
0 9 -36 54 -43 54 -2 0 -4 -10 -4 -22z"/>
<path d="M572 3478 c3 -7 15 -15 29 -18 16 -4 20 -8 11 -14 -6 -4 -18 -4 -24
0 -10 5 -10 4 -1 -6 10 -11 15 -11 27 0 19 15 12 30 -15 30 -11 0 -17 5 -14
10 3 6 1 10 -5 10 -7 0 -10 -6 -8 -12z"/>
<path d="M630 3480 c0 -6 7 -13 15 -16 12 -5 8 -13 -17 -36 l-33 -30 30 -24
c17 -13 35 -24 40 -24 6 0 -1 8 -15 18 -14 9 -27 26 -28 37 -3 16 -1 18 9 8 7
-7 17 -13 23 -13 5 0 1 7 -10 15 -16 12 -17 14 -3 15 22 0 33 29 14 36 -8 4
-12 10 -9 15 3 5 0 9 -5 9 -6 0 -11 -5 -11 -10z"/>
<path d="M690 3481 c0 -5 7 -12 16 -15 21 -8 24 -8 24 5 0 5 -4 7 -10 4 -5 -3
-10 -1 -10 4 0 6 -4 11 -10 11 -5 0 -10 -4 -10 -9z"/>
<path d="M815 3480 c-4 -7 -2 -17 5 -23 10 -9 12 -8 7 6 -7 18 8 24 16 7 3 -6
4 -5 3 2 -3 16 -23 21 -31 8z"/>
<path d="M877 3483 c-12 -11 -8 -23 9 -23 8 0 13 -3 10 -8 -6 -11 22 -47 31
-38 4 4 0 12 -10 17 -9 6 -15 14 -12 20 4 5 -1 12 -9 15 -9 3 -13 10 -10 15 6
11 0 12 -9 2z"/>
<path d="M530 3440 c0 -5 5 -10 10 -10 6 0 10 5 10 10 0 6 -4 10 -10 10 -5 0
-10 -4 -10 -10z"/>
<path d="M790 3443 c0 -5 5 -15 10 -23 7 -12 9 -10 7 8 -1 19 -17 33 -17 15z"/>
<path d="M851 3447 c2 -1 13 -9 24 -17 19 -14 19 -14 6 3 -7 9 -18 17 -24 17
-6 0 -8 -1 -6 -3z"/>
<path d="M750 3430 c-14 -9 -7 -12 16 -9 4 0 11 -5 15 -13 5 -8 9 -9 9 -2 0
20 -24 34 -40 24z"/>
<path d="M829 3431 c10 -7 8 -12 -10 -25 -13 -9 -18 -16 -12 -16 6 0 16 7 23
15 7 8 17 15 23 15 5 0 3 -8 -6 -18 -10 -10 -17 -22 -17 -26 0 -5 9 2 20 15
17 22 18 25 3 37 -9 6 -22 12 -27 12 -6 0 -5 -4 3 -9z"/>
<path d="M500 3418 c-12 -8 -12 -9 2 -5 9 3 19 1 22 -6 3 -9 5 -9 5 0 1 18
-13 23 -29 11z"/>
<path d="M557 3419 c-9 -6 -17 -16 -17 -22 0 -7 -9 -13 -20 -14 -13 -1 -18 2
-14 9 5 7 2 8 -6 3 -10 -6 -9 -11 5 -21 20 -15 45 -3 45 21 0 17 27 27 34 12
3 -9 5 -9 5 0 1 18 -12 23 -32 12z"/>
<path d="M670 3424 c0 -13 18 -39 24 -34 2 3 -2 14 -10 24 -8 11 -14 16 -14
10z"/>
<path d="M740 3400 c0 -5 5 -10 11 -10 5 0 7 5 4 10 -3 6 -8 10 -11 10 -2 0
-4 -4 -4 -10z"/>
<path d="M880 3394 c0 -8 -4 -13 -9 -9 -10 6 -36 -33 -28 -42 3 -2 8 5 12 16
3 12 10 19 15 16 5 -3 14 4 20 15 7 13 7 20 0 20 -5 0 -10 -7 -10 -16z"/>
<path d="M575 3377 c-3 -9 -7 -24 -10 -33 -3 -8 0 -12 5 -9 6 3 10 15 10 26 0
12 4 17 11 14 6 -4 8 -14 4 -24 -5 -13 -4 -14 6 -3 11 10 10 15 -4 29 -15 15
-17 15 -22 0z"/>
<path d="M664 3375 c11 -8 24 -15 30 -15 5 0 1 7 -10 15 -10 8 -23 14 -29 14
-5 0 -1 -6 9 -14z"/>
<path d="M710 3380 c0 -5 5 -10 10 -10 6 0 10 5 10 10 0 6 -4 10 -10 10 -5 0
-10 -4 -10 -10z"/>
<path d="M780 3376 c10 -13 7 -15 -17 -13 -17 1 -28 -3 -28 -10 0 -7 4 -12 8
-10 5 1 15 -11 23 -26 8 -15 19 -25 24 -22 5 3 7 -8 5 -25 -3 -26 -1 -29 11
-19 10 8 14 8 14 0 0 -6 -12 -16 -26 -22 -15 -5 -24 -12 -21 -16 4 -3 -3 -19
-14 -34 -11 -16 -16 -29 -11 -29 10 0 37 50 33 64 -1 5 4 6 12 3 7 -3 19 4 26
14 12 21 6 43 -10 34 -5 -4 -8 4 -6 17 1 15 -3 22 -12 20 -9 -2 -11 3 -7 13 3
9 2 14 -3 11 -5 -3 -12 1 -15 10 -3 8 -10 12 -16 9 -5 -3 -10 -1 -10 4 0 16
22 13 49 -5 18 -13 25 -14 34 -4 9 10 8 12 -5 7 -10 -3 -20 -2 -23 3 -3 5 3
11 12 13 17 4 17 5 1 6 -10 0 -18 6 -18 11 0 6 -5 10 -11 10 -8 0 -8 -4 1 -14z"/>
<path d="M499 3351 c12 -12 27 -18 32 -15 5 3 9 -2 9 -10 0 -9 5 -16 10 -16 7
0 7 7 0 21 -7 11 -14 18 -18 15 -3 -3 -17 1 -31 10 l-26 15 24 -20z"/>
<path d="M890 3360 c0 -5 5 -10 10 -10 6 0 10 5 10 10 0 6 -4 10 -10 10 -5 0
-10 -4 -10 -10z"/>
<path d="M700 3350 c-8 -5 -12 -12 -9 -15 4 -3 12 1 19 10 14 17 11 19 -10 5z"/>
<path d="M616 3341 c-4 -6 3 -20 15 -32 21 -21 23 -21 36 -4 7 11 13 24 13 29
-1 6 -7 0 -14 -12 -12 -23 -14 -23 -30 -7 -9 10 -14 20 -11 23 3 4 11 0 16 -8
9 -13 10 -13 7 -1 -5 19 -24 25 -32 12z"/>
<path d="M473 3325 c0 -8 4 -12 9 -9 4 3 8 9 8 15 0 5 -4 9 -8 9 -5 0 -9 -7
-9 -15z"/>
<path d="M511 3313 c7 -12 15 -20 18 -17 3 2 -3 12 -13 22 -17 16 -18 16 -5
-5z"/>
<path d="M588 3318 c17 -17 15 -33 -3 -18 -10 9 -15 9 -15 1 0 -6 5 -11 10
-11 6 0 10 -6 10 -14 0 -21 20 -30 33 -16 9 10 8 12 -7 6 -15 -5 -17 -2 -13
15 7 25 -1 49 -16 49 -7 0 -7 -4 1 -12z"/>
<path d="M850 3326 c0 -2 7 -7 16 -10 8 -3 12 -2 9 4 -6 10 -25 14 -25 6z"/>
<path d="M740 3312 c0 -6 -8 -9 -17 -6 -15 5 -16 4 -3 -5 16 -11 40 3 27 16
-4 3 -7 1 -7 -5z"/>
<path d="M818 3308 c6 -6 18 -8 28 -6 14 3 12 5 -9 10 -19 3 -25 2 -19 -4z"/>
<path d="M485 3300 c-6 -9 -4 -11 5 -5 8 5 11 3 8 -6 -3 -8 -14 -13 -24 -11
-15 2 -16 1 -4 -7 9 -6 18 -6 26 0 8 7 14 6 17 -3 3 -7 6 -8 6 -2 1 5 -5 18
-12 29 -11 14 -16 15 -22 5z"/>
<path d="M537 3275 c-8 -18 11 -31 25 -17 11 11 3 32 -12 32 -4 0 -10 -7 -13
-15z m23 -5 c0 -5 -5 -10 -11 -10 -5 0 -7 5 -4 10 3 6 8 10 11 10 2 0 4 -4 4
-10z"/>
<path d="M632 3276 c7 -8 15 -12 17 -11 5 6 -10 25 -20 25 -5 0 -4 -6 3 -14z"/>
<path d="M664 3279 c-3 -5 1 -6 9 -3 8 3 18 1 21 -4 3 -6 -6 -13 -21 -17 -21
-5 -24 -8 -12 -16 7 -5 19 -9 24 -9 6 0 4 4 -3 9 -10 6 -8 10 8 14 12 3 19 10
15 16 -10 17 11 13 25 -4 7 -8 22 -15 34 -14 19 1 18 2 -4 8 -17 5 -21 9 -12
15 6 4 18 4 25 0 9 -5 9 -4 0 6 -10 10 -15 11 -27 1 -8 -7 -17 -8 -20 -3 -7
12 -55 12 -62 1z"/>
<path d="M820 3286 c0 -2 8 -10 18 -17 15 -13 16 -12 3 4 -13 16 -21 21 -21
13z"/>
<path d="M457 3249 c7 -7 15 -10 18 -7 3 3 -2 9 -12 12 -14 6 -15 5 -6 -5z"/>
<path d="M490 3240 c0 -5 5 -10 10 -10 6 0 10 5 10 10 0 6 -4 10 -10 10 -5 0
-10 -4 -10 -10z"/>
<path d="M560 3240 c-8 -5 -10 -10 -5 -10 6 0 17 5 25 10 8 5 11 10 5 10 -5 0
-17 -5 -25 -10z"/>
<path d="M633 3222 c0 -15 2 -21 4 -14 5 13 24 17 21 5 -3 -13 25 -63 34 -63
5 0 1 12 -10 28 -11 15 -20 31 -21 35 0 4 -7 14 -14 22 -13 12 -14 10 -14 -13z"/>
<path d="M453 3218 c-15 -20 -24 -50 -13 -43 6 3 10 12 10 20 0 7 6 15 13 18
6 2 9 7 6 11 -3 4 -11 1 -16 -6z"/>
<path d="M512 3218 c-7 -10 -5 -19 9 -37 10 -13 19 -19 19 -13 0 5 -7 15 -15
22 -15 13 -12 30 6 30 6 0 8 -4 4 -9 -8 -14 15 -25 28 -12 7 7 14 7 24 -1 10
-8 17 -8 26 2 9 10 9 11 0 6 -7 -4 -19 -4 -25 0 -9 6 -5 10 12 15 22 6 23 7 4
8 -12 1 -27 -6 -34 -14 -15 -18 -31 -20 -27 -4 3 17 -18 22 -31 7z"/>
<path d="M708 3223 c6 -2 18 -2 25 0 6 3 1 5 -13 5 -14 0 -19 -2 -12 -5z"/>
<path d="M476 3205 c-9 -26 -7 -32 5 -12 6 10 9 21 6 23 -2 3 -7 -2 -11 -11z"/>
<path d="M681 3217 c-2 -21 20 -46 36 -40 12 5 14 3 9 -8 -4 -8 2 -3 13 10 12
13 21 28 20 35 0 7 -2 6 -6 -2 -2 -6 -9 -10 -14 -7 -5 4 -6 0 -4 -7 4 -9 -2
-14 -15 -14 -13 0 -19 5 -15 14 2 7 1 11 -4 7 -5 -3 -12 1 -14 7 -3 7 -6 9 -6
5z"/>
<path d="M491 3185 c0 -5 6 -19 14 -29 8 -11 15 -15 15 -10 0 6 -7 19 -15 30
-8 10 -14 15 -14 9z"/>
<path d="M560 3178 c-12 -8 -12 -9 2 -5 9 3 19 1 22 -6 3 -9 5 -9 5 0 1 18
-13 23 -29 11z"/>
<path d="M608 3164 c-6 -13 -14 -21 -19 -19 -14 9 -21 -15 -9 -30 10 -12 15
-12 35 1 15 10 25 12 30 5 3 -6 11 -11 18 -11 6 0 2 6 -9 14 -16 13 -22 13
-40 1 -21 -14 -34 -11 -34 7 0 5 5 6 10 3 6 -3 13 1 16 9 3 9 10 13 15 10 5
-3 6 2 2 11 -5 15 -3 15 15 4 11 -7 19 -16 16 -20 -5 -9 35 -33 43 -26 2 3 -5
8 -16 12 -12 3 -19 11 -16 16 4 5 -1 12 -9 15 -9 3 -14 9 -11 13 2 4 -3 8 -11
8 -9 0 -21 -11 -26 -23z"/>
<path d="M445 3160 c-3 -6 1 -7 9 -4 18 7 21 14 7 14 -6 0 -13 -4 -16 -10z"/>
<path d="M467 3149 c-13 -8 -15 -14 -7 -29 9 -17 14 -18 30 -8 10 7 17 14 15
17 -3 2 -11 -1 -19 -8 -11 -9 -15 -8 -20 4 -3 9 0 15 9 15 8 0 15 5 15 10 0
12 0 12 -23 -1z"/>
<path d="M530 3141 c0 -5 7 -12 16 -15 14 -5 15 -4 4 9 -14 17 -20 19 -20 6z"/>
<path d="M710 3140 c0 -5 5 -10 10 -10 6 0 10 5 10 10 0 6 -4 10 -10 10 -5 0
-10 -4 -10 -10z"/>
<path d="M435 3117 c4 -22 3 -27 -7 -21 -7 4 -2 -5 11 -19 13 -15 33 -29 43
-33 10 -3 16 -10 12 -15 -3 -6 4 -13 16 -16 16 -4 18 -8 8 -14 -7 -5 -8 -9 -3
-9 6 0 17 4 24 9 12 8 9 11 -12 16 -15 4 -24 11 -21 17 3 5 13 7 21 4 8 -3 11
-1 8 4 -4 6 -12 10 -18 9 -25 -3 -38 1 -32 11 4 6 -1 7 -12 3 -16 -6 -16 -5
-4 10 9 11 10 17 2 17 -6 0 -11 -5 -11 -11 0 -5 -5 -7 -10 -4 -6 4 -8 10 -5
15 3 4 0 19 -5 32 -10 21 -10 21 -5 -5z"/>
<path d="M504 3105 c-10 -8 -14 -14 -9 -14 6 0 19 6 29 14 11 8 15 15 10 15
-6 0 -19 -7 -30 -15z"/>
<path d="M550 3100 c0 -5 5 -10 10 -10 6 0 10 5 10 10 0 6 -4 10 -10 10 -5 0
-10 -4 -10 -10z"/>
<path d="M614 3099 c-5 -9 -2 -10 10 -6 14 5 17 3 12 -8 -3 -8 -1 -15 5 -15
14 0 7 32 -8 37 -6 2 -15 -1 -19 -8z"/>
<path d="M675 3081 c5 -17 4 -21 -5 -16 -7 4 -13 -1 -17 -14 -3 -12 -9 -21
-14 -21 -5 0 -9 -4 -9 -10 0 -21 20 -9 26 15 3 14 10 22 16 19 5 -3 7 -13 4
-21 -3 -8 -1 -11 4 -8 11 7 7 62 -5 73 -4 4 -4 -4 0 -17z"/>
<path d="M530 3070 c10 -19 40 -18 40 2 0 6 -6 5 -15 -2 -12 -10 -15 -10 -15
4 0 9 -5 16 -10 16 -7 0 -7 -6 0 -20z"/>
<path d="M586 3075 c4 -8 8 -15 10 -15 2 0 4 7 4 15 0 8 -4 15 -10 15 -5 0 -7
-7 -4 -15z"/>
<path d="M440 3045 c19 -14 36 -25 39 -25 10 0 -53 49 -63 50 -6 0 5 -11 24
-25z"/>
<path d="M610 3061 c0 -5 7 -12 16 -15 14 -5 15 -4 4 9 -14 17 -20 19 -20 6z"/>
<path d="M710 3060 c-9 -6 -10 -10 -3 -10 6 0 15 5 18 10 8 12 4 12 -15 0z"/>
<path d="M414 3032 c1 -7 5 -12 9 -10 5 2 15 -9 23 -24 10 -20 19 -25 36 -21
13 3 20 2 16 -2 -4 -4 -2 -17 4 -29 7 -11 13 -27 14 -34 1 -8 5 -17 8 -20 10
-9 1 31 -11 53 -6 11 -13 25 -15 30 -1 6 -11 10 -21 9 -11 0 -16 4 -13 13 3 8
2 12 -3 9 -5 -3 -12 1 -15 10 -3 8 -10 13 -15 10 -5 -4 -11 -1 -14 6 -3 10 -4
10 -3 0z"/>
<path d="M563 3043 c-7 -2 -13 -10 -13 -16 0 -8 4 -7 12 1 17 17 33 15 18 -3
-9 -10 -9 -15 -1 -15 6 0 11 5 11 10 0 6 8 10 18 11 14 0 14 2 -3 9 -23 10
-26 10 -42 3z"/>
<path d="M594 2999 c-8 -14 18 -31 30 -19 9 9 0 30 -14 30 -5 0 -12 -5 -16
-11z m26 -9 c0 -5 -2 -10 -4 -10 -3 0 -8 5 -11 10 -3 6 -1 10 4 10 6 0 11 -4
11 -10z"/>
<path d="M654 2999 c-10 -17 9 -30 26 -18 13 9 12 10 -2 5 -20 -6 -25 10 -5
17 9 4 9 6 0 6 -6 1 -15 -4 -19 -10z"/>
<path d="M420 2991 c0 -7 -5 -9 -12 -5 -7 5 -8 3 -3 -5 5 -9 10 -10 18 -2 6 6
8 14 4 18 -4 3 -7 1 -7 -6z"/>
<path d="M543 2985 c-14 -10 -20 -22 -16 -31 4 -12 8 -13 14 -3 4 7 5 17 3 21
-3 4 2 8 10 8 9 0 16 5 16 10 0 13 -2 13 -27 -5z"/>
<path d="M425 2960 c-4 -6 -10 -8 -15 -5 -5 3 -12 0 -16 -6 -4 -7 -3 -9 4 -5
6 3 13 2 17 -4 3 -5 16 -10 28 -9 20 1 20 2 -3 8 -17 5 -21 9 -12 15 6 4 17 4
24 0 7 -4 8 -3 4 4 -9 15 -23 15 -31 2z"/>
<path d="M559 2953 c-13 -17 -13 -17 6 -3 11 8 22 16 24 17 2 2 0 3 -6 3 -6 0
-17 -8 -24 -17z"/>
<path d="M635 2960 c3 -5 -3 -18 -15 -30 -11 -11 -16 -20 -11 -20 11 0 41 39
41 52 0 5 -5 8 -11 8 -5 0 -8 -4 -4 -10z"/>
<path d="M470 2950 c0 -5 5 -10 11 -10 5 0 7 5 4 10 -3 6 -8 10 -11 10 -2 0
-4 -4 -4 -10z"/>
<path d="M585 2947 c-14 -11 -15 -16 -5 -22 9 -6 11 -4 5 5 -6 10 -4 12 9 7 9
-4 15 -3 11 2 -3 5 1 12 7 14 7 3 8 6 2 6 -5 1 -18 -5 -29 -12z"/>
<path d="M407 2919 c7 -7 15 -10 18 -7 3 3 -2 9 -12 12 -14 6 -15 5 -6 -5z"/>
<path d="M478 2923 c7 -3 16 -2 19 1 4 3 -2 6 -13 5 -11 0 -14 -3 -6 -6z"/>
<path d="M540 2920 c0 -5 5 -10 10 -10 6 0 10 5 10 10 0 6 -4 10 -10 10 -5 0
-10 -4 -10 -10z"/>
<path d="M454 2899 c-3 -6 5 -8 21 -5 21 4 25 2 21 -10 -3 -9 -1 -12 4 -9 6 3
10 1 10 -6 0 -7 3 -10 6 -7 3 4 1 15 -4 25 -11 20 -48 28 -58 12z"/>
<path d="M581 2894 c11 -13 9 -14 -13 -9 -18 5 -27 2 -32 -10 -4 -12 0 -18 13
-22 11 -3 22 -11 25 -18 6 -16 -21 -29 -29 -15 -4 6 -16 10 -28 9 -20 -1 -20
-2 3 -8 17 -5 21 -9 12 -15 -6 -4 -18 -4 -24 0 -10 5 -10 4 -1 -6 10 -11 15
-11 28 0 8 7 15 9 15 6 0 -4 9 -2 20 4 16 9 18 15 10 30 -6 11 -18 20 -27 20
-30 0 -2 14 32 17 28 1 33 -1 28 -15 -5 -13 -3 -14 7 -5 14 13 5 33 -16 33 -8
0 -14 5 -14 10 0 6 -5 10 -11 10 -8 0 -7 -5 2 -16z"/>
<path d="M395 2890 c3 -5 8 -10 11 -10 2 0 4 5 4 10 0 6 -5 10 -11 10 -5 0 -7
-4 -4 -10z"/>
<path d="M425 2881 c-4 -12 -12 -18 -21 -14 -7 3 -14 3 -14 0 0 -3 7 -7 15
-11 14 -5 42 30 32 41 -3 2 -8 -5 -12 -16z"/>
<path d="M432 2850 c-7 -11 -8 -20 -3 -20 9 0 24 30 18 36 -1 2 -8 -6 -15 -16z"/>
<path d="M471 2850 c-10 -5 -9 -8 2 -13 7 -3 19 -2 26 3 10 5 9 8 -2 13 -7 3
-19 2 -26 -3z"/>
<path d="M590 2851 c0 -10 19 -25 25 -20 1 2 -3 10 -11 17 -8 7 -14 8 -14 3z"/>
<path d="M393 2815 c0 -8 4 -12 9 -9 4 3 8 9 8 15 0 5 -4 9 -8 9 -5 0 -9 -7
-9 -15z"/>
<path d="M460 2816 c10 -13 7 -15 -17 -13 -19 1 -28 -3 -28 -13 0 -8 5 -14 11
-13 5 1 16 -8 23 -19 11 -18 11 -20 -4 -15 -9 4 -14 3 -10 -3 3 -6 1 -10 -6
-10 -7 0 -10 -3 -6 -6 9 -9 40 12 43 30 1 9 -1 14 -6 11 -4 -3 -11 2 -14 11
-3 8 -10 12 -16 9 -5 -3 -10 -1 -10 4 0 15 22 14 46 -4 12 -8 24 -11 28 -8 3
3 6 1 6 -4 0 -6 -3 -13 -7 -16 -5 -2 -3 -2 4 -1 14 3 34 -19 37 -42 2 -10 9
-20 17 -22 8 -2 10 0 4 5 -5 4 -11 14 -13 21 -4 21 -44 72 -53 66 -4 -2 -10 0
-14 6 -3 5 -1 10 4 10 6 0 11 5 11 11 0 5 -4 7 -10 4 -5 -3 -10 -1 -10 4 0 6
-5 11 -11 11 -8 0 -8 -4 1 -14z"/>
<path d="M590 2800 c0 -5 7 -7 15 -4 8 4 15 8 15 10 0 2 -7 4 -15 4 -8 0 -15
-4 -15 -10z"/>
<path d="M390 2783 c0 -7 5 -15 11 -18 6 -5 4 -12 -8 -20 -10 -7 -15 -17 -10
-21 4 -4 7 -2 7 5 0 7 4 10 9 7 16 -10 19 19 5 39 -8 10 -14 14 -14 8z"/>
<path d="M534 2778 c-7 -11 5 -28 19 -27 9 0 9 2 0 6 -7 2 -13 9 -13 14 0 6 4
8 8 5 4 -2 14 -1 22 4 11 7 9 9 -8 7 -13 -1 -26 -5 -28 -9z"/>
<path d="M466 2725 c-11 -8 -15 -15 -9 -15 6 0 16 7 23 15 16 19 11 19 -14 0z"/>
<path d="M499 2730 c-1 -8 -1 -18 0 -22 0 -5 -6 -8 -14 -8 -8 0 -15 -5 -15
-10 0 -7 6 -7 19 0 27 14 31 23 20 40 -7 13 -9 13 -10 0z"/>
<path d="M556 2727 c3 -10 9 -15 12 -12 3 3 0 11 -7 18 -10 9 -11 8 -5 -6z"/>
<path d="M390 2705 c-7 -9 -11 -17 -9 -20 3 -2 10 5 17 15 14 24 10 26 -8 5z"/>
<path d="M401 2679 c-22 -29 -22 -30 -2 -17 12 7 21 19 21 26 0 7 5 10 10 7 6
-4 8 -16 5 -28 -5 -17 -4 -19 4 -7 30 42 -7 60 -38 19z"/>
<path d="M510 2680 c0 -5 5 -10 10 -10 6 0 10 5 10 10 0 6 -4 10 -10 10 -5 0
-10 -4 -10 -10z"/>
<path d="M543 2665 c-14 -10 -20 -22 -16 -31 4 -12 8 -13 14 -3 4 7 5 17 3 21
-3 4 2 8 10 8 9 0 16 5 16 10 0 13 -2 13 -27 -5z"/>
<path d="M451 2652 c-17 -31 -13 -40 5 -14 9 13 14 26 11 29 -3 2 -10 -4 -16
-15z"/>
<path d="M490 2661 c8 -6 11 -11 7 -11 -4 0 -2 -10 5 -22 6 -13 13 -29 14 -36
1 -8 5 -17 8 -20 11 -10 1 32 -14 58 -7 14 -12 27 -11 30 1 2 -3 6 -11 8 -9 2
-8 0 2 -7z"/>
<path d="M395 2639 c-11 -16 -1 -19 13 -3 7 8 8 14 3 14 -5 0 -13 -5 -16 -11z"/>
<path d="M470 2630 c0 -5 5 -10 11 -10 5 0 7 5 4 10 -3 6 -8 10 -11 10 -2 0
-4 -4 -4 -10z"/>
<path d="M421 2614 c12 -15 11 -16 -8 -10 -13 4 -24 2 -29 -5 -4 -7 -3 -9 3
-6 6 4 25 1 43 -7 20 -8 28 -16 21 -20 -6 -4 -16 -4 -23 0 -7 4 -8 3 -4 -5 4
-6 13 -11 19 -10 27 3 38 -2 31 -13 -4 -7 2 -5 13 5 16 14 22 15 26 5 3 -7 6
-8 6 -2 1 5 -5 18 -12 29 -11 14 -16 15 -22 5 -5 -9 -4 -11 3 -6 12 7 17 -6 6
-17 -9 -9 -35 4 -28 14 3 5 -4 13 -15 17 -19 7 -21 10 -21 32 0 6 -5 10 -11
10 -8 0 -7 -6 2 -16z"/>
<path d="M450 2605 c0 -8 29 -12 39 -5 9 5 4 8 -13 8 -14 0 -26 -2 -26 -3z"/>
<path d="M390 2570 c0 -5 5 -10 10 -10 6 0 10 5 10 10 0 6 -4 10 -10 10 -5 0
-10 -4 -10 -10z"/>
<path d="M390 2538 c0 -6 6 -8 14 -5 8 3 17 2 20 -4 2 -5 3 -4 2 2 -3 15 -36
21 -36 7z"/>
<path d="M535 2540 c3 -5 8 -10 11 -10 2 0 4 5 4 10 0 6 -5 10 -11 10 -5 0 -7
-4 -4 -10z"/>
<path d="M447 2527 c-6 -16 19 -44 30 -33 3 3 1 6 -6 6 -7 0 -10 4 -7 8 2 4 1
14 -3 21 -7 10 -9 9 -14 -2z"/>
<path d="M485 2520 c-3 -6 1 -7 9 -4 18 7 21 14 7 14 -6 0 -13 -4 -16 -10z"/>
<path d="M417 2504 c-4 -4 -7 -16 -7 -26 0 -11 -4 -17 -8 -14 -4 2 -8 -6 -8
-19 0 -19 3 -22 17 -14 25 13 29 11 23 -8 -5 -15 -4 -15 4 -3 15 20 4 32 -21
24 -18 -5 -20 -4 -9 7 6 7 12 21 12 32 0 10 5 15 11 12 6 -4 8 -14 4 -24 -5
-13 -4 -14 6 -3 11 10 10 15 -2 27 -8 9 -18 12 -22 9z"/>
<path d="M499 2503 c-1 -5 -1 -11 0 -15 0 -5 -3 -8 -7 -8 -5 0 -16 -6 -27 -13
-14 -11 -15 -16 -5 -22 9 -6 11 -4 5 5 -5 8 -3 11 6 8 8 -3 13 -14 11 -24 -2
-14 -1 -16 6 -5 7 9 12 10 16 2 4 -6 12 -11 18 -11 6 0 -2 10 -17 22 -23 18
-25 22 -11 30 9 5 14 13 11 19 -4 5 -1 9 5 9 8 0 10 -10 6 -27 -5 -23 -4 -25
5 -10 12 20 6 47 -11 47 -5 0 -11 -3 -11 -7z"/>
<path d="M451 2412 c-17 -31 -13 -40 5 -14 9 13 14 26 11 29 -3 2 -10 -4 -16
-15z"/>
<path d="M395 2400 c-3 -6 1 -7 9 -4 18 7 21 14 7 14 -6 0 -13 -4 -16 -10z"/>
<path d="M490 2399 c0 -5 -4 -7 -10 -4 -5 3 -10 1 -10 -4 0 -13 3 -13 24 -5
18 7 22 24 6 24 -5 0 -10 -5 -10 -11z"/>
<path d="M406 2374 c-5 -14 -4 -15 9 -4 17 14 19 20 6 20 -5 0 -12 -7 -15 -16z"/>
<path d="M510 2371 c0 -7 -4 -9 -10 -6 -5 3 -7 0 -4 -9 4 -11 0 -13 -15 -9
-12 3 -21 3 -21 0 0 -2 9 -7 20 -10 14 -3 24 1 31 15 6 11 8 22 5 26 -3 3 -6
0 -6 -7z"/>
<path d="M430 2358 c0 -11 12 -10 30 2 12 7 10 9 -8 7 -12 0 -22 -5 -22 -9z"/>
<path d="M410 2343 c5 -2 8 -8 6 -12 -3 -4 0 -13 5 -21 7 -11 8 -9 6 9 -2 14
-9 26 -16 27 -6 1 -7 0 -1 -3z"/>
<path d="M441 2332 c-1 -17 44 -62 61 -62 7 1 2 7 -12 15 -14 8 -19 14 -12 15
6 0 12 5 12 11 0 8 -6 7 -17 -2 -15 -12 -16 -12 -10 4 4 10 3 16 -2 12 -5 -3
-12 1 -14 7 -4 10 -6 10 -6 0z"/>
<path d="M433 2268 c-2 -18 0 -20 7 -8 12 18 13 30 2 30 -4 0 -9 -10 -9 -22z"/>
<path d="M449 2249 c-6 -11 -8 -23 -5 -27 3 -3 6 0 6 7 0 7 4 9 10 6 6 -4 7 1
3 12 -6 16 -5 16 10 4 9 -7 17 -9 17 -3 0 20 -30 21 -41 1z"/>
<path d="M423 2212 c0 -10 7 -19 14 -19 17 0 16 5 -1 23 -13 12 -15 12 -13 -4z"/>
<path d="M467 2189 c-9 -6 -15 -14 -12 -20 4 -5 -1 -12 -9 -15 -9 -3 -13 -10
-10 -16 3 -5 12 -1 19 9 7 10 11 21 9 25 -3 5 2 8 10 8 9 0 16 5 16 10 0 12 0
12 -23 -1z"/>
<path d="M479 2153 c-13 -17 -13 -17 6 -3 11 8 22 16 24 17 2 2 0 3 -6 3 -6 0
-17 -8 -24 -17z"/>
<path d="M449 2113 c-13 -17 -13 -17 6 -3 11 8 22 16 24 17 2 2 0 3 -6 3 -6 0
-17 -8 -24 -17z"/>
<path d="M470 2100 c0 -5 5 -10 10 -10 6 0 10 5 10 10 0 6 -4 10 -10 10 -5 0
-10 -4 -10 -10z"/>
<path d="M445 2080 c3 -5 8 -10 11 -10 2 0 4 5 4 10 0 6 -5 10 -11 10 -5 0 -7
-4 -4 -10z"/>
<path d="M508 2083 c7 -3 16 -2 19 1 4 3 -2 6 -13 5 -11 0 -14 -3 -6 -6z"/>
<path d="M472 2068 c-7 -7 -11 -21 -11 -32 1 -21 1 -21 6 -1 3 11 10 26 15 33
13 15 6 16 -10 0z"/>
<path d="M490 2055 c-11 -13 -10 -14 4 -9 9 3 16 10 16 15 0 13 -6 11 -20 -6z"/>
<path d="M512 2044 c-7 -8 -8 -14 -3 -14 10 0 25 19 20 25 -2 1 -10 -3 -17
-11z"/>
<path d="M476 2014 c-8 -20 -8 -24 2 -24 4 0 8 9 9 20 2 24 -3 26 -11 4z"/>
<path d="M495 1981 c-3 -6 -10 -9 -15 -6 -4 3 -6 -5 -2 -17 4 -16 7 -18 10 -8
3 8 10 18 16 22 6 4 8 10 4 13 -3 4 -9 1 -13 -4z"/>
<path d="M497 1903 c-3 -5 0 -17 4 -28 9 -19 9 -19 5 2 -2 14 2 23 13 26 14 4
14 5 -1 6 -9 0 -19 -2 -21 -6z"/>
<path d="M516 1855 c-9 -26 -7 -32 5 -12 6 10 9 21 6 23 -2 3 -7 -2 -11 -11z"/>
<path d="M530 1780 c0 -5 5 -10 11 -10 5 0 7 5 4 10 -3 6 -8 10 -11 10 -2 0
-4 -4 -4 -10z"/>
<path d="M540 1756 c0 -2 9 -6 20 -9 11 -3 18 -1 14 4 -5 9 -34 13 -34 5z"/>
<path d="M4931 1703 c3 -20 -2 -33 -12 -30 -6 1 -14 -5 -16 -13 -4 -13 -3 -13
6 0 6 8 11 11 11 5 1 -12 30 25 30 37 0 4 -4 8 -10 8 -5 0 -9 -3 -9 -7z"/>
<path d="M596 1633 c-6 -14 -5 -15 5 -6 7 7 10 15 7 18 -3 3 -9 -2 -12 -12z"/>
<path d="M4883 1630 c1 -11 8 -18 19 -17 10 1 18 2 18 2 0 0 -9 8 -19 17 -18
16 -20 15 -18 -2z"/>
<path d="M613 1601 c0 -11 5 -18 9 -15 4 3 5 11 1 19 -7 21 -12 19 -10 -4z"/>
<path d="M4856 1585 c-7 -8 -17 -11 -22 -7 -5 4 -3 0 4 -9 10 -13 9 -19 -2
-29 -9 -6 -20 -9 -25 -5 -7 4 -8 -1 -4 -11 4 -11 3 -15 -5 -10 -23 14 -21 -13
3 -28 31 -20 45 -21 19 -1 -18 14 -18 16 14 45 18 17 38 28 44 24 7 -4 8 -3 4
4 -4 6 -14 8 -24 5 -15 -6 -15 -5 -3 10 10 13 17 15 27 6 9 -7 14 -8 14 -1 0
17 -29 22 -44 7z"/>
<path d="M4863 1533 c-7 -2 -13 -11 -13 -19 0 -9 -4 -12 -10 -9 -5 3 -10 1
-10 -4 0 -19 17 -12 34 14 9 14 15 25 14 24 -2 0 -9 -3 -15 -6z"/>
<path d="M4765 1480 c-3 -5 -1 -10 4 -10 6 0 11 5 11 10 0 6 -2 10 -4 10 -3 0
-8 -4 -11 -10z"/>
<path d="M4800 1468 c6 -7 10 -19 10 -27 -1 -14 -3 -13 -14 2 -14 18 -32 24
-21 7 3 -5 -1 -10 -10 -10 -10 0 -13 5 -9 12 4 7 3 8 -5 4 -17 -11 -2 -29 20
-23 11 3 23 -1 28 -11 7 -13 10 -12 16 7 5 16 2 28 -9 37 -9 8 -11 9 -6 2z"/>
<path d="M4751 1413 c-1 -6 -10 -10 -21 -8 -13 3 -18 0 -14 -7 5 -7 2 -9 -8
-5 -11 4 -15 1 -13 -11 2 -9 4 -20 4 -24 1 -5 6 -8 12 -8 8 0 8 5 -1 15 -10
12 -10 15 4 15 9 0 16 4 16 9 0 4 12 8 27 7 14 -1 28 5 30 12 3 6 0 12 -7 12
-6 0 -8 -4 -5 -10 3 -5 2 -10 -4 -10 -5 0 -12 6 -14 13 -4 9 -6 9 -6 0z"/>
<path d="M4786 1383 c-4 -5 -17 -8 -29 -8 -27 0 -32 -17 -7 -32 14 -9 21 -10
26 -1 4 6 3 8 -3 5 -6 -4 -17 1 -24 10 -12 14 -11 15 7 9 14 -4 26 -1 34 9 13
15 10 21 -4 8z"/>
<path d="M4665 1360 c-8 -13 4 -32 15 -25 4 3 11 -2 14 -11 3 -9 13 -14 21
-10 8 3 17 1 20 -4 4 -6 -2 -10 -12 -11 -11 0 -13 -3 -5 -6 16 -6 44 16 36 28
-3 5 -10 7 -15 4 -5 -4 -9 -1 -9 4 0 6 -5 11 -11 11 -5 0 -7 -4 -4 -10 3 -5 2
-10 -3 -10 -6 0 -13 7 -16 16 -3 9 -11 12 -18 8 -8 -5 -9 -2 -5 9 7 19 2 23
-8 7z"/>
<path d="M4654 1315 c8 -9 19 -15 23 -15 4 1 11 -7 15 -17 7 -17 8 -17 5 0 -1
10 -6 17 -11 17 -5 -1 -13 5 -18 14 -5 9 -14 16 -19 16 -6 0 -4 -7 5 -15z"/>
<path d="M4635 1300 c-4 -6 -11 -8 -16 -4 -5 3 -8 2 -7 -3 4 -12 -39 -52 -48
-45 -4 4 -4 1 0 -5 4 -7 2 -13 -3 -13 -6 0 -11 -4 -11 -10 0 -18 17 -10 30 15
7 14 16 23 18 20 3 -3 12 4 20 16 11 16 17 17 28 8 10 -8 14 -8 14 0 0 6 -5
11 -11 11 -5 0 -7 5 -4 10 3 6 4 10 1 10 -3 0 -8 -5 -11 -10z"/>
<path d="M4670 1270 c0 -5 9 -14 20 -20 11 -6 20 -9 20 -8 0 2 -9 11 -20 21
-11 9 -20 13 -20 7z"/>
<path d="M4710 1269 c0 -5 5 -7 10 -4 6 3 10 8 10 11 0 2 -4 4 -10 4 -5 0 -10
-5 -10 -11z"/>
<path d="M4601 1229 c-19 -21 -38 -36 -43 -33 -4 3 -5 -3 -1 -13 6 -16 5 -16
-10 -4 -9 7 -14 18 -10 24 3 6 1 7 -5 3 -12 -7 -5 -36 9 -36 5 0 9 -7 9 -15 0
-8 4 -15 10 -15 5 0 7 7 4 15 -7 17 65 95 87 95 8 0 -5 -18 -29 -40 -43 -41
-52 -63 -30 -76 7 -4 18 2 26 14 8 12 19 22 24 22 5 0 0 -15 -12 -32 l-22 -33
26 29 c13 17 22 34 19 39 -3 4 3 17 13 28 27 30 11 22 -25 -11 -17 -17 -31
-35 -31 -40 0 -6 -4 -10 -10 -10 -21 0 -8 27 30 63 46 42 46 43 23 55 -14 7
-26 1 -52 -29z"/>
<path d="M4686 1227 c3 -10 9 -15 12 -12 3 3 0 11 -7 18 -10 9 -11 8 -5 -6z"/>
<path d="M4503 1172 c0 -12 5 -22 9 -22 11 0 10 12 -2 30 -7 12 -9 10 -7 -8z"/>
<path d="M4466 1139 c3 -5 9 -7 14 -4 4 3 10 -2 14 -10 3 -8 10 -15 16 -15 15
0 -19 34 -36 36 -8 1 -12 -2 -8 -7z"/>
<path d="M4523 1132 c10 -4 18 -12 18 -17 0 -6 10 -15 21 -21 13 -7 17 -14 10
-18 -6 -3 -13 -2 -17 4 -4 6 -11 8 -16 5 -5 -4 -9 -1 -9 4 0 6 -5 11 -11 11
-5 0 -7 -4 -4 -10 10 -17 -7 -11 -20 7 -13 17 -35 10 -35 -12 0 -13 66 -85 78
-85 7 0 -49 63 -60 68 -11 5 -10 32 1 32 5 0 11 -7 15 -15 3 -10 14 -14 30
-11 14 2 26 0 28 -5 4 -12 38 -1 38 12 0 4 -11 14 -24 21 -14 7 -25 18 -25 23
0 6 -8 11 -18 12 -17 3 -17 2 0 -5z"/>
<path d="M4445 1120 c-3 -5 -1 -10 4 -10 6 0 11 5 11 10 0 6 -2 10 -4 10 -3 0
-8 -4 -11 -10z"/>
<path d="M4565 1120 c3 -5 8 -10 11 -10 2 0 4 5 4 10 0 6 -5 10 -11 10 -5 0
-7 -4 -4 -10z"/>
<path d="M4590 1111 c0 -6 4 -13 10 -16 6 -3 7 1 4 9 -7 18 -14 21 -14 7z"/>
<path d="M4427 1093 c4 -11 2 -14 -5 -9 -23 14 -12 -3 28 -41 l39 -39 -25 -27
c-14 -15 -21 -27 -16 -27 6 0 17 11 26 25 11 16 22 22 33 18 9 -3 -5 14 -30
39 -32 31 -43 48 -36 55 7 7 6 12 -5 16 -11 4 -13 1 -9 -10z"/>
<path d="M4400 1055 c8 -11 23 -26 33 -33 9 -7 15 -18 12 -23 -4 -5 -1 -9 4
-9 24 0 1 36 -44 70 -19 14 -19 14 -5 -5z"/>
<path d="M4363 1047 c-7 -8 -6 -22 3 -42 7 -16 13 -24 14 -17 0 7 -5 22 -10
32 -6 11 -6 21 -1 25 5 3 12 -4 16 -15 3 -11 11 -20 17 -20 6 0 6 -6 -2 -15
-9 -10 -9 -15 -1 -15 6 0 11 5 11 11 0 5 5 7 10 4 18 -11 11 2 -19 34 -22 23
-31 28 -38 18z"/>
<path d="M4523 1053 c9 -2 15 -8 12 -13 -3 -4 2 -11 10 -14 13 -4 14 -2 5 14
-6 11 -18 19 -28 19 -16 -1 -15 -2 1 -6z"/>
<path d="M4334 1013 c3 -4 -4 -13 -16 -21 -18 -10 -19 -12 -3 -6 11 3 25 7 32
7 14 0 5 27 -10 27 -6 0 -7 -3 -3 -7z"/>
<path d="M4274 968 c2 -7 8 -24 14 -38 7 -17 11 -20 11 -8 1 9 -3 19 -9 23 -5
3 -7 12 -3 20 3 8 1 15 -5 15 -6 0 -9 -6 -8 -12z"/>
<path d="M4335 970 c3 -5 8 -10 11 -10 2 0 4 5 4 10 0 6 -5 10 -11 10 -5 0 -7
-4 -4 -10z"/>
<path d="M4410 960 c-6 -11 -15 -18 -21 -15 -5 4 -9 1 -9 -4 0 -6 3 -11 8 -11
11 1 47 30 36 31 -5 0 0 4 11 9 17 7 17 9 3 9 -10 1 -22 -8 -28 -19z"/>
<path d="M4477 954 c-26 -35 -17 -38 11 -3 13 16 20 29 15 29 -4 0 -16 -12
-26 -26z"/>
<path d="M4300 960 c0 -6 4 -10 9 -10 6 0 8 -10 6 -21 -3 -12 0 -29 6 -38 8
-12 8 -10 3 9 -6 23 -6 24 12 10 10 -8 22 -19 26 -25 5 -6 8 -6 8 1 0 7 -11
19 -25 28 -13 9 -22 22 -19 30 3 7 -2 16 -10 19 -9 4 -16 2 -16 -3z"/>
<path d="M4360 954 c0 -8 -4 -12 -10 -9 -5 3 -10 2 -10 -2 0 -15 45 -38 78
-39 22 -1 29 2 20 7 -11 7 -10 11 2 19 9 6 10 10 3 10 -6 0 -19 -8 -28 -17
-22 -21 -51 -5 -47 26 2 11 1 21 -2 21 -3 0 -6 -7 -6 -16z"/>
<path d="M4250 941 c0 -6 5 -11 11 -11 5 0 7 -4 4 -10 -3 -5 -1 -10 4 -10 16
0 13 16 -4 30 -10 9 -15 9 -15 1z"/>
<path d="M4220 923 c0 -13 20 -39 20 -28 0 6 5 2 11 -7 5 -10 15 -18 21 -18 6
0 -1 11 -15 24 -14 13 -23 27 -20 30 4 3 1 6 -5 6 -7 0 -12 -3 -12 -7z"/>
<path d="M4212 881 c13 -15 26 -26 31 -24 4 2 7 -3 7 -11 0 -24 -15 -19 -43
16 -15 17 -29 29 -32 26 -3 -3 11 -22 31 -42 28 -28 39 -34 45 -24 14 21 11
28 -22 59 -40 37 -47 37 -17 0z"/>
<path d="M4283 892 c10 -4 18 -12 17 -17 0 -6 7 -11 17 -12 17 -3 17 -2 0 5
-10 4 -18 12 -17 17 0 6 -7 11 -17 12 -17 3 -17 2 0 -5z"/>
<path d="M4345 870 c0 -8 7 -14 13 -12 7 1 12 -5 12 -13 0 -8 -4 -15 -10 -15
-5 0 -10 -5 -10 -12 0 -8 6 -6 16 4 17 17 12 54 -5 44 -5 -4 -11 -1 -14 6 -2
7 -3 6 -2 -2z"/>
<path d="M4380 881 c0 -6 5 -11 11 -11 5 0 7 -6 3 -12 -4 -7 2 -4 14 6 12 11
19 22 16 25 -4 3 -9 0 -11 -7 -4 -10 -8 -10 -19 -1 -10 8 -14 8 -14 0z"/>
<path d="M4135 870 c-3 -6 2 -13 12 -17 10 -3 35 -23 55 -44 l38 -37 35 35
c34 34 45 50 25 38 -5 -3 -10 -1 -10 4 0 6 -5 11 -12 11 -9 0 -9 -3 -1 -11 9
-9 5 -18 -13 -37 l-24 -26 -35 37 c-19 20 -42 37 -51 37 -8 0 -12 5 -9 10 3 6
4 10 1 10 -3 0 -8 -5 -11 -10z"/>
<path d="M4323 841 c1 -5 -18 -28 -43 -53 -68 -67 -73 -75 -56 -81 10 -4 13
-1 9 9 -4 10 0 13 13 8 13 -4 15 -3 6 3 -9 7 -2 19 29 48 28 26 43 34 48 26 4
-7 8 2 8 19 0 16 -4 30 -9 30 -4 0 -7 -4 -5 -9z"/>
<path d="M4095 830 c-4 -6 -11 -8 -16 -5 -5 3 -6 -2 -2 -11 4 -12 3 -15 -5
-10 -7 4 -12 2 -12 -3 0 -6 4 -11 9 -11 6 0 8 -9 6 -20 -2 -11 0 -18 6 -15 10
7 13 -8 2 -18 -10 -10 -32 13 -27 28 3 7 0 16 -5 20 -6 3 -8 11 -5 17 5 7 2 8
-5 3 -9 -5 -10 -10 -2 -18 17 -17 13 -31 -4 -17 -29 24 -21 5 11 -27 l32 -31
13 25 c11 20 11 26 0 32 -15 10 -15 19 5 49 8 12 12 22 10 22 -3 0 -8 -5 -11
-10z"/>
<path d="M4119 819 c-11 -11 -18 -26 -16 -32 5 -17 32 -15 33 3 0 9 -1 10 -3
3 -3 -7 -9 -13 -14 -13 -16 0 -10 18 13 40 12 11 19 20 15 20 -4 0 -16 -9 -28
-21z"/>
<path d="M4150 808 c0 -6 3 -9 6 -5 3 3 18 -5 32 -18 14 -13 23 -28 18 -32 -4
-4 -10 -3 -14 2 -12 16 -47 41 -38 28 4 -7 2 -13 -3 -13 -6 0 -11 -5 -11 -11
0 -8 4 -8 14 0 11 10 18 7 30 -11 14 -19 18 -21 26 -8 14 22 13 26 -15 55 -28
27 -45 32 -45 13z"/>
<path d="M4292 764 c-12 -8 -22 -20 -22 -26 0 -7 6 -5 13 4 6 8 21 20 32 26
11 6 15 12 10 12 -6 0 -21 -7 -33 -16z"/>
<path d="M3986 756 c3 -9 9 -14 14 -13 10 3 70 -60 70 -73 0 -5 4 -10 10 -10
5 0 7 6 4 13 -2 7 5 23 16 35 11 12 16 22 11 22 -6 0 -16 -10 -22 -22 -12 -22
-12 -22 -39 9 -34 38 -73 61 -64 39z"/>
<path d="M4115 750 c-3 -5 -1 -10 4 -10 6 0 11 5 11 10 0 6 -2 10 -4 10 -3 0
-8 -4 -11 -10z"/>
<path d="M3945 740 c-2 -3 7 -18 21 -33 13 -15 24 -29 24 -32 -1 -21 1 -25 9
-21 5 3 11 -1 15 -9 3 -8 11 -15 17 -15 7 0 0 11 -15 25 -15 14 -24 25 -20 25
4 0 -3 11 -16 25 -13 14 -18 25 -12 25 7 0 12 4 12 8 0 10 -29 12 -35 2z"/>
<path d="M4144 735 c-10 -8 -14 -15 -9 -15 6 -1 1 -6 -10 -11 l-20 -9 20 3
c11 2 19 9 18 15 -4 15 10 15 25 0 9 -9 12 -9 12 0 0 7 -5 12 -11 12 -5 0 -7
5 -4 10 9 14 2 12 -21 -5z"/>
<path d="M3920 724 c0 -4 7 -16 17 -26 9 -10 11 -18 5 -18 -6 0 -18 10 -26 22
-9 12 -16 18 -16 13 0 -9 100 -105 100 -96 0 3 5 -2 11 -12 7 -11 18 -16 35
-13 13 3 24 0 24 -5 0 -6 5 -7 11 -3 8 4 7 9 -2 15 -7 4 -17 5 -21 3 -4 -3 -8
0 -8 5 0 6 -5 11 -11 11 -5 0 -7 -4 -4 -10 13 -21 -7 -8 -42 28 -21 20 -39 43
-41 51 -3 15 -32 47 -32 35z"/>
<path d="M3990 722 c0 -4 9 -14 19 -22 11 -7 18 -17 15 -22 -3 -4 0 -8 5 -8
16 0 13 12 -8 38 -20 23 -31 28 -31 14z"/>
<path d="M4190 711 c0 -10 19 -25 25 -20 1 2 -3 10 -11 17 -8 7 -14 8 -14 3z"/>
<path d="M4153 681 c0 -11 5 -17 9 -15 4 3 8 0 8 -7 0 -7 3 -9 6 -6 4 4 1 13
-6 22 -15 18 0 20 20 3 12 -11 12 -10 1 5 -18 23 -40 22 -38 -2z"/>
<path d="M3861 673 c25 -31 139 -140 139 -133 0 8 -138 150 -146 150 -4 0 0
-8 7 -17z"/>
<path d="M3938 632 c31 -32 60 -56 65 -54 4 2 8 -7 8 -20 1 -17 3 -18 6 -5 3
12 -16 36 -59 77 -81 77 -96 78 -20 2z"/>
<path d="M4102 673 c4 -23 32 -23 34 0 1 12 1 13 -3 2 -2 -8 -9 -15 -15 -15
-5 0 -8 7 -4 15 3 8 1 15 -5 15 -6 0 -9 -8 -7 -17z"/>
<path d="M3828 671 c10 -6 4 -16 -23 -40 -34 -30 -39 -31 -54 -17 -37 34 -30
14 9 -24 45 -44 68 -55 30 -15 -28 30 -13 34 20 5 26 -22 40 -26 40 -9 0 5 -4
8 -9 5 -5 -3 -15 2 -22 11 -12 14 -11 15 6 10 11 -4 26 -3 33 2 21 13 -15 23
-38 11 -33 -17 -36 -11 -7 15 l27 26 27 -25 c23 -22 25 -26 10 -32 -9 -3 -17
-10 -17 -16 0 -5 4 -7 9 -3 5 3 11 0 14 -7 2 -7 3 -5 1 5 -1 10 3 20 10 23 12
5 -55 84 -71 84 -4 0 -2 -4 5 -9z"/>
<path d="M3773 648 c1 -7 -4 -12 -11 -10 -8 1 -11 -2 -7 -7 8 -14 35 -2 35 15
0 8 -4 14 -10 14 -5 0 -9 -6 -7 -12z"/>
<path d="M4043 654 c9 -3 15 -9 12 -14 -3 -5 9 -16 27 -25 29 -14 30 -14 14 0
-11 8 -23 15 -28 15 -4 0 -7 5 -5 12 1 6 -7 13 -18 14 -15 2 -16 2 -2 -2z"/>
<path d="M4085 640 c3 -5 8 -10 11 -10 2 0 4 5 4 10 0 6 -5 10 -11 10 -5 0 -7
-4 -4 -10z"/>
<path d="M4136 634 c-5 -14 -4 -15 9 -4 17 14 19 20 6 20 -5 0 -12 -7 -15 -16z"/>
<path d="M3635 585 c-29 -24 -29 -25 -10 -38 17 -13 21 -12 38 7 19 21 19 16
1 -28 -4 -10 1 -14 15 -13 14 1 17 5 11 11 -16 16 -12 30 5 16 8 -7 15 -19 15
-26 0 -8 5 -14 10 -14 12 0 -5 36 -27 58 -7 7 -13 19 -13 25 0 7 15 -4 34 -23
18 -19 32 -38 29 -42 -2 -4 2 -16 8 -26 11 -18 14 -17 46 15 34 36 45 55 17
32 -13 -11 -21 -6 -56 29 -22 23 -44 42 -48 42 -5 0 12 -20 37 -45 37 -37 43
-48 33 -60 -13 -15 -30 -12 -30 6 0 6 6 7 13 3 12 -7 -16 26 -60 73 -21 21
-22 22 -28 4 -9 -30 -34 -46 -47 -33 -9 9 -8 12 3 12 8 0 20 9 27 20 15 25 14
25 -23 -5z"/>
<path d="M3900 579 c0 -5 4 -8 9 -4 5 3 12 1 16 -5 3 -5 -2 -10 -11 -10 -10 0
-15 -3 -11 -6 3 -3 15 -3 27 1 20 6 21 7 3 21 -22 16 -33 18 -33 3z"/>
<path d="M4038 573 c7 -3 16 -2 19 1 4 3 -2 6 -13 5 -11 0 -14 -3 -6 -6z"/>
<path d="M3581 553 c33 -41 59 -65 60 -57 0 5 5 0 10 -11 l9 -20 -3 20 c-2 11
-9 19 -15 18 -7 -2 -12 1 -12 7 0 10 -47 60 -57 60 -3 0 1 -8 8 -17z"/>
<path d="M3525 551 c-3 -5 -18 -7 -33 -5 -25 5 -26 4 -8 -9 18 -13 17 -14 -8
-34 l-26 -21 35 -35 c19 -19 35 -32 35 -28 0 3 5 -2 11 -11 5 -10 15 -18 21
-18 7 0 -6 16 -27 35 -39 34 -39 34 -20 55 16 18 20 19 27 5 5 -8 13 -15 19
-15 5 0 1 10 -10 22 l-20 21 -20 -24 c-11 -13 -23 -21 -26 -17 -4 4 9 24 29
44 20 20 36 38 36 40 0 7 -9 4 -15 -5z"/>
<path d="M3855 550 c-3 -5 -1 -10 4 -10 6 0 11 5 11 10 0 6 -2 10 -4 10 -3 0
-8 -4 -11 -10z"/>
<path d="M3546 534 c-8 -21 -8 -24 5 -24 5 0 7 5 4 10 -3 6 -1 10 4 10 6 0 11
-5 11 -12 0 -6 2 -9 5 -6 7 7 -5 38 -15 38 -4 0 -11 -7 -14 -16z"/>
<path d="M3940 540 c0 -5 7 -7 15 -4 8 4 15 8 15 10 0 2 -7 4 -15 4 -8 0 -15
-4 -15 -10z"/>
<path d="M3893 520 c1 -11 5 -20 9 -20 3 0 6 9 5 20 -1 11 -5 20 -9 20 -3 0
-6 -9 -5 -20z"/>
<path d="M3923 530 c2 -8 0 -23 -5 -32 -5 -10 -6 -18 -4 -18 13 0 24 37 15 51
-9 12 -10 12 -6 -1z"/>
<path d="M3403 524 c9 -9 -35 -54 -46 -47 -6 3 -7 1 -3 -5 10 -16 11 -16 41
14 22 22 26 44 8 44 -4 0 -4 -3 0 -6z"/>
<path d="M3438 523 c9 -3 -1 -19 -27 -44 l-40 -39 40 -38 c67 -62 69 -64 69
-57 0 4 -21 27 -47 51 l-48 44 47 44 c47 42 47 43 20 43 -15 0 -21 -2 -14 -4z"/>
<path d="M3798 485 c-43 -41 -49 -55 -25 -55 6 0 8 3 4 6 -3 4 14 26 38 50 24
24 40 44 36 44 -4 0 -28 -20 -53 -45z"/>
<path d="M3871 514 c0 -11 3 -14 6 -6 3 7 2 16 -1 19 -3 4 -6 -2 -5 -13z"/>
<path d="M3965 520 c3 -5 8 -10 11 -10 2 0 4 5 4 10 0 6 -5 10 -11 10 -5 0 -7
-4 -4 -10z"/>
<path d="M3365 510 c-4 -6 -11 -8 -16 -5 -5 4 -9 1 -9 -4 0 -17 27 -13 34 4 6
17 0 20 -9 5z"/>
<path d="M3590 510 c0 -5 5 -10 11 -10 5 0 7 5 4 10 -3 6 -8 10 -11 10 -2 0
-4 -4 -4 -10z"/>
<path d="M3300 503 c0 -10 48 -63 57 -63 6 0 -12 22 -44 58 -7 7 -13 10 -13 5z"/>
<path d="M3821 470 c-17 -22 -27 -40 -21 -40 5 0 10 5 10 11 0 6 9 8 20 4 12
-4 20 -2 20 5 0 6 -4 8 -10 5 -16 -10 -11 12 6 30 9 9 14 18 12 20 -3 3 -19
-13 -37 -35z"/>
<path d="M3272 490 c4 -16 75 -85 88 -85 15 0 50 -44 41 -50 -5 -3 -17 5 -25
17 -9 12 -16 17 -16 10 0 -7 -23 10 -52 38 -28 27 -53 48 -55 46 -3 -2 19 -27
49 -55 29 -28 48 -51 41 -51 -18 0 -133 112 -126 123 3 6 1 7 -5 3 -7 -4 -12
-9 -12 -11 0 -3 26 -29 58 -60 31 -30 52 -55 45 -55 -7 0 -35 22 -63 49 -27
27 -50 45 -50 41 0 -4 19 -26 42 -49 46 -44 40 -57 -8 -16 -16 14 -33 25 -38
25 -5 0 3 -10 18 -21 15 -12 25 -24 22 -27 -3 -3 -15 3 -26 13 -11 10 -20 15
-20 10 0 -4 8 -14 18 -21 16 -12 16 -13 0 -14 -20 0 -33 18 -31 45 1 16 1 17
-3 2 -3 -9 -10 -15 -15 -12 -21 14 -6 -12 17 -29 22 -15 30 -16 51 -7 34 16
38 9 9 -16 -17 -15 -27 -18 -35 -10 -8 8 -11 8 -11 -1 0 -7 5 -12 11 -12 5 0
7 -4 4 -10 -12 -20 4 -9 38 25 19 19 41 35 48 35 7 0 -7 -19 -31 -42 -24 -24
-47 -42 -52 -41 -4 2 -8 -2 -8 -7 0 -20 20 -9 68 40 27 28 56 50 63 50 7 0
-15 -27 -49 -60 -33 -33 -57 -60 -52 -60 5 0 12 5 15 10 4 6 11 7 17 4 6 -4 8
-3 5 3 -3 5 19 34 50 63 57 52 57 52 74 31 14 -17 18 -18 23 -6 3 9 12 12 22
8 9 -3 2 8 -14 25 -17 18 -37 33 -44 34 -7 2 -32 23 -56 48 -24 24 -42 38 -40
30z"/>
<path d="M3563 492 c10 -4 18 -12 18 -17 0 -6 10 -15 22 -22 12 -6 20 -13 17
-15 -3 -3 3 -12 13 -22 9 -10 17 -12 17 -6 0 6 -7 13 -15 16 -8 4 -13 10 -10
15 3 4 -6 14 -19 21 -14 7 -25 18 -25 23 0 6 -8 11 -18 12 -17 3 -17 2 0 -5z"/>
<path d="M3670 496 c0 -2 9 -6 20 -9 11 -3 18 -1 14 4 -5 9 -34 13 -34 5z"/>
<path d="M3230 480 c0 -5 7 -7 15 -4 8 4 15 8 15 10 0 2 -7 4 -15 4 -8 0 -15
-4 -15 -10z"/>
<path d="M3605 480 c3 -5 8 -10 11 -10 2 0 4 5 4 10 0 6 -5 10 -11 10 -5 0 -7
-4 -4 -10z"/>
<path d="M3730 483 c5 -2 8 -9 4 -14 -3 -5 0 -9 6 -9 15 0 7 23 -8 26 -7 1 -8
0 -2 -3z"/>
<path d="M3870 486 c0 -2 7 -6 15 -10 8 -3 15 -1 15 4 0 6 -7 10 -15 10 -8 0
-15 -2 -15 -4z"/>
<path d="M3130 471 c0 -7 -4 -9 -10 -6 -5 3 -10 1 -10 -4 0 -6 4 -11 9 -11 13
0 25 20 17 27 -3 4 -6 1 -6 -6z"/>
<path d="M3165 470 c-16 -7 -17 -9 -3 -9 9 -1 20 4 23 9 7 11 7 11 -20 0z"/>
<path d="M3630 471 c0 -5 7 -14 16 -19 9 -5 15 -13 14 -18 -1 -5 4 -10 12 -12
11 -3 11 -2 0 6 -8 5 -13 12 -12 16 0 4 -6 14 -15 22 -8 9 -15 11 -15 5z"/>
<path d="M3670 473 c0 -5 5 -15 10 -23 7 -12 9 -10 7 8 -1 19 -17 33 -17 15z"/>
<path d="M3857 469 c7 -7 15 -10 18 -7 3 3 -2 9 -12 12 -14 6 -15 5 -6 -5z"/>
<path d="M3053 458 c3 -9 1 -19 -6 -21 -7 -3 -2 -4 10 -4 18 1 20 4 10 17 -19
25 -20 26 -14 8z"/>
<path d="M3084 443 c6 -12 15 -23 19 -23 4 0 3 8 -2 19 -6 10 -8 20 -6 23 3 3
-1 5 -8 5 -11 0 -11 -6 -3 -24z"/>
<path d="M3510 459 c0 -5 4 -8 9 -5 5 3 12 -1 15 -9 4 -10 14 -14 30 -11 19 3
27 -1 31 -15 4 -12 9 -18 12 -16 8 9 -18 48 -28 42 -5 -4 -9 -1 -9 4 0 6 -5
11 -11 11 -5 0 -7 -4 -4 -10 3 -5 2 -10 -3 -10 -6 0 -12 7 -16 15 -6 17 -26
20 -26 4z"/>
<path d="M3700 459 c0 -5 5 -7 10 -4 6 3 10 8 10 11 0 2 -4 4 -10 4 -5 0 -10
-5 -10 -11z"/>
<path d="M3421 451 c-11 -7 -3 -18 32 -52 26 -23 44 -46 41 -51 -3 -4 0 -8 5
-8 21 0 11 19 -31 59 -23 23 -38 44 -35 48 4 3 25 -12 47 -34 21 -22 42 -38
45 -35 3 3 5 -4 5 -16 0 -12 4 -22 10 -22 18 0 -4 35 -48 78 -48 45 -50 46
-71 33z"/>
<path d="M2961 393 c-29 -29 -48 -53 -42 -53 6 0 11 5 11 11 0 5 3 8 8 6 4 -2
26 16 48 40 59 62 39 59 -25 -4z"/>
<path d="M3130 440 c-12 -7 -10 -9 8 -7 12 0 22 5 22 9 0 11 -12 10 -30 -2z"/>
<path d="M3170 435 c0 -8 4 -15 10 -15 5 0 7 7 4 15 -4 8 -8 15 -10 15 -2 0
-4 -7 -4 -15z"/>
<path d="M3726 435 c4 -8 10 -15 15 -15 4 0 6 7 3 15 -4 8 -10 15 -15 15 -4 0
-6 -7 -3 -15z"/>
<path d="M2945 412 c-17 -15 -42 -43 -55 -62 -13 -19 -43 -54 -67 -77 -23 -24
-37 -43 -30 -42 6 0 32 25 57 56 25 31 66 78 92 105 50 52 52 65 3 20z"/>
<path d="M3695 430 c-3 -5 -1 -10 4 -10 6 0 11 5 11 10 0 6 -2 10 -4 10 -3 0
-8 -4 -11 -10z"/>
<path d="M2996 385 c-20 -19 -33 -35 -29 -35 10 1 33 20 57 48 29 34 12 26
-28 -13z"/>
<path d="M3055 410 c3 -5 8 -10 11 -10 2 0 4 5 4 10 0 6 -5 10 -11 10 -5 0 -7
-4 -4 -10z"/>
<path d="M3135 410 c3 -5 8 -10 11 -10 2 0 4 5 4 10 0 6 -5 10 -11 10 -5 0 -7
-4 -4 -10z"/>
<path d="M3563 412 c10 -4 18 -12 17 -17 0 -6 7 -11 17 -12 17 -3 17 -2 0 5
-10 4 -18 12 -17 17 0 6 -7 11 -17 12 -17 3 -17 2 0 -5z"/>
<path d="M3750 410 c-9 -6 -10 -10 -3 -10 6 0 15 5 18 10 8 12 4 12 -15 0z"/>
<path d="M3080 394 c0 -8 -4 -12 -10 -9 -25 15 -7 -12 20 -30 27 -18 45 -45
20 -30 -5 3 -10 1 -10 -4 0 -6 5 -11 11 -11 5 0 8 -4 4 -9 -6 -10 33 -36 42
-28 2 3 -4 8 -16 12 -14 4 -18 12 -15 29 3 17 -3 28 -20 40 -17 11 -23 22 -19
36 3 11 3 20 -1 20 -3 0 -6 -7 -6 -16z"/>
<path d="M3110 403 c5 -2 10 -9 10 -14 0 -6 -4 -7 -10 -4 -5 3 -10 1 -10 -4 0
-6 3 -11 8 -11 4 0 20 -11 35 -25 15 -14 27 -22 27 -17 0 6 -11 17 -24 25 -13
9 -23 24 -22 33 0 9 -5 18 -12 20 -7 1 -8 0 -2 -3z"/>
<path d="M3623 397 c1 -10 6 -17 11 -17 5 1 13 -4 18 -12 8 -11 9 -11 6 0 -2
8 -8 13 -13 12 -5 -1 -13 7 -17 17 -7 17 -8 17 -5 0z"/>
<path d="M3660 398 c0 -11 12 -10 30 2 12 7 10 9 -8 7 -12 0 -22 -5 -22 -9z"/>
<path d="M3710 402 c0 -5 -10 -14 -22 -20 -13 -6 -18 -11 -12 -11 7 -1 22 8
35 19 13 10 18 19 12 20 -7 0 -13 -4 -13 -8z"/>
<path d="M3012 364 c-18 -19 -31 -40 -28 -47 2 -7 5 -3 5 7 1 11 4 17 7 13 4
-3 14 3 23 14 16 19 16 19 44 -6 15 -14 27 -22 27 -17 0 6 -11 17 -25 26 -15
10 -22 22 -19 31 9 21 3 18 -34 -21z"/>
<path d="M2720 370 c-8 -5 -12 -12 -9 -15 4 -3 12 1 19 10 14 17 11 19 -10 5z"/>
<path d="M2808 368 c22 -11 22 -11 -17 -49 -22 -20 -37 -40 -34 -43 4 -3 1 -6
-5 -6 -7 0 -12 -5 -12 -11 0 -5 4 -8 9 -4 5 3 11 0 14 -7 2 -7 3 -5 1 5 -1 11
15 37 37 60 36 38 38 43 22 55 -9 6 -22 12 -27 11 -6 0 -1 -5 12 -11z"/>
<path d="M3557 360 c8 -30 21 -34 15 -5 -2 14 -8 25 -12 25 -5 0 -6 -9 -3 -20z"/>
<path d="M2100 355 c8 -11 15 -21 16 -23 1 -2 5 5 8 15 4 9 4 14 0 10 -4 -4
-14 -1 -23 6 -14 11 -15 10 -1 -8z"/>
<path d="M3587 353 c3 -7 9 -13 15 -13 5 0 6 5 2 12 -5 8 -2 9 10 5 9 -4 15
-3 11 2 -9 15 -44 9 -38 -6z"/>
<path d="M2173 342 c9 -10 15 -22 12 -25 -3 -4 -2 -5 2 -2 3 3 13 -1 22 -8 9
-7 8 -2 -4 15 -11 15 -26 30 -34 33 -11 4 -10 1 2 -13z"/>
<path d="M2200 358 c0 -3 9 -15 20 -28 11 -12 17 -27 14 -31 -13 -22 13 -5 34
22 27 34 19 40 -9 7 l-20 -23 5 25 c3 14 3 19 0 12 -5 -10 -10 -9 -25 4 -10 9
-19 15 -19 12z"/>
<path d="M2567 348 c-9 -7 -15 -22 -13 -33 2 -11 -2 -23 -8 -27 -8 -5 -7 -8 2
-8 6 0 12 -5 12 -11 0 -5 -4 -7 -10 -4 -5 3 -10 1 -10 -5 0 -7 6 -10 13 -7 6
2 12 16 11 30 -1 15 3 27 7 27 5 0 9 5 9 11 0 5 -4 7 -10 4 -17 -11 -11 7 8
21 9 7 14 14 11 14 -3 0 -13 -6 -22 -12z"/>
<path d="M2604 346 c-10 -8 -17 -16 -14 -19 3 -2 14 4 24 14 23 22 18 25 -10
5z"/>
<path d="M2647 349 c-11 -7 -16 -18 -13 -34 3 -18 -1 -26 -15 -30 -12 -4 -18
-9 -16 -12 9 -8 48 18 42 28 -4 5 -1 9 4 9 6 0 11 5 11 11 0 5 -4 7 -10 4 -17
-11 -11 7 8 21 20 16 14 18 -11 3z"/>
<path d="M2757 325 c-20 -19 -43 -35 -50 -35 -9 0 -9 -2 1 -9 9 -5 26 5 53 32
36 37 44 47 36 47 -2 0 -20 -16 -40 -35z"/>
<path d="M2831 320 c-22 -22 -37 -40 -33 -40 10 0 23 11 56 48 42 45 26 40
-23 -8z"/>
<path d="M2135 339 c-4 -6 -4 -13 -1 -16 3 -4 6 -1 6 7 0 10 4 10 18 -1 15
-13 16 -12 3 4 -16 20 -18 20 -26 6z"/>
<path d="M2513 335 c-3 -9 -3 -19 1 -22 3 -4 6 1 6 10 0 8 6 18 13 20 9 4 9 6
-1 6 -7 1 -15 -6 -19 -14z"/>
<path d="M2675 339 c-4 -6 -4 -13 -1 -16 3 -4 6 -1 6 6 0 7 5 9 10 6 6 -3 10
-1 10 4 0 14 -17 14 -25 0z"/>
<path d="M3026 334 c-4 -9 -4 -19 -1 -22 3 -3 5 0 5 7 0 7 5 9 10 6 6 -3 10
-2 10 4 0 18 -18 21 -24 5z"/>
<path d="M3332 320 c-33 -31 -41 -50 -20 -50 6 0 9 3 5 6 -3 3 5 18 18 31 l23
26 28 -27 c16 -14 33 -26 39 -26 5 0 0 7 -12 15 -12 9 -29 25 -36 35 -14 20
-15 19 -45 -10z"/>
<path d="M3445 340 c-3 -5 -1 -10 4 -10 6 0 11 5 11 10 0 6 -2 10 -4 10 -3 0
-8 -4 -11 -10z"/>
<path d="M2935 330 c-3 -5 -3 -10 2 -11 4 0 -1 -5 -12 -10 -19 -8 -19 -9 -1
-6 11 1 18 6 17 12 -1 5 6 12 16 16 16 7 16 8 1 8 -9 1 -20 -3 -23 -9z"/>
<path d="M3410 325 c0 -8 2 -15 4 -15 2 0 6 7 10 15 3 8 1 15 -4 15 -6 0 -10
-7 -10 -15z"/>
<path d="M2610 317 c0 -9 -5 -16 -12 -14 -6 1 -13 -6 -14 -16 -1 -12 0 -13 3
-2 2 8 9 13 14 9 11 -6 25 24 15 33 -3 4 -6 -1 -6 -10z"/>
<path d="M2884 303 c-9 -16 -26 -36 -37 -45 -11 -10 -15 -18 -9 -18 6 0 24 17
39 38 15 20 32 40 38 44 6 5 6 8 -1 8 -7 0 -20 -12 -30 -27z"/>
<path d="M3064 312 c1 -7 5 -12 9 -10 5 2 15 -10 23 -25 9 -16 20 -25 26 -21
8 5 9 1 4 -12 -5 -14 -4 -16 5 -7 12 12 3 37 -10 28 -5 -2 -13 7 -20 21 -6 14
-15 23 -20 19 -5 -3 -11 0 -14 7 -3 10 -4 10 -3 0z"/>
<path d="M3143 317 c1 -10 6 -17 12 -17 5 1 13 -7 17 -17 7 -17 8 -17 5 0 -1
10 -6 17 -12 17 -5 -1 -13 7 -17 17 -7 17 -8 17 -5 0z"/>
<path d="M3478 323 c7 -3 16 -2 19 1 4 3 -2 6 -13 5 -11 0 -14 -3 -6 -6z"/>
<path d="M3510 319 c0 -5 5 -7 10 -4 6 3 10 8 10 11 0 2 -4 4 -10 4 -5 0 -10
-5 -10 -11z"/>
<path d="M2690 310 c0 -5 5 -10 11 -10 5 0 7 5 4 10 -3 6 -8 10 -11 10 -2 0
-4 -4 -4 -10z"/>
<path d="M2955 301 c-4 -14 -12 -18 -30 -15 -17 3 -27 -2 -35 -15 -5 -11 -17
-27 -26 -36 -9 -9 -14 -18 -11 -21 3 -3 16 10 29 30 13 20 27 36 31 36 5 0 5
-4 2 -10 -3 -5 -1 -10 4 -10 6 0 11 5 11 11 0 5 4 8 9 4 10 -6 36 33 28 42 -3
2 -8 -4 -12 -16z"/>
<path d="M2986 299 c-18 -18 -18 -19 14 -46 33 -27 66 -40 54 -21 -3 5 -8 7
-11 4 -3 -2 -18 7 -34 21 -26 24 -27 27 -11 39 9 7 15 14 12 17 -3 2 -13 -4
-24 -14z"/>
<path d="M3430 311 c0 -6 4 -12 8 -15 5 -3 9 1 9 9 0 8 -4 15 -9 15 -4 0 -8
-4 -8 -9z"/>
<path d="M2660 291 c-13 -25 -13 -31 2 -31 6 0 8 3 5 6 -3 4 -2 15 4 25 5 11
7 19 5 19 -3 0 -10 -9 -16 -19z"/>
<path d="M3024 296 c-10 -8 -17 -16 -14 -18 62 -46 82 -59 76 -50 -4 7 -3 12
3 12 5 0 12 -5 14 -10 3 -6 4 -5 3 2 -2 7 -9 13 -18 13 -19 0 -72 35 -64 42 3
3 12 0 21 -7 10 -8 15 -9 15 -1 0 6 -5 11 -11 11 -5 0 -7 5 -4 10 9 14 2 13
-21 -4z"/>
<path d="M3341 282 c-11 -26 -10 -26 4 -7 13 16 17 17 24 6 5 -7 11 -9 14 -4
3 5 -2 14 -12 20 -16 10 -20 7 -30 -15z"/>
<path d="M2681 274 c0 -11 3 -14 6 -6 3 7 2 16 -1 19 -3 4 -6 -2 -5 -13z"/>
<path d="M2490 270 c0 -5 5 -10 11 -10 5 0 7 5 4 10 -3 6 -8 10 -11 10 -2 0
-4 -4 -4 -10z"/>
<path d="M3070 270 c0 -5 5 -10 11 -10 5 0 7 5 4 10 -3 6 -8 10 -11 10 -2 0
-4 -4 -4 -10z"/>
<path d="M3275 269 c-4 -6 -5 -12 -2 -15 2 -3 7 2 10 11 7 17 1 20 -8 4z"/>
<path d="M2617 250 c-9 -11 -13 -20 -7 -20 5 0 14 9 20 20 6 11 9 20 8 20 -2
0 -11 -9 -21 -20z"/>
<path d="M2700 261 c0 -5 7 -11 15 -15 8 -3 15 -1 15 3 0 5 -7 11 -15 15 -8 3
-15 1 -15 -3z"/>
<path d="M2780 259 c0 -5 5 -7 10 -4 6 3 10 8 10 11 0 2 -4 4 -10 4 -5 0 -10
-5 -10 -11z"/>
<path d="M2577 253 c-10 -10 -8 -23 4 -23 5 0 8 4 4 9 -3 5 3 12 12 14 14 4
15 5 2 6 -9 0 -19 -2 -22 -6z"/>
<path d="M2927 240 c-22 -26 -22 -33 2 -18 11 7 17 16 15 20 -12 19 26 6 40
-14 9 -12 19 -19 22 -15 8 8 -34 47 -50 47 -6 0 -19 -9 -29 -20z"/>
<path d="M3163 253 c9 -2 14 -9 11 -15 -4 -7 -2 -8 5 -4 15 10 4 26 -17 25
-15 -1 -15 -2 1 -6z"/>
<path d="M2508 243 c7 -3 16 -2 19 1 4 3 -2 6 -13 5 -11 0 -14 -3 -6 -6z"/>
<path d="M2647 234 c3 -8 9 -14 15 -14 5 0 6 5 3 10 -3 6 1 10 10 10 9 0 14
-4 11 -8 -2 -4 4 -8 15 -8 30 0 3 20 -30 22 -22 1 -28 -2 -24 -12z"/>
<path d="M2890 230 c-6 -11 -9 -20 -8 -20 2 0 11 9 21 20 9 11 13 20 7 20 -5
0 -14 -9 -20 -20z"/>
<path d="M2737 233 c-4 -3 -7 -11 -7 -17 0 -6 5 -5 12 2 6 6 9 14 7 17 -3 3
-9 2 -12 -2z"/>
<path d="M2820 219 c0 -5 5 -7 10 -4 6 3 10 8 10 11 0 2 -4 4 -10 4 -5 0 -10
-5 -10 -11z"/>
<path d="M2955 220 c-3 -5 -1 -10 4 -10 6 0 11 5 11 10 0 6 -2 10 -4 10 -3 0
-8 -4 -11 -10z"/>
</g>
</svg>
