<?xml version="1.0" encoding="utf-8"?>
<!-- Generator: Adobe Illustrator 25.0.1, SVG Export Plug-In . SVG Version: 6.00 Build 0)  -->
<svg version="1.1" id="レイヤー_1" xmlns="http://www.w3.org/2000/svg" xmlns:xlink="http://www.w3.org/1999/xlink" x="0px"
	 y="0px" viewBox="0 0 85 13" style="enable-background:new 0 0 85 13;" xml:space="preserve">
<style type="text/css">
	.st0{fill:url(#SVGID_1_);}
	.st1{fill:url(#SVGID_2_);}
	.st2{fill:url(#SVGID_3_);}
	.st3{fill:url(#SVGID_4_);}
	.st4{fill:url(#SVGID_5_);}
	.st5{fill:url(#SVGID_6_);}
	.st6{fill:url(#SVGID_7_);}
	.st7{fill:url(#SVGID_8_);}
	.st8{fill:url(#SVGID_9_);}
	.st9{fill:url(#SVGID_10_);}
	.st10{fill:url(#SVGID_11_);}
</style>
<g>
	
		<linearGradient id="SVGID_1_" gradientUnits="userSpaceOnUse" x1="8.136311e-02" y1="4.4" x2="6.0112" y2="4.4" gradientTransform="matrix(1 0 0 -1 0 14)">
		<stop  offset="0" style="stop-color:#1A1B7D"/>
		<stop  offset="8.870302e-02" style="stop-color:#1C1F80"/>
		<stop  offset="0.1817" style="stop-color:#232C88"/>
		<stop  offset="0.2766" style="stop-color:#2E4195"/>
		<stop  offset="0.3729" style="stop-color:#3E5EA7"/>
		<stop  offset="0.4694" style="stop-color:#5184BF"/>
		<stop  offset="0.4888" style="stop-color:#568CC4"/>
		<stop  offset="0.6091" style="stop-color:#3A5C9B"/>
		<stop  offset="0.7283" style="stop-color:#223479"/>
		<stop  offset="0.8368" style="stop-color:#111860"/>
		<stop  offset="0.9309" style="stop-color:#070651"/>
		<stop  offset="1" style="stop-color:#03004C"/>
	</linearGradient>
	<path class="st0" d="M0.9,8.1c0-0.9,0-1-0.1-1C0.8,7,0.5,7,0.1,6.9C0,6.9,0,6.9,0,6.8c0-0.1,0-0.1,0.1-0.1c0.3,0,0.7,0,1,0
		c0.4,0,1.1,0,1.6,0C4.8,6.7,6,7.8,6,9.5s-1.2,2.9-3.3,2.9c-0.5,0-1.1,0-1.5,0c-0.3,0-0.7,0-1,0c-0.1,0-0.1,0-0.1-0.1
		c0-0.1,0-0.1,0.1-0.1c0.4,0,0.5-0.1,0.7-0.2C1,11.9,1,11.7,1,11V8.1H0.9z M1.5,11.2c0,0.4,0,0.7,0.1,0.8c0.1,0.1,0.3,0.2,1,0.2
		c1.6,0,2.5-1.1,2.5-2.6c0-1.6-1-2.6-2.5-2.6c-0.8,0-1,0.1-1.1,0.2s-0.1,0.2-0.1,1v3H1.5z"/>
	
		<linearGradient id="SVGID_2_" gradientUnits="userSpaceOnUse" x1="6.8229" y1="4.4544" x2="11.444" y2="4.4544" gradientTransform="matrix(1 0 0 -1 0 14)">
		<stop  offset="0" style="stop-color:#1A1B7D"/>
		<stop  offset="8.870302e-02" style="stop-color:#1C1F80"/>
		<stop  offset="0.1817" style="stop-color:#232C88"/>
		<stop  offset="0.2766" style="stop-color:#2E4195"/>
		<stop  offset="0.3729" style="stop-color:#3E5EA7"/>
		<stop  offset="0.4694" style="stop-color:#5184BF"/>
		<stop  offset="0.4888" style="stop-color:#568CC4"/>
		<stop  offset="0.6091" style="stop-color:#3A5C9B"/>
		<stop  offset="0.7283" style="stop-color:#223479"/>
		<stop  offset="0.8368" style="stop-color:#111860"/>
		<stop  offset="0.9309" style="stop-color:#070651"/>
		<stop  offset="1" style="stop-color:#03004C"/>
	</linearGradient>
	<path class="st1" d="M11.4,11.1c-0.1,0.4-0.2,0.9-0.4,1.3c-0.7,0-1.3,0-2,0c-0.7,0-1.4,0-2.1,0c0,0-0.1,0-0.1-0.1
		c0-0.1,0-0.1,0.1-0.1c0.4,0,0.5-0.1,0.5-0.2c0.1-0.1,0.1-0.3,0.1-1.1V8.1c0-0.9,0-0.9-0.1-1C7.4,7,7.3,7,6.9,6.9
		c-0.1,0-0.1,0-0.1-0.1c0-0.1,0-0.1,0.1-0.1c0.7,0,1.4,0,2,0s1.3,0,2,0c0,0.4,0.1,0.9,0.1,1.3l0,0c0,0,0,0.1-0.1,0.1c0,0,0,0-0.1,0
		c-0.1-0.3-0.3-0.7-0.5-0.8C9.9,7.3,9.7,7.2,8.9,7.2c-0.4,0-0.7,0.1-0.7,0.2C8.2,7.5,8.2,7.6,8.2,8v1.4c0.1,0,0.3,0,0.5,0
		c0.7,0,1-0.1,1.1-0.1C9.9,9.2,10,9.1,10,8.8c0-0.1,0-0.1,0.1-0.1c0.1,0,0.1,0,0.1,0.1c0,0.3,0,0.5,0,0.8c0,0.3,0,0.7,0,0.9
		c0,0.1,0,0.1-0.1,0.1c-0.1,0-0.1,0-0.1-0.1c0-0.3-0.1-0.5-0.2-0.5C9.7,9.8,9.4,9.8,8.7,9.8c-0.2,0-0.3,0-0.5,0v1.4
		c0,0.7,0,0.9,0.1,1c0.1,0.1,0.2,0.2,0.8,0.2c0.8,0,1.1-0.1,1.4-0.3c0.2-0.2,0.4-0.4,0.7-0.8c0,0,0-0.1,0.1-0.1
		C11.4,11,11.4,11.1,11.4,11.1L11.4,11.1z"/>
	
		<linearGradient id="SVGID_3_" gradientUnits="userSpaceOnUse" x1="11.6891" y1="4.4" x2="17.4975" y2="4.4" gradientTransform="matrix(1 0 0 -1 0 14)">
		<stop  offset="0" style="stop-color:#1A1B7D"/>
		<stop  offset="8.870302e-02" style="stop-color:#1C1F80"/>
		<stop  offset="0.1817" style="stop-color:#232C88"/>
		<stop  offset="0.2766" style="stop-color:#2E4195"/>
		<stop  offset="0.3729" style="stop-color:#3E5EA7"/>
		<stop  offset="0.4694" style="stop-color:#5184BF"/>
		<stop  offset="0.4888" style="stop-color:#568CC4"/>
		<stop  offset="0.6091" style="stop-color:#3A5C9B"/>
		<stop  offset="0.7283" style="stop-color:#223479"/>
		<stop  offset="0.8368" style="stop-color:#111860"/>
		<stop  offset="0.9309" style="stop-color:#070651"/>
		<stop  offset="1" style="stop-color:#03004C"/>
	</linearGradient>
	<path class="st2" d="M14.4,10.5c0.2,0.5,0.3,0.8,0.3,1.1c0.1-0.3,0.2-0.5,0.4-1.1L16,8.1c0.2-0.4,0.2-0.8,0.2-0.9
		c0-0.2-0.1-0.3-0.7-0.3c-0.1,0-0.1,0-0.1-0.1c0-0.1,0-0.1,0.1-0.1c0.3,0,0.8,0,1,0c0.3,0,0.5,0,0.8,0c0.1,0,0.1,0,0.1,0.1
		c0,0.1,0,0.1-0.1,0.1c-0.3,0-0.4,0.1-0.5,0.2c-0.1,0.1-0.2,0.3-0.5,1L15.1,11c-0.3,0.8-0.4,1.1-0.5,1.4c-0.3,0.1-0.3,0.1-0.3,0.1
		l0,0c-0.1-0.5-0.3-0.9-0.5-1.5l-1.1-2.8c-0.2-0.5-0.4-0.9-0.4-1C12.1,7,12,6.9,11.6,6.9c-0.1,0-0.1,0-0.1-0.1s0-0.1,0.1-0.1
		c0.3,0,0.7,0,1,0s0.8,0,1.1,0c0.1,0,0.1,0,0.1,0.1s0,0.1-0.1,0.1C13.2,7,13.1,7,13.1,7.3c0,0.1,0,0.3,0.2,0.9L14.4,10.5z"/>
	
		<linearGradient id="SVGID_4_" gradientUnits="userSpaceOnUse" x1="17.8159" y1="4.4544" x2="22.4371" y2="4.4544" gradientTransform="matrix(1 0 0 -1 0 14)">
		<stop  offset="0" style="stop-color:#1A1B7D"/>
		<stop  offset="8.870302e-02" style="stop-color:#1C1F80"/>
		<stop  offset="0.1817" style="stop-color:#232C88"/>
		<stop  offset="0.2766" style="stop-color:#2E4195"/>
		<stop  offset="0.3729" style="stop-color:#3E5EA7"/>
		<stop  offset="0.4694" style="stop-color:#5184BF"/>
		<stop  offset="0.4888" style="stop-color:#568CC4"/>
		<stop  offset="0.6091" style="stop-color:#3A5C9B"/>
		<stop  offset="0.7283" style="stop-color:#223479"/>
		<stop  offset="0.8368" style="stop-color:#111860"/>
		<stop  offset="0.9309" style="stop-color:#070651"/>
		<stop  offset="1" style="stop-color:#03004C"/>
	</linearGradient>
	<path class="st3" d="M22.4,11.1c-0.1,0.4-0.2,0.9-0.4,1.3c-0.7,0-1.3,0-2,0s-1.4,0-2.1,0c0,0-0.1,0-0.1-0.1c0-0.1,0-0.1,0.1-0.1
		c0.4,0,0.5-0.1,0.5-0.2c0.1-0.1,0.1-0.3,0.1-1.1V8.1c0-0.9,0-0.9-0.1-1C18.4,7,18.3,7,17.8,6.9c-0.1,0-0.1,0-0.1-0.1
		c0-0.1,0-0.1,0.1-0.1c0.7,0,1.4,0,2,0c0.7,0,1.3,0,2,0c0,0.4,0.1,0.9,0.1,1.3l0,0c0,0,0,0.1-0.1,0.1c0,0,0,0-0.1,0
		c-0.1-0.3-0.3-0.7-0.5-0.8c-0.2-0.1-0.4-0.2-1.2-0.2c-0.4,0-0.7,0.1-0.7,0.2c-0.1,0.1-0.1,0.2-0.1,0.7v1.4c0.1,0,0.3,0,0.5,0
		c0.7,0,1-0.1,1.1-0.1C20.9,9.2,21,9.1,21,8.8c0-0.1,0-0.1,0.1-0.1c0.1,0,0.1,0,0.1,0.1c0,0.3,0,0.5,0,0.8c0,0.3,0,0.7,0,0.9
		c0,0.1,0,0.1-0.1,0.1c-0.1,0-0.1,0-0.1-0.1c0-0.3-0.1-0.5-0.2-0.5c-0.1-0.1-0.4-0.1-1.1-0.1c-0.2,0-0.3,0-0.5,0v1.4
		c0,0.7,0,0.9,0.1,1c0.1,0.1,0.2,0.2,0.8,0.2c0.8,0,1.1-0.1,1.4-0.3c0.2-0.2,0.4-0.4,0.7-0.8c0,0,0-0.1,0.1-0.1
		C22.4,11,22.4,11.1,22.4,11.1L22.4,11.1z"/>
	
		<linearGradient id="SVGID_5_" gradientUnits="userSpaceOnUse" x1="23.0048" y1="4.4544" x2="27.6016" y2="4.4544" gradientTransform="matrix(1 0 0 -1 0 14)">
		<stop  offset="0" style="stop-color:#1A1B7D"/>
		<stop  offset="8.870302e-02" style="stop-color:#1C1F80"/>
		<stop  offset="0.1817" style="stop-color:#232C88"/>
		<stop  offset="0.2766" style="stop-color:#2E4195"/>
		<stop  offset="0.3729" style="stop-color:#3E5EA7"/>
		<stop  offset="0.4694" style="stop-color:#5184BF"/>
		<stop  offset="0.4888" style="stop-color:#568CC4"/>
		<stop  offset="0.6091" style="stop-color:#3A5C9B"/>
		<stop  offset="0.7283" style="stop-color:#223479"/>
		<stop  offset="0.8368" style="stop-color:#111860"/>
		<stop  offset="0.9309" style="stop-color:#070651"/>
		<stop  offset="1" style="stop-color:#03004C"/>
	</linearGradient>
	<path class="st4" d="M27.6,11.1c-0.1,0.4-0.2,0.9-0.4,1.3c-0.7,0-1.3,0-2,0c-0.7,0-1.4,0-2.1,0c0,0-0.1,0-0.1-0.1
		c0-0.1,0-0.1,0.1-0.1c0.4,0,0.5-0.1,0.7-0.2c0,0,0-0.2,0-1V8c0-0.7,0-0.8-0.1-0.9S23.5,7,23.1,6.9c0,0-0.1,0-0.1-0.1
		c0-0.1,0-0.1,0.1-0.1c0.3,0,0.8,0,1.1,0s0.8,0,1.1,0c0.1,0,0.1,0,0.1,0.1c0,0.1,0,0.1-0.1,0.1c-0.4,0-0.5,0.1-0.5,0.2
		c-0.1,0.1-0.1,0.2-0.1,1V11c0,0.7,0,0.9,0.1,1c0.1,0.1,0.2,0.2,0.8,0.2c0.8,0,1.1-0.1,1.4-0.3c0.2-0.1,0.3-0.3,0.5-0.8
		c0,0,0-0.1,0.1-0.1L27.6,11.1L27.6,11.1z"/>
	
		<linearGradient id="SVGID_6_" gradientUnits="userSpaceOnUse" x1="28.3396" y1="4.4544" x2="34.1968" y2="4.4544" gradientTransform="matrix(1 0 0 -1 0 14)">
		<stop  offset="0" style="stop-color:#1A1B7D"/>
		<stop  offset="8.870302e-02" style="stop-color:#1C1F80"/>
		<stop  offset="0.1817" style="stop-color:#232C88"/>
		<stop  offset="0.2766" style="stop-color:#2E4195"/>
		<stop  offset="0.3729" style="stop-color:#3E5EA7"/>
		<stop  offset="0.4694" style="stop-color:#5184BF"/>
		<stop  offset="0.4888" style="stop-color:#568CC4"/>
		<stop  offset="0.6091" style="stop-color:#3A5C9B"/>
		<stop  offset="0.7283" style="stop-color:#223479"/>
		<stop  offset="0.8368" style="stop-color:#111860"/>
		<stop  offset="0.9309" style="stop-color:#070651"/>
		<stop  offset="1" style="stop-color:#03004C"/>
	</linearGradient>
	<path class="st5" d="M34.2,9.5c0,1.7-1.2,3-2.9,3c-1.7,0-2.9-1.3-2.9-3s1.2-3,2.9-3C33,6.6,34.2,7.8,34.2,9.5z M29.2,9.5
		c0,1.6,0.9,2.7,2.2,2.7c1.2,0,2.2-1.1,2.2-2.7s-0.9-2.7-2.2-2.7S29.2,7.9,29.2,9.5z"/>
	
		<linearGradient id="SVGID_7_" gradientUnits="userSpaceOnUse" x1="34.9842" y1="4.4544" x2="39.5526" y2="4.4544" gradientTransform="matrix(1 0 0 -1 0 14)">
		<stop  offset="0" style="stop-color:#1A1B7D"/>
		<stop  offset="8.870302e-02" style="stop-color:#1C1F80"/>
		<stop  offset="0.1817" style="stop-color:#232C88"/>
		<stop  offset="0.2766" style="stop-color:#2E4195"/>
		<stop  offset="0.3729" style="stop-color:#3E5EA7"/>
		<stop  offset="0.4694" style="stop-color:#5184BF"/>
		<stop  offset="0.4888" style="stop-color:#568CC4"/>
		<stop  offset="0.6091" style="stop-color:#3A5C9B"/>
		<stop  offset="0.7283" style="stop-color:#223479"/>
		<stop  offset="0.8368" style="stop-color:#111860"/>
		<stop  offset="0.9309" style="stop-color:#070651"/>
		<stop  offset="1" style="stop-color:#03004C"/>
	</linearGradient>
	<path class="st6" d="M36.4,11.1c0,0.7,0,0.8,0.1,0.9c0.1,0.1,0.2,0.1,0.7,0.2c0.1,0,0.1,0,0.1,0.1c0,0.1,0,0.1-0.1,0.1
		c-0.3,0-0.8,0-1.1,0s-0.8,0-1.1,0c0,0-0.1,0-0.1-0.1c0-0.1,0-0.1,0.1-0.1c0.4,0,0.5-0.1,0.7-0.2c0.1,0,0.1-0.2,0.1-1V8
		c0-0.7,0-0.8-0.1-0.9C35.6,7,35.5,7,35,6.9c-0.1,0-0.1,0-0.1-0.1c0-0.1,0-0.1,0.1-0.1c0.3,0,0.8,0,1.1,0c0.3,0,0.8,0,1.3,0
		c1.4,0,2.1,0.5,2.1,1.5s-0.8,1.6-2.4,1.6c-0.2,0-0.4,0-0.7,0C36.4,9.9,36.4,11.1,36.4,11.1z M36.4,9.4c0.2,0,0.4,0,0.7,0
		c1.1,0,1.7-0.5,1.7-1.3s-0.5-1.3-1.5-1.3c-0.4,0-0.7,0.1-0.7,0.2c-0.1,0.1-0.1,0.2-0.1,1v1.4H36.4z"/>
	
		<linearGradient id="SVGID_8_" gradientUnits="userSpaceOnUse" x1="40.3434" y1="4.4544" x2="47.5095" y2="4.4544" gradientTransform="matrix(1 0 0 -1 0 14)">
		<stop  offset="0" style="stop-color:#1A1B7D"/>
		<stop  offset="8.870302e-02" style="stop-color:#1C1F80"/>
		<stop  offset="0.1817" style="stop-color:#232C88"/>
		<stop  offset="0.2766" style="stop-color:#2E4195"/>
		<stop  offset="0.3729" style="stop-color:#3E5EA7"/>
		<stop  offset="0.4694" style="stop-color:#5184BF"/>
		<stop  offset="0.4888" style="stop-color:#568CC4"/>
		<stop  offset="0.6091" style="stop-color:#3A5C9B"/>
		<stop  offset="0.7283" style="stop-color:#223479"/>
		<stop  offset="0.8368" style="stop-color:#111860"/>
		<stop  offset="0.9309" style="stop-color:#070651"/>
		<stop  offset="1" style="stop-color:#03004C"/>
	</linearGradient>
	<path class="st7" d="M45.5,7.7c0.1-0.3,0.2-0.7,0.3-1c0.3,0,0.4,0,0.7,0c0.2,0,0.5,0,0.9,0c0.1,0,0.1,0,0.1,0.1
		c0,0.1,0,0.1-0.1,0.1c-0.4,0-0.5,0.1-0.7,0.2c0,0.1,0,0.3,0,0.7V11c0,0.9,0,1,0.1,1.1c0.1,0.1,0.2,0.1,0.7,0.2c0.1,0,0.1,0,0.1,0.1
		c0,0.1,0,0.1-0.1,0.1c-0.3,0-0.8,0-1.1,0c-0.3,0-0.8,0-1,0c0,0-0.1,0-0.1-0.1c0-0.1,0-0.1,0.1-0.1c0.4,0,0.5-0.1,0.7-0.2
		c0.1-0.1,0.1-0.3,0.1-0.8V7.6H46l-1.2,2.8c-0.3,0.9-0.5,1.4-0.9,2c0,0.1,0,0.1-0.1,0.1c0,0-0.1,0-0.1-0.1c-0.2-0.7-0.4-1.2-0.8-1.8
		l-1.3-2.9h-0.1V11c0,0.7,0,1,0.1,1.1c0.1,0.1,0.2,0.1,0.7,0.2c0.1,0,0.1,0,0.1,0.1c0,0.1,0,0.1-0.1,0.1c-0.3,0-0.5,0-0.9,0
		c-0.3,0-0.7,0-0.9,0c-0.1,0-0.1,0-0.1-0.1c0-0.1,0-0.1,0.1-0.1c0.3,0,0.4-0.1,0.5-0.2c0.1-0.2,0.1-0.3,0.1-1.1l0.1-3.3
		c0-0.3,0-0.5-0.1-0.7c-0.1-0.1-0.2-0.1-0.7-0.2c-0.1,0-0.1,0-0.1-0.1s0-0.1,0.1-0.1c0.3,0,0.7,0,0.9,0c0.2,0,0.4,0,0.7,0
		c0.1,0.3,0.2,0.7,0.3,0.9l1.1,2.6c0.2,0.3,0.3,0.8,0.4,1.1c0.1-0.4,0.3-0.8,0.4-1.1L45.5,7.7z"/>
	
		<linearGradient id="SVGID_9_" gradientUnits="userSpaceOnUse" x1="48.1028" y1="4.4544" x2="52.724" y2="4.4544" gradientTransform="matrix(1 0 0 -1 0 14)">
		<stop  offset="0" style="stop-color:#1A1B7D"/>
		<stop  offset="8.870302e-02" style="stop-color:#1C1F80"/>
		<stop  offset="0.1817" style="stop-color:#232C88"/>
		<stop  offset="0.2766" style="stop-color:#2E4195"/>
		<stop  offset="0.3729" style="stop-color:#3E5EA7"/>
		<stop  offset="0.4694" style="stop-color:#5184BF"/>
		<stop  offset="0.4888" style="stop-color:#568CC4"/>
		<stop  offset="0.6091" style="stop-color:#3A5C9B"/>
		<stop  offset="0.7283" style="stop-color:#223479"/>
		<stop  offset="0.8368" style="stop-color:#111860"/>
		<stop  offset="0.9309" style="stop-color:#070651"/>
		<stop  offset="1" style="stop-color:#03004C"/>
	</linearGradient>
	<path class="st8" d="M52.8,11.1c-0.1,0.4-0.2,0.9-0.4,1.3c-0.7,0-1.3,0-2,0c-0.7,0-1.4,0-2.1,0c0,0-0.1,0-0.1-0.1
		c0-0.1,0-0.1,0.1-0.1c0.4,0,0.5-0.1,0.5-0.2c0.1-0.1,0.1-0.3,0.1-1.1V8.1c0-0.9,0-0.9-0.1-1C48.7,7,48.6,7,48.2,6.9
		c-0.1,0-0.1,0-0.1-0.1c0-0.1,0-0.1,0.1-0.1c0.7,0,1.4,0,2,0c0.7,0,1.3,0,2,0c0,0.4,0.1,0.9,0.1,1.3l0,0c0,0,0,0.1-0.1,0.1
		c0,0,0,0-0.1,0c-0.1-0.3-0.3-0.7-0.5-0.8c-0.2-0.1-0.4-0.2-1.2-0.2c-0.4,0-0.7,0.1-0.7,0.2c-0.1,0.1-0.1,0.2-0.1,0.7v1.4
		c0.1,0,0.3,0,0.5,0c0.7,0,1-0.1,1.1-0.1c0.1-0.1,0.2-0.2,0.2-0.5c0-0.1,0-0.1,0.1-0.1c0.1,0,0.1,0,0.1,0.1c0,0.3,0,0.5,0,0.8
		c0,0.3,0,0.7,0,0.9c0,0.1,0,0.1-0.1,0.1c-0.1,0-0.1,0-0.1-0.1c0-0.3-0.1-0.5-0.2-0.5C51,9.8,50.7,9.8,50,9.8c-0.2,0-0.3,0-0.5,0
		v1.4c0,0.7,0,0.9,0.1,1c0.1,0.1,0.2,0.2,0.8,0.2c0.8,0,1.1-0.1,1.4-0.3c0.2-0.2,0.4-0.4,0.7-0.8c0,0,0-0.1,0.1-0.1
		C52.6,11,52.8,11.1,52.8,11.1L52.8,11.1z"/>
	
		<linearGradient id="SVGID_10_" gradientUnits="userSpaceOnUse" x1="53.2444" y1="4.2368" x2="59.1903" y2="4.2368" gradientTransform="matrix(1 0 0 -1 0 14)">
		<stop  offset="0" style="stop-color:#1A1B7D"/>
		<stop  offset="8.870302e-02" style="stop-color:#1C1F80"/>
		<stop  offset="0.1817" style="stop-color:#232C88"/>
		<stop  offset="0.2766" style="stop-color:#2E4195"/>
		<stop  offset="0.3729" style="stop-color:#3E5EA7"/>
		<stop  offset="0.4694" style="stop-color:#5184BF"/>
		<stop  offset="0.4888" style="stop-color:#568CC4"/>
		<stop  offset="0.6091" style="stop-color:#3A5C9B"/>
		<stop  offset="0.7283" style="stop-color:#223479"/>
		<stop  offset="0.8368" style="stop-color:#111860"/>
		<stop  offset="0.9309" style="stop-color:#070651"/>
		<stop  offset="1" style="stop-color:#03004C"/>
	</linearGradient>
	<path class="st9" d="M54.4,7.6v3.5c0,0.7,0,0.9,0.1,1.1c0.1,0.1,0.2,0.2,0.7,0.2c0,0,0.1,0,0.1,0.1c0,0.1,0,0.1-0.1,0.1
		c-0.3,0-0.7,0-0.9,0c-0.3,0-0.7,0-0.9,0c-0.1,0-0.1,0-0.1-0.1c0-0.1,0-0.1,0.1-0.1c0.4,0,0.5-0.1,0.5-0.2c0.1-0.1,0.1-0.4,0.1-1.1
		V8.1c0-0.4,0-0.8-0.1-0.9C53.8,7.2,53.7,7,53.3,7c-0.1,0-0.1,0-0.1-0.1s0-0.1,0.1-0.1c0.3,0,0.5,0,0.8,0s0.4,0,0.8,0
		c0.2,0.3,0.3,0.5,0.7,1l1.8,2.7c0.2,0.3,0.5,0.8,0.8,1.1c0-0.3,0-0.7,0-1V8.2c0-0.5-0.1-0.9-0.1-1c-0.1-0.1-0.2-0.1-0.7-0.2
		c-0.1,0-0.1,0-0.1-0.1s0-0.1,0.1-0.1c0.3,0,0.7,0,0.9,0c0.3,0,0.7,0,0.9,0c0.1,0,0.1,0,0.1,0.1s0,0.1-0.1,0.1
		c-0.3,0-0.4,0.1-0.5,0.2c-0.1,0.1-0.1,0.4-0.1,1v2.8c0,0.1,0,0.3,0,0.4c0,0.3,0,0.7,0,1c-0.3,0.2-0.3,0.2-0.3,0.2s0,0-0.1,0
		c-0.2-0.5-0.4-0.9-0.9-1.5L54.4,7.6L54.4,7.6z"/>
	
		<linearGradient id="SVGID_11_" gradientUnits="userSpaceOnUse" x1="59.7429" y1="4.4" x2="65.0421" y2="4.4" gradientTransform="matrix(1 0 0 -1 0 14)">
		<stop  offset="0" style="stop-color:#1A1B7D"/>
		<stop  offset="8.870302e-02" style="stop-color:#1C1F80"/>
		<stop  offset="0.1817" style="stop-color:#232C88"/>
		<stop  offset="0.2766" style="stop-color:#2E4195"/>
		<stop  offset="0.3729" style="stop-color:#3E5EA7"/>
		<stop  offset="0.4694" style="stop-color:#5184BF"/>
		<stop  offset="0.4888" style="stop-color:#568CC4"/>
		<stop  offset="0.6091" style="stop-color:#3A5C9B"/>
		<stop  offset="0.7283" style="stop-color:#223479"/>
		<stop  offset="0.8368" style="stop-color:#111860"/>
		<stop  offset="0.9309" style="stop-color:#070651"/>
		<stop  offset="1" style="stop-color:#03004C"/>
	</linearGradient>
	<path class="st10" d="M59.7,8c0.1-0.4,0.1-0.9,0.1-1.3c0.9,0,1.6,0,2.5,0c0.8,0,1.6,0,2.5,0c0,0.4,0.1,0.9,0.1,1.3l0,0l-0.1,0.1
		c0,0,0,0-0.1,0c-0.1-0.4-0.3-0.7-0.5-0.9C64,7.2,63.7,7,63.2,7c-0.3,0-0.4,0-0.5,0.1c-0.1,0.1-0.1,0.2-0.1,1v2.9c0,0.7,0,0.8,0.1,1
		c0.1,0.1,0.2,0.1,0.7,0.2c0.1,0,0.1,0,0.1,0.1s0,0.1-0.1,0.1c-0.3,0-0.8,0-1.1,0s-0.8,0-1.1,0c-0.1,0-0.1,0-0.1-0.1s0-0.1,0.1-0.1
		c0.4,0,0.5-0.1,0.7-0.2c0.1-0.1,0.1-0.3,0.1-1V7.9c0-0.7,0-0.8-0.1-0.9c-0.1-0.1-0.1-0.1-0.5-0.1s-0.8,0.1-1,0.2
		C60,7.3,59.9,7.6,59.7,8c0,0,0,0-0.1,0C59.8,8.1,59.7,8,59.7,8L59.7,8z"/>
</g>
</svg>
