<?xml version="1.0" encoding="utf-8"?>
<!-- Generator: Adobe Illustrator 25.0.1, SVG Export Plug-In . SVG Version: 6.00 Build 0)  -->
<svg version="1.1" id="レイヤー_1" xmlns="http://www.w3.org/2000/svg" xmlns:xlink="http://www.w3.org/1999/xlink" x="0px"
	 y="0px" viewBox="0 0 85 13" style="enable-background:new 0 0 85 13;" xml:space="preserve">
<style type="text/css">
	.st0{fill:url(#SVGID_1_);}
	.st1{fill:url(#SVGID_2_);}
	.st2{fill:url(#SVGID_3_);}
	.st3{fill:url(#SVGID_4_);}
	.st4{fill:url(#SVGID_5_);}
	.st5{fill:url(#SVGID_6_);}
	.st6{fill:url(#SVGID_7_);}
	.st7{fill:url(#SVGID_8_);}
	.st8{fill:url(#SVGID_9_);}
	.st9{fill:url(#SVGID_10_);}
	.st10{fill:url(#SVGID_11_);}
</style>
<g>
	
		<linearGradient id="SVGID_1_" gradientUnits="userSpaceOnUse" x1="9.745814e-02" y1="5.0132" x2="7.2003" y2="5.0132" gradientTransform="matrix(1 0 0 -1 0 14)">
		<stop  offset="0" style="stop-color:#1A1B7D"/>
		<stop  offset="8.870302e-02" style="stop-color:#1C1F80"/>
		<stop  offset="0.1817" style="stop-color:#232C88"/>
		<stop  offset="0.2766" style="stop-color:#2E4195"/>
		<stop  offset="0.3729" style="stop-color:#3E5EA7"/>
		<stop  offset="0.4694" style="stop-color:#5184BF"/>
		<stop  offset="0.4888" style="stop-color:#568CC4"/>
		<stop  offset="0.6091" style="stop-color:#3A5C9B"/>
		<stop  offset="0.7283" style="stop-color:#223479"/>
		<stop  offset="0.8368" style="stop-color:#111860"/>
		<stop  offset="0.9309" style="stop-color:#070651"/>
		<stop  offset="1" style="stop-color:#03004C"/>
	</linearGradient>
	<path class="st0" d="M1,7.2c0-1,0-1.2-0.1-1.2c0-0.1-0.3-0.1-0.8-0.3C0,5.8,0,5.8,0,5.7s0-0.1,0.1-0.1c0.4,0,0.8,0,1.2,0
		c0.5,0,1.3,0,2,0c2.5,0,3.9,1.3,3.9,3.4s-1.4,3.5-3.9,3.5c-0.7,0-1.3,0-1.8,0c-0.4,0-0.8,0-1.2,0c-0.1,0-0.1,0-0.1-0.1
		s0-0.1,0.1-0.1c0.5,0,0.7-0.1,0.8-0.3s0.1-0.4,0.1-1.3V7.2H1z M1.8,10.9c0,0.5,0,0.8,0.1,0.9S2.3,12,3.1,12c2,0,3-1.3,3-3.1
		c0-2-1.2-3.1-3-3.1C2.2,5.8,2,5.9,1.8,6.1C1.7,6.2,1.7,6.3,1.7,7.2v3.6H1.8z"/>
	
		<linearGradient id="SVGID_2_" gradientUnits="userSpaceOnUse" x1="8.1726" y1="5.0784" x2="13.7078" y2="5.0784" gradientTransform="matrix(1 0 0 -1 0 14)">
		<stop  offset="0" style="stop-color:#1A1B7D"/>
		<stop  offset="8.870302e-02" style="stop-color:#1C1F80"/>
		<stop  offset="0.1817" style="stop-color:#232C88"/>
		<stop  offset="0.2766" style="stop-color:#2E4195"/>
		<stop  offset="0.3729" style="stop-color:#3E5EA7"/>
		<stop  offset="0.4694" style="stop-color:#5184BF"/>
		<stop  offset="0.4888" style="stop-color:#568CC4"/>
		<stop  offset="0.6091" style="stop-color:#3A5C9B"/>
		<stop  offset="0.7283" style="stop-color:#223479"/>
		<stop  offset="0.8368" style="stop-color:#111860"/>
		<stop  offset="0.9309" style="stop-color:#070651"/>
		<stop  offset="1" style="stop-color:#03004C"/>
	</linearGradient>
	<path class="st1" d="M13.7,10.7c-0.1,0.5-0.3,1-0.5,1.6c-0.8,0-1.6,0-2.3,0c-0.8,0-1.7,0-2.5,0c0,0-0.1,0-0.1-0.1
		c0-0.1,0-0.1,0.1-0.1C8.9,12,9,11.9,9,11.8c0.1-0.1,0.1-0.4,0.1-1.3V7.2c0-1,0-1-0.1-1.2C8.9,5.9,8.7,5.9,8.2,5.8
		c-0.1,0-0.1,0-0.1-0.1s0-0.1,0.1-0.1c0.8,0,1.7,0,2.3,0c0.7,0,1.6,0,2.3,0c0,0.5,0.1,1,0.1,1.6l0,0c0,0,0,0.1-0.1,0.1
		c0,0,0,0-0.1,0c-0.1-0.4-0.4-0.8-0.7-0.9s-0.5-0.3-1.4-0.3c-0.5,0-0.8,0.1-0.8,0.3C9.8,6.4,9.8,6.6,9.8,7.1v1.7c0.1,0,0.4,0,0.7,0
		c0.8,0,1.2-0.1,1.3-0.1C11.9,8.5,12,8.4,12,8c0-0.1,0-0.1,0.1-0.1c0.1,0,0.1,0,0.1,0.1c0,0.4,0,0.7,0,0.9c0,0.4,0,0.8,0,1
		c0,0.1,0,0.1-0.1,0.1c-0.1,0-0.1,0-0.1-0.1c0-0.4-0.1-0.7-0.3-0.7c-0.1-0.1-0.5-0.1-1.3-0.1c-0.3,0-0.4,0-0.7,0v1.7
		c0,0.8,0,1,0.1,1.2c0.1,0.1,0.3,0.3,0.9,0.3c0.9,0,1.3-0.1,1.7-0.4c0.3-0.3,0.5-0.5,0.8-0.9c0,0,0-0.1,0.1-0.1
		C13.7,10.6,13.7,10.7,13.7,10.7L13.7,10.7z"/>
	
		<linearGradient id="SVGID_3_" gradientUnits="userSpaceOnUse" x1="14.0014" y1="5.0132" x2="20.9588" y2="5.0132" gradientTransform="matrix(1 0 0 -1 0 14)">
		<stop  offset="0" style="stop-color:#1A1B7D"/>
		<stop  offset="8.870302e-02" style="stop-color:#1C1F80"/>
		<stop  offset="0.1817" style="stop-color:#232C88"/>
		<stop  offset="0.2766" style="stop-color:#2E4195"/>
		<stop  offset="0.3729" style="stop-color:#3E5EA7"/>
		<stop  offset="0.4694" style="stop-color:#5184BF"/>
		<stop  offset="0.4888" style="stop-color:#568CC4"/>
		<stop  offset="0.6091" style="stop-color:#3A5C9B"/>
		<stop  offset="0.7283" style="stop-color:#223479"/>
		<stop  offset="0.8368" style="stop-color:#111860"/>
		<stop  offset="0.9309" style="stop-color:#070651"/>
		<stop  offset="1" style="stop-color:#03004C"/>
	</linearGradient>
	<path class="st2" d="M17.2,10.1c0.3,0.7,0.4,0.9,0.4,1.3c0.1-0.4,0.3-0.7,0.5-1.3l1-2.9c0.3-0.5,0.3-0.9,0.3-1
		c0-0.3-0.1-0.4-0.8-0.4c-0.1,0-0.1,0-0.1-0.1c0-0.1,0-0.1,0.1-0.1c0.4,0,0.9,0,1.2,0c0.4,0,0.7,0,0.9,0c0.1,0,0.1,0,0.1,0.1
		c0,0.1,0,0.1-0.1,0.1c-0.4,0-0.5,0.1-0.7,0.3s-0.3,0.4-0.7,1.2l-1.3,3.4c-0.4,0.9-0.5,1.3-0.7,1.7c-0.4,0.1-0.4,0.1-0.4,0.1l0,0
		c-0.1-0.7-0.4-1-0.7-1.8l-1.3-3.4c-0.3-0.7-0.5-1-0.5-1.2c-0.1-0.1-0.3-0.3-0.7-0.3c-0.1,0-0.1,0-0.1-0.1s0-0.1,0.1-0.1
		c0.4,0,0.8,0,1.2,0s0.9,0,1.3,0c0.1,0,0.1,0,0.1,0.1s0,0.1-0.1,0.1c-0.7,0.1-0.8,0.1-0.8,0.4c0,0.1,0,0.4,0.3,1L17.2,10.1z"/>
	
		<linearGradient id="SVGID_4_" gradientUnits="userSpaceOnUse" x1="21.3402" y1="5.0784" x2="26.8755" y2="5.0784" gradientTransform="matrix(1 0 0 -1 0 14)">
		<stop  offset="0" style="stop-color:#1A1B7D"/>
		<stop  offset="8.870302e-02" style="stop-color:#1C1F80"/>
		<stop  offset="0.1817" style="stop-color:#232C88"/>
		<stop  offset="0.2766" style="stop-color:#2E4195"/>
		<stop  offset="0.3729" style="stop-color:#3E5EA7"/>
		<stop  offset="0.4694" style="stop-color:#5184BF"/>
		<stop  offset="0.4888" style="stop-color:#568CC4"/>
		<stop  offset="0.6091" style="stop-color:#3A5C9B"/>
		<stop  offset="0.7283" style="stop-color:#223479"/>
		<stop  offset="0.8368" style="stop-color:#111860"/>
		<stop  offset="0.9309" style="stop-color:#070651"/>
		<stop  offset="1" style="stop-color:#03004C"/>
	</linearGradient>
	<path class="st3" d="M26.8,10.7c-0.1,0.5-0.3,1-0.5,1.6c-0.8,0-1.6,0-2.3,0c-0.8,0-1.7,0-2.5,0c0,0-0.1,0-0.1-0.1
		c0-0.1,0-0.1,0.1-0.1c0.5,0,0.7-0.1,0.7-0.3c0.1-0.1,0.1-0.4,0.1-1.3V7.2c0-1,0-1-0.1-1.2s-0.3-0.1-0.8-0.3c-0.1,0-0.1,0-0.1-0.1
		s0-0.1,0.1-0.1c0.8,0,1.7,0,2.3,0c0.8,0,1.6,0,2.3,0c0,0.5,0.1,1,0.1,1.6l0,0c0,0,0,0.1-0.1,0.1c0,0,0,0-0.1,0
		c-0.1-0.4-0.4-0.8-0.7-0.9s-0.5-0.3-1.4-0.3c-0.5,0-0.8,0.1-0.8,0.3c-0.1,0.1-0.1,0.3-0.1,0.8v1.7c0.1,0,0.4,0,0.7,0
		c0.8,0,1.2-0.1,1.3-0.1C25,8.5,25.1,8.4,25.1,8c0-0.1,0-0.1,0.1-0.1s0.1,0,0.1,0.1c0,0.4,0,0.7,0,0.9c0,0.4,0,0.8,0,1
		c0,0.1,0,0.1-0.1,0.1s-0.1,0-0.1-0.1c0-0.4-0.1-0.7-0.3-0.7c-0.1-0.1-0.5-0.1-1.3-0.1c-0.3,0-0.4,0-0.7,0v1.7c0,0.8,0,1,0.1,1.2
		c0.1,0.1,0.3,0.3,0.9,0.3c0.9,0,1.3-0.1,1.7-0.4c0.3-0.3,0.5-0.5,0.8-0.9c0,0,0-0.1,0.1-0.1C26.8,10.6,26.8,10.7,26.8,10.7
		L26.8,10.7z"/>
	
		<linearGradient id="SVGID_5_" gradientUnits="userSpaceOnUse" x1="27.5555" y1="5.0784" x2="33.0616" y2="5.0784" gradientTransform="matrix(1 0 0 -1 0 14)">
		<stop  offset="0" style="stop-color:#1A1B7D"/>
		<stop  offset="8.870302e-02" style="stop-color:#1C1F80"/>
		<stop  offset="0.1817" style="stop-color:#232C88"/>
		<stop  offset="0.2766" style="stop-color:#2E4195"/>
		<stop  offset="0.3729" style="stop-color:#3E5EA7"/>
		<stop  offset="0.4694" style="stop-color:#5184BF"/>
		<stop  offset="0.4888" style="stop-color:#568CC4"/>
		<stop  offset="0.6091" style="stop-color:#3A5C9B"/>
		<stop  offset="0.7283" style="stop-color:#223479"/>
		<stop  offset="0.8368" style="stop-color:#111860"/>
		<stop  offset="0.9309" style="stop-color:#070651"/>
		<stop  offset="1" style="stop-color:#03004C"/>
	</linearGradient>
	<path class="st4" d="M33.1,10.7c-0.1,0.5-0.3,1-0.5,1.6c-0.8,0-1.6,0-2.3,0s-1.7,0-2.5,0c0,0-0.1,0-0.1-0.1c0-0.1,0-0.1,0.1-0.1
		c0.5,0,0.7-0.1,0.8-0.3c0,0,0-0.3,0-1.2V7.1c0-0.8,0-0.9-0.1-1s-0.3-0.1-0.8-0.3c0,0-0.1,0-0.1-0.1c0-0.1,0-0.1,0.1-0.1
		c0.4,0,0.9,0,1.3,0c0.4,0,0.9,0,1.3,0c0.1,0,0.1,0,0.1,0.1c0,0.1,0,0.1-0.1,0.1c-0.5,0-0.7,0.1-0.7,0.3c-0.1,0.1-0.1,0.3-0.1,1.2
		v3.4c0,0.8,0,1,0.1,1.2s0.3,0.3,0.9,0.3c0.9,0,1.3-0.1,1.7-0.4c0.3-0.1,0.4-0.4,0.7-0.9c0,0,0-0.1,0.1-0.1L33.1,10.7L33.1,10.7z"/>
	
		<linearGradient id="SVGID_6_" gradientUnits="userSpaceOnUse" x1="33.9457" y1="5.0784" x2="40.9615" y2="5.0784" gradientTransform="matrix(1 0 0 -1 0 14)">
		<stop  offset="0" style="stop-color:#1A1B7D"/>
		<stop  offset="8.870302e-02" style="stop-color:#1C1F80"/>
		<stop  offset="0.1817" style="stop-color:#232C88"/>
		<stop  offset="0.2766" style="stop-color:#2E4195"/>
		<stop  offset="0.3729" style="stop-color:#3E5EA7"/>
		<stop  offset="0.4694" style="stop-color:#5184BF"/>
		<stop  offset="0.4888" style="stop-color:#568CC4"/>
		<stop  offset="0.6091" style="stop-color:#3A5C9B"/>
		<stop  offset="0.7283" style="stop-color:#223479"/>
		<stop  offset="0.8368" style="stop-color:#111860"/>
		<stop  offset="0.9309" style="stop-color:#070651"/>
		<stop  offset="1" style="stop-color:#03004C"/>
	</linearGradient>
	<path class="st5" d="M40.9,8.9c0,2.1-1.4,3.6-3.5,3.6c-2.1,0-3.5-1.6-3.5-3.6s1.4-3.6,3.5-3.6C39.5,5.4,40.9,6.8,40.9,8.9z
		 M34.9,8.9c0,2,1,3.3,2.6,3.3c1.4,0,2.6-1.3,2.6-3.3s-1-3.3-2.6-3.3C36,5.7,34.9,7,34.9,8.9z"/>
	
		<linearGradient id="SVGID_7_" gradientUnits="userSpaceOnUse" x1="41.9046" y1="5.0784" x2="47.3768" y2="5.0784" gradientTransform="matrix(1 0 0 -1 0 14)">
		<stop  offset="0" style="stop-color:#1A1B7D"/>
		<stop  offset="8.870302e-02" style="stop-color:#1C1F80"/>
		<stop  offset="0.1817" style="stop-color:#232C88"/>
		<stop  offset="0.2766" style="stop-color:#2E4195"/>
		<stop  offset="0.3729" style="stop-color:#3E5EA7"/>
		<stop  offset="0.4694" style="stop-color:#5184BF"/>
		<stop  offset="0.4888" style="stop-color:#568CC4"/>
		<stop  offset="0.6091" style="stop-color:#3A5C9B"/>
		<stop  offset="0.7283" style="stop-color:#223479"/>
		<stop  offset="0.8368" style="stop-color:#111860"/>
		<stop  offset="0.9309" style="stop-color:#070651"/>
		<stop  offset="1" style="stop-color:#03004C"/>
	</linearGradient>
	<path class="st6" d="M43.6,10.7c0,0.8,0,0.9,0.1,1c0.1,0.1,0.3,0.1,0.8,0.3c0.1,0,0.1,0,0.1,0.1c0,0.1,0,0.1-0.1,0.1
		c-0.4,0-0.9,0-1.3,0c-0.4,0-0.9,0-1.3,0c0,0-0.1,0-0.1-0.1c0-0.1,0-0.1,0.1-0.1c0.5,0,0.7-0.1,0.8-0.3c0.1,0,0.1-0.3,0.1-1.2V7.1
		c0-0.8,0-0.9-0.1-1S42.5,5.9,42,5.8c-0.1,0-0.1,0-0.1-0.1c0-0.1,0-0.1,0.1-0.1c0.4,0,0.9,0,1.3,0s0.9,0,1.6,0
		c1.7,0,2.5,0.7,2.5,1.8s-0.9,2-2.9,2c-0.3,0-0.5,0-0.8,0C43.6,9.3,43.6,10.7,43.6,10.7z M43.6,8.8c0.3,0,0.5,0,0.8,0
		c1.3,0,2.1-0.7,2.1-1.6s-0.7-1.6-1.8-1.6c-0.5,0-0.8,0.1-0.8,0.3c-0.1,0.1-0.1,0.3-0.1,1.2v1.7H43.6z"/>
	
		<linearGradient id="SVGID_8_" gradientUnits="userSpaceOnUse" x1="48.324" y1="5.0784" x2="56.9077" y2="5.0784" gradientTransform="matrix(1 0 0 -1 0 14)">
		<stop  offset="0" style="stop-color:#1A1B7D"/>
		<stop  offset="8.870302e-02" style="stop-color:#1C1F80"/>
		<stop  offset="0.1817" style="stop-color:#232C88"/>
		<stop  offset="0.2766" style="stop-color:#2E4195"/>
		<stop  offset="0.3729" style="stop-color:#3E5EA7"/>
		<stop  offset="0.4694" style="stop-color:#5184BF"/>
		<stop  offset="0.4888" style="stop-color:#568CC4"/>
		<stop  offset="0.6091" style="stop-color:#3A5C9B"/>
		<stop  offset="0.7283" style="stop-color:#223479"/>
		<stop  offset="0.8368" style="stop-color:#111860"/>
		<stop  offset="0.9309" style="stop-color:#070651"/>
		<stop  offset="1" style="stop-color:#03004C"/>
	</linearGradient>
	<path class="st7" d="M54.5,6.7c0.1-0.4,0.3-0.8,0.4-1.2c0.4,0,0.5,0,0.8,0c0.3,0,0.7,0,1,0c0.1,0,0.1,0,0.1,0.1s0,0.1-0.1,0.1
		c-0.5,0-0.7,0.1-0.8,0.3c0,0.1,0,0.4,0,0.8v3.8c0,1,0,1.2,0.1,1.3s0.3,0.1,0.8,0.3c0.1,0,0.1,0,0.1,0.1s0,0.1-0.1,0.1
		c-0.4,0-0.9,0-1.3,0s-0.9,0-1.2,0c0,0-0.1,0-0.1-0.1s0-0.1,0.1-0.1c0.5,0,0.7-0.1,0.8-0.3s0.1-0.4,0.1-0.9V6.6h-0.1L53.7,10
		c-0.4,1-0.7,1.7-1,2.3c0,0.1,0,0.1-0.1,0.1c0,0-0.1,0-0.1-0.1c-0.3-0.8-0.5-1.4-0.9-2.2l-1.6-3.5h-0.1v4c0,0.8,0,1.2,0.1,1.3
		s0.3,0.1,0.8,0.3c0.1,0,0.1,0,0.1,0.1s0,0.1-0.1,0.1c-0.4,0-0.7,0-1,0s-0.8,0-1,0c-0.1,0-0.1,0-0.1-0.1s0-0.1,0.1-0.1
		c0.4,0,0.5-0.1,0.7-0.3c0.1-0.3,0.1-0.4,0.1-1.3l0.1-3.9c0-0.4,0-0.7-0.1-0.8s-0.3-0.1-0.8-0.3c-0.1,0-0.1,0-0.1-0.1s0-0.1,0.1-0.1
		c0.4,0,0.8,0,1,0s0.5,0,0.8,0c0.1,0.4,0.3,0.8,0.4,1l1.3,3.1c0.3,0.4,0.4,0.9,0.5,1.3c0.1-0.5,0.4-0.9,0.5-1.3L54.5,6.7z"/>
	
		<linearGradient id="SVGID_9_" gradientUnits="userSpaceOnUse" x1="57.6184" y1="5.0784" x2="63.1537" y2="5.0784" gradientTransform="matrix(1 0 0 -1 0 14)">
		<stop  offset="0" style="stop-color:#1A1B7D"/>
		<stop  offset="8.870302e-02" style="stop-color:#1C1F80"/>
		<stop  offset="0.1817" style="stop-color:#232C88"/>
		<stop  offset="0.2766" style="stop-color:#2E4195"/>
		<stop  offset="0.3729" style="stop-color:#3E5EA7"/>
		<stop  offset="0.4694" style="stop-color:#5184BF"/>
		<stop  offset="0.4888" style="stop-color:#568CC4"/>
		<stop  offset="0.6091" style="stop-color:#3A5C9B"/>
		<stop  offset="0.7283" style="stop-color:#223479"/>
		<stop  offset="0.8368" style="stop-color:#111860"/>
		<stop  offset="0.9309" style="stop-color:#070651"/>
		<stop  offset="1" style="stop-color:#03004C"/>
	</linearGradient>
	<path class="st8" d="M63.2,10.7c-0.1,0.5-0.3,1-0.5,1.6c-0.8,0-1.6,0-2.3,0s-1.7,0-2.5,0c0,0-0.1,0-0.1-0.1c0-0.1,0-0.1,0.1-0.1
		c0.5,0,0.7-0.1,0.7-0.3c0.1-0.1,0.1-0.4,0.1-1.3V7.2c0-1,0-1-0.1-1.2s-0.3-0.1-0.8-0.3c-0.1,0-0.1,0-0.1-0.1s0-0.1,0.1-0.1
		c0.8,0,1.7,0,2.3,0c0.8,0,1.6,0,2.3,0c0,0.5,0.1,1,0.1,1.6l0,0c0,0,0,0.1-0.1,0.1c0,0,0,0-0.1,0c-0.1-0.4-0.4-0.8-0.7-0.9
		s-0.5-0.3-1.4-0.3c-0.5,0-0.8,0.1-0.8,0.3c-0.1,0.1-0.1,0.3-0.1,0.8v1.7c0.1,0,0.4,0,0.7,0c0.8,0,1.2-0.1,1.3-0.1
		c0.1-0.1,0.3-0.3,0.3-0.7c0-0.1,0-0.1,0.1-0.1s0.1,0,0.1,0.1c0,0.4,0,0.7,0,0.9c0,0.4,0,0.8,0,1c0,0.1,0,0.1-0.1,0.1
		s-0.1,0-0.1-0.1c0-0.4-0.1-0.7-0.3-0.7c-0.1-0.1-0.5-0.1-1.3-0.1c-0.3,0-0.4,0-0.7,0v1.7c0,0.8,0,1,0.1,1.2s0.3,0.3,0.9,0.3
		c0.9,0,1.3-0.1,1.7-0.4c0.3-0.3,0.5-0.5,0.8-0.9c0,0,0-0.1,0.1-0.1C63.1,10.6,63.2,10.7,63.2,10.7L63.2,10.7z"/>
	
		<linearGradient id="SVGID_10_" gradientUnits="userSpaceOnUse" x1="63.777" y1="4.8178" x2="70.8992" y2="4.8178" gradientTransform="matrix(1 0 0 -1 0 14)">
		<stop  offset="0" style="stop-color:#1A1B7D"/>
		<stop  offset="8.870302e-02" style="stop-color:#1C1F80"/>
		<stop  offset="0.1817" style="stop-color:#232C88"/>
		<stop  offset="0.2766" style="stop-color:#2E4195"/>
		<stop  offset="0.3729" style="stop-color:#3E5EA7"/>
		<stop  offset="0.4694" style="stop-color:#5184BF"/>
		<stop  offset="0.4888" style="stop-color:#568CC4"/>
		<stop  offset="0.6091" style="stop-color:#3A5C9B"/>
		<stop  offset="0.7283" style="stop-color:#223479"/>
		<stop  offset="0.8368" style="stop-color:#111860"/>
		<stop  offset="0.9309" style="stop-color:#070651"/>
		<stop  offset="1" style="stop-color:#03004C"/>
	</linearGradient>
	<path class="st9" d="M65.1,6.6v4.2c0,0.8,0,1,0.1,1.3c0.1,0.1,0.3,0.3,0.8,0.3c0,0,0.1,0,0.1,0.1s0,0.1-0.1,0.1c-0.4,0-0.8,0-1,0
		c-0.4,0-0.8,0-1,0c-0.1,0-0.1,0-0.1-0.1s0-0.1,0.1-0.1c0.5,0,0.7-0.1,0.7-0.3c0.1-0.1,0.1-0.5,0.1-1.3V7.2c0-0.5,0-0.9-0.1-1
		s-0.3-0.3-0.8-0.3c-0.1,0-0.1,0-0.1-0.1s0-0.1,0.1-0.1c0.4,0,0.7,0,0.9,0s0.5,0,0.9,0c0.3,0.4,0.4,0.7,0.8,1.2l2.2,3.3
		c0.3,0.4,0.7,0.9,0.9,1.3c0-0.4,0-0.8,0-1.2V7.4c0-0.7-0.1-1-0.1-1.2c-0.1-0.1-0.3-0.1-0.8-0.3c-0.1,0-0.1,0-0.1-0.1s0-0.1,0.1-0.1
		c0.4,0,0.8,0,1,0c0.4,0,0.8,0,1,0c0.1,0,0.1,0,0.1,0.1s0,0.1-0.1,0.1c-0.4,0-0.5,0.1-0.7,0.3S70,6.7,70,7.4v3.4c0,0.1,0,0.4,0,0.5
		c0,0.4,0,0.8,0,1.2c-0.4,0.3-0.4,0.3-0.4,0.3s0,0-0.1,0c-0.3-0.7-0.5-1-1-1.8L65.1,6.6L65.1,6.6z"/>
	
		<linearGradient id="SVGID_11_" gradientUnits="userSpaceOnUse" x1="71.561" y1="5.0132" x2="77.9086" y2="5.0132" gradientTransform="matrix(1 0 0 -1 0 14)">
		<stop  offset="0" style="stop-color:#1A1B7D"/>
		<stop  offset="8.870302e-02" style="stop-color:#1C1F80"/>
		<stop  offset="0.1817" style="stop-color:#232C88"/>
		<stop  offset="0.2766" style="stop-color:#2E4195"/>
		<stop  offset="0.3729" style="stop-color:#3E5EA7"/>
		<stop  offset="0.4694" style="stop-color:#5184BF"/>
		<stop  offset="0.4888" style="stop-color:#568CC4"/>
		<stop  offset="0.6091" style="stop-color:#3A5C9B"/>
		<stop  offset="0.7283" style="stop-color:#223479"/>
		<stop  offset="0.8368" style="stop-color:#111860"/>
		<stop  offset="0.9309" style="stop-color:#070651"/>
		<stop  offset="1" style="stop-color:#03004C"/>
	</linearGradient>
	<path class="st10" d="M71.5,7.1c0.1-0.5,0.1-1,0.1-1.6c1,0,2,0,3,0c0.9,0,2,0,3,0c0,0.5,0.1,1,0.1,1.6l0,0l-0.1,0.1c0,0,0,0-0.1,0
		c-0.1-0.5-0.4-0.8-0.7-1c-0.3-0.1-0.5-0.3-1.2-0.3c-0.4,0-0.5,0-0.7,0.1s-0.1,0.3-0.1,1.2v3.5c0,0.8,0,0.9,0.1,1.2
		c0.1,0.1,0.3,0.1,0.8,0.3c0.1,0,0.1,0,0.1,0.1s0,0.1-0.1,0.1c-0.4,0-0.9,0-1.3,0c-0.4,0-0.9,0-1.3,0c-0.1,0-0.1,0-0.1-0.1
		s0-0.1,0.1-0.1c0.5,0,0.7-0.1,0.8-0.3s0.1-0.4,0.1-1.2V7c0-0.8,0-0.9-0.1-1c-0.1-0.1-0.1-0.1-0.7-0.1s-0.9,0.1-1.2,0.3
		C71.9,6.2,71.8,6.6,71.5,7.1c0,0,0,0-0.1,0C71.7,7.2,71.5,7.1,71.5,7.1L71.5,7.1z"/>
</g>
</svg>
