<?xml version="1.0" encoding="utf-8"?>
<!-- Generator: Adobe Illustrator 25.0.1, SVG Export Plug-In . SVG Version: 6.00 Build 0)  -->
<svg version="1.1" id="レイヤー_1" xmlns="http://www.w3.org/2000/svg" xmlns:xlink="http://www.w3.org/1999/xlink" x="0px"
	 y="0px" viewBox="0 0 85 13" style="enable-background:new 0 0 85 13;" xml:space="preserve">
<style type="text/css">
	.st0{fill:url(#SVGID_1_);}
	.st1{fill:url(#SVGID_2_);}
	.st2{fill:url(#SVGID_3_);}
	.st3{fill:url(#SVGID_4_);}
	.st4{fill:url(#SVGID_5_);}
	.st5{fill:url(#SVGID_6_);}
	.st6{fill:url(#SVGID_7_);}
	.st7{fill:url(#SVGID_8_);}
	.st8{fill:url(#SVGID_9_);}
	.st9{fill:url(#SVGID_10_);}
	.st10{fill:url(#SVGID_11_);}
</style>
<g>
	<linearGradient id="SVGID_1_" gradientUnits="userSpaceOnUse" x1="14.1748" y1="2.915" x2="19.6264" y2="2.915">
		<stop  offset="0" style="stop-color:#1A1B7D"/>
		<stop  offset="8.870302e-02" style="stop-color:#1C1F80"/>
		<stop  offset="0.1817" style="stop-color:#232C88"/>
		<stop  offset="0.2766" style="stop-color:#2E4195"/>
		<stop  offset="0.3729" style="stop-color:#3E5EA7"/>
		<stop  offset="0.4694" style="stop-color:#5184BF"/>
		<stop  offset="0.4888" style="stop-color:#568CC4"/>
		<stop  offset="0.6091" style="stop-color:#3A5C9B"/>
		<stop  offset="0.7283" style="stop-color:#223479"/>
		<stop  offset="0.8368" style="stop-color:#111860"/>
		<stop  offset="0.9309" style="stop-color:#070651"/>
		<stop  offset="1" style="stop-color:#03004C"/>
	</linearGradient>
	<path class="st0" d="M14.9,1.6c0-0.8,0-0.9-0.1-0.9c0-0.1-0.2-0.1-0.6-0.2c-0.1,0-0.1,0-0.1-0.1c0-0.1,0-0.1,0.1-0.1
		c0.3,0,0.6,0,0.9,0c0.4,0,1,0,1.5,0c1.9,0,3,1,3,2.6c0,1.6-1.1,2.7-3,2.7c-0.5,0-1,0-1.4,0c-0.3,0-0.6,0-0.9,0
		c-0.1,0-0.1,0-0.1-0.1c0-0.1,0-0.1,0.1-0.1c0.4,0,0.5-0.1,0.6-0.2c0.1-0.1,0.1-0.3,0.1-1V1.6z M15.5,4.4c0,0.4,0,0.6,0.1,0.7
		c0.1,0.1,0.3,0.2,0.9,0.2c1.5,0,2.3-1,2.3-2.4c0-1.5-0.9-2.4-2.3-2.4c-0.7,0-0.9,0.1-1,0.2c-0.1,0.1-0.1,0.2-0.1,0.9V4.4z"/>
	<linearGradient id="SVGID_2_" gradientUnits="userSpaceOnUse" x1="20.3727" y1="2.915" x2="24.6211" y2="2.915">
		<stop  offset="0" style="stop-color:#1A1B7D"/>
		<stop  offset="8.870302e-02" style="stop-color:#1C1F80"/>
		<stop  offset="0.1817" style="stop-color:#232C88"/>
		<stop  offset="0.2766" style="stop-color:#2E4195"/>
		<stop  offset="0.3729" style="stop-color:#3E5EA7"/>
		<stop  offset="0.4694" style="stop-color:#5184BF"/>
		<stop  offset="0.4888" style="stop-color:#568CC4"/>
		<stop  offset="0.6091" style="stop-color:#3A5C9B"/>
		<stop  offset="0.7283" style="stop-color:#223479"/>
		<stop  offset="0.8368" style="stop-color:#111860"/>
		<stop  offset="0.9309" style="stop-color:#070651"/>
		<stop  offset="1" style="stop-color:#03004C"/>
	</linearGradient>
	<path class="st1" d="M24.6,4.3c-0.1,0.4-0.2,0.8-0.4,1.2c-0.6,0-1.2,0-1.8,0c-0.6,0-1.3,0-1.9,0c0,0-0.1,0-0.1-0.1
		c0-0.1,0-0.1,0.1-0.1c0.4,0,0.5-0.1,0.5-0.2c0.1-0.1,0.1-0.3,0.1-1V1.6c0-0.8,0-0.8-0.1-0.9c-0.1-0.1-0.2-0.1-0.6-0.2
		c-0.1,0-0.1,0-0.1-0.1c0-0.1,0-0.1,0.1-0.1c0.6,0,1.3,0,1.8,0s1.2,0,1.8,0c0,0.4,0.1,0.8,0.1,1.2v0c0,0,0,0.1-0.1,0.1
		c0,0,0,0-0.1,0c-0.1-0.3-0.3-0.6-0.5-0.7c-0.2-0.1-0.4-0.2-1.1-0.2c-0.4,0-0.6,0.1-0.6,0.2c-0.1,0.1-0.1,0.2-0.1,0.6v1.3
		c0.1,0,0.3,0,0.5,0c0.6,0,0.9-0.1,1-0.1c0.1-0.1,0.2-0.2,0.2-0.5c0-0.1,0-0.1,0.1-0.1c0.1,0,0.1,0,0.1,0.1c0,0.3,0,0.5,0,0.7
		c0,0.3,0,0.6,0,0.8c0,0.1,0,0.1-0.1,0.1c-0.1,0-0.1,0-0.1-0.1c0-0.3-0.1-0.5-0.2-0.5c-0.1-0.1-0.4-0.1-1-0.1c-0.2,0-0.3,0-0.5,0
		v1.3c0,0.6,0,0.8,0.1,0.9c0.1,0.1,0.2,0.2,0.7,0.2c0.7,0,1-0.1,1.3-0.3c0.2-0.2,0.4-0.4,0.6-0.7c0,0,0-0.1,0.1-0.1
		C24.6,4.2,24.6,4.3,24.6,4.3L24.6,4.3z"/>
	<linearGradient id="SVGID_3_" gradientUnits="userSpaceOnUse" x1="24.8464" y1="2.9782" x2="30.1864" y2="2.9782">
		<stop  offset="0" style="stop-color:#1A1B7D"/>
		<stop  offset="8.870302e-02" style="stop-color:#1C1F80"/>
		<stop  offset="0.1817" style="stop-color:#232C88"/>
		<stop  offset="0.2766" style="stop-color:#2E4195"/>
		<stop  offset="0.3729" style="stop-color:#3E5EA7"/>
		<stop  offset="0.4694" style="stop-color:#5184BF"/>
		<stop  offset="0.4888" style="stop-color:#568CC4"/>
		<stop  offset="0.6091" style="stop-color:#3A5C9B"/>
		<stop  offset="0.7283" style="stop-color:#223479"/>
		<stop  offset="0.8368" style="stop-color:#111860"/>
		<stop  offset="0.9309" style="stop-color:#070651"/>
		<stop  offset="1" style="stop-color:#03004C"/>
	</linearGradient>
	<path class="st2" d="M27.3,3.8c0.2,0.5,0.3,0.7,0.3,1c0.1-0.3,0.2-0.5,0.4-1l0.8-2.2C29,1.2,29,0.9,29,0.8c0-0.2-0.1-0.3-0.6-0.3
		c-0.1,0-0.1,0-0.1-0.1c0-0.1,0-0.1,0.1-0.1c0.3,0,0.7,0,0.9,0c0.3,0,0.5,0,0.7,0c0.1,0,0.1,0,0.1,0.1c0,0.1,0,0.1-0.1,0.1
		c-0.3,0-0.4,0.1-0.5,0.2c-0.1,0.1-0.2,0.3-0.5,0.9l-1,2.6c-0.3,0.7-0.4,1-0.5,1.3c-0.3,0.1-0.3,0.1-0.3,0.1c0,0,0,0,0,0
		c-0.1-0.5-0.3-0.8-0.5-1.4l-1-2.6c-0.2-0.5-0.4-0.8-0.4-0.9c-0.1-0.1-0.2-0.2-0.5-0.2c-0.1,0-0.1,0-0.1-0.1c0-0.1,0-0.1,0.1-0.1
		c0.3,0,0.6,0,0.9,0c0.3,0,0.7,0,1,0c0.1,0,0.1,0,0.1,0.1c0,0.1,0,0.1-0.1,0.1c-0.5,0.1-0.6,0.1-0.6,0.3c0,0.1,0,0.3,0.2,0.8
		L27.3,3.8z"/>
	<linearGradient id="SVGID_4_" gradientUnits="userSpaceOnUse" x1="30.4791" y1="2.915" x2="34.7276" y2="2.915">
		<stop  offset="0" style="stop-color:#1A1B7D"/>
		<stop  offset="8.870302e-02" style="stop-color:#1C1F80"/>
		<stop  offset="0.1817" style="stop-color:#232C88"/>
		<stop  offset="0.2766" style="stop-color:#2E4195"/>
		<stop  offset="0.3729" style="stop-color:#3E5EA7"/>
		<stop  offset="0.4694" style="stop-color:#5184BF"/>
		<stop  offset="0.4888" style="stop-color:#568CC4"/>
		<stop  offset="0.6091" style="stop-color:#3A5C9B"/>
		<stop  offset="0.7283" style="stop-color:#223479"/>
		<stop  offset="0.8368" style="stop-color:#111860"/>
		<stop  offset="0.9309" style="stop-color:#070651"/>
		<stop  offset="1" style="stop-color:#03004C"/>
	</linearGradient>
	<path class="st3" d="M34.7,4.3c-0.1,0.4-0.2,0.8-0.4,1.2c-0.6,0-1.2,0-1.8,0c-0.6,0-1.3,0-1.9,0c0,0-0.1,0-0.1-0.1
		c0-0.1,0-0.1,0.1-0.1c0.4,0,0.5-0.1,0.5-0.2c0.1-0.1,0.1-0.3,0.1-1V1.6c0-0.8,0-0.8-0.1-0.9c-0.1-0.1-0.2-0.1-0.6-0.2
		c-0.1,0-0.1,0-0.1-0.1c0-0.1,0-0.1,0.1-0.1c0.6,0,1.3,0,1.8,0c0.6,0,1.2,0,1.8,0c0,0.4,0.1,0.8,0.1,1.2v0c0,0,0,0.1-0.1,0.1
		c0,0,0,0-0.1,0c-0.1-0.3-0.3-0.6-0.5-0.7c-0.2-0.1-0.4-0.2-1.1-0.2c-0.4,0-0.6,0.1-0.6,0.2c-0.1,0.1-0.1,0.2-0.1,0.6v1.3
		c0.1,0,0.3,0,0.5,0c0.6,0,0.9-0.1,1-0.1c0.1-0.1,0.2-0.2,0.2-0.5c0-0.1,0-0.1,0.1-0.1c0.1,0,0.1,0,0.1,0.1c0,0.3,0,0.5,0,0.7
		c0,0.3,0,0.6,0,0.8c0,0.1,0,0.1-0.1,0.1c-0.1,0-0.1,0-0.1-0.1c0-0.3-0.1-0.5-0.2-0.5c-0.1-0.1-0.4-0.1-1-0.1c-0.2,0-0.3,0-0.5,0
		v1.3c0,0.6,0,0.8,0.1,0.9c0.1,0.1,0.2,0.2,0.7,0.2c0.7,0,1-0.1,1.3-0.3c0.2-0.2,0.4-0.4,0.6-0.7c0,0,0-0.1,0.1-0.1
		C34.7,4.2,34.7,4.3,34.7,4.3L34.7,4.3z"/>
	<linearGradient id="SVGID_5_" gradientUnits="userSpaceOnUse" x1="35.2495" y1="2.915" x2="39.4756" y2="2.915">
		<stop  offset="0" style="stop-color:#1A1B7D"/>
		<stop  offset="8.870302e-02" style="stop-color:#1C1F80"/>
		<stop  offset="0.1817" style="stop-color:#232C88"/>
		<stop  offset="0.2766" style="stop-color:#2E4195"/>
		<stop  offset="0.3729" style="stop-color:#3E5EA7"/>
		<stop  offset="0.4694" style="stop-color:#5184BF"/>
		<stop  offset="0.4888" style="stop-color:#568CC4"/>
		<stop  offset="0.6091" style="stop-color:#3A5C9B"/>
		<stop  offset="0.7283" style="stop-color:#223479"/>
		<stop  offset="0.8368" style="stop-color:#111860"/>
		<stop  offset="0.9309" style="stop-color:#070651"/>
		<stop  offset="1" style="stop-color:#03004C"/>
	</linearGradient>
	<path class="st4" d="M39.5,4.3c-0.1,0.4-0.2,0.8-0.4,1.2c-0.6,0-1.2,0-1.8,0s-1.3,0-1.9,0c0,0-0.1,0-0.1-0.1c0-0.1,0-0.1,0.1-0.1
		c0.4,0,0.5-0.1,0.6-0.2C36,5.1,36,4.9,36,4.2V1.5c0-0.6,0-0.7-0.1-0.8c-0.1-0.1-0.2-0.1-0.6-0.2c0,0-0.1,0-0.1-0.1
		c0-0.1,0-0.1,0.1-0.1c0.3,0,0.7,0,1,0c0.3,0,0.7,0,1,0c0.1,0,0.1,0,0.1,0.1c0,0.1,0,0.1-0.1,0.1c-0.4,0-0.5,0.1-0.5,0.2
		c-0.1,0.1-0.1,0.2-0.1,0.9v2.6c0,0.6,0,0.8,0.1,0.9c0.1,0.1,0.2,0.2,0.7,0.2c0.7,0,1-0.1,1.3-0.3c0.2-0.1,0.3-0.3,0.5-0.7
		c0,0,0-0.1,0.1-0.1C39.4,4.2,39.5,4.3,39.5,4.3L39.5,4.3z"/>
	<linearGradient id="SVGID_6_" gradientUnits="userSpaceOnUse" x1="40.1541" y1="2.915" x2="45.5389" y2="2.915">
		<stop  offset="0" style="stop-color:#1A1B7D"/>
		<stop  offset="8.870302e-02" style="stop-color:#1C1F80"/>
		<stop  offset="0.1817" style="stop-color:#232C88"/>
		<stop  offset="0.2766" style="stop-color:#2E4195"/>
		<stop  offset="0.3729" style="stop-color:#3E5EA7"/>
		<stop  offset="0.4694" style="stop-color:#5184BF"/>
		<stop  offset="0.4888" style="stop-color:#568CC4"/>
		<stop  offset="0.6091" style="stop-color:#3A5C9B"/>
		<stop  offset="0.7283" style="stop-color:#223479"/>
		<stop  offset="0.8368" style="stop-color:#111860"/>
		<stop  offset="0.9309" style="stop-color:#070651"/>
		<stop  offset="1" style="stop-color:#03004C"/>
	</linearGradient>
	<path class="st5" d="M45.5,2.9c0,1.6-1.1,2.8-2.7,2.8c-1.6,0-2.7-1.2-2.7-2.8c0-1.6,1.1-2.8,2.7-2.8C44.4,0.2,45.5,1.3,45.5,2.9z
		 M40.9,2.9c0,1.5,0.8,2.5,2,2.5c1.1,0,2-1,2-2.5c0-1.5-0.8-2.5-2-2.5C41.7,0.4,40.9,1.4,40.9,2.9z"/>
	<linearGradient id="SVGID_7_" gradientUnits="userSpaceOnUse" x1="46.2628" y1="2.9112" x2="50.4665" y2="2.9112">
		<stop  offset="0" style="stop-color:#1A1B7D"/>
		<stop  offset="8.870302e-02" style="stop-color:#1C1F80"/>
		<stop  offset="0.1817" style="stop-color:#232C88"/>
		<stop  offset="0.2766" style="stop-color:#2E4195"/>
		<stop  offset="0.3729" style="stop-color:#3E5EA7"/>
		<stop  offset="0.4694" style="stop-color:#5184BF"/>
		<stop  offset="0.4888" style="stop-color:#568CC4"/>
		<stop  offset="0.6091" style="stop-color:#3A5C9B"/>
		<stop  offset="0.7283" style="stop-color:#223479"/>
		<stop  offset="0.8368" style="stop-color:#111860"/>
		<stop  offset="0.9309" style="stop-color:#070651"/>
		<stop  offset="1" style="stop-color:#03004C"/>
	</linearGradient>
	<path class="st6" d="M47.6,4.3c0,0.6,0,0.7,0.1,0.8c0.1,0.1,0.2,0.1,0.6,0.2c0.1,0,0.1,0,0.1,0.1c0,0.1,0,0.1-0.1,0.1
		c-0.3,0-0.7,0-1,0c-0.3,0-0.7,0-1,0c0,0-0.1,0-0.1-0.1c0-0.1,0-0.1,0.1-0.1c0.4,0,0.5-0.1,0.6-0.2C47,5.1,47,4.9,47,4.2V1.5
		c0-0.6,0-0.7-0.1-0.8c-0.1-0.1-0.2-0.1-0.6-0.2c-0.1,0-0.1,0-0.1-0.1c0-0.1,0-0.1,0.1-0.1c0.3,0,0.7,0,1,0c0.3,0,0.7,0,1.2,0
		c1.3,0,1.9,0.5,1.9,1.4c0,0.9-0.7,1.5-2.2,1.5c-0.2,0-0.4,0-0.6,0V4.3z M47.6,2.8c0.2,0,0.4,0,0.6,0c1,0,1.6-0.5,1.6-1.2
		c0-0.7-0.5-1.2-1.4-1.2c-0.4,0-0.6,0.1-0.6,0.2c-0.1,0.1-0.1,0.2-0.1,0.9V2.8z"/>
	<linearGradient id="SVGID_8_" gradientUnits="userSpaceOnUse" x1="51.1898" y1="2.915" x2="57.778" y2="2.915">
		<stop  offset="0" style="stop-color:#1A1B7D"/>
		<stop  offset="8.870302e-02" style="stop-color:#1C1F80"/>
		<stop  offset="0.1817" style="stop-color:#232C88"/>
		<stop  offset="0.2766" style="stop-color:#2E4195"/>
		<stop  offset="0.3729" style="stop-color:#3E5EA7"/>
		<stop  offset="0.4694" style="stop-color:#5184BF"/>
		<stop  offset="0.4888" style="stop-color:#568CC4"/>
		<stop  offset="0.6091" style="stop-color:#3A5C9B"/>
		<stop  offset="0.7283" style="stop-color:#223479"/>
		<stop  offset="0.8368" style="stop-color:#111860"/>
		<stop  offset="0.9309" style="stop-color:#070651"/>
		<stop  offset="1" style="stop-color:#03004C"/>
	</linearGradient>
	<path class="st7" d="M55.9,1.2c0.1-0.3,0.2-0.6,0.3-0.9c0.3,0,0.4,0,0.6,0c0.2,0,0.5,0,0.8,0c0.1,0,0.1,0,0.1,0.1
		c0,0.1,0,0.1-0.1,0.1c-0.4,0-0.5,0.1-0.6,0.2C57,0.8,57,1,57,1.3l0,2.9c0,0.8,0,0.9,0.1,1c0.1,0.1,0.2,0.1,0.6,0.2
		c0.1,0,0.1,0,0.1,0.1c0,0.1,0,0.1-0.1,0.1c-0.3,0-0.7,0-1,0c-0.3,0-0.7,0-0.9,0c0,0-0.1,0-0.1-0.1c0-0.1,0-0.1,0.1-0.1
		c0.4,0,0.5-0.1,0.6-0.2c0.1-0.1,0.1-0.3,0.1-0.7l0-3.4h-0.1l-1.1,2.6c-0.3,0.8-0.5,1.3-0.8,1.8c0,0.1,0,0.1-0.1,0.1
		c0,0-0.1,0-0.1-0.1c-0.2-0.6-0.4-1.1-0.7-1.7l-1.2-2.7h-0.1l0,3.1c0,0.6,0,0.9,0.1,1c0.1,0.1,0.2,0.1,0.6,0.2c0.1,0,0.1,0,0.1,0.1
		c0,0.1,0,0.1-0.1,0.1c-0.3,0-0.5,0-0.8,0c-0.3,0-0.6,0-0.8,0c-0.1,0-0.1,0-0.1-0.1c0-0.1,0-0.1,0.1-0.1c0.3,0,0.4-0.1,0.5-0.2
		c0.1-0.2,0.1-0.3,0.1-1l0.1-3c0-0.3,0-0.5-0.1-0.6c-0.1-0.1-0.2-0.1-0.6-0.2c-0.1,0-0.1,0-0.1-0.1c0-0.1,0-0.1,0.1-0.1
		c0.3,0,0.6,0,0.8,0c0.2,0,0.4,0,0.6,0c0.1,0.3,0.2,0.6,0.3,0.8l1,2.4c0.2,0.3,0.3,0.7,0.4,1c0.1-0.4,0.3-0.7,0.4-1L55.9,1.2z"/>
	<linearGradient id="SVGID_9_" gradientUnits="userSpaceOnUse" x1="58.3235" y1="2.915" x2="62.572" y2="2.915">
		<stop  offset="0" style="stop-color:#1A1B7D"/>
		<stop  offset="8.870302e-02" style="stop-color:#1C1F80"/>
		<stop  offset="0.1817" style="stop-color:#232C88"/>
		<stop  offset="0.2766" style="stop-color:#2E4195"/>
		<stop  offset="0.3729" style="stop-color:#3E5EA7"/>
		<stop  offset="0.4694" style="stop-color:#5184BF"/>
		<stop  offset="0.4888" style="stop-color:#568CC4"/>
		<stop  offset="0.6091" style="stop-color:#3A5C9B"/>
		<stop  offset="0.7283" style="stop-color:#223479"/>
		<stop  offset="0.8368" style="stop-color:#111860"/>
		<stop  offset="0.9309" style="stop-color:#070651"/>
		<stop  offset="1" style="stop-color:#03004C"/>
	</linearGradient>
	<path class="st8" d="M62.6,4.3c-0.1,0.4-0.2,0.8-0.4,1.2c-0.6,0-1.2,0-1.8,0s-1.3,0-1.9,0c0,0-0.1,0-0.1-0.1c0-0.1,0-0.1,0.1-0.1
		c0.4,0,0.5-0.1,0.5-0.2c0.1-0.1,0.1-0.3,0.1-1V1.6c0-0.8,0-0.8-0.1-0.9c-0.1-0.1-0.2-0.1-0.6-0.2c-0.1,0-0.1,0-0.1-0.1
		c0-0.1,0-0.1,0.1-0.1c0.6,0,1.3,0,1.8,0c0.6,0,1.2,0,1.8,0c0,0.4,0.1,0.8,0.1,1.2v0c0,0,0,0.1-0.1,0.1c0,0,0,0-0.1,0
		c-0.1-0.3-0.3-0.6-0.5-0.7c-0.2-0.1-0.4-0.2-1.1-0.2c-0.4,0-0.6,0.1-0.6,0.2c-0.1,0.1-0.1,0.2-0.1,0.6v1.3c0.1,0,0.3,0,0.5,0
		c0.6,0,0.9-0.1,1-0.1c0.1-0.1,0.2-0.2,0.2-0.5c0-0.1,0-0.1,0.1-0.1c0.1,0,0.1,0,0.1,0.1c0,0.3,0,0.5,0,0.7c0,0.3,0,0.6,0,0.8
		c0,0.1,0,0.1-0.1,0.1c-0.1,0-0.1,0-0.1-0.1c0-0.3-0.1-0.5-0.2-0.5c-0.1-0.1-0.4-0.1-1-0.1c-0.2,0-0.3,0-0.5,0v1.3
		c0,0.6,0,0.8,0.1,0.9c0.1,0.1,0.2,0.2,0.7,0.2c0.7,0,1-0.1,1.3-0.3c0.2-0.2,0.4-0.4,0.6-0.7c0,0,0-0.1,0.1-0.1
		C62.5,4.2,62.6,4.3,62.6,4.3L62.6,4.3z"/>
	<linearGradient id="SVGID_10_" gradientUnits="userSpaceOnUse" x1="63.0504" y1="2.9819" x2="68.5168" y2="2.9819">
		<stop  offset="0" style="stop-color:#1A1B7D"/>
		<stop  offset="8.870302e-02" style="stop-color:#1C1F80"/>
		<stop  offset="0.1817" style="stop-color:#232C88"/>
		<stop  offset="0.2766" style="stop-color:#2E4195"/>
		<stop  offset="0.3729" style="stop-color:#3E5EA7"/>
		<stop  offset="0.4694" style="stop-color:#5184BF"/>
		<stop  offset="0.4888" style="stop-color:#568CC4"/>
		<stop  offset="0.6091" style="stop-color:#3A5C9B"/>
		<stop  offset="0.7283" style="stop-color:#223479"/>
		<stop  offset="0.8368" style="stop-color:#111860"/>
		<stop  offset="0.9309" style="stop-color:#070651"/>
		<stop  offset="1" style="stop-color:#03004C"/>
	</linearGradient>
	<path class="st9" d="M64.1,1.1l0,3.2c0,0.6,0,0.8,0.1,1c0.1,0.1,0.2,0.2,0.6,0.2c0,0,0.1,0,0.1,0.1c0,0.1,0,0.1-0.1,0.1
		c-0.3,0-0.6,0-0.8,0c-0.3,0-0.6,0-0.8,0c-0.1,0-0.1,0-0.1-0.1c0-0.1,0-0.1,0.1-0.1c0.4,0,0.5-0.1,0.5-0.2c0.1-0.1,0.1-0.4,0.1-1
		l0-2.7c0-0.4,0-0.7-0.1-0.8c-0.1-0.1-0.2-0.2-0.6-0.2c-0.1,0-0.1,0-0.1-0.1c0-0.1,0-0.1,0.1-0.1c0.3,0,0.5,0,0.7,0
		c0.2,0,0.4,0,0.7,0c0.2,0.3,0.3,0.5,0.6,0.9l1.7,2.5c0.2,0.3,0.5,0.7,0.7,1c0-0.3,0-0.6,0-0.9l0-2.2c0-0.5-0.1-0.8-0.1-0.9
		c-0.1-0.1-0.2-0.1-0.6-0.2c-0.1,0-0.1,0-0.1-0.1c0-0.1,0-0.1,0.1-0.1c0.3,0,0.6,0,0.8,0c0.3,0,0.6,0,0.8,0c0.1,0,0.1,0,0.1,0.1
		c0,0.1,0,0.1-0.1,0.1c-0.3,0-0.4,0.1-0.5,0.2c-0.1,0.1-0.1,0.4-0.1,0.9l0,2.6c0,0.1,0,0.3,0,0.4c0,0.3,0,0.6,0,0.9
		c-0.3,0.2-0.3,0.2-0.3,0.2c0,0,0,0-0.1,0C67.2,5.3,67,5,66.6,4.4L64.1,1.1L64.1,1.1z"/>
	<linearGradient id="SVGID_11_" gradientUnits="userSpaceOnUse" x1="69.0248" y1="2.915" x2="73.8967" y2="2.915">
		<stop  offset="0" style="stop-color:#1A1B7D"/>
		<stop  offset="8.870302e-02" style="stop-color:#1C1F80"/>
		<stop  offset="0.1817" style="stop-color:#232C88"/>
		<stop  offset="0.2766" style="stop-color:#2E4195"/>
		<stop  offset="0.3729" style="stop-color:#3E5EA7"/>
		<stop  offset="0.4694" style="stop-color:#5184BF"/>
		<stop  offset="0.4888" style="stop-color:#568CC4"/>
		<stop  offset="0.6091" style="stop-color:#3A5C9B"/>
		<stop  offset="0.7283" style="stop-color:#223479"/>
		<stop  offset="0.8368" style="stop-color:#111860"/>
		<stop  offset="0.9309" style="stop-color:#070651"/>
		<stop  offset="1" style="stop-color:#03004C"/>
	</linearGradient>
	<path class="st10" d="M69,1.5c0.1-0.4,0.1-0.8,0.1-1.2c0.8,0,1.5,0,2.3,0c0.7,0,1.5,0,2.3,0c0,0.4,0.1,0.8,0.1,1.2v0
		c0,0-0.1,0.1-0.1,0.1c0,0,0,0-0.1,0c-0.1-0.4-0.3-0.6-0.5-0.8c-0.2-0.1-0.4-0.2-0.9-0.2c-0.3,0-0.4,0-0.5,0.1
		c-0.1,0.1-0.1,0.2-0.1,0.9v2.7c0,0.6,0,0.7,0.1,0.9c0.1,0.1,0.2,0.1,0.6,0.2c0.1,0,0.1,0,0.1,0.1c0,0.1,0,0.1-0.1,0.1
		c-0.3,0-0.7,0-1,0c-0.3,0-0.7,0-1,0c-0.1,0-0.1,0-0.1-0.1c0-0.1,0-0.1,0.1-0.1c0.4,0,0.5-0.1,0.6-0.2c0.1-0.1,0.1-0.3,0.1-0.9V1.4
		c0-0.6,0-0.7-0.1-0.8c-0.1-0.1-0.1-0.1-0.5-0.1c-0.4,0-0.7,0.1-0.9,0.2c-0.2,0.1-0.3,0.4-0.5,0.8c0,0,0,0-0.1,0
		C69.1,1.6,69,1.5,69,1.5L69,1.5z"/>
</g>
</svg>
