<?xml version="1.0" encoding="utf-8"?>
<!-- Generator: Adobe Illustrator 25.0.1, SVG Export Plug-In . SVG Version: 6.00 Build 0)  -->
<svg version="1.1" id="レイヤー_1" xmlns="http://www.w3.org/2000/svg" xmlns:xlink="http://www.w3.org/1999/xlink" x="0px"
	 y="0px" viewBox="0 0 85 13" style="enable-background:new 0 0 85 13;" xml:space="preserve">
<style type="text/css">
	.st0{fill:url(#SVGID_1_);}
	.st1{fill:url(#SVGID_2_);}
	.st2{fill:url(#SVGID_3_);}
	.st3{fill:url(#SVGID_4_);}
	.st4{fill:url(#SVGID_5_);}
	.st5{fill:url(#SVGID_6_);}
	.st6{fill:url(#SVGID_7_);}
</style>
<g>
	
		<linearGradient id="SVGID_1_" gradientUnits="userSpaceOnUse" x1="25.4895" y1="10.7467" x2="32.8316" y2="10.7467" gradientTransform="matrix(1 0 0 -1 0 14)">
		<stop  offset="0" style="stop-color:#1A1B7D"/>
		<stop  offset="8.870302e-02" style="stop-color:#1C1F80"/>
		<stop  offset="0.1817" style="stop-color:#232C88"/>
		<stop  offset="0.2766" style="stop-color:#2E4195"/>
		<stop  offset="0.3729" style="stop-color:#3E5EA7"/>
		<stop  offset="0.4694" style="stop-color:#5184BF"/>
		<stop  offset="0.4888" style="stop-color:#568CC4"/>
		<stop  offset="0.6091" style="stop-color:#3A5C9B"/>
		<stop  offset="0.7283" style="stop-color:#223479"/>
		<stop  offset="0.8368" style="stop-color:#111860"/>
		<stop  offset="0.9309" style="stop-color:#070651"/>
		<stop  offset="1" style="stop-color:#03004C"/>
	</linearGradient>
	<path class="st0" d="M30.8,1.3C30.9,1,31,0.7,31.2,0.2c0.3,0,0.4,0,0.7,0c0.2,0,0.6,0,0.9,0c0.1,0,0.1,0,0.1,0.1s0,0.1-0.1,0.1
		c-0.4,0-0.6,0.1-0.7,0.2C32,0.8,32,1,32,1.4v3.2c0,0.9,0,1,0.1,1.1c0.1,0.1,0.2,0.1,0.7,0.2c0.1,0,0.1,0,0.1,0.1s0,0.1-0.1,0.1
		c-0.3,0-0.8,0-1.1,0c-0.3,0-0.8,0-1,0c0,0-0.1,0-0.1-0.1s0-0.1,0.1-0.1c0.4,0,0.6-0.1,0.7-0.2c0.1-0.1,0.1-0.3,0.1-0.8V1.1h-0.1
		L30.1,4c-0.3,0.9-0.7,1.4-0.9,2.1c0,0.1,0,0.1-0.1,0.1c0,0-0.1,0-0.1-0.1c-0.2-0.7-0.4-1.2-0.8-1.9l-1.3-3h-0.1v3.5
		c0,0.7,0,1,0.1,1.1C27,6,27.1,6,27.6,6.1c0.1,0,0.1,0,0.1,0.1c0,0.1,0,0.1-0.1,0.1c-0.3,0-0.7,0-0.9,0c-0.3,0-0.7,0-0.9,0
		c-0.1,0-0.1,0-0.1-0.1c0-0.1,0-0.1,0.1-0.1c0.3,0,0.4-0.1,0.6-0.2c0.1-0.2,0.1-0.3,0.1-1.1l0.1-3.3c0-0.3,0-0.6-0.1-0.7
		c-0.1-0.1-0.2-0.1-0.7-0.2c-0.1,0-0.1,0-0.1-0.1s0-0.1,0.1-0.1c0.3,0,0.7,0,0.9,0s0.4,0,0.8,0c0.1,0.3,0.2,0.7,0.3,0.9l1.1,2.7
		c0.2,0.4,0.3,0.8,0.4,1.1c0.1-0.4,0.3-0.8,0.4-1.1L30.8,1.3z"/>
	
		<linearGradient id="SVGID_2_" gradientUnits="userSpaceOnUse" x1="33.4403" y1="10.7467" x2="35.7663" y2="10.7467" gradientTransform="matrix(1 0 0 -1 0 14)">
		<stop  offset="0" style="stop-color:#1A1B7D"/>
		<stop  offset="8.870302e-02" style="stop-color:#1C1F80"/>
		<stop  offset="0.1817" style="stop-color:#232C88"/>
		<stop  offset="0.2766" style="stop-color:#2E4195"/>
		<stop  offset="0.3729" style="stop-color:#3E5EA7"/>
		<stop  offset="0.4694" style="stop-color:#5184BF"/>
		<stop  offset="0.4888" style="stop-color:#568CC4"/>
		<stop  offset="0.6091" style="stop-color:#3A5C9B"/>
		<stop  offset="0.7283" style="stop-color:#223479"/>
		<stop  offset="0.8368" style="stop-color:#111860"/>
		<stop  offset="0.9309" style="stop-color:#070651"/>
		<stop  offset="1" style="stop-color:#03004C"/>
	</linearGradient>
	<path class="st1" d="M34.9,5c0,0.6,0,0.7,0.1,0.8c0.1,0.1,0.2,0.1,0.7,0.2c0.1,0,0.1,0,0.1,0.1s0,0.1-0.1,0.1c-0.3,0-0.8,0-1.1,0
		s-0.8,0-1,0c0,0-0.1,0-0.1-0.1s0-0.1,0.1-0.1c0.4,0,0.6-0.1,0.6-0.2c0.1-0.1,0.1-0.2,0.1-1.1V1.8c0-0.9,0-0.9-0.1-1
		S34,0.7,33.4,0.5c-0.1,0-0.1,0-0.1-0.1s0-0.1,0.1-0.1c0.3,0,0.8,0,1.1,0s0.8,0,1.1,0c0.1,0,0.1,0,0.1,0.1s0,0.1-0.1,0.1
		c-0.4,0-0.6,0.1-0.6,0.2c-0.1,0.1-0.2,0.2-0.2,1V5z"/>
	
		<linearGradient id="SVGID_3_" gradientUnits="userSpaceOnUse" x1="36.5046" y1="10.802" x2="40.2291" y2="10.802" gradientTransform="matrix(1 0 0 -1 0 14)">
		<stop  offset="0" style="stop-color:#1A1B7D"/>
		<stop  offset="8.870302e-02" style="stop-color:#1C1F80"/>
		<stop  offset="0.1817" style="stop-color:#232C88"/>
		<stop  offset="0.2766" style="stop-color:#2E4195"/>
		<stop  offset="0.3729" style="stop-color:#3E5EA7"/>
		<stop  offset="0.4694" style="stop-color:#5184BF"/>
		<stop  offset="0.4888" style="stop-color:#568CC4"/>
		<stop  offset="0.6091" style="stop-color:#3A5C9B"/>
		<stop  offset="0.7283" style="stop-color:#223479"/>
		<stop  offset="0.8368" style="stop-color:#111860"/>
		<stop  offset="0.9309" style="stop-color:#070651"/>
		<stop  offset="1" style="stop-color:#03004C"/>
	</linearGradient>
	<path class="st2" d="M38,3.2c-0.9-0.4-1.2-0.9-1.2-1.7c0-0.9,0.7-1.4,1.7-1.4c0.2,0,0.4,0,0.7,0.1c0.1,0,0.3,0.1,0.6,0.1
		c0.1,0,0.2,0,0.2,0c0,0.3,0,0.9,0.1,1.3l0,0c0,0,0,0.1-0.1,0.1c0,0-0.1,0-0.1-0.1c-0.2-0.8-0.8-1.2-1.3-1.2c-0.7,0-1,0.4-1,1
		c0,0.4,0.2,0.8,0.9,1.1l0.4,0.2c1.1,0.6,1.5,1,1.5,1.8c0,1.1-0.7,1.8-2,1.8c-0.4,0-1-0.1-1.4-0.3c-0.1-0.3-0.2-0.8-0.2-1.2V4.6
		c0,0,0-0.1,0.1-0.1h0.1c0.3,0.9,0.9,1.3,1.5,1.3c0.8,0,1.2-0.4,1.2-1.1s-0.3-1-1.2-1.4L38,3.2z"/>
	
		<linearGradient id="SVGID_4_" gradientUnits="userSpaceOnUse" x1="41.1337" y1="10.802" x2="44.8589" y2="10.802" gradientTransform="matrix(1 0 0 -1 0 14)">
		<stop  offset="0" style="stop-color:#1A1B7D"/>
		<stop  offset="8.870302e-02" style="stop-color:#1C1F80"/>
		<stop  offset="0.1817" style="stop-color:#232C88"/>
		<stop  offset="0.2766" style="stop-color:#2E4195"/>
		<stop  offset="0.3729" style="stop-color:#3E5EA7"/>
		<stop  offset="0.4694" style="stop-color:#5184BF"/>
		<stop  offset="0.4888" style="stop-color:#568CC4"/>
		<stop  offset="0.6091" style="stop-color:#3A5C9B"/>
		<stop  offset="0.7283" style="stop-color:#223479"/>
		<stop  offset="0.8368" style="stop-color:#111860"/>
		<stop  offset="0.9309" style="stop-color:#070651"/>
		<stop  offset="1" style="stop-color:#03004C"/>
	</linearGradient>
	<path class="st3" d="M42.6,3.2c-0.9-0.4-1.2-0.9-1.2-1.7c0-0.9,0.7-1.4,1.7-1.4c0.2,0,0.4,0,0.7,0.1c0.1,0,0.3,0.1,0.6,0.1
		c0.1,0,0.2,0,0.2,0c0,0.3,0,0.9,0.1,1.3l0,0c0,0,0,0.1-0.1,0.1c0,0-0.1,0-0.1-0.1c-0.2-0.8-0.8-1.2-1.3-1.2c-0.7,0-1,0.4-1,1
		c0,0.4,0.2,0.8,0.9,1.1l0.4,0.2c1.1,0.6,1.4,1,1.4,1.8c0,1.1-0.7,1.8-2,1.8c-0.4,0-1-0.1-1.4-0.3c-0.1-0.3-0.2-0.8-0.2-1.2V4.6
		c0,0,0-0.1,0.1-0.1h0.1c0.3,0.9,0.9,1.3,1.5,1.3c0.8,0,1.2-0.4,1.2-1.1s-0.3-1-1.2-1.4L42.6,3.2z"/>
	
		<linearGradient id="SVGID_5_" gradientUnits="userSpaceOnUse" x1="45.6643" y1="10.7467" x2="47.9903" y2="10.7467" gradientTransform="matrix(1 0 0 -1 0 14)">
		<stop  offset="0" style="stop-color:#1A1B7D"/>
		<stop  offset="8.870302e-02" style="stop-color:#1C1F80"/>
		<stop  offset="0.1817" style="stop-color:#232C88"/>
		<stop  offset="0.2766" style="stop-color:#2E4195"/>
		<stop  offset="0.3729" style="stop-color:#3E5EA7"/>
		<stop  offset="0.4694" style="stop-color:#5184BF"/>
		<stop  offset="0.4888" style="stop-color:#568CC4"/>
		<stop  offset="0.6091" style="stop-color:#3A5C9B"/>
		<stop  offset="0.7283" style="stop-color:#223479"/>
		<stop  offset="0.8368" style="stop-color:#111860"/>
		<stop  offset="0.9309" style="stop-color:#070651"/>
		<stop  offset="1" style="stop-color:#03004C"/>
	</linearGradient>
	<path class="st4" d="M47.2,5c0,0.6,0,0.7,0.1,0.8c0.1,0.1,0.2,0.1,0.7,0.2C48,6,48,6,48,6.1s0,0.1-0.1,0.1c-0.3,0-0.8,0-1.1,0
		s-0.8,0-1,0c0,0-0.1,0-0.1-0.1s0-0.1,0.1-0.1c0.4,0,0.6-0.1,0.6-0.2c0.1-0.1,0.1-0.2,0.1-1.1V1.8c0-0.9,0-0.9-0.1-1
		s-0.1-0.1-0.7-0.2c-0.1,0-0.1,0-0.1-0.1s0-0.1,0.1-0.1c0.3,0,0.8,0,1.1,0s0.8,0,1.1,0c0.1,0,0.1,0,0.1,0.1s0,0.1-0.1,0.1
		c-0.4,0-0.6,0.1-0.6,0.2c-0.1,0.1-0.1,0.2-0.1,1V5H47.2z"/>
	
		<linearGradient id="SVGID_6_" gradientUnits="userSpaceOnUse" x1="48.8113" y1="10.802" x2="54.8126" y2="10.802" gradientTransform="matrix(1 0 0 -1 0 14)">
		<stop  offset="0" style="stop-color:#1A1B7D"/>
		<stop  offset="8.870302e-02" style="stop-color:#1C1F80"/>
		<stop  offset="0.1817" style="stop-color:#232C88"/>
		<stop  offset="0.2766" style="stop-color:#2E4195"/>
		<stop  offset="0.3729" style="stop-color:#3E5EA7"/>
		<stop  offset="0.4694" style="stop-color:#5184BF"/>
		<stop  offset="0.4888" style="stop-color:#568CC4"/>
		<stop  offset="0.6091" style="stop-color:#3A5C9B"/>
		<stop  offset="0.7283" style="stop-color:#223479"/>
		<stop  offset="0.8368" style="stop-color:#111860"/>
		<stop  offset="0.9309" style="stop-color:#070651"/>
		<stop  offset="1" style="stop-color:#03004C"/>
	</linearGradient>
	<path class="st5" d="M54.8,3.2c0,1.8-1.2,3.1-3,3.1c-1.8,0-3-1.3-3-3.1s1.2-3.1,3-3.1C53.6,0.1,54.8,1.4,54.8,3.2z M49.6,3.2
		c0,1.7,0.9,2.8,2.2,2.8C53,6,54,4.9,54,3.2s-1-2.8-2.2-2.8C50.6,0.4,49.6,1.5,49.6,3.2z"/>
	
		<linearGradient id="SVGID_7_" gradientUnits="userSpaceOnUse" x1="55.6031" y1="10.6914" x2="61.6955" y2="10.6914" gradientTransform="matrix(1 0 0 -1 0 14)">
		<stop  offset="0" style="stop-color:#1A1B7D"/>
		<stop  offset="8.870302e-02" style="stop-color:#1C1F80"/>
		<stop  offset="0.1817" style="stop-color:#232C88"/>
		<stop  offset="0.2766" style="stop-color:#2E4195"/>
		<stop  offset="0.3729" style="stop-color:#3E5EA7"/>
		<stop  offset="0.4694" style="stop-color:#5184BF"/>
		<stop  offset="0.4888" style="stop-color:#568CC4"/>
		<stop  offset="0.6091" style="stop-color:#3A5C9B"/>
		<stop  offset="0.7283" style="stop-color:#223479"/>
		<stop  offset="0.8368" style="stop-color:#111860"/>
		<stop  offset="0.9309" style="stop-color:#070651"/>
		<stop  offset="1" style="stop-color:#03004C"/>
	</linearGradient>
	<path class="st6" d="M56.8,1.2v3.5c0,0.7,0,1,0.1,1.1C57,6,57.1,6.1,57.6,6.1c0,0,0.1,0,0.1,0.1c0,0.1,0,0.1-0.1,0.1
		c-0.3,0-0.7,0-1,0c-0.3,0-0.7,0-1,0c-0.1,0-0.1,0-0.1-0.1c0-0.1,0-0.1,0.1-0.1c0.4,0,0.6-0.1,0.6-0.2c0.1-0.1,0.1-0.4,0.1-1.1V1.6
		c0-0.4,0-0.8-0.1-0.9c-0.1-0.1-0.2-0.2-0.7-0.2c-0.1,0-0.1,0-0.1-0.1s0-0.1,0.1-0.1c0.3,0,0.6,0,0.8,0c0.2,0,0.4,0,0.8,0
		c0.2,0.3,0.3,0.6,0.7,1l1.9,2.8c0.2,0.3,0.6,0.8,0.8,1.1c0-0.3,0-0.7,0-1V1.8c0-0.7-0.1-0.9-0.1-1c-0.1-0.1-0.2-0.1-0.7-0.2
		c-0.1,0-0.1,0-0.1-0.1s0-0.1,0.1-0.1c0.3,0,0.7,0,0.9,0c0.3,0,0.7,0,0.9,0c0.1,0,0.1,0,0.1,0.1s0,0.1-0.1,0.1
		c-0.3,0-0.4,0.1-0.6,0.2c-0.1,0.1-0.1,0.4-0.1,1v2.9c0,0.1,0,0.3,0,0.4c0,0.3,0,0.7,0,1c-0.3,0.2-0.3,0.2-0.3,0.2s0,0-0.1,0
		c-0.2-0.4-0.4-0.8-1-1.4L56.8,1.2L56.8,1.2z"/>
</g>
</svg>
