<?xml version="1.0" encoding="utf-8"?>
<!-- Generator: Adobe Illustrator 25.0.1, SVG Export Plug-In . SVG Version: 6.00 Build 0)  -->
<svg version="1.1" id="レイヤー_1" xmlns="http://www.w3.org/2000/svg" xmlns:xlink="http://www.w3.org/1999/xlink" x="0px"
	 y="0px" viewBox="0 0 85 13" style="enable-background:new 0 0 85 13;" xml:space="preserve">
<style type="text/css">
	.st0{fill:url(#SVGID_1_);}
	.st1{fill:url(#SVGID_2_);}
	.st2{fill:url(#SVGID_3_);}
	.st3{fill:url(#SVGID_4_);}
	.st4{fill:url(#SVGID_5_);}
	.st5{fill:url(#SVGID_6_);}
	.st6{fill:url(#SVGID_7_);}
	.st7{fill:url(#SVGID_8_);}
	.st8{fill:url(#SVGID_9_);}
	.st9{fill:url(#SVGID_10_);}
	.st10{fill:url(#SVGID_11_);}
</style>
<g>
	
		<linearGradient id="SVGID_1_" gradientUnits="userSpaceOnUse" x1="0.7908" y1="-680.9354" x2="5.2977" y2="-680.9354" gradientTransform="matrix(1 0 0 -1 0 -672)">
		<stop  offset="0" style="stop-color:#1A1B7D"/>
		<stop  offset="8.870302e-02" style="stop-color:#1C1F80"/>
		<stop  offset="0.1817" style="stop-color:#232C88"/>
		<stop  offset="0.2766" style="stop-color:#2E4195"/>
		<stop  offset="0.3729" style="stop-color:#3E5EA7"/>
		<stop  offset="0.4694" style="stop-color:#5184BF"/>
		<stop  offset="0.4888" style="stop-color:#568CC4"/>
		<stop  offset="0.6091" style="stop-color:#3A5C9B"/>
		<stop  offset="0.7283" style="stop-color:#223479"/>
		<stop  offset="0.8368" style="stop-color:#111860"/>
		<stop  offset="0.9309" style="stop-color:#070651"/>
		<stop  offset="1" style="stop-color:#03004C"/>
	</linearGradient>
	<path class="st0" d="M2.6,8.9C1.5,8.4,1,7.9,1,7c0-1,0.9-1.8,2.1-1.8c0.3,0,0.5,0,0.8,0.1c0.3,0.1,0.5,0.1,0.8,0.1
		c0.1,0,0.3,0,0.4,0c0,0.4,0,1,0.1,1.6l0,0c0,0,0,0.1-0.1,0.1c0,0-0.1,0-0.1-0.1c-0.4-0.9-1-1.4-1.7-1.4c-0.8,0-1.3,0.5-1.3,1.2
		c0,0.5,0.3,1,1.2,1.4l0.5,0.3C5,9.1,5.4,9.7,5.4,10.6c0,1.3-0.9,2.1-2.5,2.1c-0.5,0-1.2-0.1-1.8-0.4c-0.1-0.5-0.3-0.9-0.3-1.6v-0.1
		c0,0,0-0.1,0.1-0.1h0.1c0.4,1,1.2,1.7,1.9,1.7c0.9,0,1.6-0.6,1.6-1.4c0-0.8-0.4-1.2-1.4-1.7L2.6,8.9z"/>
	
		<linearGradient id="SVGID_2_" gradientUnits="userSpaceOnUse" x1="6.2746" y1="-680.9354" x2="12.0043" y2="-680.9354" gradientTransform="matrix(1 0 0 -1 0 -672)">
		<stop  offset="0" style="stop-color:#1A1B7D"/>
		<stop  offset="8.870302e-02" style="stop-color:#1C1F80"/>
		<stop  offset="0.1817" style="stop-color:#232C88"/>
		<stop  offset="0.2766" style="stop-color:#2E4195"/>
		<stop  offset="0.3729" style="stop-color:#3E5EA7"/>
		<stop  offset="0.4694" style="stop-color:#5184BF"/>
		<stop  offset="0.4888" style="stop-color:#568CC4"/>
		<stop  offset="0.6091" style="stop-color:#3A5C9B"/>
		<stop  offset="0.7283" style="stop-color:#223479"/>
		<stop  offset="0.8368" style="stop-color:#111860"/>
		<stop  offset="0.9309" style="stop-color:#070651"/>
		<stop  offset="1" style="stop-color:#03004C"/>
	</linearGradient>
	<path class="st1" d="M12,10.9c-0.1,0.5-0.3,1.2-0.5,1.7c-0.9,0-1.7,0-2.5,0s-1.7,0-2.6,0c0,0-0.1,0-0.1-0.1c0-0.1,0-0.1,0.1-0.1
		c0.5,0,0.6-0.1,0.8-0.3s0.1-0.4,0.1-1.3V7.1c0-1,0-1.2-0.1-1.3S7,5.7,6.4,5.6c-0.1,0-0.1,0-0.1-0.1s0-0.1,0.1-0.1
		c0.8,0,1.7,0,2.5,0c0.8,0,1.6,0,2.5,0c0,0.5,0.1,1,0.1,1.6l0,0c0,0,0,0.1-0.1,0.1c0,0,0,0-0.1,0c-0.1-0.4-0.4-0.8-0.6-1
		C10.3,5.8,10.1,5.7,9,5.7C8.4,5.7,8.3,5.8,8.1,6C8,6.1,8,6.2,8,6.7v1.8c0.1,0,0.4,0,0.6,0c0.9,0,1.2-0.1,1.3-0.3
		c0.1-0.1,0.3-0.3,0.3-0.6c0-0.1,0-0.1,0.1-0.1c0.1,0,0.1,0,0.1,0.1c0,0.4,0,0.6,0,1s0,0.8,0,1.2c0,0.1,0,0.1-0.1,0.1
		c-0.1,0-0.1,0-0.1-0.1c0-0.4-0.1-0.6-0.3-0.8C9.8,8.9,9.4,8.9,8.6,8.9c-0.3,0-0.5,0-0.6,0v1.7c0,0.8,0,1,0.1,1.2
		c0.1,0.1,0.3,0.3,1,0.3c0.9,0,1.4-0.1,1.8-0.4c0.3-0.3,0.5-0.5,0.8-1c0,0,0-0.1,0.1-0.1C12,10.7,12,10.7,12,10.9L12,10.9z"/>
	
		<linearGradient id="SVGID_3_" gradientUnits="userSpaceOnUse" x1="12.8151" y1="-680.9354" x2="17.3221" y2="-680.9354" gradientTransform="matrix(1 0 0 -1 0 -672)">
		<stop  offset="0" style="stop-color:#1A1B7D"/>
		<stop  offset="8.870302e-02" style="stop-color:#1C1F80"/>
		<stop  offset="0.1817" style="stop-color:#232C88"/>
		<stop  offset="0.2766" style="stop-color:#2E4195"/>
		<stop  offset="0.3729" style="stop-color:#3E5EA7"/>
		<stop  offset="0.4694" style="stop-color:#5184BF"/>
		<stop  offset="0.4888" style="stop-color:#568CC4"/>
		<stop  offset="0.6091" style="stop-color:#3A5C9B"/>
		<stop  offset="0.7283" style="stop-color:#223479"/>
		<stop  offset="0.8368" style="stop-color:#111860"/>
		<stop  offset="0.9309" style="stop-color:#070651"/>
		<stop  offset="1" style="stop-color:#03004C"/>
	</linearGradient>
	<path class="st2" d="M14.6,8.9c-1-0.5-1.6-1-1.6-1.9c0-1,0.9-1.8,2.1-1.8c0.3,0,0.5,0,0.8,0.1c0.3,0.1,0.5,0.1,0.8,0.1
		c0.1,0,0.3,0,0.4,0c0,0.4,0,1,0.1,1.6l0,0c0,0,0,0.1-0.1,0.1c0,0-0.1,0-0.1-0.1c-0.3-0.9-0.9-1.4-1.7-1.4c-0.8,0-1.3,0.5-1.3,1.2
		c0,0.5,0.3,1,1.2,1.4l0.5,0.3c1.4,0.6,1.8,1.3,1.8,2.2c0,1.3-0.9,2.1-2.5,2.1c-0.5,0-1.2-0.1-1.8-0.4c-0.1-0.5-0.3-0.9-0.3-1.6
		v-0.1c0,0,0-0.1,0.1-0.1h0.1c0.4,1,1.2,1.7,1.9,1.7c0.9,0,1.6-0.6,1.6-1.4c0-0.8-0.4-1.2-1.4-1.7L14.6,8.9z"/>
	
		<linearGradient id="SVGID_4_" gradientUnits="userSpaceOnUse" x1="20.8909" y1="-680.9354" x2="26.8006" y2="-680.9354" gradientTransform="matrix(1 0 0 -1 0 -672)">
		<stop  offset="0" style="stop-color:#1A1B7D"/>
		<stop  offset="8.870302e-02" style="stop-color:#1C1F80"/>
		<stop  offset="0.1817" style="stop-color:#232C88"/>
		<stop  offset="0.2766" style="stop-color:#2E4195"/>
		<stop  offset="0.3729" style="stop-color:#3E5EA7"/>
		<stop  offset="0.4694" style="stop-color:#5184BF"/>
		<stop  offset="0.4888" style="stop-color:#568CC4"/>
		<stop  offset="0.6091" style="stop-color:#3A5C9B"/>
		<stop  offset="0.7283" style="stop-color:#223479"/>
		<stop  offset="0.8368" style="stop-color:#111860"/>
		<stop  offset="0.9309" style="stop-color:#070651"/>
		<stop  offset="1" style="stop-color:#03004C"/>
	</linearGradient>
	<path class="st3" d="M24.7,8.8c1.4,0.1,2.2,0.9,2.2,1.8c0,1.2-0.9,1.9-2.8,1.9c-0.5,0-1.3,0-1.8,0c-0.4,0-0.8,0-1.2,0
		c0,0-0.1,0-0.1-0.1s0-0.1,0.1-0.1c0.5,0,0.6-0.1,0.8-0.3c0.1-0.1,0.1-0.3,0.1-1.3V7.1c0-1,0-1.2-0.1-1.3S21.6,5.7,21,5.6
		c-0.1,0-0.1,0-0.1-0.1s0-0.1,0.1-0.1c0.4,0,0.8,0,1.3,0c0.4,0,1.2,0,1.7,0c1.8,0,2.5,0.6,2.5,1.7C26.5,7.8,26,8.3,24.7,8.8
		L24.7,8.8z M22.7,8.7c0.1,0,0.4,0,0.5,0c1.6,0,2.2-0.6,2.2-1.6c0-0.8-0.5-1.4-1.7-1.4c-0.6,0-0.8,0.1-0.9,0.3
		c-0.1,0.1-0.1,0.3-0.1,1.3C22.7,7.3,22.7,8.7,22.7,8.7z M22.7,10.7c0,0.9,0,1,0.1,1.3c0.1,0.1,0.4,0.3,1,0.3c1.3,0,1.9-0.6,1.9-1.7
		s-0.6-1.6-2.5-1.6c-0.1,0-0.4,0-0.6,0V10.7z"/>
	
		<linearGradient id="SVGID_5_" gradientUnits="userSpaceOnUse" x1="27.7748" y1="-680.9354" x2="35.1275" y2="-680.9354" gradientTransform="matrix(1 0 0 -1 0 -672)">
		<stop  offset="0" style="stop-color:#1A1B7D"/>
		<stop  offset="8.870302e-02" style="stop-color:#1C1F80"/>
		<stop  offset="0.1817" style="stop-color:#232C88"/>
		<stop  offset="0.2766" style="stop-color:#2E4195"/>
		<stop  offset="0.3729" style="stop-color:#3E5EA7"/>
		<stop  offset="0.4694" style="stop-color:#5184BF"/>
		<stop  offset="0.4888" style="stop-color:#568CC4"/>
		<stop  offset="0.6091" style="stop-color:#3A5C9B"/>
		<stop  offset="0.7283" style="stop-color:#223479"/>
		<stop  offset="0.8368" style="stop-color:#111860"/>
		<stop  offset="0.9309" style="stop-color:#070651"/>
		<stop  offset="1" style="stop-color:#03004C"/>
	</linearGradient>
	<path class="st4" d="M33.7,7.1c0-0.8-0.1-1.2-0.1-1.3c-0.1-0.1-0.3-0.3-0.8-0.3c-0.1,0-0.1,0-0.1-0.1s0-0.1,0.1-0.1
		c0.4,0,0.8,0,1.2,0s0.8,0,1.2,0c0.1,0,0.1,0,0.1,0.1s0,0.1-0.1,0.1c-0.4,0-0.6,0.1-0.6,0.3c-0.3,0.3-0.3,0.5-0.3,1.3v1.2
		c0,0.6,0,1.3,0,1.8c0,0.8-0.3,1.4-0.8,1.8c-0.5,0.4-1,0.6-1.8,0.6c-0.9,0-1.7-0.3-2.2-0.8c-0.4-0.4-0.5-0.9-0.5-1.6
		c0-0.5,0-1.3,0-1.9V7c0-0.8,0-0.9-0.1-1c-0.1-0.1-0.3-0.1-0.8-0.3c-0.1,0-0.1,0-0.1-0.1c-0.1-0.1,0-0.1,0-0.1c0.4,0,0.9,0,1.3,0
		c0.4,0,0.9,0,1.3,0c0.1,0,0.1,0,0.1,0.1s0,0.1-0.1,0.1c-0.5,0-0.6,0.1-0.8,0.3s-0.1,0.3-0.1,1.3v1.3c0,0.4,0,0.9,0,1.4
		c0,1,0.1,1.4,0.5,1.7c0.4,0.3,1,0.5,1.6,0.5c0.8,0,1.3-0.3,1.6-0.5c0.3-0.3,0.5-0.8,0.5-1.6c0-0.3,0-0.6,0-1.2V7.1z"/>
	
		<linearGradient id="SVGID_6_" gradientUnits="userSpaceOnUse" x1="35.9522" y1="-680.9354" x2="40.4585" y2="-680.9354" gradientTransform="matrix(1 0 0 -1 0 -672)">
		<stop  offset="0" style="stop-color:#1A1B7D"/>
		<stop  offset="8.870302e-02" style="stop-color:#1C1F80"/>
		<stop  offset="0.1817" style="stop-color:#232C88"/>
		<stop  offset="0.2766" style="stop-color:#2E4195"/>
		<stop  offset="0.3729" style="stop-color:#3E5EA7"/>
		<stop  offset="0.4694" style="stop-color:#5184BF"/>
		<stop  offset="0.4888" style="stop-color:#568CC4"/>
		<stop  offset="0.6091" style="stop-color:#3A5C9B"/>
		<stop  offset="0.7283" style="stop-color:#223479"/>
		<stop  offset="0.8368" style="stop-color:#111860"/>
		<stop  offset="0.9309" style="stop-color:#070651"/>
		<stop  offset="1" style="stop-color:#03004C"/>
	</linearGradient>
	<path class="st5" d="M37.7,8.9c-1-0.5-1.6-1-1.6-1.9c0-1,0.9-1.8,2.1-1.8c0.3,0,0.5,0,0.8,0.1c0.3,0.1,0.5,0.1,0.8,0.1
		c0.1,0,0.3,0,0.4,0c0,0.4,0,1,0.1,1.6l0,0c0,0,0,0.1-0.1,0.1c0,0-0.1,0-0.1-0.1c-0.3-0.9-0.9-1.4-1.7-1.4s-1.3,0.5-1.3,1.2
		c0,0.5,0.3,1,1.2,1.4l0.5,0.3c1.4,0.6,1.8,1.3,1.8,2.2c0,1.3-0.9,2.1-2.5,2.1c-0.5,0-1.2-0.1-1.8-0.4c-0.1-0.5-0.3-0.9-0.3-1.6
		v-0.1c0,0,0-0.1,0.1-0.1h0.1c0.4,1,1.2,1.7,1.9,1.7c0.9,0,1.6-0.6,1.6-1.4c0-0.8-0.4-1.2-1.4-1.7L37.7,8.9z"/>
	
		<linearGradient id="SVGID_7_" gradientUnits="userSpaceOnUse" x1="41.4328" y1="-680.9354" x2="44.2468" y2="-680.9354" gradientTransform="matrix(1 0 0 -1 0 -672)">
		<stop  offset="0" style="stop-color:#1A1B7D"/>
		<stop  offset="8.870302e-02" style="stop-color:#1C1F80"/>
		<stop  offset="0.1817" style="stop-color:#232C88"/>
		<stop  offset="0.2766" style="stop-color:#2E4195"/>
		<stop  offset="0.3729" style="stop-color:#3E5EA7"/>
		<stop  offset="0.4694" style="stop-color:#5184BF"/>
		<stop  offset="0.4888" style="stop-color:#568CC4"/>
		<stop  offset="0.6091" style="stop-color:#3A5C9B"/>
		<stop  offset="0.7283" style="stop-color:#223479"/>
		<stop  offset="0.8368" style="stop-color:#111860"/>
		<stop  offset="0.9309" style="stop-color:#070651"/>
		<stop  offset="1" style="stop-color:#03004C"/>
	</linearGradient>
	<path class="st6" d="M43.3,11.1c0,0.6,0,0.8,0.1,0.9c0.1,0.1,0.3,0.1,0.8,0.3c0.1,0,0.1,0,0.1,0.1s0,0.1-0.1,0.1
		c-0.4,0-0.9,0-1.3,0s-0.9,0-1.3,0c0,0-0.1,0-0.1-0.1s0-0.1,0.1-0.1c0.5,0,0.6-0.1,0.8-0.3c0.1-0.1,0.1-0.3,0.1-1.3V7.1
		c0-1,0-1.2-0.1-1.3c-0.1-0.1-0.1-0.1-0.8-0.3c-0.1,0-0.1,0-0.1-0.1s0-0.1,0.1-0.1c0.4,0,0.9,0,1.3,0s0.9,0,1.3,0
		c0.1,0,0.1,0,0.1,0.1s0,0.1-0.1,0.1c-0.5,0-0.6,0.1-0.8,0.3c-0.1,0.3-0.1,0.4-0.1,1.3V11.1z"/>
	
		<linearGradient id="SVGID_8_" gradientUnits="userSpaceOnUse" x1="44.97" y1="-681" x2="52.3423" y2="-681" gradientTransform="matrix(1 0 0 -1 0 -672)">
		<stop  offset="0" style="stop-color:#1A1B7D"/>
		<stop  offset="8.870302e-02" style="stop-color:#1C1F80"/>
		<stop  offset="0.1817" style="stop-color:#232C88"/>
		<stop  offset="0.2766" style="stop-color:#2E4195"/>
		<stop  offset="0.3729" style="stop-color:#3E5EA7"/>
		<stop  offset="0.4694" style="stop-color:#5184BF"/>
		<stop  offset="0.4888" style="stop-color:#568CC4"/>
		<stop  offset="0.6091" style="stop-color:#3A5C9B"/>
		<stop  offset="0.7283" style="stop-color:#223479"/>
		<stop  offset="0.8368" style="stop-color:#111860"/>
		<stop  offset="0.9309" style="stop-color:#070651"/>
		<stop  offset="1" style="stop-color:#03004C"/>
	</linearGradient>
	<path class="st7" d="M46.5,6.5v4.3c0,0.8,0,1.2,0.1,1.3c0.1,0.1,0.3,0.3,0.8,0.3c0,0,0.1,0,0.1,0.1s0,0.1-0.1,0.1
		c-0.4,0-0.8,0-1.2,0c-0.4,0-0.8,0-1.2,0c-0.1,0-0.1,0-0.1-0.1s0-0.1,0.1-0.1c0.5,0,0.6-0.1,0.6-0.3c0.1-0.1,0.1-0.5,0.1-1.3V7
		c0-0.5,0-0.9-0.1-1c-0.1-0.1-0.3-0.3-0.8-0.3c-0.1,0-0.1,0-0.1-0.1s0-0.1,0.1-0.1c0.4,0,0.6,0,0.9,0c0.3,0,0.5,0,0.9,0
		c0.3,0.4,0.4,0.6,0.8,1.2l2.3,3.4c0.3,0.5,0.6,0.9,0.9,1.4c0-0.4,0-0.9,0-1.3v-3c0-0.8-0.1-1.2-0.1-1.3c-0.1-0.1-0.3-0.3-0.8-0.3
		c-0.1,0-0.1,0-0.1-0.1s0-0.1,0.1-0.1c0.4,0,0.8,0,1.2,0c0.4,0,0.8,0,1.2,0c0.1,0.1,0.1,0.1,0.1,0.3s0,0.1-0.1,0.1
		c-0.5,0-0.6,0.1-0.6,0.3c-0.1,0.1-0.1,0.5-0.1,1.3v3.5c0,0.1,0,0.4,0,0.5c0,0.4,0,0.8,0,1.2c-0.4,0.3-0.4,0.3-0.5,0.3s0,0-0.1,0
		c-0.3-0.5-0.5-0.9-1.2-1.7L46.5,6.5L46.5,6.5z"/>
	
		<linearGradient id="SVGID_9_" gradientUnits="userSpaceOnUse" x1="53.0667" y1="-680.9354" x2="58.7958" y2="-680.9354" gradientTransform="matrix(1 0 0 -1 0 -672)">
		<stop  offset="0" style="stop-color:#1A1B7D"/>
		<stop  offset="8.870302e-02" style="stop-color:#1C1F80"/>
		<stop  offset="0.1817" style="stop-color:#232C88"/>
		<stop  offset="0.2766" style="stop-color:#2E4195"/>
		<stop  offset="0.3729" style="stop-color:#3E5EA7"/>
		<stop  offset="0.4694" style="stop-color:#5184BF"/>
		<stop  offset="0.4888" style="stop-color:#568CC4"/>
		<stop  offset="0.6091" style="stop-color:#3A5C9B"/>
		<stop  offset="0.7283" style="stop-color:#223479"/>
		<stop  offset="0.8368" style="stop-color:#111860"/>
		<stop  offset="0.9309" style="stop-color:#070651"/>
		<stop  offset="1" style="stop-color:#03004C"/>
	</linearGradient>
	<path class="st8" d="M58.8,10.9c-0.1,0.5-0.3,1.2-0.5,1.7c-0.9,0-1.7,0-2.5,0c-0.8,0-1.7,0-2.6,0c0,0-0.1,0-0.1-0.1
		c0-0.1,0-0.1,0.1-0.1c0.5,0,0.6-0.1,0.8-0.3c0.1-0.1,0.1-0.4,0.1-1.3V7.1c0-1,0-1.2-0.1-1.3c-0.1-0.1-0.3-0.1-0.8-0.3
		c-0.1,0-0.1,0-0.1-0.1s0-0.1,0.1-0.1c0.8,0,1.7,0,2.5,0c0.8,0,1.6,0,2.5,0c0,0.5,0.1,1,0.1,1.6l0,0c0,0,0,0.1-0.1,0.1
		c0,0,0,0-0.1,0c-0.1-0.4-0.4-0.8-0.6-1c-0.3-0.1-0.5-0.3-1.6-0.3c-0.6,0-0.8,0.1-0.9,0.3c0,0.1,0,0.4,0,0.9v1.8c0.1,0,0.4,0,0.6,0
		c0.9,0,1.2-0.1,1.3-0.3c0.1-0.1,0.3-0.3,0.3-0.6c0-0.1,0-0.1,0.1-0.1c0.1,0,0.1,0,0.1,0.1c0,0.4,0,0.6,0,1s0,0.8,0,1.2
		c0,0.1,0,0.1-0.1,0.1c-0.1,0-0.1,0-0.1-0.1c0-0.4-0.1-0.6-0.3-0.8c-0.1-0.1-0.5-0.1-1.3-0.1c-0.3,0-0.5,0-0.6,0v1.7
		c0,0.8,0,1,0.1,1.2c0.1,0.1,0.3,0.3,1,0.3c0.9,0,1.4-0.1,1.8-0.4c0.3-0.3,0.5-0.5,0.8-1c0,0,0-0.1,0.1-0.1
		C58.8,10.7,58.8,10.7,58.8,10.9L58.8,10.9z"/>
	
		<linearGradient id="SVGID_10_" gradientUnits="userSpaceOnUse" x1="59.6086" y1="-680.9354" x2="64.1161" y2="-680.9354" gradientTransform="matrix(1 0 0 -1 0 -672)">
		<stop  offset="0" style="stop-color:#1A1B7D"/>
		<stop  offset="8.870302e-02" style="stop-color:#1C1F80"/>
		<stop  offset="0.1817" style="stop-color:#232C88"/>
		<stop  offset="0.2766" style="stop-color:#2E4195"/>
		<stop  offset="0.3729" style="stop-color:#3E5EA7"/>
		<stop  offset="0.4694" style="stop-color:#5184BF"/>
		<stop  offset="0.4888" style="stop-color:#568CC4"/>
		<stop  offset="0.6091" style="stop-color:#3A5C9B"/>
		<stop  offset="0.7283" style="stop-color:#223479"/>
		<stop  offset="0.8368" style="stop-color:#111860"/>
		<stop  offset="0.9309" style="stop-color:#070651"/>
		<stop  offset="1" style="stop-color:#03004C"/>
	</linearGradient>
	<path class="st9" d="M61.4,8.9c-1-0.5-1.6-1-1.6-1.9c0-1,0.9-1.8,2.1-1.8c0.3,0,0.5,0,0.8,0.1c0.4,0.1,0.5,0.1,0.8,0.1
		c0.1,0,0.3,0,0.4,0c0,0.4,0,1,0.1,1.6l0,0c0,0,0,0.1-0.1,0.1c0,0-0.1,0-0.1-0.1c-0.3-0.9-0.9-1.4-1.7-1.4s-1.3,0.5-1.3,1.2
		c0,0.5,0.3,1,1.2,1.4l0.5,0.3c1.4,0.6,1.8,1.3,1.8,2.2c0,1.3-0.9,2.1-2.5,2.1c-0.5,0-1.2-0.1-1.8-0.4c-0.1-0.5-0.3-0.9-0.3-1.6
		v-0.1c0,0,0-0.1,0.1-0.1h0.1c0.4,1,1.2,1.7,1.9,1.7c0.9,0,1.6-0.6,1.6-1.4c0-0.8-0.4-1.2-1.4-1.7L61.4,8.9z"/>
	
		<linearGradient id="SVGID_11_" gradientUnits="userSpaceOnUse" x1="65.2102" y1="-680.9354" x2="69.718" y2="-680.9354" gradientTransform="matrix(1 0 0 -1 0 -672)">
		<stop  offset="0" style="stop-color:#1A1B7D"/>
		<stop  offset="8.870302e-02" style="stop-color:#1C1F80"/>
		<stop  offset="0.1817" style="stop-color:#232C88"/>
		<stop  offset="0.2766" style="stop-color:#2E4195"/>
		<stop  offset="0.3729" style="stop-color:#3E5EA7"/>
		<stop  offset="0.4694" style="stop-color:#5184BF"/>
		<stop  offset="0.4888" style="stop-color:#568CC4"/>
		<stop  offset="0.6091" style="stop-color:#3A5C9B"/>
		<stop  offset="0.7283" style="stop-color:#223479"/>
		<stop  offset="0.8368" style="stop-color:#111860"/>
		<stop  offset="0.9309" style="stop-color:#070651"/>
		<stop  offset="1" style="stop-color:#03004C"/>
	</linearGradient>
	<path class="st10" d="M67,8.9c-1-0.5-1.6-1-1.6-1.9c0-1,0.9-1.8,2.1-1.8c0.3,0,0.5,0,0.8,0.1c0.3,0.1,0.5,0.1,0.6,0.1
		c0.1,0,0.3,0,0.4,0c0,0.4,0,1,0.1,1.6l0,0c0,0,0,0.1-0.1,0.1c0,0-0.1,0-0.1-0.1c-0.3-0.9-0.9-1.4-1.7-1.4c-0.8,0-1.3,0.5-1.3,1.2
		c0,0.5,0.3,1,1.2,1.4L68,8.4c1.4,0.6,1.8,1.3,1.8,2.2c0,1.3-0.9,2.1-2.5,2.1c-0.5,0-1.2-0.1-1.8-0.4c0-0.4-0.1-0.9-0.3-1.4v-0.1
		c0-0.1,0-0.1,0.1-0.1h0.1c0.4,1,1.2,1.7,1.9,1.7c0.9,0,1.6-0.6,1.6-1.4s-0.4-1.2-1.4-1.7L67,8.9z"/>
</g>
</svg>
