<?xml version="1.0" encoding="utf-8"?>
<!-- Generator: Adobe Illustrator 25.0.1, SVG Export Plug-In . SVG Version: 6.00 Build 0)  -->
<svg version="1.1" id="レイヤー_1" xmlns="http://www.w3.org/2000/svg" xmlns:xlink="http://www.w3.org/1999/xlink" x="0px"
	 y="0px" viewBox="0 0 85 13" style="enable-background:new 0 0 85 13;" xml:space="preserve">
<style type="text/css">
	.st0{fill:url(#SVGID_1_);}
	.st1{fill:url(#SVGID_2_);}
	.st2{fill:url(#SVGID_3_);}
	.st3{fill:url(#SVGID_4_);}
	.st4{fill:url(#SVGID_5_);}
	.st5{fill:url(#SVGID_6_);}
	.st6{fill:url(#SVGID_7_);}
	.st7{fill:url(#SVGID_8_);}
	.st8{fill:url(#SVGID_9_);}
	.st9{fill:url(#SVGID_10_);}
	.st10{fill:url(#SVGID_11_);}
</style>
<g>
	
		<linearGradient id="SVGID_1_" gradientUnits="userSpaceOnUse" x1="16.527" y1="689.3" x2="20.0147" y2="689.3" gradientTransform="matrix(1 0 0 1 0 -686)">
		<stop  offset="0" style="stop-color:#1A1B7D"/>
		<stop  offset="8.870302e-02" style="stop-color:#1C1F80"/>
		<stop  offset="0.1817" style="stop-color:#232C88"/>
		<stop  offset="0.2766" style="stop-color:#2E4195"/>
		<stop  offset="0.3729" style="stop-color:#3E5EA7"/>
		<stop  offset="0.4694" style="stop-color:#5184BF"/>
		<stop  offset="0.4888" style="stop-color:#568CC4"/>
		<stop  offset="0.6091" style="stop-color:#3A5C9B"/>
		<stop  offset="0.7283" style="stop-color:#223479"/>
		<stop  offset="0.8368" style="stop-color:#111860"/>
		<stop  offset="0.9309" style="stop-color:#070651"/>
		<stop  offset="1" style="stop-color:#03004C"/>
	</linearGradient>
	<path class="st0" d="M17.9,3.3c-0.8-0.4-1.2-0.8-1.2-1.5c0-0.8,0.7-1.4,1.6-1.4c0.2,0,0.4,0,0.6,0.1s0.4,0.1,0.6,0.1
		c0.1,0,0.2,0,0.3,0c0,0.3,0,0.8,0.1,1.2l0,0c0,0,0,0.1-0.1,0.1c0,0-0.1,0-0.1-0.1c-0.3-0.7-0.8-1.1-1.3-1.1c-0.6,0-1,0.4-1,0.9
		c0,0.4,0.2,0.8,0.9,1.1l0.4,0.2c1.1,0.5,1.4,1,1.4,1.7c0,1-0.7,1.6-1.9,1.6c-0.4,0-0.9-0.1-1.4-0.3c-0.1-0.4-0.2-0.7-0.2-1.2V4.6
		c0,0,0-0.1,0.1-0.1h0.1c0.3,0.8,0.9,1.3,1.5,1.3c0.7,0,1.2-0.5,1.2-1.1s-0.3-0.9-1.1-1.3L17.9,3.3z"/>
	
		<linearGradient id="SVGID_2_" gradientUnits="userSpaceOnUse" x1="20.7707" y1="689.3" x2="25.2047" y2="689.3" gradientTransform="matrix(1 0 0 1 0 -686)">
		<stop  offset="0" style="stop-color:#1A1B7D"/>
		<stop  offset="8.870302e-02" style="stop-color:#1C1F80"/>
		<stop  offset="0.1817" style="stop-color:#232C88"/>
		<stop  offset="0.2766" style="stop-color:#2E4195"/>
		<stop  offset="0.3729" style="stop-color:#3E5EA7"/>
		<stop  offset="0.4694" style="stop-color:#5184BF"/>
		<stop  offset="0.4888" style="stop-color:#568CC4"/>
		<stop  offset="0.6091" style="stop-color:#3A5C9B"/>
		<stop  offset="0.7283" style="stop-color:#223479"/>
		<stop  offset="0.8368" style="stop-color:#111860"/>
		<stop  offset="0.9309" style="stop-color:#070651"/>
		<stop  offset="1" style="stop-color:#03004C"/>
	</linearGradient>
	<path class="st1" d="M25.2,4.8c-0.1,0.4-0.2,0.9-0.4,1.3c-0.7,0-1.3,0-1.9,0s-1.3,0-2,0c0,0-0.1,0-0.1-0.1s0-0.1,0.1-0.1
		c0.4,0,0.5-0.1,0.6-0.2s0.1-0.3,0.1-1V1.9c0-0.8,0-0.9-0.1-1s-0.2-0.1-0.6-0.2c-0.1,0-0.1,0-0.1-0.1s0-0.1,0.1-0.1
		c0.6,0,1.3,0,1.9,0s1.2,0,1.9,0c0,0.4,0.1,0.8,0.1,1.2l0,0c0,0,0,0.1-0.1,0.1c0,0,0,0-0.1,0c-0.1-0.3-0.3-0.6-0.5-0.8
		c-0.2-0.1-0.4-0.2-1.2-0.2c-0.5,0-0.6,0.1-0.7,0.2s-0.1,0.2-0.1,0.6V3c0.1,0,0.3,0,0.5,0c0.7,0,0.9-0.1,1-0.2s0.2-0.2,0.2-0.5
		c0-0.1,0-0.1,0.1-0.1s0.1,0,0.1,0.1c0,0.3,0,0.5,0,0.8s0,0.6,0,0.9c0,0.1,0,0.1-0.1,0.1s-0.1,0-0.1-0.1c0-0.3-0.1-0.5-0.2-0.6
		s-0.4-0.1-1-0.1c-0.2,0-0.4,0-0.5,0v1.3c0,0.6,0,0.8,0.1,0.9s0.2,0.2,0.8,0.2c0.7,0,1.1-0.1,1.4-0.3C24.6,5.2,24.8,5,25,4.6
		c0,0,0-0.1,0.1-0.1C25.2,4.7,25.2,4.7,25.2,4.8L25.2,4.8z"/>
	
		<linearGradient id="SVGID_3_" gradientUnits="userSpaceOnUse" x1="25.8321" y1="689.3" x2="29.3199" y2="689.3" gradientTransform="matrix(1 0 0 1 0 -686)">
		<stop  offset="0" style="stop-color:#1A1B7D"/>
		<stop  offset="8.870302e-02" style="stop-color:#1C1F80"/>
		<stop  offset="0.1817" style="stop-color:#232C88"/>
		<stop  offset="0.2766" style="stop-color:#2E4195"/>
		<stop  offset="0.3729" style="stop-color:#3E5EA7"/>
		<stop  offset="0.4694" style="stop-color:#5184BF"/>
		<stop  offset="0.4888" style="stop-color:#568CC4"/>
		<stop  offset="0.6091" style="stop-color:#3A5C9B"/>
		<stop  offset="0.7283" style="stop-color:#223479"/>
		<stop  offset="0.8368" style="stop-color:#111860"/>
		<stop  offset="0.9309" style="stop-color:#070651"/>
		<stop  offset="1" style="stop-color:#03004C"/>
	</linearGradient>
	<path class="st2" d="M27.2,3.3C26.4,2.9,26,2.5,26,1.8c0-0.8,0.7-1.4,1.6-1.4c0.2,0,0.4,0,0.6,0.1s0.4,0.1,0.6,0.1
		c0.1,0,0.2,0,0.3,0c0,0.3,0,0.8,0.1,1.2l0,0c0,0,0,0.1-0.1,0.1c0,0-0.1,0-0.1-0.1c-0.2-0.7-0.7-1.1-1.3-1.1c-0.6,0-1,0.4-1,0.9
		c0,0.4,0.2,0.8,0.9,1.1L28,2.9c1.1,0.5,1.4,1,1.4,1.7c0,1-0.7,1.6-1.9,1.6c-0.4,0-0.9-0.1-1.4-0.3c-0.1-0.4-0.2-0.7-0.2-1.2V4.6
		c0,0,0-0.1,0.1-0.1h0.1c0.3,0.8,0.9,1.3,1.5,1.3c0.7,0,1.2-0.5,1.2-1.1s-0.3-0.9-1.1-1.3L27.2,3.3z"/>
	
		<linearGradient id="SVGID_4_" gradientUnits="userSpaceOnUse" x1="32.0816" y1="689.3" x2="36.6549" y2="689.3" gradientTransform="matrix(1 0 0 1 0 -686)">
		<stop  offset="0" style="stop-color:#1A1B7D"/>
		<stop  offset="8.870302e-02" style="stop-color:#1C1F80"/>
		<stop  offset="0.1817" style="stop-color:#232C88"/>
		<stop  offset="0.2766" style="stop-color:#2E4195"/>
		<stop  offset="0.3729" style="stop-color:#3E5EA7"/>
		<stop  offset="0.4694" style="stop-color:#5184BF"/>
		<stop  offset="0.4888" style="stop-color:#568CC4"/>
		<stop  offset="0.6091" style="stop-color:#3A5C9B"/>
		<stop  offset="0.7283" style="stop-color:#223479"/>
		<stop  offset="0.8368" style="stop-color:#111860"/>
		<stop  offset="0.9309" style="stop-color:#070651"/>
		<stop  offset="1" style="stop-color:#03004C"/>
	</linearGradient>
	<path class="st3" d="M35,3.2c1.1,0.1,1.7,0.7,1.7,1.4c0,0.9-0.7,1.5-2.2,1.5c-0.4,0-1,0-1.4,0c-0.3,0-0.6,0-0.9,0
		c0,0-0.1,0-0.1-0.1s0-0.1,0.1-0.1c0.4,0,0.5-0.1,0.6-0.2s0.1-0.2,0.1-1V1.9c0-0.8,0-0.9-0.1-1s-0.2-0.1-0.6-0.2
		c-0.1,0-0.1,0-0.1-0.1s0-0.1,0.1-0.1c0.3,0,0.6,0,1,0c0.3,0,0.9,0,1.3,0c1.4,0,1.9,0.5,1.9,1.3C36.4,2.4,36,2.8,35,3.2L35,3.2z
		 M33.5,3.1c0.1,0,0.3,0,0.4,0c1.2,0,1.7-0.5,1.7-1.2c0-0.6-0.4-1.1-1.3-1.1c-0.5,0-0.6,0.1-0.7,0.2c-0.1,0.1-0.1,0.2-0.1,1
		C33.5,2,33.5,3.1,33.5,3.1z M33.5,4.7c0,0.7,0,0.8,0.1,1c0.1,0.1,0.3,0.2,0.8,0.2c1,0,1.5-0.5,1.5-1.3S35.4,3.4,34,3.4
		c-0.1,0-0.3,0-0.5,0C33.5,3.4,33.5,4.7,33.5,4.7z"/>
	
		<linearGradient id="SVGID_5_" gradientUnits="userSpaceOnUse" x1="37.4088" y1="689.3" x2="43.0987" y2="689.3" gradientTransform="matrix(1 0 0 1 0 -686)">
		<stop  offset="0" style="stop-color:#1A1B7D"/>
		<stop  offset="8.870302e-02" style="stop-color:#1C1F80"/>
		<stop  offset="0.1817" style="stop-color:#232C88"/>
		<stop  offset="0.2766" style="stop-color:#2E4195"/>
		<stop  offset="0.3729" style="stop-color:#3E5EA7"/>
		<stop  offset="0.4694" style="stop-color:#5184BF"/>
		<stop  offset="0.4888" style="stop-color:#568CC4"/>
		<stop  offset="0.6091" style="stop-color:#3A5C9B"/>
		<stop  offset="0.7283" style="stop-color:#223479"/>
		<stop  offset="0.8368" style="stop-color:#111860"/>
		<stop  offset="0.9309" style="stop-color:#070651"/>
		<stop  offset="1" style="stop-color:#03004C"/>
	</linearGradient>
	<path class="st4" d="M42,1.9c0-0.6-0.1-0.9-0.1-1c-0.1-0.1-0.2-0.2-0.6-0.2c-0.1,0-0.1,0-0.1-0.1s0-0.1,0.1-0.1c0.3,0,0.6,0,0.9,0
		s0.6,0,0.9,0c0.1,0,0.1,0,0.1,0.1s0,0.1-0.1,0.1c-0.3,0-0.5,0.1-0.5,0.2c-0.2,0.2-0.2,0.4-0.2,1v0.9c0,0.5,0,1,0,1.4
		c0,0.6-0.2,1.1-0.6,1.4c-0.4,0.3-0.8,0.5-1.4,0.5c-0.7,0-1.3-0.2-1.7-0.6c-0.3-0.3-0.4-0.7-0.4-1.2c0-0.4,0-1,0-1.5v-1
		c0-0.6,0-0.7-0.1-0.8S38,0.9,37.6,0.8c-0.1,0-0.1,0-0.1-0.1c-0.1-0.1,0-0.1,0-0.1c0.3,0,0.7,0,1,0s0.7,0,1,0c0.1,0,0.1,0,0.1,0.1
		s0,0.1-0.1,0.1c-0.4,0-0.5,0.1-0.6,0.2s-0.1,0.2-0.1,1v1c0,0.3,0,0.7,0,1.1c0,0.8,0.1,1.1,0.4,1.3c0.3,0.2,0.8,0.4,1.2,0.4
		c0.6,0,1-0.2,1.2-0.4C41.8,5.2,42,4.8,42,4.2c0-0.2,0-0.5,0-0.9V1.9z"/>
	
		<linearGradient id="SVGID_6_" gradientUnits="userSpaceOnUse" x1="43.7369" y1="689.3" x2="47.2242" y2="689.3" gradientTransform="matrix(1 0 0 1 0 -686)">
		<stop  offset="0" style="stop-color:#1A1B7D"/>
		<stop  offset="8.870302e-02" style="stop-color:#1C1F80"/>
		<stop  offset="0.1817" style="stop-color:#232C88"/>
		<stop  offset="0.2766" style="stop-color:#2E4195"/>
		<stop  offset="0.3729" style="stop-color:#3E5EA7"/>
		<stop  offset="0.4694" style="stop-color:#5184BF"/>
		<stop  offset="0.4888" style="stop-color:#568CC4"/>
		<stop  offset="0.6091" style="stop-color:#3A5C9B"/>
		<stop  offset="0.7283" style="stop-color:#223479"/>
		<stop  offset="0.8368" style="stop-color:#111860"/>
		<stop  offset="0.9309" style="stop-color:#070651"/>
		<stop  offset="1" style="stop-color:#03004C"/>
	</linearGradient>
	<path class="st5" d="M45.1,3.3c-0.8-0.4-1.2-0.8-1.2-1.5c0-0.8,0.7-1.4,1.6-1.4c0.2,0,0.4,0,0.6,0.1c0.2,0.1,0.4,0.1,0.6,0.1
		c0.1,0,0.2,0,0.3,0c0,0.3,0,0.8,0.1,1.2l0,0c0,0,0,0.1-0.1,0.1c0,0-0.1,0-0.1-0.1c-0.2-0.7-0.7-1.1-1.3-1.1s-1,0.4-1,0.9
		c0,0.4,0.2,0.8,0.9,1.1l0.4,0.2c1.1,0.5,1.4,1,1.4,1.7c0,1-0.7,1.6-1.9,1.6c-0.4,0-0.9-0.1-1.4-0.3c-0.1-0.4-0.2-0.7-0.2-1.2V4.6
		c0,0,0-0.1,0.1-0.1H44c0.3,0.8,0.9,1.3,1.5,1.3c0.7,0,1.2-0.5,1.2-1.1s-0.3-0.9-1.1-1.3L45.1,3.3z"/>
	
		<linearGradient id="SVGID_7_" gradientUnits="userSpaceOnUse" x1="47.9781" y1="689.3" x2="50.1558" y2="689.3" gradientTransform="matrix(1 0 0 1 0 -686)">
		<stop  offset="0" style="stop-color:#1A1B7D"/>
		<stop  offset="8.870302e-02" style="stop-color:#1C1F80"/>
		<stop  offset="0.1817" style="stop-color:#232C88"/>
		<stop  offset="0.2766" style="stop-color:#2E4195"/>
		<stop  offset="0.3729" style="stop-color:#3E5EA7"/>
		<stop  offset="0.4694" style="stop-color:#5184BF"/>
		<stop  offset="0.4888" style="stop-color:#568CC4"/>
		<stop  offset="0.6091" style="stop-color:#3A5C9B"/>
		<stop  offset="0.7283" style="stop-color:#223479"/>
		<stop  offset="0.8368" style="stop-color:#111860"/>
		<stop  offset="0.9309" style="stop-color:#070651"/>
		<stop  offset="1" style="stop-color:#03004C"/>
	</linearGradient>
	<path class="st6" d="M49.4,5c0,0.5,0,0.6,0.1,0.7s0.2,0.1,0.6,0.2c0.1,0,0.1,0,0.1,0.1s0,0.1-0.1,0.1c-0.3,0-0.7,0-1,0s-0.7,0-1,0
		c0,0-0.1,0-0.1-0.1s0-0.1,0.1-0.1c0.4,0,0.5-0.1,0.6-0.2s0.1-0.2,0.1-1V1.9c0-0.8,0-0.9-0.1-1s-0.1-0.1-0.6-0.2
		c-0.1,0-0.1,0-0.1-0.1s0-0.1,0.1-0.1c0.3,0,0.7,0,1,0s0.7,0,1,0c0.1,0,0.1,0,0.1,0.1s0,0.1-0.1,0.1c-0.4,0-0.5,0.1-0.6,0.2
		c-0.1,0.2-0.1,0.3-0.1,1V5z"/>
	
		<linearGradient id="SVGID_8_" gradientUnits="userSpaceOnUse" x1="50.7154" y1="689.35" x2="56.4205" y2="689.35" gradientTransform="matrix(1 0 0 1 0 -686)">
		<stop  offset="0" style="stop-color:#1A1B7D"/>
		<stop  offset="8.870302e-02" style="stop-color:#1C1F80"/>
		<stop  offset="0.1817" style="stop-color:#232C88"/>
		<stop  offset="0.2766" style="stop-color:#2E4195"/>
		<stop  offset="0.3729" style="stop-color:#3E5EA7"/>
		<stop  offset="0.4694" style="stop-color:#5184BF"/>
		<stop  offset="0.4888" style="stop-color:#568CC4"/>
		<stop  offset="0.6091" style="stop-color:#3A5C9B"/>
		<stop  offset="0.7283" style="stop-color:#223479"/>
		<stop  offset="0.8368" style="stop-color:#111860"/>
		<stop  offset="0.9309" style="stop-color:#070651"/>
		<stop  offset="1" style="stop-color:#03004C"/>
	</linearGradient>
	<path class="st7" d="M51.9,1.4v3.3c0,0.6,0,0.9,0.1,1s0.2,0.2,0.6,0.2c0,0,0.1,0,0.1,0.1s0,0.1-0.1,0.1c-0.3,0-0.6,0-0.9,0
		c-0.3,0-0.6,0-0.9,0c-0.1,0-0.1,0-0.1-0.1s0-0.1,0.1-0.1c0.4,0,0.5-0.1,0.5-0.2c0.1-0.1,0.1-0.4,0.1-1V1.8c0-0.4,0-0.7-0.1-0.8
		s-0.2-0.2-0.6-0.2c-0.1,0-0.1,0-0.1-0.1s0-0.1,0.1-0.1c0.3,0,0.5,0,0.7,0s0.4,0,0.7,0c0.2,0.3,0.3,0.5,0.6,0.9l1.8,2.6
		c0.2,0.4,0.5,0.7,0.7,1.1c0-0.3,0-0.7,0-1V1.9c0-0.6-0.1-0.9-0.1-1c-0.1-0.1-0.2-0.2-0.6-0.2c-0.1,0-0.1,0-0.1-0.1s0-0.1,0.1-0.1
		c0.3,0,0.6,0,0.9,0c0.3,0,0.6,0,0.9,0c0.1,0.1,0.1,0.1,0.1,0.2s0,0.1-0.1,0.1c-0.4,0-0.5,0.1-0.5,0.2c-0.1,0.1-0.1,0.4-0.1,1v2.7
		c0,0.1,0,0.3,0,0.4c0,0.3,0,0.6,0,0.9c-0.3,0.2-0.3,0.2-0.4,0.2s0,0-0.1,0c-0.2-0.4-0.4-0.7-0.9-1.3L51.9,1.4L51.9,1.4z"/>
	
		<linearGradient id="SVGID_9_" gradientUnits="userSpaceOnUse" x1="56.9811" y1="689.3" x2="61.4146" y2="689.3" gradientTransform="matrix(1 0 0 1 0 -686)">
		<stop  offset="0" style="stop-color:#1A1B7D"/>
		<stop  offset="8.870302e-02" style="stop-color:#1C1F80"/>
		<stop  offset="0.1817" style="stop-color:#232C88"/>
		<stop  offset="0.2766" style="stop-color:#2E4195"/>
		<stop  offset="0.3729" style="stop-color:#3E5EA7"/>
		<stop  offset="0.4694" style="stop-color:#5184BF"/>
		<stop  offset="0.4888" style="stop-color:#568CC4"/>
		<stop  offset="0.6091" style="stop-color:#3A5C9B"/>
		<stop  offset="0.7283" style="stop-color:#223479"/>
		<stop  offset="0.8368" style="stop-color:#111860"/>
		<stop  offset="0.9309" style="stop-color:#070651"/>
		<stop  offset="1" style="stop-color:#03004C"/>
	</linearGradient>
	<path class="st8" d="M61.4,4.8c-0.1,0.4-0.2,0.9-0.4,1.3c-0.7,0-1.3,0-1.9,0c-0.6,0-1.3,0-2,0c0,0-0.1,0-0.1-0.1s0-0.1,0.1-0.1
		c0.4,0,0.5-0.1,0.6-0.2s0.1-0.3,0.1-1V1.9c0-0.8,0-0.9-0.1-1s-0.2-0.1-0.6-0.2c-0.1,0-0.1,0-0.1-0.1s0-0.1,0.1-0.1
		c0.6,0,1.3,0,1.9,0s1.2,0,1.9,0c0,0.4,0.1,0.8,0.1,1.2l0,0c0,0,0,0.1-0.1,0.1c0,0,0,0-0.1,0c-0.1-0.3-0.3-0.6-0.5-0.8
		c-0.2-0.1-0.4-0.2-1.2-0.2c-0.5,0-0.6,0.1-0.7,0.2c0,0.1,0,0.3,0,0.7v1.4c0.1,0,0.3,0,0.5,0c0.7,0,0.9-0.1,1-0.2s0.2-0.2,0.2-0.5
		c0-0.1,0-0.1,0.1-0.1s0.1,0,0.1,0.1c0,0.3,0,0.5,0,0.8s0,0.6,0,0.9c0,0.1,0,0.1-0.1,0.1s-0.1,0-0.1-0.1c0-0.3-0.1-0.5-0.2-0.6
		c-0.1-0.1-0.4-0.1-1-0.1c-0.2,0-0.4,0-0.5,0v1.3c0,0.6,0,0.8,0.1,0.9s0.2,0.2,0.8,0.2c0.7,0,1.1-0.1,1.4-0.3
		c0.2-0.2,0.4-0.4,0.6-0.8c0,0,0-0.1,0.1-0.1C61.4,4.7,61.4,4.7,61.4,4.8L61.4,4.8z"/>
	
		<linearGradient id="SVGID_10_" gradientUnits="userSpaceOnUse" x1="62.0436" y1="689.3" x2="65.5318" y2="689.3" gradientTransform="matrix(1 0 0 1 0 -686)">
		<stop  offset="0" style="stop-color:#1A1B7D"/>
		<stop  offset="8.870302e-02" style="stop-color:#1C1F80"/>
		<stop  offset="0.1817" style="stop-color:#232C88"/>
		<stop  offset="0.2766" style="stop-color:#2E4195"/>
		<stop  offset="0.3729" style="stop-color:#3E5EA7"/>
		<stop  offset="0.4694" style="stop-color:#5184BF"/>
		<stop  offset="0.4888" style="stop-color:#568CC4"/>
		<stop  offset="0.6091" style="stop-color:#3A5C9B"/>
		<stop  offset="0.7283" style="stop-color:#223479"/>
		<stop  offset="0.8368" style="stop-color:#111860"/>
		<stop  offset="0.9309" style="stop-color:#070651"/>
		<stop  offset="1" style="stop-color:#03004C"/>
	</linearGradient>
	<path class="st9" d="M63.4,3.3c-0.8-0.4-1.2-0.8-1.2-1.5c0-0.8,0.7-1.4,1.6-1.4c0.2,0,0.4,0,0.6,0.1c0.3,0.1,0.4,0.1,0.6,0.1
		c0.1,0,0.2,0,0.3,0c0,0.3,0,0.8,0.1,1.2l0,0c0,0,0,0.1-0.1,0.1c0,0-0.1,0-0.1-0.1c-0.2-0.7-0.7-1.1-1.3-1.1c-0.6,0-1,0.4-1,0.9
		c0,0.4,0.2,0.8,0.9,1.1l0.4,0.2c1.1,0.5,1.4,1,1.4,1.7c0,1-0.7,1.6-1.9,1.6c-0.4,0-0.9-0.1-1.4-0.3c-0.1-0.4-0.2-0.7-0.2-1.2V4.6
		c0,0,0-0.1,0.1-0.1h0.1c0.3,0.8,0.9,1.3,1.5,1.3c0.7,0,1.2-0.5,1.2-1.1s-0.3-0.9-1.1-1.3L63.4,3.3z"/>
	
		<linearGradient id="SVGID_11_" gradientUnits="userSpaceOnUse" x1="66.3784" y1="689.3" x2="69.8668" y2="689.3" gradientTransform="matrix(1 0 0 1 0 -686)">
		<stop  offset="0" style="stop-color:#1A1B7D"/>
		<stop  offset="8.870302e-02" style="stop-color:#1C1F80"/>
		<stop  offset="0.1817" style="stop-color:#232C88"/>
		<stop  offset="0.2766" style="stop-color:#2E4195"/>
		<stop  offset="0.3729" style="stop-color:#3E5EA7"/>
		<stop  offset="0.4694" style="stop-color:#5184BF"/>
		<stop  offset="0.4888" style="stop-color:#568CC4"/>
		<stop  offset="0.6091" style="stop-color:#3A5C9B"/>
		<stop  offset="0.7283" style="stop-color:#223479"/>
		<stop  offset="0.8368" style="stop-color:#111860"/>
		<stop  offset="0.9309" style="stop-color:#070651"/>
		<stop  offset="1" style="stop-color:#03004C"/>
	</linearGradient>
	<path class="st10" d="M67.8,3.3c-0.8-0.4-1.2-0.8-1.2-1.5c0-0.8,0.7-1.4,1.6-1.4c0.2,0,0.4,0,0.6,0.1s0.4,0.1,0.5,0.1s0.2,0,0.3,0
		c0,0.3,0,0.8,0.1,1.2l0,0c0,0,0,0.1-0.1,0.1c0,0-0.1,0-0.1-0.1c-0.2-0.7-0.7-1.1-1.3-1.1c-0.6,0-1,0.4-1,0.9c0,0.4,0.2,0.8,0.9,1.1
		l0.4,0.2c1.1,0.5,1.4,1,1.4,1.7c0,1-0.7,1.6-1.9,1.6c-0.4,0-0.9-0.1-1.4-0.3c0-0.3-0.1-0.7-0.2-1.1V4.7c0-0.1,0-0.1,0.1-0.1h0.1
		c0.3,0.8,0.9,1.3,1.5,1.3c0.7,0,1.2-0.5,1.2-1.1S69,3.9,68.2,3.5L67.8,3.3z"/>
</g>
</svg>
