<?xml version="1.0" encoding="utf-8"?>
<!-- Generator: Adobe Illustrator 25.0.1, SVG Export Plug-In . SVG Version: 6.00 Build 0)  -->
<svg version="1.1" id="レイヤー_1" xmlns="http://www.w3.org/2000/svg" xmlns:xlink="http://www.w3.org/1999/xlink" x="0px"
	 y="0px" viewBox="0 0 85 13" style="enable-background:new 0 0 85 13;" xml:space="preserve">
<style type="text/css">
	.st0{fill:url(#SVGID_1_);}
	.st1{fill:url(#SVGID_2_);}
	.st2{fill:url(#SVGID_3_);}
	.st3{fill:url(#SVGID_4_);}
	.st4{fill:url(#SVGID_5_);}
	.st5{fill:url(#SVGID_6_);}
	.st6{fill:url(#SVGID_7_);}
	.st7{fill:url(#SVGID_8_);}
	.st8{fill:url(#SVGID_9_);}
</style>
<g>
	
		<linearGradient id="SVGID_1_" gradientUnits="userSpaceOnUse" x1="0.3207" y1="4.6817" x2="9.8434" y2="4.6817" gradientTransform="matrix(1 0 0 -1 0 14)">
		<stop  offset="0" style="stop-color:#1A1B7D"/>
		<stop  offset="8.870302e-02" style="stop-color:#1C1F80"/>
		<stop  offset="0.1817" style="stop-color:#232C88"/>
		<stop  offset="0.2766" style="stop-color:#2E4195"/>
		<stop  offset="0.3729" style="stop-color:#3E5EA7"/>
		<stop  offset="0.4694" style="stop-color:#5184BF"/>
		<stop  offset="0.4888" style="stop-color:#568CC4"/>
		<stop  offset="0.6091" style="stop-color:#3A5C9B"/>
		<stop  offset="0.7283" style="stop-color:#223479"/>
		<stop  offset="0.8368" style="stop-color:#111860"/>
		<stop  offset="0.9309" style="stop-color:#070651"/>
		<stop  offset="1" style="stop-color:#03004C"/>
	</linearGradient>
	<path class="st0" d="M6.8,10.5c0.1,0.5,0.2,0.8,0.4,1.1c0.1-0.2,0.1-0.5,0.2-1.1l0.8-2.9c0.1-0.5,0.1-0.7,0.1-1
		c0-0.4-0.1-0.5-0.7-0.5c-0.1,0-0.1,0-0.1-0.1c0-0.1,0-0.1,0.1-0.1c0.4,0,0.8,0,1.2,0c0.4,0,0.6,0,1,0C10,5.9,10,5.9,10,6
		c0,0.1,0,0.1-0.1,0.1c-0.4,0-0.5,0.1-0.6,0.2C9,6.5,9,6.5,8.6,7.6l-1,3.4c-0.2,1-0.4,1.2-0.5,1.7c-0.4,0.1-0.4,0.1-0.4,0.1
		s0,0-0.1-0.1c-0.1-0.5-0.2-1.1-0.5-1.8L5.5,8.4C5.4,8,5.4,7.8,5.3,7.6C5.1,7.8,5.1,8,5,8.4L4.2,11c-0.2,1-0.4,1.2-0.5,1.7
		c-0.4,0.1-0.4,0.1-0.4,0.1s0,0-0.1,0c-0.1-0.6-0.2-1.1-0.5-1.8l-1-3.4C1.5,6.7,1.4,6.5,1.3,6.3C1.1,6.2,1,6.1,0.5,6.1
		c-0.1,0-0.1,0-0.1-0.1c0-0.1,0-0.1,0.1-0.1c0.4,0,0.7,0,1.2,0c0.4,0,1,0,1.3,0c0,0,0.1,0,0.1,0.1c0,0.1,0,0.1-0.1,0.1
		c-0.7,0-0.7,0.1-0.7,0.5c0,0.2,0,0.5,0.2,1.1l0.8,2.9c0.1,0.5,0.2,0.8,0.2,1.1c0.1-0.2,0.2-0.5,0.4-1.1l0.7-2.2
		C5,7.8,5,7.6,5.1,7.2C5,6.7,4.9,6.6,4.8,6.5C4.6,6.3,4.4,6.2,4,6.2c-0.1,0-0.1,0-0.1-0.1S3.9,6,4,6c0.4,0,0.8,0,1.2,0S6,6,6.3,6
		c0.1,0,0.1,0,0.1,0.1s0,0.1-0.1,0.1c-0.5,0-0.6,0.1-0.6,0.5c0,0.1,0,0.4,0.2,1L6.8,10.5z"/>
	
		<linearGradient id="SVGID_2_" gradientUnits="userSpaceOnUse" x1="10.2262" y1="4.7423" x2="15.767" y2="4.7423" gradientTransform="matrix(1 0 0 -1 0 14)">
		<stop  offset="0" style="stop-color:#1A1B7D"/>
		<stop  offset="8.870302e-02" style="stop-color:#1C1F80"/>
		<stop  offset="0.1817" style="stop-color:#232C88"/>
		<stop  offset="0.2766" style="stop-color:#2E4195"/>
		<stop  offset="0.3729" style="stop-color:#3E5EA7"/>
		<stop  offset="0.4694" style="stop-color:#5184BF"/>
		<stop  offset="0.4888" style="stop-color:#568CC4"/>
		<stop  offset="0.6091" style="stop-color:#3A5C9B"/>
		<stop  offset="0.7283" style="stop-color:#223479"/>
		<stop  offset="0.8368" style="stop-color:#111860"/>
		<stop  offset="0.9309" style="stop-color:#070651"/>
		<stop  offset="1" style="stop-color:#03004C"/>
	</linearGradient>
	<path class="st1" d="M15.8,11.1c-0.1,0.5-0.4,1.1-0.5,1.6c-0.8,0-1.6,0-2.4,0s-1.7,0-2.5,0c0,0-0.1,0-0.1-0.1c0-0.1,0-0.1,0.1-0.1
		c0.5,0,0.6-0.1,0.7-0.2c0.1-0.1,0.1-0.4,0.1-1.2V7.6c0-1,0-1.1-0.1-1.2c-0.1-0.1-0.2-0.2-0.7-0.2c-0.1,0-0.1,0-0.1-0.1
		s0-0.1,0.1-0.1c0.7,0,1.7,0,2.4,0c0.7,0,1.6,0,2.3,0c0,0.5,0.1,1.1,0.1,1.6l0,0c0,0,0,0.1-0.1,0.1c0,0,0,0-0.1,0
		c-0.1-0.4-0.4-0.7-0.6-1c-0.2-0.2-0.5-0.5-1.5-0.5c-0.6,0-0.7,0.1-0.8,0.2s-0.1,0.2-0.1,0.8v1.7c0.1,0,0.4,0,0.6,0
		c0.8,0,1.1-0.1,1.3-0.2c0.2-0.1,0.2-0.4,0.2-0.6c0-0.1,0-0.1,0.1-0.1c0.1,0,0.1,0,0.1,0.1c0,0.4,0,0.6,0,1c0,0.4,0,0.7,0,1.1
		c0,0.1,0,0.1-0.1,0.1c-0.1,0-0.1,0-0.1-0.1c0-0.4-0.1-0.6-0.4-0.7c-0.1-0.1-0.6-0.2-1.2-0.2c-0.2,0-0.5,0-0.6,0v1.7
		c0,0.8,0,1,0.1,1.2c0.1,0.2,0.4,0.2,1,0.2c0.8,0,1.3-0.1,1.7-0.4c0.2-0.2,0.5-0.5,0.7-1c0,0,0-0.1,0.1-0.1
		C15.7,11,15.8,11,15.8,11.1L15.8,11.1z"/>
	
		<linearGradient id="SVGID_3_" gradientUnits="userSpaceOnUse" x1="16.429" y1="4.7423" x2="22.1447" y2="4.7423" gradientTransform="matrix(1 0 0 -1 0 14)">
		<stop  offset="0" style="stop-color:#1A1B7D"/>
		<stop  offset="8.870302e-02" style="stop-color:#1C1F80"/>
		<stop  offset="0.1817" style="stop-color:#232C88"/>
		<stop  offset="0.2766" style="stop-color:#2E4195"/>
		<stop  offset="0.3729" style="stop-color:#3E5EA7"/>
		<stop  offset="0.4694" style="stop-color:#5184BF"/>
		<stop  offset="0.4888" style="stop-color:#568CC4"/>
		<stop  offset="0.6091" style="stop-color:#3A5C9B"/>
		<stop  offset="0.7283" style="stop-color:#223479"/>
		<stop  offset="0.8368" style="stop-color:#111860"/>
		<stop  offset="0.9309" style="stop-color:#070651"/>
		<stop  offset="1" style="stop-color:#03004C"/>
	</linearGradient>
	<path class="st2" d="M20,9c1.5,0.1,2.1,0.8,2.1,1.7c0,1.1-0.8,1.9-2.7,1.9c-0.5,0-1.2,0-1.7,0c-0.4,0-0.8,0-1.2,0
		c0,0-0.1,0-0.1-0.1c0-0.1,0-0.1,0.1-0.1c0.5,0,0.6-0.1,0.7-0.2c0.1-0.1,0.1-0.2,0.1-1.2V7.6c0-1,0-1.1-0.1-1.2
		c-0.1-0.1-0.2-0.2-0.8-0.2c-0.1,0-0.1,0-0.1-0.1s0-0.1,0.1-0.1c0.4,0,0.8,0,1.2,0c0.5,0,1.1,0,1.6,0c1.8,0,2.4,0.6,2.4,1.6
		C21.7,8.2,21.2,8.7,20,9L20,9z M18.2,8.9c0.1,0,0.4,0,0.5,0c1.6,0,2.1-0.6,2.1-1.5s-0.5-1.3-1.7-1.3c-0.6,0-0.8,0.1-0.8,0.2
		c-0.1,0.1-0.1,0.2-0.1,1.2v1.3H18.2z M18.2,11c0,0.8,0,1,0.1,1.2c0.1,0.1,0.4,0.2,1.1,0.2c1.2,0,1.8-0.6,1.8-1.6s-0.7-1.6-2.4-1.6
		c-0.2,0-0.4,0-0.7,0V11H18.2z"/>
	
		<linearGradient id="SVGID_4_" gradientUnits="userSpaceOnUse" x1="25.8482" y1="4.7423" x2="32.0581" y2="4.7423" gradientTransform="matrix(1 0 0 -1 0 14)">
		<stop  offset="0" style="stop-color:#1A1B7D"/>
		<stop  offset="8.870302e-02" style="stop-color:#1C1F80"/>
		<stop  offset="0.1817" style="stop-color:#232C88"/>
		<stop  offset="0.2766" style="stop-color:#2E4195"/>
		<stop  offset="0.3729" style="stop-color:#3E5EA7"/>
		<stop  offset="0.4694" style="stop-color:#5184BF"/>
		<stop  offset="0.4888" style="stop-color:#568CC4"/>
		<stop  offset="0.6091" style="stop-color:#3A5C9B"/>
		<stop  offset="0.7283" style="stop-color:#223479"/>
		<stop  offset="0.8368" style="stop-color:#111860"/>
		<stop  offset="0.9309" style="stop-color:#070651"/>
		<stop  offset="1" style="stop-color:#03004C"/>
	</linearGradient>
	<path class="st3" d="M31.7,7.4c0,0,0,0.1-0.1,0.1c0,0-0.1,0-0.1-0.1c-0.2-0.5-0.5-0.8-0.8-1.1C30.2,6.1,29.7,6,29.2,6
		c-1.5,0-2.5,1.3-2.5,3.3c0,1.7,1.1,3,2.5,3c1.1,0,1.8-0.5,2.4-1.3c0,0,0,0,0.1,0c0.1,0,0.2,0.1,0.2,0.1s0,0,0,0.1
		c-0.6,1.1-1.5,1.7-2.8,1.7c-2.1,0-3.4-1.5-3.4-3.6c0-2.1,1.5-3.6,3.5-3.6c0.5,0,0.8,0,1.1,0.1c0.2,0.1,0.5,0.1,0.7,0.1
		c0.1,0,0.2,0,0.4,0C31.5,6.3,31.7,7,31.7,7.4L31.7,7.4z"/>
	
		<linearGradient id="SVGID_5_" gradientUnits="userSpaceOnUse" x1="32.6826" y1="4.8029" x2="39.0753" y2="4.8029" gradientTransform="matrix(1 0 0 -1 0 14)">
		<stop  offset="0" style="stop-color:#1A1B7D"/>
		<stop  offset="8.870302e-02" style="stop-color:#1C1F80"/>
		<stop  offset="0.1817" style="stop-color:#232C88"/>
		<stop  offset="0.2766" style="stop-color:#2E4195"/>
		<stop  offset="0.3729" style="stop-color:#3E5EA7"/>
		<stop  offset="0.4694" style="stop-color:#5184BF"/>
		<stop  offset="0.4888" style="stop-color:#568CC4"/>
		<stop  offset="0.6091" style="stop-color:#3A5C9B"/>
		<stop  offset="0.7283" style="stop-color:#223479"/>
		<stop  offset="0.8368" style="stop-color:#111860"/>
		<stop  offset="0.9309" style="stop-color:#070651"/>
		<stop  offset="1" style="stop-color:#03004C"/>
	</linearGradient>
	<path class="st4" d="M34.5,11c0,1,0,1.1,0.1,1.2c0.1,0.1,0.2,0.2,0.7,0.2c0.1,0,0.1,0,0.1,0.1s0,0.1-0.1,0.1c-0.4,0-0.8,0-1.2,0
		c-0.4,0-0.8,0-1.2,0c-0.1,0-0.1,0-0.1-0.1s0-0.1,0.1-0.1c0.5,0,0.6-0.1,0.7-0.2s0.1-0.4,0.1-1.2V7.3c0-0.8,0-1-0.1-1.1
		C33.5,6.1,33.4,6,32.8,6c-0.1,0-0.1,0-0.1-0.1c0-0.1,0-0.1,0.1-0.1c0.4,0,0.8,0,1.2,0c0.4,0,1,0,1.6,0c1.6,0,2.4,0.7,2.4,1.7
		c0,0.7-0.5,1.5-1.6,1.7c0.4,0.7,0.7,1.5,1.3,2.3c0.2,0.5,0.4,0.6,0.6,0.7c0.1,0,0.2,0.1,0.6,0.1c0.1,0,0.1,0,0.1,0.1
		c0,0.1,0,0.1-0.1,0.1c-0.4,0-0.6,0-0.8,0c-0.2,0-0.4,0-0.6,0c-0.1-0.2-0.2-0.5-0.4-0.7c-0.5-0.8-1-1.7-1.5-2.5c-0.1,0-0.4,0-0.5,0
		c-0.2,0-0.5,0-0.7,0C34.5,9.3,34.5,11,34.5,11z M34.5,9c0.2,0,0.5,0,0.7,0c1.3,0,1.9-0.6,1.9-1.5c0-1-0.6-1.5-1.7-1.5
		c-0.5,0-0.7,0-0.8,0.2c0,0-0.1,0.2-0.1,1.1V9z"/>
	
		<linearGradient id="SVGID_6_" gradientUnits="userSpaceOnUse" x1="39.3603" y1="4.7423" x2="44.9022" y2="4.7423" gradientTransform="matrix(1 0 0 -1 0 14)">
		<stop  offset="0" style="stop-color:#1A1B7D"/>
		<stop  offset="8.870302e-02" style="stop-color:#1C1F80"/>
		<stop  offset="0.1817" style="stop-color:#232C88"/>
		<stop  offset="0.2766" style="stop-color:#2E4195"/>
		<stop  offset="0.3729" style="stop-color:#3E5EA7"/>
		<stop  offset="0.4694" style="stop-color:#5184BF"/>
		<stop  offset="0.4888" style="stop-color:#568CC4"/>
		<stop  offset="0.6091" style="stop-color:#3A5C9B"/>
		<stop  offset="0.7283" style="stop-color:#223479"/>
		<stop  offset="0.8368" style="stop-color:#111860"/>
		<stop  offset="0.9309" style="stop-color:#070651"/>
		<stop  offset="1" style="stop-color:#03004C"/>
	</linearGradient>
	<path class="st5" d="M44.9,11.1c-0.1,0.5-0.4,1.1-0.5,1.6c-0.8,0-1.6,0-2.4,0s-1.7,0-2.5,0c0,0-0.1,0-0.1-0.1c0-0.1,0-0.1,0.1-0.1
		c0.5,0,0.6-0.1,0.7-0.2s0.1-0.4,0.1-1.2V7.6c0-1,0-1.1-0.1-1.2s-0.2-0.2-0.7-0.2c-0.1,0-0.1,0-0.1-0.1s0-0.1,0.1-0.1
		c0.7,0,1.7,0,2.4,0s1.6,0,2.3,0c0,0.5,0.1,1.1,0.1,1.6l0,0c0,0,0,0.1-0.1,0.1c0,0,0,0-0.1,0c-0.1-0.4-0.4-0.7-0.6-1
		c-0.2-0.2-0.6-0.2-1.5-0.2c-0.6,0-0.7,0.1-0.8,0.2C41,6.7,41,6.8,41,7.4v1.5c0.1,0,0.4,0,0.6,0c0.8,0,1.1-0.1,1.3-0.2
		s0.2-0.4,0.2-0.6c0-0.1,0-0.1,0.1-0.1s0.1,0,0.1,0.1c0,0.4,0,0.6,0,1c0,0.4,0,0.7,0,1.1c0,0.1,0,0.1-0.1,0.1s-0.1,0-0.1-0.1
		c0-0.4-0.1-0.6-0.4-0.7c-0.1-0.1-0.6-0.2-1.2-0.2c-0.2,0-0.5,0-0.6,0v1.7c0,0.8,0,1,0.1,1.2c0.1,0.2,0.4,0.2,1,0.2
		c0.8,0,1.3-0.1,1.7-0.4c0.2-0.2,0.5-0.5,0.7-1c0,0,0-0.1,0.1-0.1C44.9,11,44.9,11,44.9,11.1L44.9,11.1z"/>
	
		<linearGradient id="SVGID_7_" gradientUnits="userSpaceOnUse" x1="45.1957" y1="4.8635" x2="52.045" y2="4.8635" gradientTransform="matrix(1 0 0 -1 0 14)">
		<stop  offset="0" style="stop-color:#1A1B7D"/>
		<stop  offset="8.870302e-02" style="stop-color:#1C1F80"/>
		<stop  offset="0.1817" style="stop-color:#232C88"/>
		<stop  offset="0.2766" style="stop-color:#2E4195"/>
		<stop  offset="0.3729" style="stop-color:#3E5EA7"/>
		<stop  offset="0.4694" style="stop-color:#5184BF"/>
		<stop  offset="0.4888" style="stop-color:#568CC4"/>
		<stop  offset="0.6091" style="stop-color:#3A5C9B"/>
		<stop  offset="0.7283" style="stop-color:#223479"/>
		<stop  offset="0.8368" style="stop-color:#111860"/>
		<stop  offset="0.9309" style="stop-color:#070651"/>
		<stop  offset="1" style="stop-color:#03004C"/>
	</linearGradient>
	<path class="st6" d="M49.6,10c-0.4,0-0.7,0-1.1,0s-0.7,0-1.2,0l-0.4,1.1c-0.2,0.4-0.4,0.6-0.4,0.8c0,0.2,0.1,0.4,0.8,0.5
		c0.1,0,0.1,0,0.1,0.1c0,0.1,0,0.1-0.1,0.1c-0.4,0-0.8,0-1.2,0c-0.4,0-0.7,0-1,0c-0.1,0-0.1,0-0.1-0.1c0-0.1,0-0.1,0.1-0.1
		c0.2,0,0.5-0.1,0.6-0.2c0.1-0.1,0.4-0.5,0.6-1.2l1.1-3c0.5-1.3,0.6-1.6,0.7-2.1l0.6-0.2c0,0,0.1,0,0.1,0.1C49.2,6.3,49.4,7,49.7,8
		l1.1,3c0.2,0.7,0.4,1,0.5,1.1c0.1,0.1,0.2,0.2,0.7,0.2c0.1,0,0.1,0,0.1,0.1c0,0.1,0,0.1-0.1,0.1c-0.4,0-0.8,0-1.2,0
		c-0.4,0-0.8,0-1.2,0c-0.1,0-0.1,0-0.1-0.1c0-0.1,0-0.1,0.1-0.1c0.6,0,0.7-0.1,0.7-0.4c0-0.1,0-0.2-0.2-0.8L49.6,10z M48.9,8
		c-0.2-0.6-0.4-1-0.5-1.3c-0.1,0.4-0.2,0.7-0.5,1.3l-0.6,1.6c0.4,0,0.7,0,1.1,0c0.4,0,0.7,0,1,0L48.9,8z"/>
	
		<linearGradient id="SVGID_8_" gradientUnits="userSpaceOnUse" x1="51.8967" y1="4.7423" x2="58.2515" y2="4.7423" gradientTransform="matrix(1 0 0 -1 0 14)">
		<stop  offset="0" style="stop-color:#1A1B7D"/>
		<stop  offset="8.870302e-02" style="stop-color:#1C1F80"/>
		<stop  offset="0.1817" style="stop-color:#232C88"/>
		<stop  offset="0.2766" style="stop-color:#2E4195"/>
		<stop  offset="0.3729" style="stop-color:#3E5EA7"/>
		<stop  offset="0.4694" style="stop-color:#5184BF"/>
		<stop  offset="0.4888" style="stop-color:#568CC4"/>
		<stop  offset="0.6091" style="stop-color:#3A5C9B"/>
		<stop  offset="0.7283" style="stop-color:#223479"/>
		<stop  offset="0.8368" style="stop-color:#111860"/>
		<stop  offset="0.9309" style="stop-color:#070651"/>
		<stop  offset="1" style="stop-color:#03004C"/>
	</linearGradient>
	<path class="st7" d="M51.9,7.3C52,6.8,52,6.2,52,5.7c1.1,0,2.1,0,3,0c1,0,1.9,0,3,0c0,0.5,0.1,1.1,0.1,1.6l0,0l-0.1,0.1
		c0,0,0,0-0.1,0c-0.2-0.5-0.4-0.8-0.6-1c-0.2-0.2-0.6-0.2-1.2-0.2c-0.5,0-0.6,0-0.6,0.2c-0.1,0.1-0.1,0.2-0.1,1.2v3.5
		c0,0.8,0,1,0.1,1.1c0.1,0.1,0.2,0.2,0.8,0.2c0.1,0,0.1,0,0.1,0.1c0,0.1,0,0.1-0.1,0.1c-0.4,0-1,0-1.3,0c-0.4,0-0.8,0-1.2,0
		c-0.1,0-0.1,0-0.1-0.1c0-0.1,0-0.1,0.1-0.1c0.5,0,0.6-0.1,0.7-0.2c0.1-0.1,0.1-0.4,0.1-1.2V7.3c0-0.7,0-0.8-0.1-1S54.3,6.2,54,6.2
		c-0.6,0-0.8,0.1-1.1,0.2c-0.2,0.2-0.5,0.5-0.6,1c0,0,0,0-0.1,0S51.9,7.4,51.9,7.3L51.9,7.3z"/>
	
		<linearGradient id="SVGID_9_" gradientUnits="userSpaceOnUse" x1="58.9771" y1="4.7423" x2="64.519" y2="4.7423" gradientTransform="matrix(1 0 0 -1 0 14)">
		<stop  offset="0" style="stop-color:#1A1B7D"/>
		<stop  offset="8.870302e-02" style="stop-color:#1C1F80"/>
		<stop  offset="0.1817" style="stop-color:#232C88"/>
		<stop  offset="0.2766" style="stop-color:#2E4195"/>
		<stop  offset="0.3729" style="stop-color:#3E5EA7"/>
		<stop  offset="0.4694" style="stop-color:#5184BF"/>
		<stop  offset="0.4888" style="stop-color:#568CC4"/>
		<stop  offset="0.6091" style="stop-color:#3A5C9B"/>
		<stop  offset="0.7283" style="stop-color:#223479"/>
		<stop  offset="0.8368" style="stop-color:#111860"/>
		<stop  offset="0.9309" style="stop-color:#070651"/>
		<stop  offset="1" style="stop-color:#03004C"/>
	</linearGradient>
	<path class="st8" d="M64.5,11.1c-0.1,0.5-0.4,1.1-0.5,1.6c-0.8,0-1.6,0-2.4,0c-0.8,0-1.7,0-2.5,0c0,0-0.1,0-0.1-0.1
		c0-0.1,0-0.1,0.1-0.1c0.5,0,0.6-0.1,0.7-0.2c0.1-0.1,0.1-0.4,0.1-1.2V7.6c0-1,0-1.1-0.1-1.2S59.5,6.1,59,6.1c-0.1,0-0.1,0-0.1-0.1
		s0-0.1,0.1-0.1c0.7,0,1.7,0,2.4,0c0.7,0,1.6,0,2.3,0c0,0.5,0.1,1.1,0.1,1.6l0,0c0,0,0,0.1-0.1,0.1c0,0,0,0-0.1,0
		c-0.1-0.4-0.4-0.7-0.6-1c-0.2-0.2-0.6-0.2-1.5-0.2c-0.6,0-0.7,0.1-0.8,0.2c-0.1,0.1-0.1,0.2-0.1,0.8v1.5c0.1,0,0.4,0,0.6,0
		c0.8,0,1.1-0.1,1.3-0.2c0.2-0.1,0.2-0.4,0.2-0.6c0-0.1,0-0.1,0.1-0.1C63,7.9,63,7.9,63,8c0,0.4,0,0.6,0,1c0,0.4,0,0.7,0,1.1
		c0,0.1,0,0.1-0.1,0.1c-0.1,0-0.1,0-0.1-0.1c0-0.4-0.1-0.6-0.4-0.7c-0.1-0.1-0.6-0.2-1.2-0.2c-0.2,0-0.5,0-0.6,0v1.7
		c0,0.8,0,1,0.1,1.2c0.1,0.2,0.4,0.2,1,0.2c0.8,0,1.3-0.1,1.7-0.4c0.2-0.2,0.5-0.5,0.7-1c0,0,0-0.1,0.1-0.1
		C64.4,11,64.5,11,64.5,11.1L64.5,11.1z"/>
</g>
</svg>
