<?xml version="1.0" encoding="utf-8"?>
<!-- Generator: Adobe Illustrator 25.0.1, SVG Export Plug-In . SVG Version: 6.00 Build 0)  -->
<svg version="1.1" id="レイヤー_1" xmlns="http://www.w3.org/2000/svg" xmlns:xlink="http://www.w3.org/1999/xlink" x="0px"
	 y="0px" viewBox="0 0 85 13" style="enable-background:new 0 0 85 13;" xml:space="preserve">
<style type="text/css">
	.st0{fill:url(#SVGID_1_);}
	.st1{fill:url(#SVGID_2_);}
	.st2{fill:url(#SVGID_3_);}
	.st3{fill:url(#SVGID_4_);}
	.st4{fill:url(#SVGID_5_);}
	.st5{fill:url(#SVGID_6_);}
	.st6{fill:url(#SVGID_7_);}
	.st7{fill:url(#SVGID_8_);}
	.st8{fill:url(#SVGID_9_);}
</style>
<g>
	<linearGradient id="SVGID_1_" gradientUnits="userSpaceOnUse" x1="17.83" y1="3.3379" x2="25.6899" y2="3.3379">
		<stop  offset="0" style="stop-color:#1A1B7D"/>
		<stop  offset="8.870302e-02" style="stop-color:#1C1F80"/>
		<stop  offset="0.1817" style="stop-color:#232C88"/>
		<stop  offset="0.2766" style="stop-color:#2E4195"/>
		<stop  offset="0.3729" style="stop-color:#3E5EA7"/>
		<stop  offset="0.4694" style="stop-color:#5184BF"/>
		<stop  offset="0.4888" style="stop-color:#568CC4"/>
		<stop  offset="0.6091" style="stop-color:#3A5C9B"/>
		<stop  offset="0.7283" style="stop-color:#223479"/>
		<stop  offset="0.8368" style="stop-color:#111860"/>
		<stop  offset="0.9309" style="stop-color:#070651"/>
		<stop  offset="1" style="stop-color:#03004C"/>
	</linearGradient>
	<path class="st0" d="M23.2,4.3c0.1,0.4,0.2,0.7,0.3,0.9c0.1-0.2,0.1-0.4,0.2-0.9l0.7-2.4c0.1-0.4,0.1-0.6,0.1-0.8
		c0-0.3-0.1-0.4-0.6-0.4c-0.1,0-0.1,0-0.1-0.1c0-0.1,0-0.1,0.1-0.1c0.3,0,0.7,0,1,0s0.5,0,0.8,0c0.1,0,0.1,0,0.1,0.1
		c0,0.1,0,0.1-0.1,0.1c-0.3,0-0.4,0.1-0.5,0.2C25,1,25,1,24.7,1.9l-0.8,2.8c-0.2,0.8-0.3,1-0.4,1.4c-0.3,0.1-0.3,0.1-0.3,0.1
		c0,0,0,0-0.1-0.1c-0.1-0.4-0.2-0.9-0.4-1.5l-0.6-2c-0.1-0.3-0.1-0.5-0.2-0.7c-0.1,0.2-0.1,0.4-0.2,0.7l-0.7,2.1
		c-0.2,0.8-0.3,1-0.4,1.4c-0.3,0.1-0.3,0.1-0.3,0.1s0,0-0.1,0c-0.1-0.5-0.2-0.9-0.4-1.5l-0.8-2.8c-0.2-0.7-0.3-0.9-0.4-1
		c-0.1-0.1-0.2-0.2-0.6-0.2c-0.1,0-0.1,0-0.1-0.1c0-0.1,0-0.1,0.1-0.1c0.3,0,0.6,0,1,0c0.3,0,0.8,0,1.1,0c0,0,0.1,0,0.1,0.1
		c0,0.1,0,0.1-0.1,0.1c-0.6,0-0.6,0.1-0.6,0.4c0,0.2,0,0.4,0.2,0.9l0.7,2.4c0.1,0.4,0.2,0.7,0.2,0.9c0.1-0.2,0.2-0.4,0.3-0.9
		l0.6-1.8c0.2-0.5,0.2-0.7,0.3-1c-0.1-0.4-0.2-0.5-0.3-0.6c-0.1-0.1-0.3-0.2-0.6-0.2c-0.1,0-0.1,0-0.1-0.1c0-0.1,0-0.1,0.1-0.1
		c0.3,0,0.7,0,1,0c0.3,0,0.6,0,0.9,0c0.1,0,0.1,0,0.1,0.1c0,0.1,0,0.1-0.1,0.1c-0.4,0-0.5,0.1-0.5,0.4c0,0.1,0,0.3,0.2,0.8L23.2,4.3
		z"/>
	<linearGradient id="SVGID_2_" gradientUnits="userSpaceOnUse" x1="26.0058" y1="3.27" x2="30.5791" y2="3.27">
		<stop  offset="0" style="stop-color:#1A1B7D"/>
		<stop  offset="8.870302e-02" style="stop-color:#1C1F80"/>
		<stop  offset="0.1817" style="stop-color:#232C88"/>
		<stop  offset="0.2766" style="stop-color:#2E4195"/>
		<stop  offset="0.3729" style="stop-color:#3E5EA7"/>
		<stop  offset="0.4694" style="stop-color:#5184BF"/>
		<stop  offset="0.4888" style="stop-color:#568CC4"/>
		<stop  offset="0.6091" style="stop-color:#3A5C9B"/>
		<stop  offset="0.7283" style="stop-color:#223479"/>
		<stop  offset="0.8368" style="stop-color:#111860"/>
		<stop  offset="0.9309" style="stop-color:#070651"/>
		<stop  offset="1" style="stop-color:#03004C"/>
	</linearGradient>
	<path class="st1" d="M30.6,4.8c-0.1,0.4-0.3,0.9-0.4,1.3c-0.7,0-1.3,0-2,0c-0.7,0-1.4,0-2.1,0c0,0-0.1,0-0.1-0.1s0-0.1,0.1-0.1
		c0.4,0,0.5-0.1,0.6-0.2c0.1-0.1,0.1-0.3,0.1-1V1.9c0-0.8,0-0.9-0.1-1c-0.1-0.1-0.2-0.2-0.6-0.2c-0.1,0-0.1,0-0.1-0.1
		c0-0.1,0-0.1,0.1-0.1c0.6,0,1.4,0,2,0s1.3,0,1.9,0c0,0.4,0.1,0.9,0.1,1.3v0c0,0,0,0.1-0.1,0.1c0,0,0,0-0.1,0
		c-0.1-0.3-0.3-0.6-0.5-0.8S29,0.7,28.2,0.7c-0.5,0-0.6,0.1-0.7,0.2c-0.1,0.1-0.1,0.2-0.1,0.7V3c0.1,0,0.3,0,0.5,0
		c0.7,0,0.9-0.1,1.1-0.2c0.2-0.1,0.2-0.3,0.2-0.5c0-0.1,0-0.1,0.1-0.1c0.1,0,0.1,0,0.1,0.1c0,0.3,0,0.5,0,0.8c0,0.3,0,0.6,0,0.9
		c0,0.1,0,0.1-0.1,0.1c-0.1,0-0.1,0-0.1-0.1c0-0.3-0.1-0.5-0.3-0.6c-0.1-0.1-0.5-0.2-1-0.2c-0.2,0-0.4,0-0.5,0v1.4
		c0,0.7,0,0.8,0.1,1c0.1,0.2,0.3,0.2,0.8,0.2c0.7,0,1.1-0.1,1.4-0.3c0.2-0.2,0.4-0.4,0.6-0.8c0,0,0-0.1,0.1-0.1
		C30.5,4.7,30.6,4.7,30.6,4.8L30.6,4.8z"/>
	<linearGradient id="SVGID_3_" gradientUnits="userSpaceOnUse" x1="31.1255" y1="3.27" x2="35.8432" y2="3.27">
		<stop  offset="0" style="stop-color:#1A1B7D"/>
		<stop  offset="8.870302e-02" style="stop-color:#1C1F80"/>
		<stop  offset="0.1817" style="stop-color:#232C88"/>
		<stop  offset="0.2766" style="stop-color:#2E4195"/>
		<stop  offset="0.3729" style="stop-color:#3E5EA7"/>
		<stop  offset="0.4694" style="stop-color:#5184BF"/>
		<stop  offset="0.4888" style="stop-color:#568CC4"/>
		<stop  offset="0.6091" style="stop-color:#3A5C9B"/>
		<stop  offset="0.7283" style="stop-color:#223479"/>
		<stop  offset="0.8368" style="stop-color:#111860"/>
		<stop  offset="0.9309" style="stop-color:#070651"/>
		<stop  offset="1" style="stop-color:#03004C"/>
	</linearGradient>
	<path class="st2" d="M34.1,3.1c1.2,0.1,1.7,0.7,1.7,1.4c0,0.9-0.7,1.6-2.2,1.6c-0.4,0-1,0-1.4,0c-0.3,0-0.7,0-1,0
		c0,0-0.1,0-0.1-0.1c0-0.1,0-0.1,0.1-0.1c0.4,0,0.5-0.1,0.6-0.2s0.1-0.2,0.1-1V1.9c0-0.8,0-0.9-0.1-1c-0.1-0.1-0.2-0.2-0.7-0.2
		c-0.1,0-0.1,0-0.1-0.1c0-0.1,0-0.1,0.1-0.1c0.3,0,0.7,0,1,0c0.4,0,0.9,0,1.3,0c1.5,0,2,0.5,2,1.3C35.5,2.4,35.1,2.8,34.1,3.1
		L34.1,3.1z M32.6,3c0.1,0,0.3,0,0.4,0c1.3,0,1.7-0.5,1.7-1.2c0-0.7-0.4-1.1-1.4-1.1c-0.5,0-0.7,0.1-0.7,0.2c-0.1,0.1-0.1,0.2-0.1,1
		V3z M32.6,4.7c0,0.7,0,0.8,0.1,1c0.1,0.1,0.3,0.2,0.9,0.2c1,0,1.5-0.5,1.5-1.3c0-0.8-0.6-1.3-2-1.3c-0.2,0-0.3,0-0.6,0V4.7z"/>
	<linearGradient id="SVGID_4_" gradientUnits="userSpaceOnUse" x1="38.9008" y1="3.2739" x2="44.0263" y2="3.2739">
		<stop  offset="0" style="stop-color:#1A1B7D"/>
		<stop  offset="8.870302e-02" style="stop-color:#1C1F80"/>
		<stop  offset="0.1817" style="stop-color:#232C88"/>
		<stop  offset="0.2766" style="stop-color:#2E4195"/>
		<stop  offset="0.3729" style="stop-color:#3E5EA7"/>
		<stop  offset="0.4694" style="stop-color:#5184BF"/>
		<stop  offset="0.4888" style="stop-color:#568CC4"/>
		<stop  offset="0.6091" style="stop-color:#3A5C9B"/>
		<stop  offset="0.7283" style="stop-color:#223479"/>
		<stop  offset="0.8368" style="stop-color:#111860"/>
		<stop  offset="0.9309" style="stop-color:#070651"/>
		<stop  offset="1" style="stop-color:#03004C"/>
	</linearGradient>
	<path class="st3" d="M43.7,1.8c0,0,0,0.1-0.1,0.1c0,0-0.1,0-0.1-0.1c-0.2-0.4-0.4-0.7-0.7-0.9c-0.3-0.2-0.7-0.3-1.1-0.3
		c-1.2,0-2.1,1.1-2.1,2.7c0,1.4,0.9,2.5,2.1,2.5c0.9,0,1.5-0.4,2-1.1c0,0,0,0,0.1,0c0.1,0,0.2,0.1,0.2,0.1c0,0,0,0,0,0.1
		c-0.5,0.9-1.2,1.4-2.3,1.4c-1.7,0-2.8-1.2-2.8-3c0-1.7,1.2-3,2.9-3c0.4,0,0.7,0,0.9,0.1c0.2,0.1,0.4,0.1,0.6,0.1c0.1,0,0.2,0,0.3,0
		C43.6,0.9,43.7,1.4,43.7,1.8L43.7,1.8z"/>
	<linearGradient id="SVGID_5_" gradientUnits="userSpaceOnUse" x1="44.541" y1="3.2659" x2="49.8174" y2="3.2659">
		<stop  offset="0" style="stop-color:#1A1B7D"/>
		<stop  offset="8.870302e-02" style="stop-color:#1C1F80"/>
		<stop  offset="0.1817" style="stop-color:#232C88"/>
		<stop  offset="0.2766" style="stop-color:#2E4195"/>
		<stop  offset="0.3729" style="stop-color:#3E5EA7"/>
		<stop  offset="0.4694" style="stop-color:#5184BF"/>
		<stop  offset="0.4888" style="stop-color:#568CC4"/>
		<stop  offset="0.6091" style="stop-color:#3A5C9B"/>
		<stop  offset="0.7283" style="stop-color:#223479"/>
		<stop  offset="0.8368" style="stop-color:#111860"/>
		<stop  offset="0.9309" style="stop-color:#070651"/>
		<stop  offset="1" style="stop-color:#03004C"/>
	</linearGradient>
	<path class="st4" d="M46,4.7c0,0.8,0,0.9,0.1,1c0.1,0.1,0.2,0.2,0.6,0.2c0.1,0,0.1,0,0.1,0.1c0,0.1,0,0.1-0.1,0.1c-0.3,0-0.7,0-1,0
		c-0.3,0-0.7,0-1,0c-0.1,0-0.1,0-0.1-0.1c0-0.1,0-0.1,0.1-0.1c0.4,0,0.5-0.1,0.6-0.2c0.1-0.1,0.1-0.3,0.1-1V1.7c0-0.7,0-0.8-0.1-0.9
		s-0.2-0.2-0.7-0.2c-0.1,0-0.1,0-0.1-0.1c0-0.1,0-0.1,0.1-0.1c0.3,0,0.7,0,1,0c0.3,0,0.8,0,1.3,0c1.3,0,2,0.6,2,1.4
		c0,0.6-0.4,1.2-1.3,1.4c0.3,0.6,0.6,1.2,1.1,1.9c0.2,0.4,0.3,0.5,0.5,0.6c0.1,0,0.2,0.1,0.5,0.1c0.1,0,0.1,0,0.1,0.1s0,0.1-0.1,0.1
		c-0.3,0-0.5,0-0.7,0c-0.2,0-0.3,0-0.5,0c-0.1-0.2-0.2-0.4-0.3-0.6c-0.4-0.7-0.8-1.4-1.2-2.1c-0.1,0-0.3,0-0.4,0c-0.2,0-0.4,0-0.6,0
		V4.7z M46,3.1c0.2,0,0.4,0,0.6,0c1.1,0,1.6-0.5,1.6-1.2c0-0.8-0.5-1.2-1.4-1.2c-0.4,0-0.6,0-0.7,0.2C46.1,0.9,46,1.1,46,1.8V3.1z"
		/>
	<linearGradient id="SVGID_6_" gradientUnits="userSpaceOnUse" x1="50.0527" y1="3.27" x2="54.6269" y2="3.27">
		<stop  offset="0" style="stop-color:#1A1B7D"/>
		<stop  offset="8.870302e-02" style="stop-color:#1C1F80"/>
		<stop  offset="0.1817" style="stop-color:#232C88"/>
		<stop  offset="0.2766" style="stop-color:#2E4195"/>
		<stop  offset="0.3729" style="stop-color:#3E5EA7"/>
		<stop  offset="0.4694" style="stop-color:#5184BF"/>
		<stop  offset="0.4888" style="stop-color:#568CC4"/>
		<stop  offset="0.6091" style="stop-color:#3A5C9B"/>
		<stop  offset="0.7283" style="stop-color:#223479"/>
		<stop  offset="0.8368" style="stop-color:#111860"/>
		<stop  offset="0.9309" style="stop-color:#070651"/>
		<stop  offset="1" style="stop-color:#03004C"/>
	</linearGradient>
	<path class="st5" d="M54.6,4.8c-0.1,0.4-0.3,0.9-0.4,1.3c-0.7,0-1.3,0-2,0c-0.7,0-1.4,0-2.1,0c0,0-0.1,0-0.1-0.1s0-0.1,0.1-0.1
		c0.4,0,0.5-0.1,0.6-0.2c0.1-0.1,0.1-0.3,0.1-1V1.9c0-0.8,0-0.9-0.1-1c-0.1-0.1-0.2-0.2-0.6-0.2c-0.1,0-0.1,0-0.1-0.1
		c0-0.1,0-0.1,0.1-0.1c0.6,0,1.4,0,2,0s1.3,0,1.9,0c0,0.4,0.1,0.9,0.1,1.3v0c0,0,0,0.1-0.1,0.1c0,0,0,0-0.1,0
		c-0.1-0.3-0.3-0.6-0.5-0.8c-0.2-0.2-0.5-0.2-1.2-0.2c-0.5,0-0.6,0.1-0.7,0.2c-0.1,0.1-0.1,0.2-0.1,0.7V3c0.1,0,0.3,0,0.5,0
		c0.7,0,0.9-0.1,1.1-0.2c0.2-0.1,0.2-0.3,0.2-0.5c0-0.1,0-0.1,0.1-0.1c0.1,0,0.1,0,0.1,0.1c0,0.3,0,0.5,0,0.8c0,0.3,0,0.6,0,0.9
		c0,0.1,0,0.1-0.1,0.1c-0.1,0-0.1,0-0.1-0.1c0-0.3-0.1-0.5-0.3-0.6c-0.1-0.1-0.5-0.2-1-0.2c-0.2,0-0.4,0-0.5,0v1.4
		c0,0.7,0,0.8,0.1,1c0.1,0.2,0.3,0.2,0.8,0.2c0.7,0,1.1-0.1,1.4-0.3c0.2-0.2,0.4-0.4,0.6-0.8c0,0,0-0.1,0.1-0.1
		C54.6,4.7,54.6,4.7,54.6,4.8L54.6,4.8z"/>
	<linearGradient id="SVGID_7_" gradientUnits="userSpaceOnUse" x1="54.8691" y1="3.2139" x2="60.5224" y2="3.2139">
		<stop  offset="0" style="stop-color:#1A1B7D"/>
		<stop  offset="8.870302e-02" style="stop-color:#1C1F80"/>
		<stop  offset="0.1817" style="stop-color:#232C88"/>
		<stop  offset="0.2766" style="stop-color:#2E4195"/>
		<stop  offset="0.3729" style="stop-color:#3E5EA7"/>
		<stop  offset="0.4694" style="stop-color:#5184BF"/>
		<stop  offset="0.4888" style="stop-color:#568CC4"/>
		<stop  offset="0.6091" style="stop-color:#3A5C9B"/>
		<stop  offset="0.7283" style="stop-color:#223479"/>
		<stop  offset="0.8368" style="stop-color:#111860"/>
		<stop  offset="0.9309" style="stop-color:#070651"/>
		<stop  offset="1" style="stop-color:#03004C"/>
	</linearGradient>
	<path class="st6" d="M58.5,3.9c-0.3,0-0.6,0-0.9,0c-0.3,0-0.6,0-1,0l-0.3,0.9C56.1,5.1,56,5.3,56,5.5c0,0.2,0.1,0.3,0.7,0.4
		c0.1,0,0.1,0,0.1,0.1c0,0.1,0,0.1-0.1,0.1c-0.3,0-0.7,0-1,0c-0.3,0-0.6,0-0.8,0c-0.1,0-0.1,0-0.1-0.1c0-0.1,0-0.1,0.1-0.1
		c0.2,0,0.4-0.1,0.5-0.2c0.1-0.1,0.3-0.4,0.5-1l0.9-2.5c0.4-1.1,0.5-1.3,0.6-1.7l0.5-0.2c0,0,0.1,0,0.1,0.1c0.2,0.5,0.3,1,0.6,1.9
		l0.9,2.5c0.2,0.6,0.3,0.8,0.4,0.9c0.1,0.1,0.2,0.2,0.6,0.2c0.1,0,0.1,0,0.1,0.1c0,0.1,0,0.1-0.1,0.1c-0.3,0-0.7,0-1,0
		c-0.3,0-0.7,0-1,0c-0.1,0-0.1,0-0.1-0.1c0-0.1,0-0.1,0.1-0.1c0.5,0,0.6-0.1,0.6-0.3c0-0.1,0-0.2-0.2-0.7L58.5,3.9z M57.9,2.3
		c-0.2-0.5-0.3-0.8-0.4-1.1c-0.1,0.3-0.2,0.6-0.4,1.1l-0.5,1.3c0.3,0,0.6,0,0.9,0c0.3,0,0.6,0,0.8,0L57.9,2.3z"/>
	<linearGradient id="SVGID_8_" gradientUnits="userSpaceOnUse" x1="60.4052" y1="3.27" x2="65.6504" y2="3.27">
		<stop  offset="0" style="stop-color:#1A1B7D"/>
		<stop  offset="8.870302e-02" style="stop-color:#1C1F80"/>
		<stop  offset="0.1817" style="stop-color:#232C88"/>
		<stop  offset="0.2766" style="stop-color:#2E4195"/>
		<stop  offset="0.3729" style="stop-color:#3E5EA7"/>
		<stop  offset="0.4694" style="stop-color:#5184BF"/>
		<stop  offset="0.4888" style="stop-color:#568CC4"/>
		<stop  offset="0.6091" style="stop-color:#3A5C9B"/>
		<stop  offset="0.7283" style="stop-color:#223479"/>
		<stop  offset="0.8368" style="stop-color:#111860"/>
		<stop  offset="0.9309" style="stop-color:#070651"/>
		<stop  offset="1" style="stop-color:#03004C"/>
	</linearGradient>
	<path class="st7" d="M60.4,1.7c0.1-0.4,0.1-0.9,0.1-1.3c0.9,0,1.7,0,2.5,0c0.8,0,1.6,0,2.5,0c0,0.4,0.1,0.9,0.1,1.3v0
		c0,0-0.1,0.1-0.1,0.1c0,0,0,0-0.1,0c-0.2-0.4-0.3-0.7-0.5-0.8c-0.2-0.2-0.5-0.2-1-0.2c-0.4,0-0.5,0-0.5,0.2c-0.1,0.1-0.1,0.2-0.1,1
		v2.9c0,0.7,0,0.8,0.1,0.9c0.1,0.1,0.2,0.2,0.7,0.2c0.1,0,0.1,0,0.1,0.1c0,0.1,0,0.1-0.1,0.1c-0.3,0-0.8,0-1.1,0c-0.3,0-0.7,0-1,0
		c-0.1,0-0.1,0-0.1-0.1c0-0.1,0-0.1,0.1-0.1c0.4,0,0.5-0.1,0.6-0.2c0.1-0.1,0.1-0.3,0.1-1V1.7c0-0.6,0-0.7-0.1-0.8
		c-0.1-0.1-0.2-0.1-0.5-0.1c-0.5,0-0.7,0.1-0.9,0.2c-0.2,0.2-0.4,0.4-0.5,0.8c0,0,0,0-0.1,0C60.5,1.8,60.4,1.8,60.4,1.7L60.4,1.7z"
		/>
	<linearGradient id="SVGID_9_" gradientUnits="userSpaceOnUse" x1="66.2441" y1="3.27" x2="70.8183" y2="3.27">
		<stop  offset="0" style="stop-color:#1A1B7D"/>
		<stop  offset="8.870302e-02" style="stop-color:#1C1F80"/>
		<stop  offset="0.1817" style="stop-color:#232C88"/>
		<stop  offset="0.2766" style="stop-color:#2E4195"/>
		<stop  offset="0.3729" style="stop-color:#3E5EA7"/>
		<stop  offset="0.4694" style="stop-color:#5184BF"/>
		<stop  offset="0.4888" style="stop-color:#568CC4"/>
		<stop  offset="0.6091" style="stop-color:#3A5C9B"/>
		<stop  offset="0.7283" style="stop-color:#223479"/>
		<stop  offset="0.8368" style="stop-color:#111860"/>
		<stop  offset="0.9309" style="stop-color:#070651"/>
		<stop  offset="1" style="stop-color:#03004C"/>
	</linearGradient>
	<path class="st8" d="M70.8,4.8c-0.1,0.4-0.3,0.9-0.4,1.3c-0.7,0-1.3,0-2,0c-0.7,0-1.4,0-2.1,0c0,0-0.1,0-0.1-0.1s0-0.1,0.1-0.1
		c0.4,0,0.5-0.1,0.6-0.2C67,5.6,67,5.4,67,4.7V1.9c0-0.8,0-0.9-0.1-1c-0.1-0.1-0.2-0.2-0.6-0.2c-0.1,0-0.1,0-0.1-0.1
		c0-0.1,0-0.1,0.1-0.1c0.6,0,1.4,0,2,0s1.3,0,1.9,0c0,0.4,0.1,0.9,0.1,1.3v0c0,0,0,0.1-0.1,0.1c0,0,0,0-0.1,0
		c-0.1-0.3-0.3-0.6-0.5-0.8c-0.2-0.2-0.5-0.2-1.2-0.2c-0.5,0-0.6,0.1-0.7,0.2c-0.1,0.1-0.1,0.2-0.1,0.7V3c0.1,0,0.3,0,0.5,0
		c0.7,0,0.9-0.1,1.1-0.2c0.2-0.1,0.2-0.3,0.2-0.5c0-0.1,0-0.1,0.1-0.1c0.1,0,0.1,0,0.1,0.1c0,0.3,0,0.5,0,0.8c0,0.3,0,0.6,0,0.9
		c0,0.1,0,0.1-0.1,0.1c-0.1,0-0.1,0-0.1-0.1c0-0.3-0.1-0.5-0.3-0.6c-0.1-0.1-0.5-0.2-1-0.2c-0.2,0-0.4,0-0.5,0v1.4
		c0,0.7,0,0.8,0.1,1c0.1,0.2,0.3,0.2,0.8,0.2c0.7,0,1.1-0.1,1.4-0.3c0.2-0.2,0.4-0.4,0.6-0.8c0,0,0-0.1,0.1-0.1
		C70.7,4.7,70.8,4.7,70.8,4.8L70.8,4.8z"/>
</g>
</svg>
