<?xml version="1.0" encoding="utf-8"?>
<!-- Generator: Adobe Illustrator 25.0.1, SVG Export Plug-In . SVG Version: 6.00 Build 0)  -->
<svg version="1.1" id="レイヤー_1" xmlns="http://www.w3.org/2000/svg" xmlns:xlink="http://www.w3.org/1999/xlink" x="0px"
	 y="0px" viewBox="0 0 61 59" style="enable-background:new 0 0 61 59;" xml:space="preserve">
<style type="text/css">
	.st0{fill:#E8E8E8;}
	.st1{fill:#BAC2C7;}
</style>
<g>
	<path class="st0" d="M64.3-42.5c-0.2-0.3-0.4-0.5-0.7-0.7c0-0.4,0-0.9-0.1-1.5c0.1-0.7,0.3-4.8-2.2-6.6c-1.5-1.1-3.2-1.7-4.9-1.7
		c-1.4,0-2.7,0.4-3.7,1.1c-0.9,0.6-1.4,1.3-1.7,1.8c-0.8,0-2.4,0.3-3.1,2.4c-0.7,1.9-0.1,3.1,0.3,3.7c0,0.3,0,0.6,0,0.8
		c-0.2,0.1-0.5,0.3-0.7,0.7c-0.4,0.7-0.5,1.6-0.2,2.7c0.6,2.1,1.8,2.6,2.5,2.7c0.4,0.8,1.4,2.6,2.3,3.4c0.4,0.3,0.9,0.6,1.4,0.9
		c0.7,0.3,1.5,0.4,2.3,0.4s1.6-0.1,2.3-0.4c0.6-0.2,1.1-0.5,1.4-0.9c0.9-0.9,1.9-2.6,2.3-3.4c0.7-0.1,2-0.6,2.5-2.7
		C64.8-40.9,64.7-41.8,64.3-42.5L64.3-42.5z M63-40.2c-0.3,1.3-0.9,1.5-1.3,1.5c0,0,0,0-0.1,0c-0.4-0.1-0.7,0.1-0.9,0.5
		c-0.3,0.7-1.3,2.7-2.1,3.4c-0.2,0.2-0.5,0.4-0.9,0.6c-1.1,0.4-2.4,0.4-3.5,0c-0.4-0.2-0.7-0.3-0.9-0.6c-0.8-0.8-1.8-2.7-2.2-3.4
		c-0.1-0.3-0.4-0.5-0.7-0.5c-0.1,0-0.1,0-0.2,0c0,0,0,0-0.1,0c-0.3,0-0.9-0.2-1.3-1.5c-0.2-0.6-0.2-1.1,0-1.4
		c0.1-0.2,0.2-0.2,0.3-0.2c0.4,0,0.7-0.4,0.7-0.9c0,0,0-0.4,0-1c0.6-0.2,1.5-0.7,2.2-1.5c0.4-0.4,0.7-0.9,0.9-1.4
		c0.5,0.4,1.3,1,2.3,1.4c1.7,0.8,5.2,1.1,6.7,1.3c0.1,0.7,0,1.2,0,1.2c0,0.4,0.2,0.8,0.7,0.9c0,0,0.2,0.1,0.3,0.2
		C63.1-41.3,63.1-40.8,63-40.2L63-40.2z M68.2-29.3l-7.1-2.8c-0.2-0.1-0.4-0.1-0.6,0c-0.2,0.1-0.4,0.3-0.4,0.5l-1.8,4.9l-0.4-1
		l0.6-1.4c0.1-0.2,0.1-0.5-0.1-0.8c-0.2-0.2-0.4-0.4-0.7-0.4h-3.5c-0.3,0-0.5,0.1-0.7,0.4c-0.2,0.2-0.2,0.5-0.1,0.8l0.6,1.4l-0.4,1
		l-1.8-4.9c-0.1-0.2-0.2-0.4-0.4-0.5c-0.2-0.1-0.4-0.1-0.6,0l-7.1,2.8c-2.2,0.9-3.6,3-3.6,5.3v5.7c0,0.4,0.4,0.8,0.8,0.8h30
		c0.4,0,0.8-0.4,0.8-0.8V-24C71.8-26.4,70.3-28.5,68.2-29.3L68.2-29.3z M67.9-21.7c0,0.4-0.4,0.8-0.8,0.8h-5.5
		c-0.4,0-0.8-0.4-0.8-0.8v-2.5c0-0.4,0.4-0.8,0.8-0.8h5.5c0.4,0,0.8,0.4,0.8,0.8V-21.7z"/>
</g>
<g>
	<path class="st1" d="M71.5,29.7h24.2c0.5,0,0.9-0.4,0.9-0.9V16c0-0.5-0.4-0.9-0.9-0.9H71.5c-0.5,0-0.9,0.4-0.9,0.9v12.8
		C70.6,29.3,71,29.7,71.5,29.7L71.5,29.7z M72.4,16.9h22.3v11H72.4V16.9z"/>
	<path class="st1" d="M83.6,17.2c-2.8,0-5.2,2.3-5.2,5.2c0,2.8,2.3,5.2,5.2,5.2c2.8,0,5.2-2.3,5.2-5.2
		C88.8,19.5,86.5,17.2,83.6,17.2L83.6,17.2z M83.6,25.7c-1.9,0-3.4-1.5-3.4-3.4c0-1.9,1.5-3.4,3.4-3.4c1.9,0,3.4,1.5,3.4,3.4
		C87,24.2,85.5,25.7,83.6,25.7L83.6,25.7z"/>
	<path class="st1" d="M84.8,22l-2-1.2c-0.1-0.1-0.3-0.1-0.4,0c-0.1,0.1-0.2,0.2-0.2,0.4v2.4c0,0.1,0.1,0.3,0.2,0.4
		c0.1,0,0.1,0.1,0.2,0.1c0.1,0,0.1,0,0.2-0.1l2-1.2c0.1-0.1,0.2-0.2,0.2-0.3C85,22.2,84.9,22.1,84.8,22L84.8,22z"/>
	<path class="st1" d="M86.5,36.7c0.5-0.6,0.8-1.5,0.8-2.4c0-2.1-1.7-3.7-3.7-3.7c-2.1,0-3.7,1.7-3.7,3.7c0,0.9,0.3,1.7,0.8,2.4
		c-0.9,0.8-1.5,2-1.5,3.3c0,0.5,0.4,0.9,0.9,0.9h7c0.5,0,0.9-0.4,0.9-0.9C88,38.7,87.5,37.5,86.5,36.7L86.5,36.7z M83.6,32.4
		c1.1,0,1.9,0.9,1.9,1.9c0,1.1-0.9,1.9-1.9,1.9c-1.1,0-1.9-0.9-1.9-1.9C81.7,33.2,82.5,32.4,83.6,32.4L83.6,32.4z M81.2,39.1
		c0.2-0.5,0.6-1,1.1-1.3c0.4,0.2,0.9,0.3,1.4,0.3c0.5,0,1-0.1,1.4-0.3c0.5,0.3,0.9,0.8,1.1,1.3H81.2z"/>
	<path class="st1" d="M95.7,36.7c0.5-0.6,0.8-1.5,0.8-2.4c0-2.1-1.7-3.7-3.7-3.7c-2.1,0-3.7,1.7-3.7,3.7c0,0.9,0.3,1.7,0.8,2.4
		c-0.9,0.8-1.5,2-1.5,3.3c0,0.5,0.4,0.9,0.9,0.9h7c0.5,0,0.9-0.4,0.9-0.9C97.2,38.7,96.7,37.5,95.7,36.7L95.7,36.7z M92.8,32.4
		c1.1,0,1.9,0.9,1.9,1.9c0,1.1-0.9,1.9-1.9,1.9c-1.1,0-1.9-0.9-1.9-1.9C90.9,33.2,91.7,32.4,92.8,32.4L92.8,32.4z M90.4,39.1
		c0.2-0.5,0.6-1,1.1-1.3c0.4,0.2,0.9,0.3,1.4,0.3c0.5,0,1-0.1,1.4-0.3c0.5,0.3,0.9,0.8,1.1,1.3H90.4z"/>
	<path class="st1" d="M77.3,36.7c0.5-0.6,0.8-1.5,0.8-2.4c0-2.1-1.7-3.7-3.7-3.7c-2.1,0-3.7,1.7-3.7,3.7c0,0.9,0.3,1.7,0.8,2.4
		c-0.9,0.8-1.5,2-1.5,3.3c0,0.5,0.4,0.9,0.9,0.9h7c0.5,0,0.9-0.4,0.9-0.9C78.8,38.7,78.2,37.5,77.3,36.7L77.3,36.7z M74.3,32.4
		c1.1,0,1.9,0.9,1.9,1.9c0,1.1-0.9,1.9-1.9,1.9c-1.1,0-1.9-0.9-1.9-1.9C72.4,33.2,73.3,32.4,74.3,32.4L74.3,32.4z M71.9,39.1
		c0.2-0.5,0.6-1,1.1-1.3c0.4,0.2,0.9,0.3,1.4,0.3c0.5,0,1-0.1,1.4-0.3c0.5,0.3,0.9,0.8,1.1,1.3H71.9z"/>
</g>
<g>
	<g>
		<path class="st0" d="M-50.1-60.5c1.1-0.8,2.5-1.2,3.8-1c0.9,0.1,1.6,0.5,2.3,1c0,0-1.2,0.5-1.8,0.7c-0.2,0.1-0.3,0.1-0.3,0.3
			c0,0.2,0.1,0.3,0.2,0.4l4.8,1.8c0.2,0.1,0.5,0.1,0.7-0.1c0.2-0.2,0.3-0.4,0.3-0.7l-0.3-5.1c0-0.2-0.1-0.3-0.3-0.3
			c-0.2,0-0.3,0.1-0.4,0.2c-0.5,0.6-1.5,1.8-1.5,1.8c-1-0.9-2.2-1.5-3.6-1.7c-1.8-0.3-3.7,0.2-5.2,1.3c-0.4,0.3-0.5,0.9-0.2,1.3
			C-51.1-60.2-50.5-60.2-50.1-60.5L-50.1-60.5z"/>
	</g>
	<path class="st0" d="M-46.5-49.6c0,3.7,3,8.1,6.9,8.1c3.9,0,6.9-4.3,6.9-8.1c0-3.8-3.1-6.9-6.9-6.9C-43.4-56.5-46.5-53.4-46.5-49.6
		L-46.5-49.6z M-39.6-54c2.5,0,4.4,2,4.4,4.4c0,2.5-2,5.6-4.4,5.6c-2.4,0-4.4-3.1-4.4-5.6C-44.1-52-42.1-54-39.6-54L-39.6-54z"/>
	<path class="st0" d="M-32.9-44.7c0,0.1,0,0.2,0,0.3c0,2.1-3.1,6.8-5.1,9.6l-0.8-4l0.8-0.8c0.1-0.2,0.1-0.4,0-0.5l-0.4-0.4
		c-0.1-0.1-0.3-0.2-0.4-0.2h-1.7c-0.2,0-0.3,0.1-0.4,0.2l-0.4,0.4c-0.1,0.2-0.1,0.4,0,0.5l0.8,0.8l-0.8,4c-2-2.9-5.1-7.6-5.1-9.6
		c0-0.1,0-0.2,0-0.3c-2.4,1.4-4,3.9-4,6.9v5.3c0,1.7,1.4,3.2,3.2,3.2H-32c1.7,0,3.2-1.4,3.2-3.2v-5.3
		C-28.9-40.8-30.5-43.4-32.9-44.7L-32.9-44.7z"/>
	<path class="st0" d="M-51.9-43.1c-2.9,0-5.3-2-5.3-4.4c0-0.3,0.1-0.7,0.2-1.1c-2.5,1-4.2,3.5-4.2,6.3v6.1c0,1.3,1,2.3,2.3,2.3h7.4
		v-4c0-2.2,0.8-4.2,2.2-5.8C-50.1-43.3-51-43.1-51.9-43.1L-51.9-43.1z"/>
	<path class="st0" d="M-56.9-48.7c1.1,1.9,2.9,3.4,5,3.4c1.8,0,3.3-1,4.4-2.5c-0.1-0.6-0.2-1.2-0.2-1.7c0-1.7,0.6-3.4,1.5-4.7
		c-0.8-2.4-3.1-4.2-5.7-4.2c-3.3,0-6,2.7-6,6c0,0.9,0.2,1.9,0.6,2.8C-57.2-49.3-57.1-49-56.9-48.7L-56.9-48.7z M-51.9-56.2
		c2.1,0,3.8,1.7,3.8,3.8c0,2.2-1.8,4.8-3.8,4.8c-2,0-3.8-2.6-3.8-4.8C-55.7-54.5-54-56.2-51.9-56.2L-51.9-56.2z"/>
</g>
<g>
	<path class="st0" d="M-36.5-20.9h28.9c0.6,0,1.1-0.5,1.1-1.1v-15.3c0-0.6-0.5-1.1-1.1-1.1h-26.6l1.4,3c-0.6,0-1.4,1.3-1.4,1.9
		l-3.3-0.8v12.3C-37.6-21.3-37.1-20.9-36.5-20.9L-36.5-20.9z M-35.4-36.1h26.7V-23h-26.7V-36.1z"/>
	<path class="st0" d="M-22-35.8c-3.4,0-6.2,2.8-6.2,6.2c0,3.4,2.8,6.2,6.2,6.2c3.4,0,6.2-2.8,6.2-6.2C-15.9-33-18.6-35.8-22-35.8
		L-22-35.8z M-22-25.6c-2.2,0-4-1.8-4-4c0-2.2,1.8-4,4-4c2.2,0,4,1.8,4,4C-18-27.4-19.8-25.6-22-25.6L-22-25.6z"/>
	<path class="st0" d="M-20.6-30l-2.4-1.5c-0.1-0.1-0.3-0.1-0.5,0c-0.2,0.1-0.2,0.2-0.2,0.4v2.9c0,0.2,0.1,0.3,0.2,0.4
		c0.1,0,0.2,0.1,0.2,0.1c0.1,0,0.2,0,0.3-0.1l2.4-1.5c0.1-0.1,0.2-0.2,0.2-0.4S-20.5-29.9-20.6-30L-20.6-30z"/>
	<path class="st0" d="M-18.6-12.5c0.6-0.8,1-1.7,1-2.8c0-2.5-2-4.5-4.5-4.5c-2.5,0-4.5,2-4.5,4.5c0,1.1,0.4,2,1,2.8
		c-1.1,1-1.8,2.4-1.8,4c0,0.6,0.5,1.1,1.1,1.1h8.4c0.6,0,1.1-0.5,1.1-1.1C-16.7-10.1-17.4-11.5-18.6-12.5L-18.6-12.5z M-22-17.6
		c1.3,0,2.3,1,2.3,2.3c0,1.3-1,2.3-2.3,2.3c-1.3,0-2.3-1-2.3-2.3C-24.4-16.6-23.3-17.6-22-17.6L-22-17.6z M-25-9.6
		c0.2-0.6,0.7-1.2,1.3-1.6c0.5,0.2,1.1,0.3,1.7,0.3c0.6,0,1.2-0.1,1.7-0.3c0.6,0.4,1,0.9,1.3,1.6H-25z"/>
	<path class="st0" d="M-7.5-12.5c0.6-0.8,1-1.7,1-2.8c0-2.5-2-4.5-4.5-4.5c-2.5,0-4.5,2-4.5,4.5c0,1.1,0.4,2,1,2.8
		c-1.1,1-1.8,2.4-1.8,4c0,0.6,0.5,1.1,1.1,1.1h8.4c0.6,0,1.1-0.5,1.1-1.1C-5.7-10.1-6.4-11.5-7.5-12.5L-7.5-12.5z M-11-17.6
		c1.3,0,2.3,1,2.3,2.3c0,1.3-1,2.3-2.3,2.3c-1.3,0-2.3-1-2.3-2.3C-13.3-16.6-12.3-17.6-11-17.6L-11-17.6z M-14-9.6
		c0.2-0.6,0.7-1.2,1.3-1.6c0.5,0.2,1.1,0.3,1.7,0.3c0.6,0,1.2-0.1,1.7-0.3c0.6,0.4,1,0.9,1.3,1.6H-14z"/>
	<path class="st0" d="M-29.6-12.5c0.6-0.8,1-1.7,1-2.8c0-2.5-2-4.5-4.5-4.5c-2.5,0-4.5,2-4.5,4.5c0,1.1,0.4,2,1,2.8
		c-1.1,1-1.8,2.4-1.8,4c0,0.6,0.5,1.1,1.1,1.1h8.4c0.6,0,1.1-0.5,1.1-1.1C-27.8-10.1-28.5-11.5-29.6-12.5L-29.6-12.5z M-33.1-17.6
		c1.3,0,2.3,1,2.3,2.3c0,1.3-1,2.3-2.3,2.3c-1.3,0-2.3-1-2.3-2.3C-35.4-16.6-34.4-17.6-33.1-17.6L-33.1-17.6z M-36.1-9.6
		c0.2-0.6,0.7-1.2,1.3-1.6c0.5,0.2,1.1,0.3,1.7,0.3c0.6,0,1.2-0.1,1.7-0.3c0.6,0.4,1,0.9,1.3,1.6H-36.1z"/>
</g>
<g>
	<path class="st0" d="M43-60.1H23.9c-0.6,0-1.1,0.5-1.1,1.1v3.8c0,0.6,0.5,1.1,1.1,1.1H43c0.6,0,1.1-0.5,1.1-1.1V-59
		C44.1-59.7,43.6-60.1,43-60.1L43-60.1z M24.8-57.5c-0.4,0-0.7-0.3-0.7-0.7c0-0.4,0.3-0.7,0.7-0.7c0.4,0,0.7,0.3,0.7,0.7
		C25.5-57.8,25.2-57.5,24.8-57.5L24.8-57.5z M41.2-55.6h-4.8v-1.6h4.8V-55.6z"/>
	<path class="st0" d="M43-53.6H23.9c-0.6,0-1.1,0.5-1.1,1.1v3.8c0,0.6,0.5,1.1,1.1,1.1H43c0.6,0,1.1-0.5,1.1-1.1v-3.8
		C44.1-53.1,43.6-53.6,43-53.6L43-53.6z M24.8-51c-0.4,0-0.7-0.3-0.7-0.7c0-0.4,0.3-0.7,0.7-0.7c0.4,0,0.7,0.3,0.7,0.7
		C25.5-51.3,25.2-51,24.8-51L24.8-51z M41.2-49h-4.8v-1.6h4.8V-49z"/>
	<path class="st0" d="M43-47H23.9c-0.6,0-1.1,0.5-1.1,1.1v3.8c0,0.6,0.5,1.1,1.1,1.1H43c0.6,0,1.1-0.5,1.1-1.1v-3.8
		C44.1-46.5,43.6-47,43-47L43-47z M24.8-44.4c-0.4,0-0.7-0.3-0.7-0.7c0-0.4,0.3-0.7,0.7-0.7c0.4,0,0.7,0.3,0.7,0.7
		C25.5-44.7,25.2-44.4,24.8-44.4L24.8-44.4z M41.2-42.4h-4.8V-44h4.8V-42.4z"/>
	<g>
		<path class="st0" d="M36.7-37.4h-2v-3h-2.5v3h-2v0.8H23v2.5h7.1v0.8h6.6v-0.8h7.1v-2.5h-7.1V-37.4z"/>
		<path class="st0" d="M44.7-66.2c-0.3,0-0.5-0.2-0.7-0.4c-1.5-2.1-4-3.3-6.6-3.3c-0.2,0-0.3,0-0.5,0c-0.2,0-0.4-0.1-0.6-0.2
			c-1.6-1.2-3.5-1.8-5.5-1.8c-3.6,0-6.8,2.1-8.3,5.3c-0.1,0.3-0.4,0.5-0.7,0.5c-4,0.6-7,4-7,8.1c0,3.9,2.8,7.2,6.5,8v-2.4
			c0-0.3,0.1-0.6,0.2-0.9c-2-0.7-3.4-2.5-3.4-4.7c0-2.7,2.2-5,5-5c0.1,0,0.3,0,0.4,0c0.8,0.1,1.5-0.5,1.7-1.2c0.7-2.7,3-4.5,5.8-4.5
			c1.6,0,3,0.6,4.2,1.7c0.4,0.4,0.9,0.5,1.5,0.4c0.3-0.1,0.7-0.1,1-0.1c1.9,0,3.6,1.1,4.5,2.8c0.3,0.6,0.9,1,1.6,0.9
			c0.2,0,0.3,0,0.5,0c2.7,0,5,2.2,5,5c0,2.2-1.4,4.1-3.4,4.7c0.1,0.3,0.2,0.6,0.2,0.9v2.4c3.7-0.8,6.5-4.1,6.5-8
			C52.2-62.3,48.9-65.9,44.7-66.2L44.7-66.2z"/>
	</g>
</g>
<path class="st0" d="M106.4-50l1.2-0.3l1.4-2.3l-0.3-1.2c0,0-0.9-0.5-1.4-0.8c0-0.3,0-0.5-0.1-0.8c0.4-0.3,1.1-0.9,1.1-0.9v-1.2
	l-1.8-2.1h-1.2c0,0-0.6,0.5-0.9,0.8c-0.3-0.2-0.6-0.3-1-0.4c0-0.3-0.1-1.1-0.1-1.1l-0.9-0.9l-2.7,0.2L98.8-60c0,0,0.1,0.9,0.1,1.4
	c-0.3,0.1-0.5,0.3-0.7,0.5c-0.4-0.2-1.1-0.5-1.1-0.5l-1.2,0.3l-1.1,2.5l0,0.2l0.4,1c0,0,0.9,0.4,1.3,0.6c0,0.3,0.1,0.6,0.1,0.9
	c-0.3,0.3-1,0.9-1,0.9v1.2l1.7,2.1c0,0,1,0.1,1.1,0.1c0.1,0,0.2-0.1,0.2-0.1s0.6-0.5,1-0.8c0.3,0.1,0.5,0.2,0.8,0.3
	c0,0.4,0.1,1.1,0.1,1.1l0.9,0.9l2.7-0.2l0.9-0.9c0,0-0.1-0.9-0.1-1.4c0.2-0.1,0.4-0.3,0.6-0.4C105.7-50.4,106.4-50,106.4-50
	L106.4-50z M101.6-51.7c-1.5,0-2.7-1.2-2.7-2.7c0-1.5,1.2-2.7,2.7-2.7c1.5,0,2.7,1.2,2.7,2.7C104.4-52.9,103.2-51.7,101.6-51.7
	L101.6-51.7z"/>
<path class="st0" d="M114.7-48.7l0.5-0.1l0.6-1l-0.1-0.5l-0.6-0.4c0-0.1,0-0.2,0-0.3c0.2-0.1,0.5-0.4,0.5-0.4V-52l-0.8-0.9h-0.6
	c0,0-0.3,0.2-0.4,0.3c-0.1-0.1-0.3-0.1-0.5-0.2c0-0.2,0-0.5,0-0.5l-0.4-0.4l-1.2,0.1l-0.4,0.4c0,0,0,0.4,0.1,0.6
	c-0.1,0.1-0.2,0.1-0.3,0.2c-0.2-0.1-0.5-0.2-0.5-0.2l-0.5,0.1l-0.5,1.1l0,0.1l0.2,0.5c0,0,0.4,0.2,0.6,0.3c0,0.1,0,0.3,0.1,0.4
	c-0.1,0.1-0.4,0.4-0.4,0.4v0.6l0.8,0.9c0,0,0.5,0.1,0.5,0c0,0,0.1,0,0.1,0s0.3-0.2,0.4-0.4c0.1,0.1,0.2,0.1,0.4,0.1
	c0,0.2,0.1,0.5,0.1,0.5l0.4,0.4l1.2-0.1l0.4-0.4c0,0,0-0.4-0.1-0.6c0.1-0.1,0.2-0.1,0.3-0.2C114.4-48.8,114.7-48.7,114.7-48.7
	L114.7-48.7z M112.6-49.4c-0.7,0-1.2-0.5-1.2-1.2c0-0.7,0.5-1.2,1.2-1.2c0.7,0,1.2,0.5,1.2,1.2C113.9-50,113.3-49.4,112.6-49.4
	L112.6-49.4z"/>
<path class="st0" d="M87-38.1h16.3v6.7h13.1v-6.7h2.9v-5H91.9v-22.5h27.4v-5H87V-38.1z"/>
<rect x="100.5" y="-31.3" class="st0" width="18.8" height="1.4"/>
<path class="st0" d="M134.4-28.4c4.3-2,5.6-6.8,5.6-9.7c0-2.4-1.2-7.9-6.1-10c4.4-2.3,5.8-8.1,5.9-11.4l-2.4-0.1
	c0,0.4-0.3,10.1-7.8,10.1c-7.4,0-8-9.8-8-10.2l-2.4,0.1c0.1,3.4,1.7,9.1,6.1,11.4c-4.2,1.7-5.9,5.9-5.9,10c0,3,1.2,7.5,5.2,9.5
	c-4.1,2.4-5.4,7.9-5.5,11.2l2.4,0.1c0-0.4,0.3-10.1,7.8-10.1c7.4,0,8,9.8,8,10.2l2.4-0.1C139.6-20.6,138.3-25.9,134.4-28.4
	L134.4-28.4z M121.9-38.1c0-2.5,0.8-8.4,7.8-8.4c7.9,0,8,8.3,8,8.4c0,0.3-0.1,8.3-7.8,8.3C122.2-29.8,121.9-36.7,121.9-38.1
	L121.9-38.1z"/>
<path class="st0" d="M126.8-31.9h5.9c1-0.5,1.7-1.1,2.2-1.9h-10.3C125.1-33,125.8-32.4,126.8-31.9L126.8-31.9z"/>
<path class="st0" d="M136.1-37.2h-12.7c0.1,0.5,0.2,1.2,0.4,1.9h11.9C135.9-36,136-36.7,136.1-37.2L136.1-37.2z"/>
<path class="st0" d="M135.8-40.4h-12.2c-0.2,0.7-0.2,1.3-0.3,1.9h12.8C136.1-38.9,136-39.6,135.8-40.4L135.8-40.4z"/>
<path class="st0" d="M133.5-43.8h-7.9c-0.7,0.5-1.2,1.2-1.5,1.9h11C134.7-42.6,134.2-43.3,133.5-43.8L133.5-43.8z"/>
<path class="st0" d="M126.8-51.6h5.9c1-0.5,1.7-1.1,2.2-1.9h-10.3C125.1-52.8,125.8-52.1,126.8-51.6L126.8-51.6z"/>
<path class="st0" d="M135.7-55c0.3-0.7,0.4-1.4,0.4-1.9h-12.7c0.1,0.5,0.2,1.2,0.4,1.9H135.7z"/>
<path class="st0" d="M123.4-21.1c-0.2,0.7-0.2,1.3-0.3,1.9H136c0-0.4-0.1-1.1-0.4-1.9H123.4z"/>
<path class="st0" d="M133.4-24.5h-7.9c-0.7,0.5-1.2,1.2-1.5,1.9h11C134.6-23.3,134.1-23.9,133.4-24.5L133.4-24.5z"/>
<g>
	<path class="st0" d="M33.3,22.4V5.7c0-0.7-0.6-1.3-1.3-1.3H6.3C5.6,4.4,5,5,5,5.7v16.7l-3.2,3.8c0,1.1,0.9,1.9,1.9,1.9h30.8
		c1.1,0,1.9-0.9,1.9-1.9L33.3,22.4z M21.7,27.5h-5.1c-0.2,0-0.3-0.1-0.3-0.3c0-0.2,0.1-0.3,0.3-0.3h5.1c0.2,0,0.3,0.1,0.3,0.3
		C22,27.4,21.9,27.5,21.7,27.5L21.7,27.5z M13.9,26.2l1-1.2h8.6l1,1.2H13.9z M31.5,20.1c0,0.6-0.5,1.1-1.1,1.1H7.9
		c-0.6,0-1.1-0.5-1.1-1.1V6.7c0-0.6,0.5-1.1,1.1-1.1h22.4c0.6,0,1.1,0.5,1.1,1.1V20.1z"/>
	<path class="st0" d="M25.7,13.6l1-1.5L25.6,11l-1.5,1c-0.2-0.1-0.3-0.1-0.5-0.2l-0.4-1.8h-1.5l-0.3,1.8c-0.2,0.1-0.3,0.1-0.5,0.2
		l-1.5-1l-1.1,1.1l1,1.5c-0.1,0.2-0.2,0.3-0.2,0.5l-1.7,0.3V16l1.7,0.3c0.1,0.2,0.1,0.3,0.2,0.5l-1,1.5l1.1,1.1l1.5-1
		c0.2,0.1,0.3,0.1,0.5,0.2l0.4,1.8h1.5l0.4-1.8c0.2-0.1,0.3-0.1,0.5-0.2l1.5,1l1.1-1.1l-1-1.5c0.1-0.2,0.2-0.3,0.2-0.5l1.7-0.3v-1.5
		l-1.7-0.3C25.8,13.9,25.8,13.8,25.7,13.6L25.7,13.6z M22.5,17c-1,0-1.8-0.8-1.8-1.8c0-1,0.8-1.8,1.8-1.8c1,0,1.8,0.8,1.8,1.8
		C24.3,16.2,23.5,17,22.5,17L22.5,17z"/>
	<path class="st0" d="M16.8,11.8c0-0.1,0-0.2,0-0.4l1.1-0.6l-0.3-1l-1.2,0.1c-0.1-0.1-0.1-0.2-0.2-0.3l0.4-1.2l-0.9-0.5l-0.8,0.9
		c-0.1,0-0.2,0-0.4,0l-0.6-1.1l-1,0.3l0.1,1.3c-0.1,0.1-0.2,0.1-0.3,0.2L11.4,9l-0.5,0.9l0.9,0.8c0,0.1,0,0.2,0,0.4l-1.1,0.6l0.3,1
		l1.2-0.1c0.1,0.1,0.2,0.2,0.2,0.3L12,14.1l0.9,0.5l0.8-0.9c0.1,0,0.2,0,0.4,0l0.6,1.1l1.1-0.3l-0.1-1.3c0.1-0.1,0.2-0.1,0.3-0.2
		l1.2,0.4l0.5-0.9L16.8,11.8z M14.6,12.5c-0.7,0.2-1.4-0.2-1.5-0.9c-0.2-0.7,0.2-1.4,0.9-1.6c0.7-0.2,1.4,0.2,1.5,0.9
		C15.7,11.6,15.3,12.3,14.6,12.5L14.6,12.5z"/>
</g>
<g>
	<g>
		<path class="st0" d="M46.3,30.2c-0.1-0.1-0.2-0.2-0.3-0.2l-7.2-2.3c-2.9-0.9-4.8,0.7-5.3,1.2c-0.3,0.3-0.5,0.6-0.6,0.9l-3.2,7.6
			c-0.2,0.4-0.1,1,0.2,1.6c0.4,0.8,1.2,1.4,2.1,1.6c1,0.2,2-0.1,2.8-0.9c0.2-0.2,0.4-0.5,0.5-0.6l1.1-2c0.2-0.3,0.4-0.7,0.7-1
			c0.9-0.9,1.4-0.5,1.6-0.3c1.6,1.6,10.1,10.1,10.1,10.1c0.3,0.3,0.2,0.9-0.1,1.3c-0.4,0.4-0.9,0.4-1.3,0.1l-2.4-2.4
			c-0.3-0.3-0.8-0.3-1.1,0c-0.3,0.3-0.3,0.8,0,1.1l2.4,2.4c0.3,0.3,0.2,0.9-0.1,1.3c-0.4,0.4-1,0.4-1.3,0.1l-2.4-2.4
			c-0.3-0.3-0.8-0.3-1.1,0c-0.3,0.3-0.3,0.8,0,1.1l2.4,2.4c0.3,0.3,0.2,0.9-0.1,1.2c-0.4,0.4-0.9,0.4-1.3,0.1L39.8,50
			c-0.3-0.3-0.8-0.3-1.1,0c-0.3,0.3-0.3,0.8,0,1.1l2.4,2.4c0.3,0.3,0.2,0.9-0.1,1.3c-0.4,0.4-1,0.4-1.3,0.1l-2.9-2.9
			c0.4-0.6,0.3-1.5-0.3-2.2c-0.7-0.7-1.7-0.8-2.4-0.1c0.6-0.6,0.6-1.7-0.1-2.4c-0.7-0.7-1.8-0.8-2.4-0.1c0.6-0.6,0.6-1.7-0.1-2.4
			c-0.7-0.7-1.7-0.8-2.4-0.1c0.6-0.6,0.6-1.7-0.1-2.4c-0.6-0.6-1.6-0.7-2.2-0.2L22,37.3c-0.3-0.3-0.8-0.3-1.1,0
			c-0.3,0.3-0.3,0.8,0,1.1l4.7,4.7l-1.4,1.4c-0.6,0.6-0.6,1.7,0.1,2.4c0.7,0.7,1.7,0.8,2.4,0.1c-0.6,0.6-0.6,1.7,0.1,2.4
			c0.7,0.7,1.8,0.8,2.4,0.1c-0.6,0.6-0.6,1.7,0.1,2.4c0.7,0.7,1.8,0.8,2.4,0.1c-0.6,0.6-0.6,1.7,0.1,2.4c0.7,0.7,1.8,0.8,2.4,0.1
			l1.5-1.5l2.9,2.9c0.9,0.9,2.5,0.9,3.5-0.1c0.5-0.5,0.7-1.1,0.8-1.7c0.6,0,1.2-0.3,1.7-0.8c0.5-0.5,0.7-1.1,0.8-1.7
			c0.6,0,1.2-0.3,1.7-0.8c0.5-0.5,0.8-1.1,0.8-1.7c0.6,0,1.2-0.3,1.7-0.8c1-1,1.1-2.6,0.1-3.5l-1.2-1.2l5-5c0.3-0.3,0.3-0.8,0-1.1
			L46.3,30.2z"/>
		<path class="st0" d="M58.2,32l-6.4-6.4c-0.6-0.6-1.6-0.6-2.2,0l-2.2,2.2c-0.6,0.6-0.6,1.6,0,2.2l6.4,6.4c0.6,0.6,1.6,0.6,2.2,0
			l2.2-2.2C58.8,33.6,58.8,32.6,58.2,32L58.2,32z M54.8,35.3c-0.7,0-1.3-0.6-1.3-1.3c0-0.7,0.6-1.3,1.3-1.3c0.7,0,1.3,0.6,1.3,1.3
			C56.1,34.7,55.5,35.3,54.8,35.3L54.8,35.3z"/>
	</g>
</g>
</svg>
