<?xml version="1.0" encoding="utf-8"?>
<!-- Generator: Adobe Illustrator 25.0.0, SVG Export Plug-In . SVG Version: 6.00 Build 0)  -->
<svg version="1.1" id="レイヤー_1" xmlns="http://www.w3.org/2000/svg" xmlns:xlink="http://www.w3.org/1999/xlink" x="0px"
	 y="0px" viewBox="0 0 115 12" style="enable-background:new 0 0 115 12;" xml:space="preserve">
<style type="text/css">
	.st0{enable-background:new    ;}
	.st1{fill:url(#SVGID_1_);}
	.st2{fill:url(#SVGID_2_);}
	.st3{fill:url(#SVGID_3_);}
	.st4{fill:url(#SVGID_4_);}
	.st5{fill:url(#SVGID_5_);}
	.st6{fill:url(#SVGID_6_);}
	.st7{fill:url(#SVGID_7_);}
	.st8{fill:url(#SVGID_8_);}
</style>
<g class="st0">
	<linearGradient id="SVGID_1_" gradientUnits="userSpaceOnUse" x1="21.8906" y1="10.0322" x2="21.8906" y2="1.7227">
		<stop  offset="0" style="stop-color:#1A1B7D"/>
		<stop  offset="8.870302e-02" style="stop-color:#1C1F80"/>
		<stop  offset="0.1817" style="stop-color:#232C88"/>
		<stop  offset="0.2766" style="stop-color:#2E4195"/>
		<stop  offset="0.3729" style="stop-color:#3E5EA7"/>
		<stop  offset="0.4694" style="stop-color:#5184BF"/>
		<stop  offset="0.4888" style="stop-color:#568CC4"/>
		<stop  offset="0.6091" style="stop-color:#3A5C9B"/>
		<stop  offset="0.7283" style="stop-color:#223479"/>
		<stop  offset="0.8368" style="stop-color:#111860"/>
		<stop  offset="0.9309" style="stop-color:#070651"/>
		<stop  offset="1" style="stop-color:#03004C"/>
	</linearGradient>
	<path class="st1" d="M21.8,1.7c0.7,0,1.3,0.2,1.9,0.5c0.6,0.4,1,0.8,1.4,1.5c0.3,0.6,0.5,1.3,0.5,2.1c0,0.8-0.2,1.5-0.5,2.1
		s-0.8,1.1-1.4,1.5c-0.6,0.4-1.2,0.5-1.9,0.5c-0.6,0-1.2-0.2-1.8-0.5c-0.6-0.3-1-0.8-1.3-1.5c-0.3-0.7-0.5-1.4-0.5-2.2
		c0-0.8,0.2-1.5,0.5-2.1C19,3.1,19.5,2.6,20,2.3S21.2,1.7,21.8,1.7z M21.9,2.1c-0.7,0-1.3,0.3-1.7,0.9s-0.6,1.5-0.6,2.8
		c0,1.4,0.2,2.4,0.7,2.9s1,0.8,1.6,0.8c0.5,0,0.9-0.1,1.2-0.4c0.3-0.2,0.6-0.6,0.8-1.2c0.2-0.5,0.3-1.2,0.3-2.1c0-1-0.1-1.7-0.3-2.2
		s-0.5-0.9-0.8-1.2S22.3,2.1,21.9,2.1z"/>
	<linearGradient id="SVGID_2_" gradientUnits="userSpaceOnUse" x1="32.1184" y1="10.0205" x2="32.1184" y2="1.8896">
		<stop  offset="0" style="stop-color:#1A1B7D"/>
		<stop  offset="8.870302e-02" style="stop-color:#1C1F80"/>
		<stop  offset="0.1817" style="stop-color:#232C88"/>
		<stop  offset="0.2766" style="stop-color:#2E4195"/>
		<stop  offset="0.3729" style="stop-color:#3E5EA7"/>
		<stop  offset="0.4694" style="stop-color:#5184BF"/>
		<stop  offset="0.4888" style="stop-color:#568CC4"/>
		<stop  offset="0.6091" style="stop-color:#3A5C9B"/>
		<stop  offset="0.7283" style="stop-color:#223479"/>
		<stop  offset="0.8368" style="stop-color:#111860"/>
		<stop  offset="0.9309" style="stop-color:#070651"/>
		<stop  offset="1" style="stop-color:#03004C"/>
	</linearGradient>
	<path class="st2" d="M28.1,1.9h3.3v0.4h-0.6c-0.2,0-0.4,0-0.5,0.1s-0.1,0.1-0.1,0.2c0,0.1,0,0.2,0.1,0.3l0,0.1l2.1,5.3l1.9-5.1
		c0-0.1,0.1-0.2,0.1-0.4c0-0.2-0.1-0.4-0.2-0.5c-0.1-0.1-0.3-0.2-0.5-0.2h-0.5V1.9h2.9v0.4h-0.2c-0.2,0-0.4,0.1-0.5,0.3
		C35.2,2.7,35,3,34.9,3.4L32.4,10H32l-2.8-7.1c-0.1-0.2-0.2-0.4-0.3-0.5s-0.3-0.1-0.5-0.1h-0.3V1.9z"/>
	<linearGradient id="SVGID_3_" gradientUnits="userSpaceOnUse" x1="42.1523" y1="9.833" x2="42.1523" y2="1.8896">
		<stop  offset="0" style="stop-color:#1A1B7D"/>
		<stop  offset="8.870302e-02" style="stop-color:#1C1F80"/>
		<stop  offset="0.1817" style="stop-color:#232C88"/>
		<stop  offset="0.2766" style="stop-color:#2E4195"/>
		<stop  offset="0.3729" style="stop-color:#3E5EA7"/>
		<stop  offset="0.4694" style="stop-color:#5184BF"/>
		<stop  offset="0.4888" style="stop-color:#568CC4"/>
		<stop  offset="0.6091" style="stop-color:#3A5C9B"/>
		<stop  offset="0.7283" style="stop-color:#223479"/>
		<stop  offset="0.8368" style="stop-color:#111860"/>
		<stop  offset="0.9309" style="stop-color:#070651"/>
		<stop  offset="1" style="stop-color:#03004C"/>
	</linearGradient>
	<path class="st3" d="M38.8,1.9h6.3l0.2,2.7h-0.4c-0.1-0.8-0.4-1.4-0.7-1.8c-0.3-0.3-0.7-0.5-1.2-0.5h-1.6c-0.1,0-0.2,0-0.3,0.1
		c-0.1,0.1-0.1,0.2-0.1,0.3v2.8h0.7c0.4,0,0.7-0.1,0.9-0.4C42.9,4.9,43,4.5,43,3.9h0.4v3.7H43c0-0.6-0.1-1-0.4-1.3
		c-0.2-0.3-0.5-0.4-0.9-0.4h-0.6v3.2c0,0.1,0,0.2,0.1,0.3c0.1,0.1,0.2,0.1,0.4,0.1h1.2c1.3,0,2.1-0.9,2.3-2.6h0.4l-0.1,3h-6.5V9.4
		h0.5c0.2,0,0.4,0,0.4-0.1s0.1-0.2,0.1-0.3V2.7c0-0.1,0-0.2-0.1-0.3c-0.1-0.1-0.2-0.1-0.4-0.1h-0.6V1.9z"/>
	<linearGradient id="SVGID_4_" gradientUnits="userSpaceOnUse" x1="52.0417" y1="9.9131" x2="52.0417" y2="1.8896">
		<stop  offset="0" style="stop-color:#1A1B7D"/>
		<stop  offset="8.870302e-02" style="stop-color:#1C1F80"/>
		<stop  offset="0.1817" style="stop-color:#232C88"/>
		<stop  offset="0.2766" style="stop-color:#2E4195"/>
		<stop  offset="0.3729" style="stop-color:#3E5EA7"/>
		<stop  offset="0.4694" style="stop-color:#5184BF"/>
		<stop  offset="0.4888" style="stop-color:#568CC4"/>
		<stop  offset="0.6091" style="stop-color:#3A5C9B"/>
		<stop  offset="0.7283" style="stop-color:#223479"/>
		<stop  offset="0.8368" style="stop-color:#111860"/>
		<stop  offset="0.9309" style="stop-color:#070651"/>
		<stop  offset="1" style="stop-color:#03004C"/>
	</linearGradient>
	<path class="st4" d="M48.3,1.9h4.1c0.8,0,1.4,0.2,1.9,0.5c0.4,0.4,0.7,0.8,0.7,1.4c0,0.4-0.1,0.7-0.3,0.9c-0.2,0.3-0.4,0.5-0.8,0.7
		c-0.3,0.2-0.8,0.3-1.5,0.4c0.5,0.1,0.9,0.3,1.1,0.4c0.2,0.1,0.3,0.3,0.5,0.5C54,6.9,54.1,7.4,54.3,8c0.1,0.5,0.2,0.8,0.3,1
		c0.1,0.1,0.2,0.2,0.3,0.2c0.1,0,0.2-0.1,0.3-0.2c0.1-0.2,0.2-0.5,0.2-0.9h0.4c-0.1,1.2-0.5,1.8-1.3,1.8c-0.3,0-0.5-0.1-0.7-0.2
		s-0.3-0.3-0.4-0.6c-0.1-0.2-0.2-0.7-0.3-1.5c-0.1-0.5-0.1-0.8-0.3-1c-0.1-0.2-0.3-0.4-0.5-0.5C52,6,51.7,5.9,51.4,5.9h-0.7V9
		c0,0.1,0,0.2,0.1,0.3c0.1,0.1,0.2,0.1,0.4,0.1H52v0.4h-3.7V9.4h0.8c0.2,0,0.3,0,0.4-0.1c0.1-0.1,0.1-0.2,0.1-0.3V2.7
		c0-0.1,0-0.2-0.1-0.3c-0.1-0.1-0.2-0.1-0.4-0.1h-0.8V1.9z M50.7,5.5h0.9c0.6,0,1.1-0.1,1.5-0.4c0.4-0.2,0.5-0.7,0.5-1.3
		c0-0.4-0.1-0.7-0.2-1c-0.1-0.2-0.3-0.4-0.5-0.5c-0.2-0.1-0.6-0.1-1.3-0.1c-0.4,0-0.7,0-0.8,0.1c-0.1,0.1-0.2,0.2-0.2,0.3V5.5z"/>
	<linearGradient id="SVGID_5_" gradientUnits="userSpaceOnUse" x1="61.5146" y1="10.0205" x2="61.5146" y2="1.8896">
		<stop  offset="0" style="stop-color:#1A1B7D"/>
		<stop  offset="8.870302e-02" style="stop-color:#1C1F80"/>
		<stop  offset="0.1817" style="stop-color:#232C88"/>
		<stop  offset="0.2766" style="stop-color:#2E4195"/>
		<stop  offset="0.3729" style="stop-color:#3E5EA7"/>
		<stop  offset="0.4694" style="stop-color:#5184BF"/>
		<stop  offset="0.4888" style="stop-color:#568CC4"/>
		<stop  offset="0.6091" style="stop-color:#3A5C9B"/>
		<stop  offset="0.7283" style="stop-color:#223479"/>
		<stop  offset="0.8368" style="stop-color:#111860"/>
		<stop  offset="0.9309" style="stop-color:#070651"/>
		<stop  offset="1" style="stop-color:#03004C"/>
	</linearGradient>
	<path class="st5" d="M57.5,1.9h3.3v0.4h-0.6c-0.2,0-0.4,0-0.5,0.1s-0.1,0.1-0.1,0.2c0,0.1,0,0.2,0.1,0.3l0,0.1l2.1,5.3l1.8-5.1
		c0-0.1,0.1-0.2,0.1-0.4c0-0.2-0.1-0.4-0.2-0.5c-0.1-0.1-0.3-0.2-0.5-0.2h-0.5V1.9h2.9v0.4h-0.2c-0.2,0-0.4,0.1-0.5,0.3
		c-0.2,0.2-0.3,0.4-0.5,0.8L61.8,10h-0.4l-2.8-7.1c-0.1-0.2-0.2-0.4-0.3-0.5c-0.1-0.1-0.3-0.1-0.5-0.1h-0.3V1.9z"/>
	<linearGradient id="SVGID_6_" gradientUnits="userSpaceOnUse" x1="69.728" y1="9.833" x2="69.728" y2="1.8896">
		<stop  offset="0" style="stop-color:#1A1B7D"/>
		<stop  offset="8.870302e-02" style="stop-color:#1C1F80"/>
		<stop  offset="0.1817" style="stop-color:#232C88"/>
		<stop  offset="0.2766" style="stop-color:#2E4195"/>
		<stop  offset="0.3729" style="stop-color:#3E5EA7"/>
		<stop  offset="0.4694" style="stop-color:#5184BF"/>
		<stop  offset="0.4888" style="stop-color:#568CC4"/>
		<stop  offset="0.6091" style="stop-color:#3A5C9B"/>
		<stop  offset="0.7283" style="stop-color:#223479"/>
		<stop  offset="0.8368" style="stop-color:#111860"/>
		<stop  offset="0.9309" style="stop-color:#070651"/>
		<stop  offset="1" style="stop-color:#03004C"/>
	</linearGradient>
	<path class="st6" d="M67.9,1.9h3.7v0.4h-0.6c-0.3,0-0.5,0-0.5,0.1c-0.1,0.1-0.1,0.2-0.1,0.4v6c0,0.2,0,0.4,0.1,0.5
		c0.1,0.1,0.2,0.1,0.5,0.1h0.7v0.4h-3.7V9.4h0.7c0.2,0,0.4,0,0.5-0.1c0.1-0.1,0.1-0.2,0.1-0.5v-6c0-0.2,0-0.4-0.1-0.4
		c-0.1-0.1-0.3-0.1-0.6-0.1h-0.6V1.9z"/>
	<linearGradient id="SVGID_7_" gradientUnits="userSpaceOnUse" x1="78.0195" y1="9.833" x2="78.0195" y2="1.8896">
		<stop  offset="0" style="stop-color:#1A1B7D"/>
		<stop  offset="8.870302e-02" style="stop-color:#1C1F80"/>
		<stop  offset="0.1817" style="stop-color:#232C88"/>
		<stop  offset="0.2766" style="stop-color:#2E4195"/>
		<stop  offset="0.3729" style="stop-color:#3E5EA7"/>
		<stop  offset="0.4694" style="stop-color:#5184BF"/>
		<stop  offset="0.4888" style="stop-color:#568CC4"/>
		<stop  offset="0.6091" style="stop-color:#3A5C9B"/>
		<stop  offset="0.7283" style="stop-color:#223479"/>
		<stop  offset="0.8368" style="stop-color:#111860"/>
		<stop  offset="0.9309" style="stop-color:#070651"/>
		<stop  offset="1" style="stop-color:#03004C"/>
	</linearGradient>
	<path class="st7" d="M74.7,1.9H81l0.2,2.7h-0.4c-0.1-0.8-0.4-1.4-0.7-1.8c-0.3-0.3-0.7-0.5-1.2-0.5h-1.6c-0.1,0-0.2,0-0.3,0.1
		c-0.1,0.1-0.1,0.2-0.1,0.3v2.8h0.7c0.4,0,0.7-0.1,0.9-0.4c0.2-0.3,0.3-0.7,0.4-1.2h0.4v3.7h-0.4c0-0.6-0.1-1-0.4-1.3
		C78.3,6,78,5.9,77.6,5.9h-0.6v3.2c0,0.1,0,0.2,0.1,0.3c0.1,0.1,0.2,0.1,0.4,0.1h1.2c1.3,0,2.1-0.9,2.3-2.6h0.4l-0.1,3h-6.5V9.4h0.5
		c0.2,0,0.4,0,0.4-0.1s0.1-0.2,0.1-0.3V2.7c0-0.1,0-0.2-0.1-0.3c-0.1-0.1-0.2-0.1-0.4-0.1h-0.6V1.9z"/>
	<linearGradient id="SVGID_8_" gradientUnits="userSpaceOnUse" x1="89.3511" y1="10.0205" x2="89.3511" y2="1.8896">
		<stop  offset="0" style="stop-color:#1A1B7D"/>
		<stop  offset="8.870302e-02" style="stop-color:#1C1F80"/>
		<stop  offset="0.1817" style="stop-color:#232C88"/>
		<stop  offset="0.2766" style="stop-color:#2E4195"/>
		<stop  offset="0.3729" style="stop-color:#3E5EA7"/>
		<stop  offset="0.4694" style="stop-color:#5184BF"/>
		<stop  offset="0.4888" style="stop-color:#568CC4"/>
		<stop  offset="0.6091" style="stop-color:#3A5C9B"/>
		<stop  offset="0.7283" style="stop-color:#223479"/>
		<stop  offset="0.8368" style="stop-color:#111860"/>
		<stop  offset="0.9309" style="stop-color:#070651"/>
		<stop  offset="1" style="stop-color:#03004C"/>
	</linearGradient>
	<path class="st8" d="M84.1,1.9h2.7v0.4h-0.2c-0.3,0-0.5,0-0.5,0.1c-0.1,0-0.1,0.1-0.1,0.2c0,0.1,0,0.2,0.1,0.3L86,3l1.6,5L89,3.4
		c-0.2-0.5-0.3-0.8-0.4-0.9c-0.1-0.1-0.3-0.1-0.5-0.1h-0.5V1.9H91v0.4h-0.3c-0.3,0-0.5,0-0.6,0.1c-0.1,0-0.1,0.1-0.1,0.2
		c0,0.1,0,0.1,0,0.2L91.6,8l1.4-4.5C93,3.3,93,3.2,93,3c0-0.2-0.1-0.4-0.2-0.5c-0.1-0.1-0.3-0.2-0.5-0.2h-0.2V1.9h2.5v0.4
		c-0.2,0-0.4,0.1-0.5,0.2s-0.2,0.2-0.3,0.3c-0.1,0.1-0.2,0.4-0.3,0.7l-2,6.5h-0.4l-1.8-5.8L87.6,10h-0.4L84.9,3
		c-0.1-0.3-0.2-0.5-0.3-0.5s-0.3-0.1-0.5-0.1V1.9z"/>
</g>
</svg>
