<?xml version="1.0" encoding="utf-8"?>
<!-- Generator: Adobe Illustrator 25.0.1, SVG Export Plug-In . SVG Version: 6.00 Build 0)  -->
<svg version="1.1" id="レイヤー_1" xmlns="http://www.w3.org/2000/svg" xmlns:xlink="http://www.w3.org/1999/xlink" x="0px"
	 y="0px" viewBox="0 0 86 12" style="enable-background:new 0 0 86 12;" xml:space="preserve">
<style type="text/css">
	.st0{enable-background:new    ;}
	.st1{fill:url(#SVGID_1_);}
	.st2{fill:url(#SVGID_2_);}
	.st3{fill:url(#SVGID_3_);}
	.st4{fill:url(#SVGID_4_);}
	.st5{fill:url(#SVGID_5_);}
	.st6{fill:url(#SVGID_6_);}
	.st7{fill:url(#SVGID_7_);}
</style>
<g class="st0">
	<linearGradient id="SVGID_1_" gradientUnits="userSpaceOnUse" x1="17.2026" y1="4.4497" x2="22.6112" y2="4.4497">
		<stop  offset="0" style="stop-color:#1A1B7D"/>
		<stop  offset="8.870302e-02" style="stop-color:#1C1F80"/>
		<stop  offset="0.1817" style="stop-color:#232C88"/>
		<stop  offset="0.2766" style="stop-color:#2E4195"/>
		<stop  offset="0.3729" style="stop-color:#3E5EA7"/>
		<stop  offset="0.4694" style="stop-color:#5184BF"/>
		<stop  offset="0.4888" style="stop-color:#568CC4"/>
		<stop  offset="0.6091" style="stop-color:#3A5C9B"/>
		<stop  offset="0.7283" style="stop-color:#223479"/>
		<stop  offset="0.8368" style="stop-color:#111860"/>
		<stop  offset="0.9309" style="stop-color:#070651"/>
		<stop  offset="1" style="stop-color:#03004C"/>
	</linearGradient>
	<path class="st1" d="M21.8,1.7l0.3-0.6h0.3l0.1,2.6h-0.3C22,3,21.7,2.4,21.4,2.1c-0.4-0.4-0.8-0.7-1.3-0.7c-0.5,0-1,0.2-1.3,0.7
		c-0.3,0.5-0.5,1.3-0.5,2.5c0,1,0.2,1.7,0.6,2.2c0.3,0.4,0.8,0.6,1.4,0.6c0.5,0,1-0.2,1.3-0.5c0.4-0.3,0.6-0.8,0.7-1.5h0.3
		c-0.1,0.8-0.4,1.4-0.8,1.8c-0.4,0.4-1,0.6-1.7,0.6c-0.5,0-1-0.1-1.5-0.4c-0.5-0.3-0.8-0.7-1.1-1.2c-0.3-0.5-0.4-1.1-0.4-1.7
		c0-0.6,0.1-1.2,0.4-1.8c0.3-0.6,0.6-1,1.1-1.3s0.9-0.4,1.4-0.4c0.3,0,0.5,0,0.8,0.1C21.2,1.3,21.5,1.5,21.8,1.7z"/>
	<linearGradient id="SVGID_2_" gradientUnits="userSpaceOnUse" x1="24.5756" y1="4.4497" x2="30.5696" y2="4.4497">
		<stop  offset="0" style="stop-color:#1A1B7D"/>
		<stop  offset="8.870302e-02" style="stop-color:#1C1F80"/>
		<stop  offset="0.1817" style="stop-color:#232C88"/>
		<stop  offset="0.2766" style="stop-color:#2E4195"/>
		<stop  offset="0.3729" style="stop-color:#3E5EA7"/>
		<stop  offset="0.4694" style="stop-color:#5184BF"/>
		<stop  offset="0.4888" style="stop-color:#568CC4"/>
		<stop  offset="0.6091" style="stop-color:#3A5C9B"/>
		<stop  offset="0.7283" style="stop-color:#223479"/>
		<stop  offset="0.8368" style="stop-color:#111860"/>
		<stop  offset="0.9309" style="stop-color:#070651"/>
		<stop  offset="1" style="stop-color:#03004C"/>
	</linearGradient>
	<path class="st2" d="M27.5,1.1c0.5,0,1.1,0.1,1.5,0.4c0.5,0.3,0.8,0.7,1.1,1.2c0.3,0.5,0.4,1.1,0.4,1.7s-0.1,1.2-0.4,1.7
		S29.5,7.1,29,7.4c-0.5,0.3-1,0.4-1.5,0.4c-0.5,0-1-0.1-1.5-0.4S25.3,6.7,25,6.2c-0.3-0.5-0.4-1.1-0.4-1.8c0-0.6,0.1-1.2,0.4-1.7
		c0.3-0.5,0.6-0.9,1.1-1.2C26.5,1.2,27,1.1,27.5,1.1z M27.6,1.4c-0.6,0-1,0.2-1.4,0.7s-0.5,1.2-0.5,2.3c0,1.2,0.2,2,0.5,2.4
		c0.4,0.4,0.8,0.7,1.3,0.7c0.4,0,0.7-0.1,1-0.3c0.3-0.2,0.5-0.5,0.7-1c0.2-0.4,0.3-1,0.3-1.7c0-0.8-0.1-1.4-0.2-1.8
		c-0.2-0.4-0.4-0.8-0.7-1C28.3,1.5,27.9,1.4,27.6,1.4z"/>
	<linearGradient id="SVGID_3_" gradientUnits="userSpaceOnUse" x1="32.4636" y1="4.4368" x2="39.2223" y2="4.4368">
		<stop  offset="0" style="stop-color:#1A1B7D"/>
		<stop  offset="8.870302e-02" style="stop-color:#1C1F80"/>
		<stop  offset="0.1817" style="stop-color:#232C88"/>
		<stop  offset="0.2766" style="stop-color:#2E4195"/>
		<stop  offset="0.3729" style="stop-color:#3E5EA7"/>
		<stop  offset="0.4694" style="stop-color:#5184BF"/>
		<stop  offset="0.4888" style="stop-color:#568CC4"/>
		<stop  offset="0.6091" style="stop-color:#3A5C9B"/>
		<stop  offset="0.7283" style="stop-color:#223479"/>
		<stop  offset="0.8368" style="stop-color:#111860"/>
		<stop  offset="0.9309" style="stop-color:#070651"/>
		<stop  offset="1" style="stop-color:#03004C"/>
	</linearGradient>
	<path class="st3" d="M32.5,1.2H34l3.9,5.1V2.6c0-0.4-0.1-0.6-0.3-0.8c-0.2-0.2-0.4-0.2-0.7-0.3V1.2h2.3v0.3c-0.2,0-0.4,0-0.5,0.1
		c-0.1,0.1-0.2,0.2-0.3,0.3c-0.1,0.2-0.1,0.4-0.1,0.6v5.1h-0.4l-4-5.3v3.9c0,0.4,0.1,0.6,0.3,0.8c0.2,0.2,0.5,0.3,0.8,0.3v0.3h-2.5
		V7.3c0.3,0,0.6-0.1,0.7-0.3c0.2-0.2,0.3-0.4,0.3-0.7V2l-0.1-0.1c-0.1-0.2-0.2-0.3-0.3-0.3c-0.1,0-0.2-0.1-0.3-0.1h-0.3V1.2z"/>
	<linearGradient id="SVGID_4_" gradientUnits="userSpaceOnUse" x1="40.6887" y1="4.4368" x2="46.2016" y2="4.4368">
		<stop  offset="0" style="stop-color:#1A1B7D"/>
		<stop  offset="8.870302e-02" style="stop-color:#1C1F80"/>
		<stop  offset="0.1817" style="stop-color:#232C88"/>
		<stop  offset="0.2766" style="stop-color:#2E4195"/>
		<stop  offset="0.3729" style="stop-color:#3E5EA7"/>
		<stop  offset="0.4694" style="stop-color:#5184BF"/>
		<stop  offset="0.4888" style="stop-color:#568CC4"/>
		<stop  offset="0.6091" style="stop-color:#3A5C9B"/>
		<stop  offset="0.7283" style="stop-color:#223479"/>
		<stop  offset="0.8368" style="stop-color:#111860"/>
		<stop  offset="0.9309" style="stop-color:#070651"/>
		<stop  offset="1" style="stop-color:#03004C"/>
	</linearGradient>
	<path class="st4" d="M40.8,1.2h5.2l0.1,2.4h-0.3c-0.2-1.4-0.7-2.2-1.6-2.2c-0.2,0-0.3,0-0.3,0.1c-0.1,0.1-0.1,0.2-0.1,0.3V7
		c0,0.1,0,0.2,0.1,0.2c0.1,0,0.2,0.1,0.3,0.1h0.6v0.3h-3V7.3h0.7c0.1,0,0.2,0,0.2-0.1C43,7.2,43,7.2,43,7.1V1.8c0-0.1,0-0.2-0.1-0.3
		c-0.1-0.1-0.2-0.1-0.3-0.1c-0.4,0-0.8,0.2-1.1,0.6c-0.2,0.3-0.4,0.8-0.5,1.6h-0.3L40.8,1.2z"/>
	<linearGradient id="SVGID_5_" gradientUnits="userSpaceOnUse" x1="46.8903" y1="4.369" x2="53.465" y2="4.369">
		<stop  offset="0" style="stop-color:#1A1B7D"/>
		<stop  offset="8.870302e-02" style="stop-color:#1C1F80"/>
		<stop  offset="0.1817" style="stop-color:#232C88"/>
		<stop  offset="0.2766" style="stop-color:#2E4195"/>
		<stop  offset="0.3729" style="stop-color:#3E5EA7"/>
		<stop  offset="0.4694" style="stop-color:#5184BF"/>
		<stop  offset="0.4888" style="stop-color:#568CC4"/>
		<stop  offset="0.6091" style="stop-color:#3A5C9B"/>
		<stop  offset="0.7283" style="stop-color:#223479"/>
		<stop  offset="0.8368" style="stop-color:#111860"/>
		<stop  offset="0.9309" style="stop-color:#070651"/>
		<stop  offset="1" style="stop-color:#03004C"/>
	</linearGradient>
	<path class="st5" d="M50.1,1.1h0.3L52.7,7c0.1,0.2,0.3,0.4,0.6,0.4h0.2v0.3h-2.6V7.3h0.2c0.3,0,0.5,0,0.6-0.1
		c0.1,0,0.1-0.1,0.1-0.2c0-0.1,0-0.1,0-0.2l-0.5-1.4h-2.6l-0.3,0.8c-0.1,0.2-0.1,0.4-0.1,0.5c0,0.1,0.1,0.3,0.2,0.4
		c0.1,0.1,0.3,0.2,0.6,0.2h0.2v0.3h-2.3V7.3c0.3,0,0.4-0.1,0.6-0.2c0.1-0.1,0.3-0.3,0.4-0.6L50.1,1.1z M50,2.3l-1.2,2.9h2.3L50,2.3z
		"/>
	<linearGradient id="SVGID_6_" gradientUnits="userSpaceOnUse" x1="55.0851" y1="4.4497" x2="60.4931" y2="4.4497">
		<stop  offset="0" style="stop-color:#1A1B7D"/>
		<stop  offset="8.870302e-02" style="stop-color:#1C1F80"/>
		<stop  offset="0.1817" style="stop-color:#232C88"/>
		<stop  offset="0.2766" style="stop-color:#2E4195"/>
		<stop  offset="0.3729" style="stop-color:#3E5EA7"/>
		<stop  offset="0.4694" style="stop-color:#5184BF"/>
		<stop  offset="0.4888" style="stop-color:#568CC4"/>
		<stop  offset="0.6091" style="stop-color:#3A5C9B"/>
		<stop  offset="0.7283" style="stop-color:#223479"/>
		<stop  offset="0.8368" style="stop-color:#111860"/>
		<stop  offset="0.9309" style="stop-color:#070651"/>
		<stop  offset="1" style="stop-color:#03004C"/>
	</linearGradient>
	<path class="st6" d="M59.6,1.7l0.3-0.6h0.3l0.1,2.6H60c-0.2-0.7-0.4-1.3-0.7-1.6C59,1.6,58.5,1.4,58,1.4c-0.5,0-1,0.2-1.3,0.7
		c-0.3,0.5-0.5,1.3-0.5,2.5c0,1,0.2,1.7,0.6,2.2c0.3,0.4,0.8,0.6,1.4,0.6c0.5,0,1-0.2,1.3-0.5c0.4-0.3,0.6-0.8,0.7-1.5h0.3
		c-0.1,0.8-0.4,1.4-0.8,1.8c-0.4,0.4-1,0.6-1.7,0.6c-0.5,0-1-0.1-1.5-0.4c-0.5-0.3-0.8-0.7-1.1-1.2c-0.3-0.5-0.4-1.1-0.4-1.7
		c0-0.6,0.1-1.2,0.4-1.8c0.3-0.6,0.6-1,1.1-1.3C57,1.2,57.5,1.1,58,1.1c0.3,0,0.5,0,0.8,0.1C59,1.3,59.3,1.5,59.6,1.7z"/>
	<linearGradient id="SVGID_7_" gradientUnits="userSpaceOnUse" x1="62.2252" y1="4.4368" x2="67.7391" y2="4.4368">
		<stop  offset="0" style="stop-color:#1A1B7D"/>
		<stop  offset="8.870302e-02" style="stop-color:#1C1F80"/>
		<stop  offset="0.1817" style="stop-color:#232C88"/>
		<stop  offset="0.2766" style="stop-color:#2E4195"/>
		<stop  offset="0.3729" style="stop-color:#3E5EA7"/>
		<stop  offset="0.4694" style="stop-color:#5184BF"/>
		<stop  offset="0.4888" style="stop-color:#568CC4"/>
		<stop  offset="0.6091" style="stop-color:#3A5C9B"/>
		<stop  offset="0.7283" style="stop-color:#223479"/>
		<stop  offset="0.8368" style="stop-color:#111860"/>
		<stop  offset="0.9309" style="stop-color:#070651"/>
		<stop  offset="1" style="stop-color:#03004C"/>
	</linearGradient>
	<path class="st7" d="M62.4,1.2h5.2l0.1,2.4h-0.3c-0.2-1.4-0.7-2.2-1.6-2.2c-0.2,0-0.3,0-0.3,0.1c-0.1,0.1-0.1,0.2-0.1,0.3V7
		c0,0.1,0,0.2,0.1,0.2c0.1,0,0.2,0.1,0.3,0.1h0.7v0.3h-3V7.3h0.7c0.1,0,0.2,0,0.2-0.1c0.1,0,0.1-0.1,0.1-0.2V1.8
		c0-0.1,0-0.2-0.1-0.3c-0.1-0.1-0.2-0.1-0.3-0.1c-0.4,0-0.8,0.2-1.1,0.6c-0.2,0.3-0.4,0.8-0.5,1.6h-0.3L62.4,1.2z"/>
</g>
</svg>
