<?xml version="1.0" encoding="utf-8"?>
<!-- Generator: Adobe Illustrator 25.0.1, SVG Export Plug-In . SVG Version: 6.00 Build 0)  -->
<svg version="1.1" id="レイヤー_1" xmlns="http://www.w3.org/2000/svg" xmlns:xlink="http://www.w3.org/1999/xlink" x="0px"
	 y="0px" viewBox="0 0 104 12" style="enable-background:new 0 0 104 12;" xml:space="preserve">
<style type="text/css">
	.st0{enable-background:new    ;}
	.st1{fill:url(#SVGID_1_);}
	.st2{fill:url(#SVGID_2_);}
	.st3{fill:url(#SVGID_3_);}
	.st4{fill:url(#SVGID_4_);}
	.st5{fill:url(#SVGID_5_);}
	.st6{fill:url(#SVGID_6_);}
</style>
<g class="st0">
	<linearGradient id="SVGID_1_" gradientUnits="userSpaceOnUse" x1="27.5547" y1="5.0972" x2="34.1776" y2="5.0972">
		<stop  offset="0" style="stop-color:#1A1B7D"/>
		<stop  offset="8.870302e-02" style="stop-color:#1C1F80"/>
		<stop  offset="0.1817" style="stop-color:#232C88"/>
		<stop  offset="0.2766" style="stop-color:#2E4195"/>
		<stop  offset="0.3729" style="stop-color:#3E5EA7"/>
		<stop  offset="0.4694" style="stop-color:#5184BF"/>
		<stop  offset="0.4888" style="stop-color:#568CC4"/>
		<stop  offset="0.6091" style="stop-color:#3A5C9B"/>
		<stop  offset="0.7283" style="stop-color:#223479"/>
		<stop  offset="0.8368" style="stop-color:#111860"/>
		<stop  offset="0.9309" style="stop-color:#070651"/>
		<stop  offset="1" style="stop-color:#03004C"/>
	</linearGradient>
	<path class="st1" d="M27.6,1.4h3.9c0.8,0,1.3,0.2,1.7,0.5c0.4,0.3,0.6,0.8,0.6,1.3c0,0.4-0.1,0.8-0.4,1.1c-0.3,0.3-0.7,0.5-1.3,0.7
		c0.7,0.1,1.2,0.4,1.6,0.7c0.3,0.3,0.5,0.7,0.5,1.2c0,0.4-0.1,0.7-0.3,1c-0.2,0.3-0.5,0.5-1,0.7c-0.5,0.2-1,0.3-1.6,0.3h-3.8V8.4
		h0.6c0.2,0,0.3,0,0.4-0.1s0.1-0.1,0.1-0.2V2.2c0-0.1,0-0.2-0.1-0.3c-0.1-0.1-0.2-0.1-0.4-0.1h-0.7V1.4z M29.8,4.8h1.4
		c0.4,0,0.8-0.1,1-0.4c0.3-0.3,0.4-0.7,0.4-1.2c0-0.4-0.1-0.6-0.2-0.8c-0.1-0.2-0.3-0.3-0.5-0.4c-0.2-0.1-0.6-0.1-1.2-0.1
		c-0.4,0-0.7,0-0.8,0.1c-0.1,0.1-0.1,0.2-0.1,0.3V4.8z M29.8,5.2V8c0,0.1,0,0.2,0.1,0.3c0.1,0.1,0.2,0.1,0.4,0.1h0.9
		c0.6,0,1-0.1,1.3-0.4C32.8,7.8,33,7.4,33,6.8c0-0.5-0.1-0.9-0.4-1.2c-0.3-0.3-0.7-0.4-1.2-0.4H29.8z"/>
	<linearGradient id="SVGID_2_" gradientUnits="userSpaceOnUse" x1="35.8075" y1="5.1349" x2="42.7868" y2="5.1349">
		<stop  offset="0" style="stop-color:#1A1B7D"/>
		<stop  offset="8.870302e-02" style="stop-color:#1C1F80"/>
		<stop  offset="0.1817" style="stop-color:#232C88"/>
		<stop  offset="0.2766" style="stop-color:#2E4195"/>
		<stop  offset="0.3729" style="stop-color:#3E5EA7"/>
		<stop  offset="0.4694" style="stop-color:#5184BF"/>
		<stop  offset="0.4888" style="stop-color:#568CC4"/>
		<stop  offset="0.6091" style="stop-color:#3A5C9B"/>
		<stop  offset="0.7283" style="stop-color:#223479"/>
		<stop  offset="0.8368" style="stop-color:#111860"/>
		<stop  offset="0.9309" style="stop-color:#070651"/>
		<stop  offset="1" style="stop-color:#03004C"/>
	</linearGradient>
	<path class="st2" d="M35.8,1.4h3.8c0.7,0,1.3,0.2,1.7,0.5C41.8,2.2,42,2.7,42,3.2c0,0.3-0.1,0.6-0.2,0.9c-0.2,0.3-0.4,0.5-0.7,0.6
		C40.7,4.9,40.3,5,39.6,5c0.5,0.1,0.8,0.3,1,0.4c0.2,0.1,0.3,0.3,0.4,0.5c0.1,0.2,0.2,0.6,0.4,1.2c0.1,0.4,0.2,0.7,0.3,0.9
		c0.1,0.1,0.2,0.2,0.3,0.2c0.1,0,0.2-0.1,0.3-0.2c0.1-0.2,0.1-0.4,0.2-0.8h0.3c-0.1,1.1-0.5,1.7-1.3,1.7c-0.2,0-0.5-0.1-0.6-0.2
		c-0.2-0.1-0.3-0.3-0.4-0.5c-0.1-0.2-0.1-0.7-0.2-1.4C40.2,6.3,40.1,6,40,5.8c-0.1-0.2-0.3-0.3-0.5-0.5c-0.2-0.1-0.5-0.2-0.8-0.2
		h-0.6v2.9c0,0.1,0,0.2,0.1,0.3c0.1,0.1,0.2,0.1,0.4,0.1h0.7v0.4h-3.4V8.4h0.7c0.2,0,0.3,0,0.4-0.1C37,8.3,37,8.2,37,8.1V2.1
		c0-0.1,0-0.2-0.1-0.3c-0.1-0.1-0.2-0.1-0.4-0.1h-0.7V1.4z M38.1,4.8h0.9c0.6,0,1-0.1,1.4-0.3c0.3-0.2,0.5-0.6,0.5-1.2
		c0-0.4-0.1-0.7-0.2-0.9c-0.1-0.2-0.3-0.4-0.5-0.5c-0.2-0.1-0.6-0.1-1.2-0.1c-0.4,0-0.6,0-0.7,0.1c-0.1,0.1-0.1,0.1-0.1,0.3V4.8z"/>
	<linearGradient id="SVGID_3_" gradientUnits="userSpaceOnUse" x1="43.9506" y1="5.0191" x2="51.5015" y2="5.0191">
		<stop  offset="0" style="stop-color:#1A1B7D"/>
		<stop  offset="8.870302e-02" style="stop-color:#1C1F80"/>
		<stop  offset="0.1817" style="stop-color:#232C88"/>
		<stop  offset="0.2766" style="stop-color:#2E4195"/>
		<stop  offset="0.3729" style="stop-color:#3E5EA7"/>
		<stop  offset="0.4694" style="stop-color:#5184BF"/>
		<stop  offset="0.4888" style="stop-color:#568CC4"/>
		<stop  offset="0.6091" style="stop-color:#3A5C9B"/>
		<stop  offset="0.7283" style="stop-color:#223479"/>
		<stop  offset="0.8368" style="stop-color:#111860"/>
		<stop  offset="0.9309" style="stop-color:#070651"/>
		<stop  offset="1" style="stop-color:#03004C"/>
	</linearGradient>
	<path class="st3" d="M47.6,1.2H48L50.6,8c0.1,0.3,0.3,0.4,0.7,0.4h0.2v0.4h-3V8.4h0.2c0.3,0,0.5,0,0.7-0.1c0.1,0,0.1-0.1,0.1-0.2
		c0-0.1,0-0.1,0-0.2l-0.6-1.6H46l-0.3,0.9c-0.1,0.2-0.1,0.4-0.1,0.6c0,0.2,0.1,0.3,0.2,0.4c0.2,0.1,0.4,0.2,0.7,0.2h0.3v0.4H44V8.4
		c0.3,0,0.5-0.1,0.7-0.2c0.2-0.1,0.3-0.4,0.5-0.7L47.6,1.2z M47.5,2.7L46.1,6h2.6L47.5,2.7z"/>
	<linearGradient id="SVGID_4_" gradientUnits="userSpaceOnUse" x1="52.927" y1="5.0972" x2="60.6879" y2="5.0972">
		<stop  offset="0" style="stop-color:#1A1B7D"/>
		<stop  offset="8.870302e-02" style="stop-color:#1C1F80"/>
		<stop  offset="0.1817" style="stop-color:#232C88"/>
		<stop  offset="0.2766" style="stop-color:#2E4195"/>
		<stop  offset="0.3729" style="stop-color:#3E5EA7"/>
		<stop  offset="0.4694" style="stop-color:#5184BF"/>
		<stop  offset="0.4888" style="stop-color:#568CC4"/>
		<stop  offset="0.6091" style="stop-color:#3A5C9B"/>
		<stop  offset="0.7283" style="stop-color:#223479"/>
		<stop  offset="0.8368" style="stop-color:#111860"/>
		<stop  offset="0.9309" style="stop-color:#070651"/>
		<stop  offset="1" style="stop-color:#03004C"/>
	</linearGradient>
	<path class="st4" d="M52.9,1.4h1.8l4.5,5.8V3c0-0.4-0.1-0.7-0.3-0.9c-0.2-0.2-0.4-0.3-0.8-0.3V1.4h2.6v0.4c-0.3,0-0.5,0-0.6,0.1
		c-0.1,0.1-0.2,0.2-0.3,0.4c-0.1,0.2-0.1,0.4-0.1,0.6v5.9h-0.5l-4.6-6.1v4.5c0,0.4,0.1,0.7,0.3,0.9c0.2,0.2,0.5,0.3,0.9,0.3v0.4
		h-2.8V8.4c0.4,0,0.6-0.1,0.8-0.3c0.2-0.2,0.3-0.5,0.3-0.8v-5L54,2.2c-0.2-0.2-0.3-0.3-0.4-0.3c-0.1,0-0.2-0.1-0.4-0.1h-0.3V1.4z"/>
	<linearGradient id="SVGID_5_" gradientUnits="userSpaceOnUse" x1="62.2893" y1="5.0972" x2="69.3529" y2="5.0972">
		<stop  offset="0" style="stop-color:#1A1B7D"/>
		<stop  offset="8.870302e-02" style="stop-color:#1C1F80"/>
		<stop  offset="0.1817" style="stop-color:#232C88"/>
		<stop  offset="0.2766" style="stop-color:#2E4195"/>
		<stop  offset="0.3729" style="stop-color:#3E5EA7"/>
		<stop  offset="0.4694" style="stop-color:#5184BF"/>
		<stop  offset="0.4888" style="stop-color:#568CC4"/>
		<stop  offset="0.6091" style="stop-color:#3A5C9B"/>
		<stop  offset="0.7283" style="stop-color:#223479"/>
		<stop  offset="0.8368" style="stop-color:#111860"/>
		<stop  offset="0.9309" style="stop-color:#070651"/>
		<stop  offset="1" style="stop-color:#03004C"/>
	</linearGradient>
	<path class="st5" d="M62.3,1.4h3.8c0.6,0,1.1,0.1,1.4,0.3c0.5,0.3,0.9,0.7,1.3,1.3c0.3,0.6,0.5,1.3,0.5,2.1c0,0.7-0.1,1.3-0.3,1.8
		c-0.2,0.4-0.4,0.8-0.7,1.1c-0.3,0.3-0.7,0.5-1.2,0.7c-0.4,0.1-0.8,0.2-1.4,0.2h-3.4V8.4H63c0.2,0,0.3,0,0.4-0.1
		c0.1-0.1,0.1-0.1,0.1-0.3v-6c0-0.1,0-0.2-0.1-0.2c-0.1-0.1-0.2-0.1-0.3-0.1h-0.8V1.4z M65,1.8c-0.2,0-0.3,0-0.3,0.1
		c-0.1,0.1-0.1,0.2-0.1,0.3v5.9c0,0.1,0,0.2,0.1,0.3c0.1,0.1,0.2,0.1,0.4,0.1h0.6c0.6,0,1.1-0.1,1.5-0.4c0.3-0.2,0.5-0.5,0.6-0.8
		c0.2-0.5,0.3-1.1,0.3-2c0-1.2-0.2-2.1-0.6-2.7c-0.4-0.5-0.9-0.7-1.7-0.7H65z"/>
	<linearGradient id="SVGID_6_" gradientUnits="userSpaceOnUse" x1="71.6557" y1="5.0894" x2="77" y2="5.0894">
		<stop  offset="0" style="stop-color:#1A1B7D"/>
		<stop  offset="8.870302e-02" style="stop-color:#1C1F80"/>
		<stop  offset="0.1817" style="stop-color:#232C88"/>
		<stop  offset="0.2766" style="stop-color:#2E4195"/>
		<stop  offset="0.3729" style="stop-color:#3E5EA7"/>
		<stop  offset="0.4694" style="stop-color:#5184BF"/>
		<stop  offset="0.4888" style="stop-color:#568CC4"/>
		<stop  offset="0.6091" style="stop-color:#3A5C9B"/>
		<stop  offset="0.7283" style="stop-color:#223479"/>
		<stop  offset="0.8368" style="stop-color:#111860"/>
		<stop  offset="0.9309" style="stop-color:#070651"/>
		<stop  offset="1" style="stop-color:#03004C"/>
	</linearGradient>
	<path class="st6" d="M75.7,1.9l0.5-0.6h0.4l0,2.7h-0.3c-0.2-0.8-0.5-1.4-0.9-1.8c-0.4-0.4-0.9-0.6-1.4-0.6c-0.4,0-0.8,0.1-1.1,0.4
		c-0.3,0.3-0.4,0.6-0.4,1c0,0.2,0.1,0.4,0.2,0.6s0.3,0.3,0.5,0.4c0.2,0.1,0.6,0.2,1.2,0.4c0.8,0.2,1.4,0.4,1.7,0.5
		c0.3,0.2,0.6,0.4,0.7,0.7c0.2,0.3,0.2,0.6,0.2,1c0,0.7-0.2,1.2-0.7,1.7c-0.5,0.4-1,0.7-1.7,0.7c-0.8,0-1.4-0.2-2-0.7L72,8.9h-0.4V6
		H72c0.1,0.8,0.5,1.4,0.9,1.9c0.5,0.5,1,0.7,1.7,0.7c0.5,0,0.9-0.1,1.2-0.4s0.5-0.6,0.5-1.1c0-0.2-0.1-0.4-0.2-0.6
		C76,6.3,75.8,6.1,75.6,6c-0.3-0.1-0.8-0.3-1.5-0.4c-0.8-0.2-1.4-0.4-1.7-0.7c-0.4-0.3-0.6-0.8-0.6-1.5c0-0.7,0.2-1.2,0.6-1.6
		c0.4-0.4,0.9-0.6,1.6-0.6c0.3,0,0.6,0.1,0.9,0.2C75.1,1.5,75.4,1.7,75.7,1.9z"/>
</g>
</svg>
