<?xml version="1.0" encoding="utf-8"?>
<!-- Generator: Adobe Illustrator 25.0.1, SVG Export Plug-In . SVG Version: 6.00 Build 0)  -->
<svg version="1.1" id="レイヤー_1" xmlns="http://www.w3.org/2000/svg" xmlns:xlink="http://www.w3.org/1999/xlink" x="0px"
	 y="0px" viewBox="0 0 61 59" style="enable-background:new 0 0 61 59;" xml:space="preserve">
<style type="text/css">
	.st0{fill:#E8E8E8;}
	.st1{fill:#C6CDD1;}
</style>
<g>
	<path class="st0" d="M18.6,14.7h12.8c1.1,0,2,0.9,2,2v1.8h1.8c1.1,0,2,0.9,2,2v1.8h1.8c1.1,0,2,0.9,2,2v12.8c0,1.1-0.9,2-2,2H26.3
		c-1.1,0-2-0.9-2-2v-1.8h-1.8c-1.1,0-2-0.9-2-2v-1.8h-1.8c-1.1,0-2-0.9-2-2V16.7C16.6,15.6,17.5,14.7,18.6,14.7L18.6,14.7z
		 M39.5,24.4c0-0.2-0.1-0.3-0.3-0.3H26.3c-0.2,0-0.3,0.1-0.3,0.3v9.2l3.9-0.3l1.8-2.1c0.2-0.3,0.6-0.3,0.9-0.1l1.5,1.2l1.6-3.7
		c0.1-0.2,0.3-0.4,0.6-0.4c0.2,0,0.5,0.1,0.6,0.3l2.6,4.3V24.4z M26,35.2h13.4l-3-4.9l-1.5,3.3c-0.1,0.2-0.2,0.3-0.4,0.4
		c-0.2,0-0.4,0-0.6-0.1l-1.6-1.3l-1.6,1.8c-0.1,0.1-0.3,0.2-0.4,0.2L26,34.9V35.2z M26,37.2c0,0.2,0.1,0.3,0.3,0.3h12.8
		c0.2,0,0.3-0.1,0.3-0.3v-0.7H26V37.2z M22.2,33.4c0,0.2,0.1,0.3,0.3,0.3h1.8v-9.3c0-1.1,0.9-2,2-2h9.3v-1.8c0-0.2-0.1-0.3-0.3-0.3
		H22.5c-0.2,0-0.3,0.1-0.3,0.3V33.4z M18.3,29.6c0,0.2,0.1,0.3,0.3,0.3h1.8v-9.3c0-1.1,0.9-2,2-2h9.3v-1.8c0-0.2-0.1-0.3-0.3-0.3
		H18.6c-0.2,0-0.3,0.1-0.3,0.3V29.6z"/>
	<path class="st0" d="M30.1,29.5c-1.1,0-2-0.9-2-2c0-1.1,0.9-2,2-2c1.1,0,2,0.9,2,2C32.2,28.6,31.2,29.5,30.1,29.5L30.1,29.5z"/>
</g>
<g>
	<path class="st0" d="M59.5,8.8h-58c-0.6,0-1.2,0.5-1.2,1.2v39.4c0,0.6,0.5,1.2,1.2,1.2h21.6l-1.7,6h-3.5c-0.6,0-1.2,0.5-1.2,1.2
		c0,0.6,0.5,1.2,1.2,1.2h25.3c0.6,0,1.2-0.5,1.2-1.2c0-0.6-0.5-1.2-1.2-1.2h-3.6l-1.7-6h21.6c0.6,0,1.2-0.5,1.2-1.2V10
		C60.7,9.3,60.1,8.8,59.5,8.8L59.5,8.8z M37.2,56.5H23.8l1.7-6h10L37.2,56.5z M58.3,48.2H2.7V11.1h55.7V48.2z"/>
	<path class="st0" d="M59.5,45.1H2.4c-0.6,0-1.2-0.5-1.2-1.2c0-0.6,0.5-1.2,1.2-1.2h57.1c0.6,0,1.2,0.5,1.2,1.2
		C60.7,44.6,60.1,45.1,59.5,45.1L59.5,45.1z"/>
</g>
<g>
	<path class="st1" d="M93.6,20.8H82.6c-0.1,0-0.2,0.1-0.2,0.2v7.4c0,0.1,0.1,0.2,0.2,0.2h4.1l-0.3,1.1h-0.7c-0.1,0-0.2,0.1-0.2,0.2
		c0,0.1,0.1,0.2,0.2,0.2h4.8c0.1,0,0.2-0.1,0.2-0.2c0-0.1-0.1-0.2-0.2-0.2h-0.7l-0.3-1.1h4.1c0.1,0,0.2-0.1,0.2-0.2v-7.4
		C93.8,20.9,93.7,20.8,93.6,20.8L93.6,20.8z M89.3,29.8h-2.5l0.3-1.1H89L89.3,29.8z M93.3,28.3H82.8v-7h10.5V28.3z"/>
	<path class="st1" d="M93.6,27.7H82.8c-0.1,0-0.2-0.1-0.2-0.2c0-0.1,0.1-0.2,0.2-0.2h10.8c0.1,0,0.2,0.1,0.2,0.2
		C93.8,27.6,93.7,27.7,93.6,27.7L93.6,27.7z"/>
</g>
<path class="st0" d="M71.9,38.5h16.3v6.7h13.1v-6.7h2.9v-5H76.8V11h27.4V6H71.9V38.5z"/>
</svg>
