<?xml version="1.0" encoding="utf-8"?>
<!-- Generator: Adobe Illustrator 25.0.1, SVG Export Plug-In . SVG Version: 6.00 Build 0)  -->
<svg version="1.1" id="レイヤー_1" xmlns="http://www.w3.org/2000/svg" xmlns:xlink="http://www.w3.org/1999/xlink" x="0px"
	 y="0px" viewBox="0 0 61 59" style="enable-background:new 0 0 61 59;" xml:space="preserve">
<style type="text/css">
	.st0{fill:#E8E8E8;}
	.st1{fill:#C6CDD1;}
</style>
<g>
	<path class="st0" d="M59.5,8.8h-58c-0.6,0-1.2,0.5-1.2,1.2v39.4c0,0.6,0.5,1.2,1.2,1.2h21.6l-1.7,6h-3.5c-0.6,0-1.2,0.5-1.2,1.2
		c0,0.6,0.5,1.2,1.2,1.2h25.3c0.6,0,1.2-0.5,1.2-1.2c0-0.6-0.5-1.2-1.2-1.2h-3.6l-1.7-6h21.6c0.6,0,1.2-0.5,1.2-1.2V10
		C60.7,9.3,60.1,8.8,59.5,8.8L59.5,8.8z M37.2,56.5H23.8l1.7-6h10L37.2,56.5z M58.3,48.2H2.7V11.1h55.7V48.2z"/>
	<path class="st0" d="M59.5,45.1H2.4c-0.6,0-1.2-0.5-1.2-1.2c0-0.6,0.5-1.2,1.2-1.2h57.1c0.6,0,1.2,0.5,1.2,1.2
		C60.7,44.6,60.1,45.1,59.5,45.1L59.5,45.1z"/>
</g>
<g>
	<path class="st1" d="M93.6,20.8H82.6c-0.1,0-0.2,0.1-0.2,0.2v7.4c0,0.1,0.1,0.2,0.2,0.2h4.1l-0.3,1.1h-0.7c-0.1,0-0.2,0.1-0.2,0.2
		c0,0.1,0.1,0.2,0.2,0.2h4.8c0.1,0,0.2-0.1,0.2-0.2c0-0.1-0.1-0.2-0.2-0.2h-0.7l-0.3-1.1h4.1c0.1,0,0.2-0.1,0.2-0.2v-7.4
		C93.8,20.9,93.7,20.8,93.6,20.8L93.6,20.8z M89.3,29.8h-2.5l0.3-1.1H89L89.3,29.8z M93.3,28.3H82.8v-7h10.5V28.3z"/>
	<path class="st1" d="M93.6,27.7H82.8c-0.1,0-0.2-0.1-0.2-0.2c0-0.1,0.1-0.2,0.2-0.2h10.8c0.1,0,0.2,0.1,0.2,0.2
		C93.8,27.6,93.7,27.7,93.6,27.7L93.6,27.7z"/>
</g>
<path class="st0" d="M71.9,38.5h16.3v6.7h13.1v-6.7h2.9v-5H76.8V11h27.4V6H71.9V38.5z"/>
<g>
	<path class="st0" d="M113.8-20.4H94.6c-0.6,0-1.2,0.5-1.2,1.2v18.1C93.5-0.5,94,0,94.6,0h19.2c0.6,0,1.2-0.5,1.2-1.2v-18.1
		C115-19.9,114.5-20.4,113.8-20.4L113.8-20.4z M111.6-18.6c0.5,0,1,0.4,1,1c0,0.5-0.4,1-1,1c-0.5,0-1-0.4-1-1
		C110.6-18.2,111-18.6,111.6-18.6L111.6-18.6z M108.3-18.6c0.5,0,1,0.4,1,1c0,0.5-0.4,1-1,1c-0.5,0-1-0.4-1-1
		C107.3-18.2,107.8-18.6,108.3-18.6L108.3-18.6z M96.4-18.2h3.9c0.3,0,0.5,0.2,0.5,0.5c0,0.3-0.2,0.5-0.5,0.5h-3.9
		c-0.3,0-0.5-0.2-0.5-0.5C95.9-18,96.1-18.2,96.4-18.2L96.4-18.2z M101.2-5.1c0-1.7,1.3-3,3-3c1.7,0,3,1.3,3,3c0,1.7-1.3,3-3,3
		C102.6-2.1,101.2-3.4,101.2-5.1L101.2-5.1z M113.2-2c0,0.1-0.1,0.2-0.2,0.2h-2.9c0.2-0.5,0.4-0.9,0.6-1.4h0.6
		c0.5,0,0.9-0.4,0.9-0.9v-1.7c0-0.5-0.4-0.9-0.9-0.9h-0.6c-0.1-0.5-0.4-1-0.6-1.5l0.4-0.4c0.2-0.2,0.3-0.4,0.3-0.6
		c0-0.2-0.1-0.5-0.3-0.6l-1.2-1.2c-0.2-0.2-0.4-0.3-0.6-0.3s-0.5,0.1-0.6,0.3l-0.4,0.4c-0.5-0.3-1-0.5-1.5-0.6v-0.6
		c0-0.5-0.4-0.9-0.9-0.9h-1.7c-0.5,0-0.9,0.4-0.9,0.9v0.6c-0.5,0.1-1,0.4-1.5,0.6l-0.4-0.4c-0.2-0.2-0.4-0.3-0.6-0.3
		s-0.5,0.1-0.6,0.3L98-10.1c-0.2,0.2-0.3,0.4-0.3,0.6c0,0.2,0.1,0.5,0.3,0.6l0.4,0.4c-0.3,0.5-0.5,1-0.6,1.5h-0.6
		c-0.5,0-0.9,0.4-0.9,0.9v1.7c0,0.5,0.4,0.9,0.9,0.9h0.6c0.1,0.5,0.3,1,0.6,1.4h-2.9c-0.1,0-0.2-0.1-0.2-0.2v-12.5h17.9V-2z"/>
</g>
<g>
	<path class="st0" d="M11.8,33c0.3,0,0.6-0.3,0.6-0.6v-9.5c0-0.3-0.3-0.6-0.6-0.6c-0.3,0-0.6,0.3-0.6,0.6v9.5
		C11.2,32.7,11.5,33,11.8,33L11.8,33z"/>
	<path class="st0" d="M16.4,25.9h11c0.3,0,0.6-0.3,0.6-0.6c0-0.3-0.3-0.6-0.6-0.6h-11c-0.3,0-0.6,0.3-0.6,0.6
		C15.8,25.6,16,25.9,16.4,25.9L16.4,25.9z"/>
	<path class="st0" d="M21.9,26.5h-5.5c-0.3,0-0.6,0.3-0.6,0.6c0,0.3,0.3,0.6,0.6,0.6h5.5c0.3,0,0.6-0.3,0.6-0.6
		C22.5,26.7,22.2,26.5,21.9,26.5L21.9,26.5z"/>
	<path class="st0" d="M21.9,28.3h-5.5c-0.3,0-0.6,0.3-0.6,0.6c0,0.3,0.3,0.6,0.6,0.6h5.5c0.3,0,0.6-0.3,0.6-0.6
		C22.5,28.6,22.2,28.3,21.9,28.3L21.9,28.3z"/>
	<g>
		<path class="st0" d="M21.9,30.1h-5.5c-0.3,0-0.6,0.3-0.6,0.6c0,0.3,0.3,0.6,0.6,0.6h5.5c0.3,0,0.6-0.3,0.6-0.6
			C22.5,30.4,22.2,30.1,21.9,30.1L21.9,30.1z"/>
		<path class="st0" d="M30.3,18.1c-0.2-0.1-0.5,0-0.7,0.2l-2.3,2.7l-2.3-2.7C25,18.1,24.8,18,24.6,18c-0.2,0-0.3,0.1-0.5,0.2
			l-2.3,2.7l-2.3-2.7c-0.1-0.1-0.3-0.2-0.5-0.2c-0.2,0-0.3,0.1-0.5,0.2l-2.3,2.7l-2.3-2.7c-0.2-0.2-0.4-0.3-0.7-0.2
			c-0.2,0.1-0.4,0.3-0.4,0.6v13.8c0,0.9-0.6,1.6-1.3,1.6c-0.7,0-1.3-0.7-1.3-1.6V20.9c0-0.3-0.3-0.6-0.6-0.6c-0.3,0-0.6,0.3-0.6,0.6
			v11.6c0,1.6,1.1,2.8,2.5,2.8h16.3c1.4,0,2.5-1.3,2.5-2.8V18.7C30.7,18.4,30.5,18.2,30.3,18.1L30.3,18.1z M28.1,34.1H13.9
			c0.3-0.5,0.5-1,0.5-1.6V20.3l1.6,1.9c0.1,0.1,0.3,0.2,0.5,0.2c0.2,0,0.3-0.1,0.5-0.2l2.3-2.7l2.3,2.7c0.1,0.1,0.3,0.2,0.5,0.2
			c0.2,0,0.3-0.1,0.5-0.2l2.3-2.7l2.3,2.7c0.1,0.1,0.3,0.2,0.5,0.2c0.2,0,0.3-0.1,0.5-0.2l1.6-1.9v12.2
			C29.4,33.4,28.9,34.1,28.1,34.1L28.1,34.1z"/>
	</g>
	<path class="st0" d="M27.4,26.5h-3.9c-0.3,0-0.6,0.3-0.6,0.6v3.9c0,0.3,0.3,0.6,0.6,0.6h3.9c0.3,0,0.6-0.3,0.6-0.6v-3.9
		C28,26.7,27.7,26.5,27.4,26.5L27.4,26.5z"/>
</g>
<g>
	<path class="st0" d="M46.8,27.4c0.4-0.3,0.6-0.7,0.6-1.2c0-0.8-0.7-1.5-1.5-1.5c-0.8,0-1.5,0.7-1.5,1.5c0,0.5,0.2,0.9,0.6,1.2
		c-0.3,0.2-0.5,0.4-0.7,0.6c-0.2-0.2-0.4-0.4-0.7-0.5c0,0,0,0-0.1,0c0.5-0.3,0.8-0.9,0.8-1.6c0-1.1-0.9-1.9-1.9-1.9
		c-1,0-1.9,0.9-1.9,1.9c0,0.6,0.3,1.2,0.8,1.6c0,0,0,0-0.1,0c-0.2,0.1-0.5,0.3-0.7,0.5c-0.2-0.3-0.4-0.5-0.7-0.6
		c0.4-0.3,0.6-0.7,0.6-1.2c0-0.8-0.7-1.5-1.5-1.5c-0.8,0-1.5,0.7-1.5,1.5c0,0.5,0.2,0.9,0.6,1.2c-0.7,0.4-1.2,1.2-1.2,2.2
		c0,0.2,0.1,0.3,0.3,0.3h2.6c0,0.1,0,0.3,0,0.4c0,0.2,0.1,0.3,0.3,0.3h4.7c0.2,0,0.3-0.1,0.3-0.3c0-0.1,0-0.3,0-0.4h2.6
		c0.2,0,0.3-0.1,0.3-0.3C47.9,28.6,47.5,27.8,46.8,27.4L46.8,27.4z M45.8,25.3c0.5,0,0.9,0.4,0.9,0.9s-0.4,0.9-0.9,0.9
		c-0.5,0-0.9-0.4-0.9-0.9S45.3,25.3,45.8,25.3L45.8,25.3z M45.8,27.7c0.1,0,0.2,0,0.3,0L45.8,28l-0.3-0.4
		C45.6,27.7,45.7,27.7,45.8,27.7L45.8,27.7z M42.3,24.6c0.7,0,1.3,0.6,1.3,1.3c0,0.7-0.6,1.3-1.3,1.3c-0.7,0-1.3-0.6-1.3-1.3
		C41,25.2,41.6,24.6,42.3,24.6L42.3,24.6z M42.3,27.8c0.2,0,0.5,0,0.7-0.1l-0.7,0.7l-0.7-0.7C41.9,27.8,42.1,27.8,42.3,27.8
		L42.3,27.8z M38.9,25.3c0.5,0,0.9,0.4,0.9,0.9s-0.4,0.9-0.9,0.9c-0.5,0-0.9-0.4-0.9-0.9S38.4,25.3,38.9,25.3L38.9,25.3z M38.9,27.7
		c0.1,0,0.2,0,0.3,0L38.9,28l-0.3-0.4C38.7,27.7,38.8,27.7,38.9,27.7L38.9,27.7z"/>
	<path class="st0" d="M50.2,27.1h-0.6c-0.2-3.7-3.1-6.6-6.8-6.8v-0.6c0-0.2-0.2-0.4-0.4-0.4c-0.2,0-0.4,0.2-0.4,0.4v0.6
		c-3.7,0.2-6.6,3.1-6.8,6.8h-0.6c-0.2,0-0.4,0.2-0.4,0.4c0,0.2,0.2,0.4,0.4,0.4h0.6c0.2,3.7,3.1,6.6,6.8,6.8v0.6
		c0,0.2,0.2,0.4,0.4,0.4c0.2,0,0.4-0.2,0.4-0.4v-0.6c3.7-0.2,6.6-3.1,6.8-6.8h0.6c0.2,0,0.4-0.2,0.4-0.4
		C50.6,27.3,50.4,27.1,50.2,27.1L50.2,27.1z M42.4,33.9C42.4,33.9,42.4,33.9,42.4,33.9C42.3,33.9,42.3,33.9,42.4,33.9
		c-3.6,0-6.4-2.9-6.4-6.4c0,0,0,0,0,0c0,0,0,0,0,0c0-3.5,2.9-6.3,6.4-6.4c0,0,0,0,0,0c0,0,0,0,0,0c3.5,0,6.3,2.9,6.4,6.4
		c0,0,0,0,0,0c0,0,0,0,0,0C48.7,31.1,45.9,33.9,42.4,33.9L42.4,33.9z"/>
</g>
</svg>
