<?xml version="1.0" encoding="utf-8"?>
<!-- Generator: Adobe Illustrator 25.2.1, SVG Export Plug-In . SVG Version: 6.00 Build 0)  -->
<svg version="1.1"
	 id="レイヤー_1" xmlns:cc="http://creativecommons.org/ns#" xmlns:dc="http://purl.org/dc/elements/1.1/" xmlns:inkscape="http://www.inkscape.org/namespaces/inkscape" xmlns:rdf="http://www.w3.org/1999/02/22-rdf-syntax-ns#" xmlns:sodipodi="http://sodipodi.sourceforge.net/DTD/sodipodi-0.dtd" xmlns:svg="http://www.w3.org/2000/svg"
	 xmlns="http://www.w3.org/2000/svg" xmlns:xlink="http://www.w3.org/1999/xlink" x="0px" y="0px" viewBox="0 0 133 35.7"
	 style="enable-background:new 0 0 133 35.7;" xml:space="preserve">
<style type="text/css">
	.st0{fill:#FFFFFF;}
	.st1{fill:none;}
	.st2{fill:#2A0D00;}
	.st3{opacity:0.74;}
	.st4{opacity:0.5;fill:url(#SVGID_1_);}
	.st5{opacity:0.75;fill:url(#SVGID_2_);}
	.st6{opacity:0.67;fill:url(#SVGID_3_);}
	.st7{opacity:0.25;fill:#FFFFFF;}
	.st8{fill:url(#SVGID_4_);}
	.st9{opacity:0.75;}
	.st10{fill:#BFBEBE;}
	.st11{fill:url(#SVGID_5_);}
	.st12{fill:url(#SVGID_6_);}
	.st13{fill:url(#SVGID_7_);}
	.st14{fill:url(#SVGID_8_);}
	.st15{fill:url(#SVGID_9_);}
</style>
<sodipodi:namedview  bordercolor="#666666" borderopacity="1" gridtolerance="10" guidetolerance="10" id="namedview107" inkscape:current-layer="レイヤー_1" inkscape:cx="33.347621" inkscape:cy="11.59381" inkscape:pageopacity="0" inkscape:pageshadow="2" inkscape:window-height="480" inkscape:window-maximized="0" inkscape:window-width="734" inkscape:window-x="0" inkscape:window-y="0" inkscape:zoom="4.3962043" objecttolerance="10" pagecolor="#ffffff" showgrid="false">
	</sodipodi:namedview>
<g>
	<circle class="st0" cx="19.7" cy="19.3" r="12.6"/>
	<path id="path102" class="st0" d="M34.2,17.7"/>
	<g>
		<rect x="16.6" y="25.4" class="st1" width="30.2" height="7.7"/>
	</g>
	<path class="st2" d="M32.8,17.6"/>
	<g class="st3">
		<g>
			
				<radialGradient id="SVGID_1_" cx="105.8167" cy="15.4825" r="17.1746" gradientTransform="matrix(-9.116017e-03 0.848 -0.9999 -1.074951e-02 31.4429 -72.2127)" gradientUnits="userSpaceOnUse">
				<stop  offset="7.361960e-02" style="stop-color:#FFFFFF"/>
				<stop  offset="0.2656" style="stop-color:#FDFDFC"/>
				<stop  offset="0.4015" style="stop-color:#F5F5F3"/>
				<stop  offset="0.5201" style="stop-color:#E8E8E3"/>
				<stop  offset="0.6289" style="stop-color:#D6D5CD"/>
				<stop  offset="0.7309" style="stop-color:#BEBDB1"/>
				<stop  offset="0.8279" style="stop-color:#A19F8E"/>
				<stop  offset="0.9192" style="stop-color:#7F7D65"/>
				<stop  offset="1" style="stop-color:#5B593A"/>
			</radialGradient>
			<path class="st4" d="M15.8,31.6c-5-3.5-6.8-9-6.7-14.9c0.1-5.9,3.3-11.1,8.2-14.5C15,2.8,12.8,3.9,11,5.3
				C8.1,8.2,6.3,12,6.2,16.1C6.1,22.8,9.2,28.7,15.8,31.6z"/>
			<radialGradient id="SVGID_2_" cx="25.1933" cy="23.8653" r="17.0656" gradientUnits="userSpaceOnUse">
				<stop  offset="7.361960e-02" style="stop-color:#FFFFFF"/>
				<stop  offset="0.2624" style="stop-color:#FDFDFC"/>
				<stop  offset="0.3961" style="stop-color:#F5F5F3"/>
				<stop  offset="0.5128" style="stop-color:#E7E7E3"/>
				<stop  offset="0.6197" style="stop-color:#D5D4CD"/>
				<stop  offset="0.7201" style="stop-color:#BCBCB1"/>
				<stop  offset="0.8154" style="stop-color:#9F9E8E"/>
				<stop  offset="0.907" style="stop-color:#7B7B64"/>
				<stop  offset="0.9932" style="stop-color:#535235"/>
				<stop  offset="1" style="stop-color:#504F31"/>
			</radialGradient>
			<path class="st5" d="M41.3,21.5c-4.1,5-9.2,9.3-16.2,9.3c-6.9,0-13.1-2.1-17.2-7.1c0.9,2.3,2.2,3.4,3.8,5.3
				c3.5,2.9,8,4.6,12.8,4.6C32.4,33.6,38,28.1,41.3,21.5z"/>
			<radialGradient id="SVGID_3_" cx="16.6314" cy="11.876" r="20.8662" gradientUnits="userSpaceOnUse">
				<stop  offset="0.3791" style="stop-color:#FFFFFF"/>
				<stop  offset="0.4545" style="stop-color:#EAE4DE"/>
				<stop  offset="0.6194" style="stop-color:#B4A08B"/>
				<stop  offset="0.7527" style="stop-color:#866543"/>
			</radialGradient>
			<path class="st6" d="M19.7,31.9c6.9,0,12.6-5.6,12.6-12.6c0-6.9-5.6-12.6-12.6-12.6c-6.9,0-12.6,5.6-12.6,12.6
				C7.1,26.2,12.8,31.9,19.7,31.9L19.7,31.9z"/>
			<path class="st7" d="M18.2,14.9c3.5-1,5.9-3.2,5.4-4.8C23.1,8.4,19.9,8,16.4,9c-3.5,1-5.9,3.2-5.4,4.8
				C11.5,15.4,14.7,15.9,18.2,14.9L18.2,14.9z"/>
		</g>
		<g>
			<g>
				<linearGradient id="SVGID_4_" gradientUnits="userSpaceOnUse" x1="14.9219" y1="17.6139" x2="26.478" y2="17.6139">
					<stop  offset="0" style="stop-color:#867063"/>
					<stop  offset="0.5" style="stop-color:#FBEED1"/>
					<stop  offset="0.824" style="stop-color:#FFFFFF"/>
				</linearGradient>
				<path class="st8" d="M15,25.3c2.6-3.8,3.5-8.4,3-12.9c-0.1-0.6-0.2-1.2-0.3-1.8c0-0.1,0-0.4-0.1-0.5c-0.1-0.1,0,0-0.1,0.1
					c-0.2,0.4-0.3,0.8-0.5,1.2c-0.3,1-0.4,1.9-0.4,3c0,2.1,0.9,4.3,3.2,4.6c3,0.4,5.1-2,6.6-4.2c0-0.3,0-0.7,0-1
					c-2.5,4-6.7,6.7-11.3,7.4c0,0,0,0.9,0,1c0.8,1.3,2.5,1.7,3.9,2c1.8,0.4,3.6,0.7,5.4,0.8c0,0,0-1,0-1c-1.8-0.1-3.6-0.4-5.4-0.8
					c-1.4-0.3-3.1-0.7-3.9-2c0,0.3,0,0.7,0,1c4.6-0.7,8.8-3.4,11.3-7.4c0.1-0.2-0.2-0.8,0-1c-1.1,1.6-2.4,3.3-4.3,3.9
					c-1.7,0.6-3.8,0.3-4.8-1.4c-0.5-0.7-0.7-1.7-0.6-2.5c0.1-0.6,0.2-1.1,0.4-1.7c0.1-0.3,0.2-0.5,0.3-0.7c0-0.1,0.1-0.3,0.2-0.4
					c0-0.2,0.1-0.2,0.1,0c0,0.1,0,0.2,0.1,0.2c0.5,2.2,0.6,4.4,0.1,6.7c-0.5,2.3-1.4,4.4-2.7,6.3C14.8,24.5,15.2,25,15,25.3L15,25.3
					z"/>
			</g>
		</g>
	</g>
</g>
<g>
	<g class="st9">
		<path class="st10" d="M61.5,28.7l-4.9-5.8h-7.9v5.8h-2.2v-8h9.9c2.6,0,4.9-0.9,4.9-3.5c0-2.8-2-3.6-4.9-3.6h-10l1.5-2.4h9.3
			c3.2,0,6.4,1.6,6.4,5.8c0,3.1-1.8,5-4.6,5.4l5.7,6.3H61.5z"/>
		<path class="st10" d="M66.7,28.7V11.2h14.7l-1.5,2.4h-11v5.3h11.8L79.4,21H68.9v5.4h12.6L80,28.7H66.7z"/>
		<path class="st10" d="M84.8,28.7V11.2H87v17.5H84.8z"/>
		<path class="st10" d="M99.1,28.7c-4.6,0-8-3.8-8-8.9c0-5.1,3.4-8.6,8-8.6h8.9l-1.4,2.4h-7.4c-3.3,0-5.7,2.4-5.7,6.3
			c0,3.9,2.4,6.4,5.7,6.4h6.1v-5.5h-8.1l1.4-2.1h8.9v10H99.1z"/>
		<path class="st10" d="M113.7,14.9v13.8h-2V12.8c0-1.3,0.6-1.8,1.2-1.8c0.3,0,0.6,0.1,1,0.5L125,25V11.2h2v15.9
			c0,1.3-0.6,1.8-1.3,1.8c-0.3,0-0.6-0.1-1-0.5L113.7,14.9z"/>
	</g>
	<g>
		<g>
			<linearGradient id="SVGID_5_" gradientUnits="userSpaceOnUse" x1="45.4603" y1="27.813" x2="61.1464" y2="12.1269">
				<stop  offset="0" style="stop-color:#867063"/>
				<stop  offset="0.5" style="stop-color:#FBEED1"/>
				<stop  offset="0.824" style="stop-color:#FFFFFF"/>
			</linearGradient>
			<path class="st11" d="M60.1,27.3l-4.9-5.8h-7.9v5.8h-2.2v-8h9.9c2.6,0,4.9-0.9,4.9-3.5c0-2.8-2-3.6-4.9-3.6h-10l1.5-2.4h9.3
				c3.2,0,6.4,1.6,6.4,5.8c0,3.1-1.8,5-4.6,5.4l5.7,6.3H60.1z"/>
			<linearGradient id="SVGID_6_" gradientUnits="userSpaceOnUse" x1="64.1929" y1="26.2456" x2="80.2811" y2="10.1574">
				<stop  offset="0" style="stop-color:#867063"/>
				<stop  offset="0.5" style="stop-color:#FBEED1"/>
				<stop  offset="0.824" style="stop-color:#FFFFFF"/>
			</linearGradient>
			<path class="st12" d="M65.2,27.3V9.8h14.7l-1.5,2.4h-11v5.3h11.8L78,19.5H67.5v5.4H80l-1.5,2.4H65.2z"/>
			<linearGradient id="SVGID_7_" gradientUnits="userSpaceOnUse" x1="79.5831" y1="23.4728" x2="89.4429" y2="13.613">
				<stop  offset="0" style="stop-color:#867063"/>
				<stop  offset="0.5" style="stop-color:#FBEED1"/>
				<stop  offset="0.824" style="stop-color:#FFFFFF"/>
			</linearGradient>
			<path class="st13" d="M83.4,27.3V9.8h2.2v17.5H83.4z"/>
			<linearGradient id="SVGID_8_" gradientUnits="userSpaceOnUse" x1="92.9856" y1="25.7529" x2="107.7622" y2="10.9764">
				<stop  offset="0" style="stop-color:#867063"/>
				<stop  offset="0.5" style="stop-color:#FBEED1"/>
				<stop  offset="0.824" style="stop-color:#FFFFFF"/>
			</linearGradient>
			<path class="st14" d="M97.7,27.3c-4.6,0-8-3.8-8-8.9c0-5.1,3.4-8.6,8-8.6h8.9l-1.4,2.4h-7.4c-3.3,0-5.7,2.4-5.7,6.3
				c0,3.9,2.4,6.4,5.7,6.4h6.1v-5.5h-8.1l1.4-2.1h8.9v10H97.7z"/>
			<linearGradient id="SVGID_9_" gradientUnits="userSpaceOnUse" x1="109.6902" y1="26.7352" x2="126.12" y2="10.3054">
				<stop  offset="0" style="stop-color:#867063"/>
				<stop  offset="0.5" style="stop-color:#FBEED1"/>
				<stop  offset="0.824" style="stop-color:#FFFFFF"/>
			</linearGradient>
			<path class="st15" d="M112.3,13.5v13.8h-2V11.3c0-1.3,0.6-1.8,1.2-1.8c0.3,0,0.6,0.1,1,0.5l11.1,13.4V9.8h2v15.9
				c0,1.3-0.6,1.8-1.3,1.8c-0.3,0-0.6-0.1-1-0.5L112.3,13.5z"/>
		</g>
	</g>
</g>
</svg>
