<?xml version="1.0" encoding="utf-8"?>
<!-- Generator: Adobe Illustrator 25.2.1, SVG Export Plug-In . SVG Version: 6.00 Build 0)  -->
<svg version="1.1" id="レイヤー_1" xmlns="http://www.w3.org/2000/svg" xmlns:xlink="http://www.w3.org/1999/xlink" x="0px"
	 y="0px" viewBox="0 0 174.3 42.3" style="enable-background:new 0 0 174.3 42.3;" xml:space="preserve">
<style type="text/css">
	.st0{fill:#FFFFFF;}
</style>
<g>
	<path class="st0" d="M5,23.7c0-0.7,0-1.9,0-3.5c0-4,0-6.4-0.1-7.1c1.1,0.1,1.7,0.2,2,0.2c0.2,0.1,0.3,0.2,0.3,0.3
		c0,0.1,0,0.2-0.1,0.2C7,13.9,6.9,14,6.6,14.1v2c0,4.8,0,8.9,0.1,12.3c0,0.5-0.4,0.8-1.1,0.8c-0.5,0-0.7-0.2-0.7-0.6
		c0-0.2,0-0.7,0-1.6c0-1,0-2,0-2.8c-0.9,0.7-2,1.3-3.1,1.8c-0.1,0.5-0.2,0.8-0.4,0.8c-0.1,0-0.2-0.1-0.3-0.4c-0.1-0.2-0.3-0.9-0.6-2
		c0.1,0,0.1,0,0.1,0c0.3,0,0.7,0,1.1-0.1v-6.8c0-0.9-0.1-1.7-0.1-2.4c1.5,0.1,2.3,0.3,2.3,0.6c0,0.2-0.2,0.3-0.6,0.5V24
		c0.1,0,0.1,0,0.2,0C4.2,23.9,4.7,23.8,5,23.7z M9.1,19.2c-0.6,0.9-1.3,1.7-2.1,2.3c0,0,0,0,0,0c-0.1,0-0.1,0-0.1-0.1c0,0,0,0,0,0
		c0.5-0.7,1-1.7,1.5-3c0.4-1,0.7-2.1,1-3.2c0.2-0.9,0.3-1.6,0.3-2.2c1,0.3,1.7,0.4,2,0.5c0.2,0.1,0.4,0.2,0.4,0.4
		c0,0.2-0.2,0.3-0.6,0.4c-0.3,1.1-0.7,2-1.1,2.9h4.3c0.7-0.8,1.1-1.2,1.2-1.2c0.1,0,0.5,0.3,1.2,0.8c0.3,0.3,0.5,0.5,0.5,0.6
		c0,0.1-0.1,0.2-0.2,0.2h-1.8c-0.3,2.8-1.1,5.1-2.4,7c1.2,1,2.6,1.8,4.4,2.3c0,0,0.1,0,0.1,0.1c0,0.1,0,0.1-0.1,0.1
		c-0.3,0.2-0.5,0.3-0.6,0.5c-0.1,0.2-0.2,0.4-0.3,0.7c-0.1,0.3-0.2,0.5-0.3,0.5c-0.2,0-0.5-0.1-0.8-0.3c-1.3-0.8-2.4-1.7-3.3-2.8
		C10.8,27,9.1,28.1,7,29c0,0,0,0,0,0c-0.1,0-0.1-0.1-0.1-0.2c0,0,0,0,0-0.1c1.8-1.4,3.2-2.7,4.2-4.1C10.1,23.1,9.4,21.3,9.1,19.2z
		 M9.4,18.7c0.5,1.9,1.3,3.5,2.5,4.8c0.9-1.5,1.5-3.5,1.8-5.9H10C9.8,18.1,9.6,18.5,9.4,18.7z"/>
	<path class="st0" d="M28.1,17.9c0.6,0,1.1,0.1,1.6,0.3c0.3,0.1,0.7,0.3,1.1,0.6c0.7,0.4,1.3,1,1.6,1.7c0.3,0.6,0.5,1.3,0.5,2
		c0,1.3-0.5,2.4-1.6,3.3c-0.9,0.7-1.9,1.3-3.2,1.6c-0.5,0.1-1,0.2-1.7,0.3c-0.5,0.1-0.9,0.1-1.2,0.1c-0.2,0-0.3-0.1-0.3-0.2
		c0-0.1,0.1-0.2,0.3-0.2c1.8-0.4,3.1-1,4-1.7c0.6-0.5,1.1-1.1,1.5-1.8c0.3-0.6,0.4-1.2,0.4-1.8c0-0.6-0.1-1.1-0.2-1.5
		c-0.2-0.4-0.4-0.8-0.8-1.1c-0.6-0.6-1.4-0.9-2.4-0.9c-0.9,1.6-1.9,3.2-3,4.7c0.1,0.2,0.2,0.3,0.3,0.4c0.3,0.3,0.4,0.6,0.4,0.9
		c0,0.2-0.1,0.4-0.2,0.5c-0.1,0.1-0.2,0.2-0.3,0.2c-0.2,0-0.4-0.1-0.5-0.2c-0.2-0.1-0.4-0.3-0.7-0.7c-0.2,0.3-0.6,0.6-1.1,1.1
		c-0.2,0.2-0.5,0.4-0.8,0.6c-0.3,0.2-0.6,0.3-1,0.3c-0.5,0-0.9-0.2-1.1-0.6c-0.3-0.5-0.4-1-0.4-1.6c0-1.6,0.8-3.1,2.5-4.5
		c0-0.1-0.1-0.2-0.1-0.4c-0.1-0.3-0.1-0.5-0.1-0.6c-0.1-0.5-0.2-0.8-0.3-1c-0.2-0.6-0.5-1-0.9-1.4c-0.1-0.1-0.2-0.2-0.2-0.2
		c0-0.1,0.1-0.1,0.2-0.1c0.1,0,0.4,0.1,0.7,0.2c0.3,0.1,0.6,0.3,0.8,0.4c0.5,0.4,0.9,0.8,0.9,1.3c0,0.1,0,0.3,0.1,0.5
		c0,0.2,0,0.4,0.1,0.6c1.1-0.6,2.4-1,3.7-1.1c0.2-0.4,0.3-0.6,0.3-0.8c0.2-0.6,0.3-1,0.3-1.3c0-0.1-0.1-0.2-0.2-0.3
		c-0.2-0.1-0.5-0.2-0.9-0.2c-0.2,0-0.2-0.1-0.2-0.2c0-0.1,0.1-0.1,0.2-0.2c0.3-0.2,0.6-0.4,0.9-0.4c0.5,0,1.1,0.2,1.8,0.7
		c0.3,0.2,0.4,0.4,0.4,0.7c0,0.2-0.1,0.4-0.3,0.6C28.8,16.6,28.6,17.1,28.1,17.9z M22,20.5c-0.9,0.9-1.4,1.9-1.4,3
		c0,0.5,0.1,0.8,0.2,1c0.1,0.2,0.2,0.3,0.4,0.3c0.5,0,1.1-0.5,2-1.4C22.7,22.6,22.3,21.6,22,20.5z M23.1,19.7c0.2,0.9,0.6,1.7,1,2.5
		c0.7-0.9,1.4-2.1,2.2-3.7C25.2,18.7,24.1,19.1,23.1,19.7z"/>
	<path class="st0" d="M38.4,18.9c1.2-0.5,2.2-0.8,2.9-0.8c0.9,0,1.7,0.4,2.4,1.2c0.6,0.7,0.8,1.6,0.8,2.9c0,0.6-0.1,1.3-0.4,2
		c-0.2,0.6-0.5,1.1-0.8,1.5c-0.6,0.8-1.2,1.4-2,1.9c-0.7,0.5-1.5,0.8-2.2,1c-0.5,0.1-0.8,0.2-0.9,0.2c0,0,0,0-0.1,0
		c-0.1,0-0.2,0-0.2-0.1c0-0.1,0.1-0.1,0.3-0.2c0.7-0.4,1.3-0.7,1.8-1.1c0.4-0.3,0.8-0.8,1.2-1.3c0.9-1.1,1.4-2.5,1.4-4.2
		c0-1.1-0.1-1.8-0.4-2.2c-0.3-0.5-0.7-0.7-1.3-0.7c-0.4,0-0.9,0.2-1.5,0.6c-0.5,0.3-0.9,0.8-1.3,1.3c-0.2,0.3-0.5,0.4-0.7,0.4
		c-0.3,0-0.7-0.2-1.1-0.7c-0.3-0.3-0.4-0.7-0.4-1c0-0.3,0.1-0.5,0.2-0.8c0-0.1,0.1-0.2,0.3-0.4c0-0.1,0.1-0.1,0.2-0.1
		c0.1,0,0.1,0,0.1,0.1c0,0,0,0.1,0,0.1c0,0.1,0,0.2,0,0.3s0,0.2,0,0.3c0,0.2,0.2,0.3,0.4,0.3C37.5,19.3,37.9,19.2,38.4,18.9z
		 M40,15.8c-1-0.2-1.7-0.9-2.1-2c0-0.1,0-0.2,0-0.2c0-0.1,0-0.2,0.1-0.2c0.1,0,0.1,0,0.2,0.1c0.6,0.7,1.6,1.1,2.9,1.1
		c0.7,0,1.2,0.1,1.5,0.2c0.5,0.3,0.8,0.6,0.8,1c0,0.4-0.3,0.6-0.9,0.6l-0.8-0.1c-0.1,0-0.2,0-0.3,0c-0.3,0-0.7,0.1-1.2,0.2
		c-0.5,0.1-0.9,0.2-1.3,0.4c-0.2,0.1-0.3,0.1-0.4,0.1c-0.1,0-0.1,0-0.1-0.1c0,0,0.1-0.1,0.3-0.3C39.5,16.2,40,15.9,40,15.8z"/>
	<path class="st0" d="M51.1,21.6L51.1,21.6c1.1-1,2.3-1.5,3.6-1.5c1.3,0,2.3,0.4,3.1,1.1c0.4,0.3,0.7,0.7,0.9,1.2
		c0.2,0.4,0.3,0.9,0.3,1.4c0,1.5-0.6,2.7-1.8,3.5c-1,0.7-2.2,1-3.5,1c-1.1,0-1.9-0.2-2.5-0.5c-0.6-0.4-0.9-0.9-0.9-1.6
		c0-0.5,0.2-1,0.6-1.3c0.4-0.3,0.9-0.4,1.5-0.4c0.7,0,1.4,0.3,2,0.9c0.4,0.4,0.7,0.9,0.9,1.5c0.5-0.2,0.9-0.5,1.2-0.9
		c0.4-0.5,0.6-1.2,0.6-2.2c0-0.9-0.3-1.6-0.9-2.1c-0.5-0.5-1.1-0.7-2-0.7c-1,0-2,0.3-2.9,1c-0.7,0.5-1.3,1.2-2,2.2
		c-0.3,0.5-0.6,0.7-0.9,0.7c-0.2,0-0.4-0.1-0.5-0.2c-0.2-0.2-0.3-0.4-0.3-0.6c0-0.3,0.1-0.6,0.3-0.8c1.5-1.6,2.6-2.8,3.4-3.8
		c0.9-1,1.8-2.2,2.8-3.5c0.1-0.2,0.2-0.3,0.2-0.4c0-0.1,0-0.1-0.1-0.1c0,0,0,0-0.1,0c-0.4,0.1-1,0.4-1.9,0.8c-0.3,0.1-0.6,0.3-1,0.5
		c-0.2,0.2-0.5,0.4-0.7,0.4c-0.3,0-0.5-0.1-0.8-0.4c-0.5-0.5-0.7-1-0.7-1.3c0-0.2,0-0.3,0.1-0.5c0.1-0.1,0.1-0.2,0.2-0.2
		s0.2,0.1,0.3,0.3c0.3,0.3,0.5,0.5,0.7,0.5c0.6,0,1.6-0.2,3-0.7c0.4-0.1,0.7-0.3,0.9-0.5c0.1-0.2,0.3-0.2,0.5-0.2
		c0.5,0,1,0.2,1.6,0.7c0.2,0.2,0.3,0.4,0.3,0.6c0,0.2-0.1,0.4-0.3,0.5c-0.3,0.2-0.6,0.3-0.7,0.4c-0.5,0.5-1.3,1.3-2.4,2.6
		c-0.2,0.3-0.6,0.7-1.2,1.4C51.8,20.8,51.4,21.2,51.1,21.6z M54.1,27.1c-0.2-0.7-0.4-1.2-0.8-1.5c-0.4-0.3-0.8-0.5-1.1-0.5
		c-0.4,0-0.7,0.1-0.8,0.3c-0.1,0.2-0.2,0.3-0.2,0.6c0,0.4,0.2,0.7,0.5,0.9c0.4,0.2,0.9,0.3,1.7,0.3C53.6,27.2,53.9,27.2,54.1,27.1z"
		/>
	<path class="st0" d="M69.7,17.6c-0.2,2.7-0.8,4.8-1.7,6.3c-0.8,1.3-1.8,2.4-2.9,3.2c-1,0.7-2.2,1.3-3.6,1.7c0,0,0,0,0,0
		c-0.1,0-0.1,0-0.1-0.1c0,0,0,0,0-0.1c1.4-0.8,2.6-1.8,3.5-2.8c0.8-0.9,1.4-2,2-3.2c0.5-1.2,0.8-2.9,1-5.1h-4c-0.4,0-0.9,0-1.3,0.1
		l-0.2-0.7c0.6,0.1,1.1,0.1,1.5,0.1h4c0-0.7,0.1-1.6,0.1-2.6c0-0.5,0-1-0.1-1.5c1.2,0.1,2,0.2,2.2,0.3c0.2,0.1,0.3,0.2,0.3,0.3
		c0,0.2-0.2,0.3-0.6,0.5l0,1.3c0,0.4,0,1-0.1,1.6h4.3c0.5-0.6,0.8-0.9,1-0.9c0.2,0,0.5,0.2,1.1,0.7c0.3,0.3,0.5,0.5,0.5,0.6
		c0,0.1-0.2,0.3-0.6,0.6c-0.2,4.1-0.5,6.9-1,8.5c-0.3,0.9-0.7,1.4-1.4,1.8c-0.4,0.2-0.9,0.3-1.4,0.3c-0.2,0-0.3-0.1-0.4-0.3
		c-0.1-0.4-0.3-0.7-0.6-0.9c-0.3-0.2-0.9-0.5-1.6-0.7c0,0-0.1-0.1-0.1-0.1c0-0.1,0-0.1,0.1-0.1c1.3,0.2,2.2,0.3,2.7,0.3
		c0.3,0,0.6-0.1,0.7-0.2c0.2-0.2,0.3-0.4,0.4-0.7c0.3-1,0.5-2.1,0.6-3.4c0.1-1.2,0.2-2.8,0.3-4.9H69.7z"/>
	<path class="st0" d="M87.8,17.2L87.8,17.2c-2.2,0.5-4,1.1-5.2,1.6c-0.3,0.1-0.5,0.3-0.7,0.4c-0.2,0.1-0.3,0.2-0.5,0.2
		c-0.4,0-0.8-0.3-1.3-0.9c-0.4-0.5-0.7-0.9-0.7-1.3c0-0.4,0.1-0.5,0.2-0.5c0.1,0,0.2,0.1,0.3,0.2c0.3,0.3,0.5,0.5,0.7,0.6
		c0.1,0.1,0.3,0.1,0.5,0.1c0,0,0.1,0,0.1,0c0.5,0,1.5-0.2,3-0.6c1.9-0.4,3.7-0.9,5.4-1.4c0.3-0.1,0.7-0.2,1-0.3
		c0.2-0.1,0.4-0.1,0.7-0.2c0.6,0,1.2,0.1,1.6,0.3c0.4,0.2,0.6,0.4,0.6,0.7c0,0.4-0.2,0.6-0.7,0.6c-0.1,0-0.3,0-0.7,0
		c-0.3,0-0.7,0-1,0.1c-1.7,0.1-3,0.8-4.1,1.9c-0.8,1-1.3,2.1-1.3,3.4c0,1.2,0.4,2,1.3,2.6c0.8,0.5,1.7,0.8,2.8,0.9
		c0.7,0,1.1,0.1,1.4,0.2c0.5,0.2,0.7,0.5,0.7,0.9c0,0.6-0.4,0.8-1.2,0.8c-1.1,0-2.3-0.3-3.5-0.8c-0.7-0.4-1.4-0.9-1.9-1.6
		c-0.5-0.8-0.8-1.6-0.8-2.5c0-1.1,0.2-2.1,0.7-3C85.8,18.9,86.6,18.1,87.8,17.2z M91.2,19c0.6,0.1,1.1,0.3,1.5,0.6
		c0.4,0.3,0.7,0.7,0.7,1.1c0,0.2-0.1,0.3-0.2,0.4c-0.1,0.1-0.2,0.2-0.4,0.2c-0.3,0-0.5-0.1-0.6-0.4c-0.3-0.6-0.7-1.2-1.1-1.6
		c-0.1-0.1-0.2-0.2-0.2-0.2c0-0.1,0-0.1,0.1-0.1c0,0,0.1,0,0.1,0S91.2,19,91.2,19z M92.6,17.9c0.7,0.1,1.2,0.3,1.7,0.6
		c0.4,0.3,0.6,0.6,0.6,0.9c0,0.2-0.1,0.4-0.2,0.5c-0.1,0.1-0.2,0.2-0.4,0.2c-0.3,0-0.5-0.1-0.7-0.4c-0.3-0.5-0.7-1-1.2-1.4
		c-0.1-0.1-0.2-0.2-0.2-0.2c0-0.1,0-0.1,0.1-0.1c0,0,0.1,0,0.1,0C92.5,17.9,92.6,17.9,92.6,17.9z"/>
	<path class="st0" d="M96.5,25.1c-0.1-0.1-0.1-0.1-0.1-0.2c0-0.1,0.1-0.2,0.2-0.2c1.4,0.3,2.4,0.7,3.1,1.2c0.8,0.5,1.1,1.1,1.1,1.8
		c0,0.3-0.1,0.6-0.3,0.8c-0.2,0.2-0.4,0.3-0.8,0.3c-0.4,0-0.7-0.3-0.9-0.8C98.4,26.9,97.6,25.9,96.5,25.1z"/>
	<path class="st0" d="M111.5,20.5c-0.4,0.9-0.9,1.6-1.4,2.2c0,0,0.3,0.2,0.8,0.5h6.5c0.5-0.6,0.9-0.9,1-0.9s0.5,0.2,1,0.7
		c0.3,0.2,0.4,0.4,0.4,0.5c0,0.2-0.2,0.3-0.6,0.6v0.7l0.1,3.4c0,0.5-0.3,0.8-1,0.8c-0.5,0-0.7-0.2-0.7-0.6v-0.5h-6.8v0.5
		c0,0.5-0.4,0.7-1.1,0.7c-0.5,0-0.7-0.2-0.7-0.5l0-3v-1.6c-1,1-2.3,1.9-3.9,2.8c0,0,0,0,0,0c-0.1,0-0.1-0.1-0.1-0.2c0,0,0,0,0-0.1
		c2.2-1.6,3.7-3.6,4.7-5.9H108c-0.3,0-0.7,0-1.2,0.1l-0.2-0.7c0.5,0.1,0.9,0.1,1.3,0.1h2c0.3-0.8,0.6-1.7,0.8-2.6h-4.1
		c-0.3,0-0.7,0-1.2,0.1l-0.2-0.7c0.5,0.1,0.9,0.1,1.4,0.1h4.2c0.1-0.6,0.2-1.4,0.3-2.6h-2.4c-0.4,0-0.8,0-1.3,0.1l-0.2-0.7
		c0.5,0.1,1,0.2,1.4,0.2h7.9c0.5-0.5,0.8-0.8,0.9-0.8c0.1,0,0.4,0.2,1,0.6c0.3,0.2,0.4,0.4,0.4,0.5c0,0.1-0.2,0.3-0.5,0.5V17h0.5
		c0.6-0.7,0.9-1.1,1.1-1.1c0.1,0,0.5,0.3,1.1,0.8c0.3,0.3,0.5,0.5,0.5,0.6c0,0.1-0.1,0.2-0.2,0.2h-2.9c0,0.7,0,1.5,0,2.4
		c0,0.7,0,1,0,1.2c0,0.5-0.4,0.7-1.1,0.7c-0.4,0-0.7-0.2-0.7-0.6v-0.7H111.5z M117.6,27.4v-3.8h-6.8v3.8H117.6z M111.6,20.1h5.1
		v-2.6h-4.3C112.3,18.4,112,19.2,111.6,20.1z M112.5,17h4.2v-2.6h-3.9C112.8,15.5,112.7,16.4,112.5,17z"/>
	<path class="st0" d="M130.2,27.8v-5.3h-3.6c-0.3,0-0.7,0-1.2,0.1l-0.2-0.6c0.5,0.1,0.9,0.1,1.3,0.1h3.7v-4.5h-4.6
		c-0.3,0-0.7,0-1.2,0.1l-0.2-0.6c0.5,0.1,0.9,0.1,1.3,0.1h9.9c0.7-0.8,1.1-1.2,1.2-1.2c0.1,0,0.5,0.3,1.2,0.8
		c0.4,0.3,0.6,0.5,0.6,0.6c0,0.1-0.1,0.2-0.2,0.2h-6.3v4.5h2.6c0.6-0.8,1-1.2,1.2-1.2c0.1,0,0.5,0.3,1.2,0.9
		c0.3,0.3,0.5,0.5,0.5,0.6c0,0.1-0.1,0.2-0.2,0.2h-5.2v5.3h4.2c0.7-0.9,1.2-1.4,1.3-1.4c0.1,0,0.5,0.3,1.3,1
		c0.4,0.3,0.6,0.6,0.6,0.7c0,0.1-0.1,0.2-0.2,0.2h-14.3c-0.3,0-0.8,0-1.3,0.1l-0.2-0.7c0.5,0.1,1,0.1,1.4,0.1H130.2z M132.8,15.4
		c0,0.4-0.1,0.6-0.3,0.8c-0.2,0.2-0.4,0.3-0.6,0.3c-0.4,0-0.6-0.2-0.9-0.6c-0.6-1.1-1.4-1.9-2.5-2.5c0,0,0,0,0-0.1
		c0-0.1,0-0.2,0.1-0.2C131.3,13.5,132.8,14.3,132.8,15.4z"/>
	<path class="st0" d="M148.2,16.6c0.3-0.2,0.5-0.3,0.7-0.3c0.3,0,0.6,0.1,0.8,0.2c0.3,0.1,0.4,0.3,0.4,0.5c0,0.3-0.2,0.5-0.5,0.6
		c-0.6,0.2-1.5,0.5-2.9,0.9c-0.1,0.3-0.3,0.9-0.6,1.7c-0.3,0.9-0.5,1.4-0.6,1.7c-0.3,0.9-1,2.7-2,5.2c-0.2,0.6-0.6,0.9-1,0.9
		c-0.2,0-0.3-0.1-0.5-0.3c-0.1-0.1-0.2-0.3-0.2-0.6c0-0.2,0.2-0.6,0.5-1.2c1.3-2.5,2.3-4.9,3.2-7.1c-0.9,0.2-1.5,0.2-1.9,0.2
		c-0.4,0-0.8-0.1-1-0.2c-0.2-0.1-0.5-0.3-0.7-0.5c-0.3-0.3-0.5-0.6-0.5-0.9c0-0.1,0-0.2,0.1-0.2c0.1,0,0.2,0.1,0.3,0.2
		c0.5,0.3,0.9,0.5,1.5,0.5c0.7,0,1.6-0.1,2.7-0.4c0.4-1.2,0.6-2,0.6-2.3c0-0.3-0.1-0.5-0.4-0.6c-0.2-0.1-0.4-0.2-0.7-0.2
		c-0.1,0-0.2-0.1-0.2-0.1c0-0.1,0.1-0.2,0.3-0.3c0.3-0.1,0.5-0.2,0.8-0.2c0.3,0,0.6,0.1,1,0.2c0.3,0.1,0.6,0.3,0.9,0.5
		c0.2,0.2,0.3,0.3,0.3,0.5c0,0.2-0.1,0.4-0.3,0.5c-0.2,0.2-0.3,0.4-0.4,0.6c-0.1,0.2-0.2,0.5-0.4,1.1
		C147.5,17,147.9,16.8,148.2,16.6z M148.7,23.4l-0.1,0.4c-0.1,0.3-0.2,0.7-0.2,1.1c0,0.5,0.2,1,0.7,1.3c0.5,0.3,1.1,0.4,2,0.4
		c0.9,0,1.5,0,1.8-0.1c0.2-0.1,0.6-0.1,0.9-0.1c0.3,0,0.6,0.1,0.9,0.2c0.3,0.2,0.4,0.4,0.4,0.7c0,0.4-0.3,0.7-1,0.8
		c-0.3,0.1-1,0.1-2,0.1c-0.8,0-1.6-0.1-2.4-0.3c-0.7-0.2-1.3-0.6-1.7-1.1c-0.3-0.4-0.5-0.9-0.5-1.5c0-0.5,0.2-1.1,0.5-1.7
		c0.1-0.2,0.2-0.3,0.3-0.3C148.6,23.2,148.7,23.3,148.7,23.4z M151.6,20c-0.1,0-0.3,0-0.5,0c-0.2,0-0.4,0-0.7,0
		c-0.7,0.1-1.4,0.3-2,0.7c-0.1,0-0.1,0.1-0.2,0.1c-0.1,0-0.2-0.1-0.2-0.2c0-0.1,0-0.1,0.1-0.2c0.6-0.5,1.1-0.9,1.6-1.1
		c0.6-0.3,1.4-0.4,2.3-0.4c0.8,0,1.5,0.1,2,0.4c0.4,0.2,0.6,0.5,0.6,0.9c0,0.2-0.1,0.3-0.2,0.4c-0.1,0.1-0.3,0.1-0.4,0.1
		c-0.2,0-0.4,0-0.7-0.1c-0.2,0-0.4-0.1-0.7-0.1c-0.5,0-1.3,0.3-2.5,1c-0.1,0.1-0.2,0.1-0.3,0.1c0,0-0.1,0-0.1-0.1
		C149.9,21.4,150.4,21,151.6,20z"/>
	<path class="st0" d="M162.4,21.4c0,2.1,0,3.4,0,4c0,0.1,0,0.3,0,0.5l0,0.8c0,0.6-0.1,1.1-0.3,1.5c-0.2,0.3-0.4,0.5-0.6,0.5
		c-0.3,0-0.5-0.2-0.6-0.7c-0.1-0.5-0.2-0.9-0.3-1.2c-0.1-0.3-0.3-0.6-0.6-0.9c-0.1-0.1-0.2-0.2-0.3-0.4c-0.1-0.1-0.2-0.2-0.3-0.3
		c-0.1,0.1-0.3,0.3-0.4,0.6c-0.1,0.1-0.2,0.2-0.2,0.3c-0.2,0.2-0.4,0.3-0.6,0.3c0,0,0,0-0.1,0c-0.3,0-0.5-0.3-0.5-0.7
		c0-0.5,0.1-0.9,0.4-1.1l0.4-0.4c1.1-1.1,2.1-2.3,2.9-3.5c0-0.4,0-0.8,0.1-1.4c-1.1,0.5-1.7,0.8-1.7,0.9c-0.1,0.1-0.2,0.2-0.4,0.2
		c-0.2,0-0.3-0.1-0.5-0.3c-0.5-0.5-0.7-0.9-0.7-1.3c0-0.2,0-0.3,0.1-0.4c0-0.1,0.1-0.1,0.1-0.1c0.1,0,0.1,0.1,0.2,0.3
		c0.3,0.4,0.5,0.6,0.8,0.6c0.2,0,0.4-0.1,0.7-0.2c0.2-0.1,0.5-0.2,0.8-0.3c0.3-0.1,0.5-0.2,0.6-0.3c0-1.5,0.1-2.3,0.1-2.5
		c0-0.5-0.1-0.8-0.2-1c-0.1-0.2-0.4-0.3-0.8-0.4c-0.2-0.1-0.2-0.1-0.2-0.2c0-0.1,0.1-0.1,0.2-0.2c0.2-0.1,0.4-0.2,0.6-0.2
		c0.3,0,0.5,0.1,0.8,0.2c0.5,0.2,0.9,0.5,1.1,0.8c0.1,0.1,0.2,0.3,0.2,0.5c0,0.2-0.1,0.3-0.2,0.4c-0.1,0.1-0.2,0.3-0.2,0.5
		c-0.1,0.8-0.1,1.4-0.1,1.7c0.1,0,0.2-0.1,0.3-0.1c0.1,0,0.2,0.1,0.4,0.2c0.2,0.2,0.3,0.3,0.3,0.4c0,0.1-0.1,0.2-0.2,0.4
		c-0.5,0.6-0.7,1-0.8,1.2c0,0.1,0,0.3,0,0.5c0.8-0.9,1.7-1.7,2.6-2.5c0.4-0.4,0.9-0.7,1.4-1c0.5-0.2,0.9-0.3,1.2-0.3
		c0.7,0,1.2,0.2,1.5,0.6c0.3,0.3,0.4,0.8,0.4,1.3c0,0.4-0.1,1.3-0.3,2.9c-0.2,1.5-0.3,2.6-0.3,3.1c0,0.6,0.1,1,0.2,1.2
		c0.1,0.2,0.4,0.3,0.7,0.3c0.6,0,1.3-0.3,1.9-0.9c0.5-0.5,1-1.1,1.5-1.8c0.1-0.2,0.2-0.4,0.3-0.4c0.1,0,0.2,0.1,0.2,0.2
		c0,0.1,0,0.2-0.1,0.3c-0.4,1.2-0.9,2.1-1.5,2.7c-0.7,0.7-1.5,1.1-2.4,1.1c-1.4,0-2.2-0.8-2.2-2.5c0-0.8,0.1-2,0.2-3.6
		c0.1-1,0.1-1.9,0.1-2.7c0-0.5-0.1-0.8-0.2-1c-0.1-0.2-0.3-0.2-0.6-0.2c-0.5,0-1.1,0.4-1.9,1.2c-0.1,0.1-0.4,0.4-1,0.9
		C163.5,20.1,162.9,20.8,162.4,21.4z M159.7,24.8c0.4,0.3,0.8,0.5,1.2,0.7c0.1,0.1,0.2,0.1,0.3,0.1c0.1,0,0.2-0.1,0.2-0.3
		c0-1.3,0-2.2,0-2.8C161.1,22.8,160.6,23.5,159.7,24.8z"/>
</g>
</svg>
