<?xml version="1.0" encoding="utf-8"?>
<!-- Generator: Adobe Illustrator 25.0.1, SVG Export Plug-In . SVG Version: 6.00 Build 0)  -->
<svg version="1.1"
	 id="レイヤー_1" xmlns:cc="http://creativecommons.org/ns#" xmlns:dc="http://purl.org/dc/elements/1.1/" xmlns:inkscape="http://www.inkscape.org/namespaces/inkscape" xmlns:rdf="http://www.w3.org/1999/02/22-rdf-syntax-ns#" xmlns:sodipodi="http://sodipodi.sourceforge.net/DTD/sodipodi-0.dtd" xmlns:svg="http://www.w3.org/2000/svg"
	 xmlns="http://www.w3.org/2000/svg" xmlns:xlink="http://www.w3.org/1999/xlink" x="0px" y="0px" viewBox="0 0 108 15"
	 style="enable-background:new 0 0 108 15;" xml:space="preserve">
<style type="text/css">
	.st0{fill:#202253;}
</style>
<sodipodi:namedview  bordercolor="#666666" borderopacity="1" gridtolerance="10" guidetolerance="10" id="namedview27" inkscape:current-layer="レイヤー_1" inkscape:cx="28.003954" inkscape:cy="6.6675219" inkscape:pageopacity="0" inkscape:pageshadow="2" inkscape:window-height="480" inkscape:window-maximized="0" inkscape:window-width="719" inkscape:window-x="0" inkscape:window-y="0" inkscape:zoom="2.849537" objecttolerance="10" pagecolor="#ffffff" showgrid="false">
	</sodipodi:namedview>
<g>
	<path class="st0" d="M14.6,5.5l0.1-0.3c0.7,0.1,1.3,0.3,2,0.5c1,0.3,1.6,0.9,1.6,1.6c0,0.3-0.2,0.6-0.5,0.6c-0.5,0-0.8-0.6-1.5-1.2
		C15.7,6.2,15.2,5.8,14.6,5.5z M25.9,4.6l0.3,0.2c-1.6,3-4.9,5.8-8.2,7.6c-0.3,0.2-0.5,0.6-0.9,0.6c-0.5,0-1.5-0.6-1.8-1.2
		c-0.2-0.3-0.3-0.9-0.3-1.1l0.2-0.1c0.4,0.5,0.9,1,1.4,1C17.8,11.6,23.3,8.2,25.9,4.6z M16.6,2.6l0.1-0.3c0.5,0.1,1.2,0.3,1.9,0.6
		c1,0.4,1.6,0.9,1.6,1.6c0,0.3-0.2,0.6-0.5,0.6c-0.5,0-0.8-0.6-1.6-1.3C17.6,3.2,17,2.8,16.6,2.6z"/>
	<path class="st0" d="M29.1,2.9c0.3,0.4,0.6,0.9,1.1,0.9c0.9,0,3.8-0.5,4.5-0.7C35,3,35.2,2.6,35.5,2.6c0.5,0,1.6,0.9,1.6,1.3
		c0,0.3-0.5,0.5-0.7,0.8C35.9,5.5,35,6.8,33.9,8c2.4,1,4.8,2.6,4.8,4c0,0.3-0.2,0.7-0.6,0.7c-0.5,0-0.7-0.5-1.4-1.3
		c-0.9-1.1-1.8-2.1-3.1-2.9c-1.4,1.5-3.6,3.4-6.7,4.5l-0.2-0.3c3.5-1.8,7.1-5.4,8.5-8.5c0.1-0.2,0-0.3-0.2-0.2C34,4,32,4.5,31.2,4.7
		c-0.5,0.1-0.6,0.4-1,0.4c-0.5,0-1.1-0.7-1.3-1.1c-0.1-0.2-0.2-0.6-0.2-1L29.1,2.9z"/>
	<path class="st0" d="M40.8,5.3c0.3,0.4,0.6,0.8,1,0.8c1,0,5-0.6,7.5-0.8c1-0.1,1.3-0.3,1.5-0.3c0.7,0,1.6,0.4,1.6,0.9
		c0,0.3-0.1,0.5-0.5,0.5c-0.3,0-0.9-0.1-1.7-0.1c-0.7,0-1.8,0-3.1,0.2C47.6,6.5,48,6.8,48,7.1c0,0.3-0.4,0.4-0.6,0.9
		c-0.6,1.6-1.7,4.1-5.2,5.9l-0.3-0.3c3.5-2.3,4.4-5.7,4.4-6.6c0-0.2-0.1-0.4-0.2-0.6c-1.2,0.2-2.5,0.4-2.9,0.5
		c-0.5,0.1-0.9,0.3-1.3,0.3c-0.4,0-1.1-0.6-1.2-1.1c-0.1-0.2-0.1-0.5-0.1-0.8L40.8,5.3z M43,2.1c0.6,0.4,1,0.5,1.5,0.5
		c1,0,2-0.2,2.7-0.4c0.9-0.2,1.1-0.4,1.3-0.4c0.7,0,1.3,0.3,1.3,0.7c0,0.2-0.2,0.4-0.6,0.5c-1.2,0.2-3.4,0.6-4.7,0.6
		c-0.8,0-1.2-0.5-1.8-1.3L43,2.1z"/>
	<path class="st0" d="M60,7.3c1.9,1,3.8,3,3.8,4.7c0,0.5-0.3,0.8-0.7,0.8c-0.6,0-0.6-0.7-1.1-2c-2.2,0.5-5.8,1.1-7.1,1.4
		c-0.3,0.1-0.7,0.5-0.9,0.5c-0.5,0-1.2-0.8-1.3-1.3c0-0.2,0-0.4,0-0.6l0.2-0.1c0.3,0.3,0.6,0.4,0.9,0.4c0.1,0,0.4,0,0.8,0
		c1.1-2,3.1-6.5,3.1-7.3c0-0.3-0.3-0.6-0.8-1L57,2.5c0.3,0,0.7,0,1,0.1c0.7,0.2,1.4,0.9,1.4,1.3c0,0.3-0.4,0.4-0.6,0.8
		c-0.7,1.4-2.2,4.3-3.3,6.1c1.8-0.2,4.6-0.5,6.2-0.8c-0.5-0.9-1.1-1.8-2-2.6L60,7.3z"/>
	<path class="st0" d="M67.2,5.5v8.3c0,0.1-0.4,0.4-0.9,0.4H66V0.9l1.2,0.6h2.6l0.6-0.6l1.2,1C71.6,1.9,71.4,2,71.2,2v3.8
		c0,0.1-0.6,0.4-0.9,0.4H70V5.5H67.2z M67.2,1.9v1.4H70V1.9H67.2z M70,5.1V3.7h-2.9v1.4H70z M74.1,10.1v3.3c0,0.1-0.3,0.3-0.9,0.3
		H73v-3.6h-1.8c-0.2,1.3-0.8,2.7-2.8,3.7l-0.2-0.2c1.4-1,1.8-2.3,1.9-3.5h-1.9l-0.1-0.4h2.1c0-0.2,0-0.4,0-0.5V7.5h-1.6l-0.1-0.4
		h5.7l0.7-0.9c0,0,0.8,0.6,1.2,1.1c0,0.2-0.2,0.2-0.4,0.2h-1.6v2.1h0.4l0.7-0.9c0,0,0.7,0.6,1.2,1c0,0.2-0.2,0.2-0.4,0.2H74.1z
		 M73,9.6V7.5h-1.8v1.6c0,0.2,0,0.4,0,0.5H73z M78.8,1.8c-0.1,0.1-0.3,0.2-0.6,0.3v10.6c0,0.9-0.2,1.4-1.6,1.6
		c0-0.4-0.1-0.7-0.3-0.8c-0.2-0.2-0.5-0.3-1-0.4v-0.2c0,0,1.2,0.1,1.4,0.1c0.2,0,0.3-0.1,0.3-0.3v-7h-3v0.2c0,0.1-0.5,0.4-1,0.4
		h-0.2V0.9l1.2,0.5h2.8l0.6-0.7L78.8,1.8z M74.1,1.9v1.4h3V1.9H74.1z M77,5.1V3.7h-3v1.4H77z"/>
	<path class="st0" d="M93.3,12.7c0.4,0.1,0.5,0.3,0.5,0.5c0,0.5-0.5,0.7-2.7,0.7h-1.4c-1.2,0-1.5-0.3-1.5-1.2V9.5h-2.2
		c-0.2,1.8-1.3,3.6-5.2,4.7L80.7,14c2.9-1.3,3.8-2.9,4.1-4.5h-3.6L81,9.1h3.8c0-0.2,0-0.4,0-0.6v-2h-1.6l-0.1-0.3
		c-0.8,0.6-1.8,1-2.8,1.4l-0.2-0.2c2.4-1.3,4.3-3.3,5.2-5.5h-3.4l-0.1-0.4h3.6l0.8-0.7l1.2,1.1C87.3,2,87.1,2,86.8,2
		c-0.7,1.5-1.9,3-3.5,4.1h5.9l0.7-0.9c0,0,0.8,0.6,1.3,1.1c0,0.2-0.2,0.2-0.4,0.2h-1.3v0.2v2.3h1.7l0.8-1c0,0,0.9,0.7,1.4,1.2
		c0,0.2-0.2,0.2-0.4,0.2h-3.5v2.9c0,0.3,0,0.3,0.6,0.3h1.2c0.6,0,1,0,1.2,0c0.1,0,0.2-0.1,0.3-0.2c0.1-0.2,0.3-1,0.5-1.8h0.2
		L93.3,12.7z M81.4,2.6c3.3,0.5,2.4,2.8,1.2,2.1c-0.1-0.7-0.8-1.5-1.4-1.9L81.4,2.6z M88.2,9.1V6.5H86v2c0,0.2,0,0.4,0,0.6H88.2z
		 M94,3.1c-0.1,0.1-0.2,0.2-0.6,0.1c-0.6,0.4-1.5,0.9-2.4,1.3c1,0.7,2.1,1.2,3.3,1.6l0,0.2c-0.5,0.1-0.9,0.4-1.1,1
		c-2.7-1.3-4.7-3.5-5.6-6.7l0.2-0.2c0.3,0.9,0.8,1.7,1.4,2.4c0.6-0.6,1.4-1.5,1.7-2.1l1.4,0.8c-0.1,0.1-0.2,0.2-0.6,0.1
		c-0.6,0.4-1.5,1-2.3,1.4c0.4,0.4,0.8,0.8,1.3,1.2c0.7-0.6,1.5-1.5,1.9-2L94,3.1z"/>
</g>
</svg>
