<?xml version="1.0" encoding="utf-8"?>
<!-- Generator: Adobe Illustrator 25.2.1, SVG Export Plug-In . SVG Version: 6.00 Build 0)  -->
<svg version="1.1"
	 id="レイヤー_1" xmlns:cc="http://creativecommons.org/ns#" xmlns:dc="http://purl.org/dc/elements/1.1/" xmlns:inkscape="http://www.inkscape.org/namespaces/inkscape" xmlns:rdf="http://www.w3.org/1999/02/22-rdf-syntax-ns#" xmlns:sodipodi="http://sodipodi.sourceforge.net/DTD/sodipodi-0.dtd" xmlns:svg="http://www.w3.org/2000/svg"
	 xmlns="http://www.w3.org/2000/svg" xmlns:xlink="http://www.w3.org/1999/xlink" x="0px" y="0px" viewBox="0 0 105.7 15"
	 style="enable-background:new 0 0 105.7 15;" xml:space="preserve">
<style type="text/css">
	.st0{enable-background:new    ;}
	.st1{fill:#202253;}
	.st2{opacity:0.75;}
	.st3{fill:#543D2D;}
	.st4{fill:#FFFFFF;}
</style>
<sodipodi:namedview  bordercolor="#666666" borderopacity="1" gridtolerance="10" guidetolerance="10" id="namedview29" inkscape:current-layer="レイヤー_1" inkscape:cx="52.150082" inkscape:cy="13.254467" inkscape:pageopacity="0" inkscape:pageshadow="2" inkscape:window-height="480" inkscape:window-maximized="0" inkscape:window-width="712" inkscape:window-x="0" inkscape:window-y="0" inkscape:zoom="4.0298539" objecttolerance="10" pagecolor="#ffffff" showgrid="false">
	</sodipodi:namedview>
<g class="st0">
	<path class="st1" d="M22.8-30.9l-2.5,8.8h-1l-2-7.3l-2,7.3h-0.9l-2.5-8.8H13l1.9,7.1l1.9-7.1h1l1.9,7.1l2-7.1H22.8z"/>
	<path class="st1" d="M30.1-22.1h-5.7v-8.8h5.7v0.9h-4.7v2.6h4.5v0.9h-4.5v3.4h4.7V-22.1z"/>
	<path class="st1" d="M31.8-22.1v-8.8h2.6c0.4,0,0.7,0,1,0s0.6,0.1,0.9,0.2c0.3,0.1,0.5,0.2,0.8,0.4s0.4,0.4,0.5,0.6
		c0.1,0.2,0.1,0.4,0.1,0.7c0,0.8-0.4,1.4-1.2,1.8l0,0c0.6,0.1,1.1,0.4,1.4,0.8c0.3,0.4,0.5,0.9,0.5,1.5c0,0.8-0.3,1.5-0.9,2
		s-1.5,0.7-2.6,0.7h-3.1V-22.1z M32.9-30v2.7h1.6c0.8,0,1.3-0.1,1.6-0.4s0.5-0.6,0.5-1.1c0-0.4-0.1-0.6-0.4-0.9
		C35.9-30,35.3-30,34.4-30H32.9z M32.9-26.4v3.4h1.6c1.1,0,1.9-0.2,2.2-0.5c0.3-0.3,0.5-0.7,0.5-1.3c0-0.3-0.1-0.6-0.2-0.9
		s-0.3-0.4-0.6-0.5s-0.8-0.2-1.6-0.2H32.9z"/>
	<path class="st1" d="M47.6-21.9c-1.3,0-2.4-0.4-3.1-1.2c-0.7-0.8-1.1-1.9-1.1-3.4c0-1.4,0.4-2.5,1.1-3.4s1.8-1.2,3.1-1.2
		c0.9,0,1.9,0.3,2.9,0.8v1.3h-0.1c-0.9-0.8-1.9-1.2-2.9-1.2c-0.9,0-1.7,0.3-2.2,1c-0.5,0.7-0.8,1.5-0.8,2.7c0,1.1,0.3,2,0.8,2.7
		c0.5,0.7,1.3,1,2.2,1c0.5,0,1-0.1,1.4-0.2c0.4-0.1,0.9-0.5,1.5-0.9h0.1v1.3c-0.8,0.4-1.3,0.6-1.7,0.7C48.4-21.8,48-21.9,47.6-21.9z
		"/>
	<path class="st1" d="M59.2-22.1h-1.4l-2.9-3.6h-1.8v3.6H52v-8.8h2.5c1.2,0,2,0.2,2.5,0.7s0.8,1,0.8,1.7c0,1.2-0.6,2.1-1.8,2.6
		L59.2-22.1z M53.1-30v3.5h1.3c0.8,0,1.4-0.2,1.7-0.5c0.3-0.3,0.6-0.9,0.6-1.5c0-1-0.7-1.5-2.1-1.5H53.1z"/>
	<path class="st1" d="M66-22.1h-5.7v-8.8H66v0.9h-4.7v2.6h4.5v0.9h-4.5v3.4H66V-22.1z"/>
	<path class="st1" d="M73.4-22.1l-0.9-2.5h-3.8l-0.9,2.5h-1.1l3.3-8.8h1.4l3.3,8.8H73.4z M72.2-25.5l-1.6-4.4L69-25.5H72.2z"/>
	<path class="st1" d="M77.3-22.1V-30h-3.1v-0.9h7.4v0.9h-3.1v7.9H77.3z"/>
	<path class="st1" d="M88.4-22.1h-5.7v-8.8h5.7v0.9h-4.7v2.6h4.5v0.9h-4.5v3.4h4.7V-22.1z"/>
</g>
<text transform="matrix(0.8054 0 0 1 18.178 34.9367)" style="font-family:'EthnocentricRg-Regular'; font-size:17.15px; letter-spacing:1.2;">ESTATE</text>
<g>
	<g class="st2">
		<path class="st3" d="M27.3,11.5l-1.8,3h-8.9V2.9h10.7l-1.9,3h-6v1.4h7.3l-1.6,2.6h-5.7v1.6H27.3z"/>
		<path class="st3" d="M37.9,7.5c2.3,0,3.5,1,3.5,3.1c0,2.3-1.1,3.8-4,3.8h-8.6l1.8-3h7c0.7,0,1-0.2,1-0.8c0-0.6-0.3-0.8-1-0.8h-5
			c-2.4,0-3.5-1.3-3.5-3.3c0-2.2,1.2-3.6,4-3.6h8l-1.8,3h-6.4c-0.7,0-1,0.2-1,0.8s0.3,0.8,1,0.8H37.9z"/>
		<path class="st3" d="M54.3,2.9l-1.9,3h-3.3v8.5h-2.9V5.9H42l1.9-3H54.3z"/>
		<path class="st3" d="M57.2,14.4l1.7-3h2.3c0.6,0,1.2,0,1.6,0c-0.2-0.4-0.6-1.1-0.9-1.7l-1.7-3L56,14.4h-3.4L58.5,4
			c0.4-0.7,1-1.3,1.8-1.3c0.9,0,1.4,0.6,1.8,1.3L68,14.4H57.2z"/>
		<path class="st3" d="M78.5,2.9l-1.9,3h-3.3v8.5h-2.9V5.9h-4.3l1.9-3H78.5z"/>
		<path class="st3" d="M91.2,11.5l-1.8,3h-8.9V2.9h10.7l-1.9,3h-6v1.4h7.3L89,9.9h-5.7v1.6H91.2z"/>
	</g>
	<g>
		<g>
			<path class="st4" d="M26.3,10.5l-1.8,3h-8.9V1.9h10.7l-1.9,3h-6v1.4h7.3l-1.6,2.6h-5.7v1.6H26.3z"/>
			<path class="st4" d="M36.9,6.5c2.3,0,3.5,1,3.5,3.1c0,2.3-1.1,3.8-4,3.8h-8.6l1.8-3h7c0.7,0,1-0.2,1-0.8c0-0.6-0.3-0.8-1-0.8h-5
				c-2.4,0-3.5-1.3-3.5-3.3c0-2.2,1.2-3.6,4-3.6h8l-1.8,3h-6.4c-0.7,0-1,0.2-1,0.8s0.3,0.8,1,0.8H36.9z"/>
			<path class="st4" d="M53.3,1.9l-1.9,3h-3.3v8.5h-2.9V4.9H41l1.9-3H53.3z"/>
			<path class="st4" d="M56.2,13.4l1.7-3h2.3c0.6,0,1.2,0,1.6,0c-0.2-0.4-0.6-1.1-0.9-1.7l-1.7-3L55,13.4h-3.4L57.5,3
				c0.4-0.7,1-1.3,1.8-1.3c0.9,0,1.4,0.6,1.8,1.3L67,13.4H56.2z"/>
			<path class="st4" d="M77.5,1.9l-1.9,3h-3.3v8.5h-2.9V4.9h-4.3l1.9-3H77.5z"/>
			<path class="st4" d="M90.2,10.5l-1.8,3h-8.9V1.9h10.7l-1.9,3h-6v1.4h7.3L88,8.9h-5.7v1.6H90.2z"/>
		</g>
	</g>
</g>
</svg>
