<?xml version="1.0" encoding="utf-8"?>
<!-- Generator: Adobe Illustrator 25.2.1, SVG Export Plug-In . SVG Version: 6.00 Build 0)  -->
<svg version="1.1"
	 id="レイヤー_1" xmlns:cc="http://creativecommons.org/ns#" xmlns:dc="http://purl.org/dc/elements/1.1/" xmlns:inkscape="http://www.inkscape.org/namespaces/inkscape" xmlns:rdf="http://www.w3.org/1999/02/22-rdf-syntax-ns#" xmlns:sodipodi="http://sodipodi.sourceforge.net/DTD/sodipodi-0.dtd" xmlns:svg="http://www.w3.org/2000/svg"
	 xmlns="http://www.w3.org/2000/svg" xmlns:xlink="http://www.w3.org/1999/xlink" x="0px" y="0px" viewBox="0 0 108 15"
	 style="enable-background:new 0 0 108 15;" xml:space="preserve">
<style type="text/css">
	.st0{opacity:0.75;}
	.st1{fill:#543D2D;}
	.st2{fill:#FFFFFF;}
</style>
<sodipodi:namedview  bordercolor="#666666" borderopacity="1" gridtolerance="10" guidetolerance="10" id="namedview29" inkscape:current-layer="レイヤー_1" inkscape:cx="52.150082" inkscape:cy="13.254467" inkscape:pageopacity="0" inkscape:pageshadow="2" inkscape:window-height="480" inkscape:window-maximized="0" inkscape:window-width="712" inkscape:window-x="0" inkscape:window-y="0" inkscape:zoom="4.0298539" objecttolerance="10" pagecolor="#ffffff" showgrid="false">
	</sodipodi:namedview>
<g>
	<g class="st0">
		<path class="st1" d="M15.9,11.5l-1.9,3H5.9V2.9h2.9v8.5H15.9z"/>
		<path class="st1" d="M20.1,14.4h-2.9V2.9h2.9V14.4z"/>
		<path class="st1" d="M32.6,2.9l-1.9,3h-5.6v1.5h7l-1.7,2.8h-5.2v4.2h-2.9V2.9H32.6z"/>
		<path class="st1" d="M44.6,11.5l-1.8,3h-8.9V2.9h10.7l-1.9,3h-6v1.4h7.3l-1.6,2.6h-5.7v1.6H44.6z"/>
		<path class="st1" d="M59.2,11.5h-4.8v2.9h-2.8V8.5h8c0.9,0,1.4-0.5,1.4-1.3c0-0.8-0.5-1.3-1.4-1.3h-8l1.9-3h5.8
			c2.9,0,4.5,1.7,4.5,4.3C63.8,9.8,62.1,11.5,59.2,11.5z"/>
		<path class="st1" d="M75.6,11.5l-1.9,3h-8.2V2.9h2.9v8.5H75.6z"/>
		<path class="st1" d="M80.3,14.4l1.7-3h2.3c0.6,0,1.2,0,1.6,0c-0.2-0.4-0.6-1.1-0.9-1.7l-1.7-3l-4.3,7.6h-3.4L81.6,4
			c0.4-0.7,1-1.3,1.9-1.3c0.9,0,1.4,0.6,1.8,1.3l5.8,10.4H80.3z"/>
		<path class="st1" d="M100.7,14L95,7.7v6.7h-2.6V4.9c0-1.5,0.7-2.1,1.6-2.1c0.3,0,0.7,0.1,1.1,0.6l5.7,6.3V2.9h2.6v9.5
			c0,1.5-0.7,2.2-1.6,2.2C101.5,14.6,101.1,14.5,100.7,14z"/>
	</g>
	<g>
		<g>
			<path class="st2" d="M14.9,10.5l-1.9,3H4.9V1.9h2.9v8.5H14.9z"/>
			<path class="st2" d="M19.1,13.4h-2.9V1.9h2.9V13.4z"/>
			<path class="st2" d="M31.6,1.9l-1.9,3h-5.6v1.5h7l-1.7,2.8h-5.2v4.2h-2.9V1.9H31.6z"/>
			<path class="st2" d="M43.6,10.5l-1.8,3h-8.9V1.9h10.7l-1.9,3h-6v1.4h7.3l-1.6,2.6h-5.7v1.6H43.6z"/>
			<path class="st2" d="M58.2,10.5h-4.8v2.9h-2.8V7.5h8c0.9,0,1.4-0.5,1.4-1.3c0-0.8-0.5-1.3-1.4-1.3h-8l1.9-3h5.8
				c2.9,0,4.5,1.7,4.5,4.3C62.8,8.8,61.1,10.5,58.2,10.5z"/>
			<path class="st2" d="M74.6,10.5l-1.9,3h-8.2V1.9h2.9v8.5H74.6z"/>
			<path class="st2" d="M79.3,13.4l1.7-3h2.3c0.6,0,1.2,0,1.6,0c-0.2-0.4-0.6-1.1-0.9-1.7l-1.7-3l-4.3,7.6h-3.4L80.6,3
				c0.4-0.7,1-1.3,1.9-1.3c0.9,0,1.4,0.6,1.8,1.3l5.8,10.4H79.3z"/>
			<path class="st2" d="M99.7,13L94,6.7v6.7h-2.6V3.9c0-1.5,0.7-2.1,1.6-2.1c0.3,0,0.7,0.1,1.1,0.6l5.7,6.3V1.9h2.6v9.5
				c0,1.5-0.7,2.2-1.6,2.2C100.5,13.6,100.1,13.5,99.7,13z"/>
		</g>
	</g>
</g>
<sodipodi:namedview  bordercolor="#666666" borderopacity="1" gridtolerance="10" guidetolerance="10" id="namedview29" inkscape:current-layer="レイヤー_1" inkscape:cx="52.150082" inkscape:cy="13.254467" inkscape:pageopacity="0" inkscape:pageshadow="2" inkscape:window-height="480" inkscape:window-maximized="0" inkscape:window-width="712" inkscape:window-x="0" inkscape:window-y="0" inkscape:zoom="4.0298539" objecttolerance="10" pagecolor="#ffffff" showgrid="false">
	</sodipodi:namedview>
<text transform="matrix(0.8054 0 0 1 12.2636 43.1541)" style="font-family:'EthnocentricRg-Regular'; font-size:17.15px; letter-spacing:1.2;">LIFE PLAN</text>
</svg>
