<?xml version="1.0" encoding="utf-8"?>
<!-- Generator: Adobe Illustrator 25.0.1, SVG Export Plug-In . SVG Version: 6.00 Build 0)  -->
<svg version="1.1"
	 id="レイヤー_1" xmlns:cc="http://creativecommons.org/ns#" xmlns:dc="http://purl.org/dc/elements/1.1/" xmlns:inkscape="http://www.inkscape.org/namespaces/inkscape" xmlns:rdf="http://www.w3.org/1999/02/22-rdf-syntax-ns#" xmlns:sodipodi="http://sodipodi.sourceforge.net/DTD/sodipodi-0.dtd" xmlns:svg="http://www.w3.org/2000/svg"
	 xmlns="http://www.w3.org/2000/svg" xmlns:xlink="http://www.w3.org/1999/xlink" x="0px" y="0px" viewBox="0 0 108 15"
	 style="enable-background:new 0 0 108 15;" xml:space="preserve">
<style type="text/css">
	.st0{fill:#202253;}
</style>
<sodipodi:namedview  bordercolor="#666666" borderopacity="1" gridtolerance="10" guidetolerance="10" id="namedview27" inkscape:current-layer="レイヤー_1" inkscape:cx="28.003954" inkscape:cy="6.6675219" inkscape:pageopacity="0" inkscape:pageshadow="2" inkscape:window-height="480" inkscape:window-maximized="0" inkscape:window-width="719" inkscape:window-x="0" inkscape:window-y="0" inkscape:zoom="2.849537" objecttolerance="10" pagecolor="#ffffff" showgrid="false">
	</sodipodi:namedview>
<g>
	<path class="st0" d="M34.4,7.1c2.2,0.9,3,1.8,3,3.4c0,2-1.6,3.2-3.9,3.2c-1.3,0-2.5-0.4-3.2-0.9l0.1-2.3h0.8l0.4,2.1
		c0.5,0.3,1,0.4,1.7,0.4c1.6,0,2.7-0.7,2.7-2.1c0-1.1-0.6-1.6-2.1-2.2l-0.6-0.3c-1.7-0.7-2.9-1.7-2.9-3.3c0-1.9,1.6-3,3.7-3
		c1.1,0,2,0.3,2.7,0.9L36.9,5H36l-0.4-2c-0.4-0.2-0.8-0.3-1.3-0.3c-1.3,0-2.3,0.7-2.3,1.9c0,1.1,0.7,1.7,1.9,2.2L34.4,7.1z"/>
	<path class="st0" d="M47.4,10.4l-0.1,3h-8.5v-0.6l1.5-0.2c0-1.5,0-2.9,0-4.4V7.4c0-1.5,0-3,0-4.4l-1.5-0.2V2.2H47l0.1,2.9h-0.8
		L45.8,3h-3.9c0,1.4,0,2.9,0,4.4h2.5l0.2-1.6h0.7v3.9h-0.7L44.4,8h-2.5c0,1.6,0,3.1,0,4.6h4.3l0.4-2.2H47.4z"/>
	<path class="st0" d="M52.9,7.1c2.2,0.9,3,1.8,3,3.4c0,2-1.6,3.2-3.9,3.2c-1.3,0-2.5-0.4-3.2-0.9l0.1-2.3h0.8l0.4,2.1
		c0.5,0.3,1,0.4,1.7,0.4c1.6,0,2.7-0.7,2.7-2.1c0-1.1-0.6-1.6-2.1-2.2l-0.6-0.3C50.1,7.6,49,6.7,49,5c0-1.9,1.6-3,3.7-3
		c1.1,0,2,0.3,2.7,0.9L55.3,5h-0.9L54,3c-0.4-0.2-0.8-0.3-1.3-0.3c-1.3,0-2.3,0.7-2.3,1.9c0,1.1,0.7,1.7,1.9,2.2L52.9,7.1z"/>
	<path class="st0" d="M70,8.5c0,0,0.8,0.7,1.3,1.2c0,0.2-0.2,0.2-0.4,0.2H69v2.3c0,0.1-0.6,0.4-1,0.4h-0.2v-0.8h-3.1V13
		c0,0.9-0.2,1.5-1.9,1.6c-0.1-0.4-0.2-0.6-0.4-0.8c-0.3-0.2-0.7-0.3-1.5-0.4v-0.2c0,0,1.9,0.1,2.3,0.1c0.3,0,0.4-0.1,0.4-0.3v-1.2
		H59l-0.1-0.4h4.7V9.9h-6.2l-0.1-0.4h6.3V8.1h-4.4l-0.1-0.4h4.6V6.2h-3v0.4c0,0.1-0.5,0.4-1,0.4h-0.2V3.3l1.3,0.5h2.9V2.6h-6.2
		l-0.1-0.5h6.3V0.6l1.8,0.2c0,0.2-0.2,0.4-0.5,0.4v1h4l0.8-1c0,0,1,0.7,1.5,1.2c0,0.2-0.2,0.2-0.4,0.2h-6v1.2h2.9l0.6-0.7l1.4,1
		c-0.1,0.1-0.3,0.2-0.6,0.3v1.9c0,0.1-0.6,0.3-1,0.3h-0.2V6.2h-3.1v1.4h2.9L68.3,7l1.3,1c-0.1,0.1-0.3,0.2-0.6,0.3v1.2h0.3L70,8.5z
		 M63.5,5.8V4.3h-3v1.5H63.5z M64.7,4.3v1.5h3.1V4.3H64.7z M64.7,9.5h3.1V8.1h-3.1V9.5z M67.8,9.9h-3.1v1.4h3.1V9.9z"/>
	<path class="st0" d="M80.4,10.2c1.4,1.4,3.9,2.5,5.9,3l0,0.2c-0.4,0.1-0.8,0.4-1,1c-2.1-0.8-4.2-2.2-5.4-4.1h-0.1v4.1
		c0,0.1-0.4,0.3-1,0.3h-0.2v-3.8c-1.5,1.5-3.7,2.7-6.2,3.5L72.4,14c2.1-1,4-2.4,5.2-3.9h-4.8l-0.1-0.4h6V8.2h-4.4l-0.1-0.4h4.5V6.4
		h-5.1L73.4,6h3.8l-0.1-0.1c-0.1-0.7-0.5-1.5-1-2h-3.5l-0.1-0.4h5V0.6l1.6,0.2c0,0.2-0.2,0.3-0.5,0.4v2.4h1.4V0.6l1.6,0.2
		c0,0.2-0.1,0.3-0.5,0.4v2.3h0.5c0.5-0.7,1.1-1.8,1.4-2.6l1.6,0.6c-0.1,0.2-0.3,0.3-0.6,0.2c-0.5,0.5-1.3,1.3-2,1.8h2l0.7-0.9
		c0,0,0.9,0.6,1.4,1.1c0,0.2-0.2,0.2-0.4,0.2h-3.7L83,4.2c-0.1,0.2-0.3,0.3-0.6,0.3c-0.4,0.5-1,1-1.6,1.5h2.5l0.8-0.9
		c0,0,0.8,0.6,1.4,1.1c0,0.2-0.2,0.2-0.4,0.2h-5.1v1.4h2.7l0.7-0.9c0,0,0.8,0.6,1.3,1.1c0,0.2-0.2,0.2-0.4,0.2h-4.3v1.5h4l0.8-0.9
		c0,0,0.9,0.7,1.4,1.1c0,0.2-0.2,0.2-0.4,0.2H80.4z M74.4,1c3.1,0.9,2.2,3.1,1.1,2.3c-0.1-0.8-0.7-1.7-1.3-2.2L74.4,1z M76.7,3.9
		c1.5,0.7,1.6,1.7,1.2,2h2.4c0.4-0.6,0.8-1.4,1-2H76.7z"/>
</g>
</svg>
