<?xml version="1.0" encoding="utf-8"?>
<!-- Generator: Adobe Illustrator 25.2.1, SVG Export Plug-In . SVG Version: 6.00 Build 0)  -->
<svg version="1.1"
	 id="レイヤー_1" xmlns:cc="http://creativecommons.org/ns#" xmlns:dc="http://purl.org/dc/elements/1.1/" xmlns:inkscape="http://www.inkscape.org/namespaces/inkscape" xmlns:rdf="http://www.w3.org/1999/02/22-rdf-syntax-ns#" xmlns:sodipodi="http://sodipodi.sourceforge.net/DTD/sodipodi-0.dtd" xmlns:svg="http://www.w3.org/2000/svg"
	 xmlns="http://www.w3.org/2000/svg" xmlns:xlink="http://www.w3.org/1999/xlink" x="0px" y="0px" viewBox="0 0 108 15"
	 style="enable-background:new 0 0 108 15;" xml:space="preserve">
<style type="text/css">
	.st0{opacity:0.75;}
	.st1{fill:#543D2D;}
	.st2{fill:#FFFFFF;}
</style>
<sodipodi:namedview  bordercolor="#666666" borderopacity="1" gridtolerance="10" guidetolerance="10" id="namedview27" inkscape:current-layer="レイヤー_1" inkscape:cx="28.003954" inkscape:cy="6.6675219" inkscape:pageopacity="0" inkscape:pageshadow="2" inkscape:window-height="480" inkscape:window-maximized="0" inkscape:window-width="719" inkscape:window-x="0" inkscape:window-y="0" inkscape:zoom="2.849537" objecttolerance="10" pagecolor="#ffffff" showgrid="false">
	</sodipodi:namedview>
<g>
	<g class="st0">
		<path class="st1" d="M17.8,7.4c2.1,0,3.2,1,3.2,3.1c0,2.3-1.1,3.8-3.6,3.8H9.5l1.7-3h6.4c0.6,0,0.9-0.2,0.9-0.8
			c0-0.6-0.3-0.8-0.9-0.8H13c-2.2,0-3.2-1.3-3.2-3.3c0-2.2,1.1-3.6,3.6-3.6h7.4l-1.7,3h-5.9c-0.6,0-0.9,0.2-0.9,0.8s0.3,0.8,0.9,0.8
			H17.8z"/>
		<path class="st1" d="M32.9,2.8l-1.7,3h-3v8.5h-2.6V5.8h-4l1.7-3H32.9z"/>
		<path class="st1" d="M35.6,14.3l1.6-3h2.1c0.5,0,1.1,0,1.5,0c-0.2-0.4-0.6-1.1-0.9-1.7l-1.5-3l-4,7.6h-3.1l5.4-10.4
			c0.4-0.7,0.9-1.3,1.7-1.3c0.8,0,1.3,0.6,1.7,1.3l5.3,10.4H35.6z"/>
		<path class="st1" d="M56.8,2.8l-1.7,3h-5.2v1.5h6.4l-1.6,2.8h-4.8v4.2h-2.6V2.8H56.8z"/>
		<path class="st1" d="M68.1,2.8l-1.7,3h-5.2v1.5h6.4L66,10.1h-4.8v4.2h-2.6V2.8H68.1z"/>
		<path class="st1" d="M72.6,14.3H70V2.8h2.6V14.3z"/>
		<path class="st1" d="M82.7,13.8l-5.2-6.3v6.7h-2.4V4.7c0-1.5,0.7-2.1,1.4-2.1c0.3,0,0.6,0.1,1.1,0.6l5.2,6.3V2.8h2.4v9.5
			c0,1.5-0.7,2.2-1.4,2.2C83.4,14.5,83.1,14.4,82.7,13.8z"/>
		<path class="st1" d="M92.9,7.1h5.4v7.2h-5.8c-2.9,0-5.1-2.5-5.1-5.8c0-3.4,2.2-5.6,5.1-5.6h6.1l-1.7,3h-4.4
			c-1.4,0-2.5,1.2-2.5,2.8c0,1.7,1,2.7,2.5,2.7h3.2V9.7h-4.4L92.9,7.1z"/>
	</g>
	<g>
		<g>
			<path class="st2" d="M16.8,6.4c2.1,0,3.2,1,3.2,3.1c0,2.3-1.1,3.8-3.6,3.8H8.5l1.7-3h6.4c0.6,0,0.9-0.2,0.9-0.8
				c0-0.6-0.3-0.8-0.9-0.8H12c-2.2,0-3.2-1.3-3.2-3.3c0-2.2,1.1-3.6,3.6-3.6h7.4l-1.7,3h-5.9c-0.6,0-0.9,0.2-0.9,0.8
				s0.3,0.8,0.9,0.8H16.8z"/>
			<path class="st2" d="M31.9,1.8l-1.7,3h-3v8.5h-2.6V4.8h-4l1.7-3H31.9z"/>
			<path class="st2" d="M34.6,13.3l1.6-3h2.1c0.5,0,1.1,0,1.5,0c-0.2-0.4-0.6-1.1-0.9-1.7l-1.5-3l-4,7.6h-3.1l5.4-10.4
				c0.4-0.7,0.9-1.3,1.7-1.3c0.8,0,1.3,0.6,1.7,1.3l5.3,10.4H34.6z"/>
			<path class="st2" d="M55.8,1.8l-1.7,3h-5.2v1.5h6.4l-1.6,2.8h-4.8v4.2h-2.6V1.8H55.8z"/>
			<path class="st2" d="M67.1,1.8l-1.7,3h-5.2v1.5h6.4L65,9.1h-4.8v4.2h-2.6V1.8H67.1z"/>
			<path class="st2" d="M71.6,13.3H69V1.8h2.6V13.3z"/>
			<path class="st2" d="M81.7,12.8l-5.2-6.3v6.7h-2.4V3.7c0-1.5,0.7-2.1,1.4-2.1c0.3,0,0.6,0.1,1.1,0.6l5.2,6.3V1.8h2.4v9.5
				c0,1.5-0.7,2.2-1.4,2.2C82.4,13.5,82.1,13.4,81.7,12.8z"/>
			<path class="st2" d="M91.9,6.1h5.4v7.2h-5.8c-2.9,0-5.1-2.5-5.1-5.8c0-3.4,2.2-5.6,5.1-5.6h6.1l-1.7,3h-4.4
				c-1.4,0-2.5,1.2-2.5,2.8c0,1.7,1,2.7,2.5,2.7h3.2V8.7h-4.4L91.9,6.1z"/>
		</g>
	</g>
</g>
<sodipodi:namedview  bordercolor="#666666" borderopacity="1" gridtolerance="10" guidetolerance="10" id="namedview27" inkscape:current-layer="レイヤー_1" inkscape:cx="28.003954" inkscape:cy="6.6675219" inkscape:pageopacity="0" inkscape:pageshadow="2" inkscape:window-height="480" inkscape:window-maximized="0" inkscape:window-width="719" inkscape:window-x="0" inkscape:window-y="0" inkscape:zoom="2.849537" objecttolerance="10" pagecolor="#ffffff" showgrid="false">
	</sodipodi:namedview>
<text transform="matrix(0.8054 0 0 1 39.4685 38.7521)" style="font-family:'EthnocentricRg-Regular'; font-size:17.15px; letter-spacing:1.2;">STAFFING</text>
</svg>
