<?xml version="1.0" encoding="utf-8"?>
<!-- Generator: Adobe Illustrator 25.0.1, SVG Export Plug-In . SVG Version: 6.00 Build 0)  -->
<svg version="1.1"
	 id="レイヤー_1" xmlns:cc="http://creativecommons.org/ns#" xmlns:dc="http://purl.org/dc/elements/1.1/" xmlns:inkscape="http://www.inkscape.org/namespaces/inkscape" xmlns:rdf="http://www.w3.org/1999/02/22-rdf-syntax-ns#" xmlns:sodipodi="http://sodipodi.sourceforge.net/DTD/sodipodi-0.dtd" xmlns:svg="http://www.w3.org/2000/svg"
	 xmlns="http://www.w3.org/2000/svg" xmlns:xlink="http://www.w3.org/1999/xlink" x="0px" y="0px" viewBox="0 0 108 15"
	 style="enable-background:new 0 0 108 15;" xml:space="preserve">
<style type="text/css">
	.st0{fill:#202253;}
</style>
<sodipodi:namedview  bordercolor="#666666" borderopacity="1" gridtolerance="10" guidetolerance="10" id="namedview27" inkscape:current-layer="レイヤー_1" inkscape:cx="28.003954" inkscape:cy="6.6675219" inkscape:pageopacity="0" inkscape:pageshadow="2" inkscape:window-height="480" inkscape:window-maximized="0" inkscape:window-width="719" inkscape:window-x="0" inkscape:window-y="0" inkscape:zoom="2.849537" objecttolerance="10" pagecolor="#ffffff" showgrid="false">
	</sodipodi:namedview>
<g>
	<path class="st0" d="M37.6,2.8L36.2,3l-2.8,10.3h-0.7l-2.8-8.7l-2.7,8.7h-0.7l-3-10.4l-1.3-0.2V2.2h4.4v0.6L25.1,3l2.1,7.9L29.7,3
		l-1.6-0.2V2.2h4.4v0.6L30.8,3l2.5,7.9L35.4,3l-1.5-0.2V2.2h3.7V2.8z"/>
	<path class="st0" d="M47.1,10.3L47,13.2h-8.5v-0.6l1.5-0.2c0-1.4,0-2.9,0-4.4V7.3c0-1.5,0-2.9,0-4.4l-1.5-0.2V2.2h8.1l0.1,2.9H46
		l-0.4-2.2h-3.9c0,1.4,0,2.9,0,4.3h2.5l0.2-1.6H45v3.9h-0.7l-0.2-1.6h-2.5c0,1.6,0,3.1,0,4.5h4.2l0.4-2.2H47.1z"/>
	<path class="st0" d="M53.1,2.2c2.3,0,3.6,1.1,3.6,2.7c0,1.1-0.8,2.2-2.6,2.6c2.2,0.3,3.2,1.4,3.2,2.7c0,1.5-1.2,3-4.4,3h-4.5v-0.6
		l1.5-0.2c0-1.5,0-2.9,0-4.4V7.3c0-1.5,0-2.9,0-4.3l-1.5-0.2V2.2H53.1z M51.5,2.9c0,1.4,0,2.9,0,4.3h0.9c2,0,2.9-0.7,2.9-2.2
		c0-1.5-0.8-2.1-2.6-2.1H51.5z M52.6,12.5c2.1,0,3.1-0.8,3.1-2.3c0-1.6-1-2.4-3.3-2.4h-0.9c0,1.7,0,3.2,0,4.7H52.6z"/>
	<path class="st0" d="M66,4.7c0,0,0.8,0.7,1.4,1.1C67.4,6,67.2,6,67,6h-3.6v1.8h1.7l0.6-0.7l1.4,1c-0.1,0.1-0.3,0.3-0.6,0.3v3.4
		c0,0.9-0.1,1.4-1.4,1.5c0-0.3-0.1-0.6-0.2-0.8c-0.1-0.1-0.3-0.3-0.7-0.3v-0.2c0,0,0.7,0.1,0.9,0.1c0.2,0,0.2-0.1,0.2-0.2V8.2h-1.9
		V14c0,0.2-0.5,0.4-0.9,0.4h-0.2V8.2h-1.8V13c0,0.1-0.5,0.4-0.9,0.4h-0.2V7.3l1.2,0.5h1.8V6h-3.7l-0.1-0.4h3.8v-2h-1.9
		c-0.4,0.6-0.9,1.2-1.4,1.6l-0.2-0.1c0.5-1,1.1-2.5,1.4-4l1.6,0.5c-0.1,0.2-0.2,0.3-0.6,0.3c-0.2,0.4-0.4,0.9-0.6,1.3h1.7V0.7
		l1.7,0.2c0,0.2-0.2,0.4-0.6,0.4v1.9h1.5l0.7-0.9c0,0,0.8,0.7,1.3,1.2c0,0.1-0.2,0.2-0.4,0.2h-3.2v2h1.9L66,4.7z M69,10.9
		c0,0.1-0.5,0.4-0.9,0.4h-0.2V1.8L69.5,2c0,0.2-0.2,0.3-0.5,0.4V10.9z M72.3,1c0,0.2-0.2,0.4-0.5,0.4v11.4c0,0.9-0.2,1.4-1.7,1.6
		c0-0.4-0.1-0.6-0.3-0.8c-0.2-0.2-0.5-0.3-1.2-0.4v-0.2c0,0,1.4,0.1,1.7,0.1c0.3,0,0.3-0.1,0.3-0.3V0.9L72.3,1z"/>
	<path class="st0" d="M78.9,1.2c-0.1,0.2-0.3,0.3-0.6,0.3c-0.5,1.2-1,2.3-1.7,3.3l0.7,0.3c0,0.1-0.2,0.2-0.5,0.3V14
		c0,0.1-0.5,0.4-1,0.4h-0.2V6.2c-0.6,0.8-1.3,1.6-2,2.2l-0.2-0.1c1.4-1.8,2.9-4.8,3.7-7.7L78.9,1.2z M82.8,4.1v2.7h2l0.8-1
		c0,0,0.8,0.7,1.4,1.2c0,0.2-0.2,0.2-0.4,0.2h-3.7V10h2.1l0.8-1c0,0,0.9,0.7,1.5,1.2c0,0.2-0.2,0.2-0.4,0.2h-4V14
		c0,0.1-0.4,0.4-1,0.4h-0.2V4.1h-0.9c-0.9,1.4-1.9,2.6-2.9,3.5l-0.2-0.1c1.2-1.6,2.5-4.2,3.3-6.8l1.8,0.6c-0.1,0.2-0.3,0.3-0.6,0.3
		c-0.3,0.8-0.7,1.5-1.1,2.1h4.4l0.8-1c0,0,0.9,0.7,1.5,1.2c0,0.2-0.2,0.2-0.4,0.2H82.8z"/>
</g>
</svg>
